<svg xmlns="http://www.w3.org/2000/svg" viewBox="0 0 205.36 200.18"><defs><style>.cls-1{fill:#245e3f;}</style></defs><title>18-de-fevereiro</title><g id="Camada_2" data-name="Camada 2"><g id="Camada_1-2" data-name="Camada 1"><path class="cls-1" d="M84.58,94.88a8,8,0,0,0,3.33-4.74,2.64,2.64,0,0,0,0-1.5c-.45-1.12-.66-2.16.7-2.92.56-.31.47-1.11.63-1.7,1.11-4.16,2.12-8.36,4.13-12.21,1-1.91,2.51-2.25,4.2-1.13.84.55,1.06,1,.47,2.06-2.43,4.16-3.44,8.84-4.55,13.47,1.19,1.6,2.35,3.22,3.62,4.75.11.14,1.06-.27,1.5-.59A9.73,9.73,0,0,0,102,86.26a49.27,49.27,0,0,0,2.06-6c-.72-.3-1.53.25-2.14-.3a2.34,2.34,0,0,1-.67-2c0-.7.58-1,1.16-1,2.23-.31,3.34-1.57,3.87-3.76A29.15,29.15,0,0,1,108.38,68c.81-1.76,2.71-2,4.15-.63.55.53.34,1,.12,1.51-.66,1.63-1.27,3.27-1.89,4.92a2.79,2.79,0,0,0,0,.67c1.15-.36,2.21-.69,3.27-1s1.24.16,1,1A2.77,2.77,0,0,1,113,76.7c-2.93.63-4.24,2.48-4.54,5.4-.25,2.35-1,4.64-.94,7a7.68,7.68,0,0,0,.15,1.52c.36,1.45.92,1.63,2.11.69,2.84-2.24,4.52-5.32,6.15-8.44.33-.63.36-1.79,1.56-1.19,1,.51.78,1.31.38,2.16a46.32,46.32,0,0,1-6,9.87,13,13,0,0,1-3.4,3c-2.53,1.51-4.9.56-5.48-2.36-.27-1.36-.31-2.78-.47-4.36-1.48,1.47-2.69,3.07-4.53,4-.53.26-.17,1-.13,1.59a24.47,24.47,0,0,1-3,14.07,9,9,0,0,1-2.66,3c-2.94,2.05-5.66.88-6.1-2.67a37.46,37.46,0,0,1,.08-8.79c.16-1.4.3-2.79.47-4.41-2.16,1.39-4.38,2.2-5.2,4.84a9.19,9.19,0,0,1-3.23,4.09c-3,2.5-7.28,3.49-9.76-1.74-1,1.45-1.91,2.93-3,4.24-1.58,1.91-3.25,3.85-6,4-3.8.25-6-2-7.87-4.94-.73-1.17-1.46-2.36-.69-3.79.39-.72.74-1.19,1.36-.09a17.36,17.36,0,0,0,3,4.11c.79.75,1.63,1.47,2.85,1s1.35-1.6,1.36-2.68A42.11,42.11,0,0,0,58,96.56l-2.33,5.06c-.32.71-.48,1.62-1.63,1.17s-.71-1.27-.39-2.06a90.33,90.33,0,0,0,3.79-10.19,1.76,1.76,0,0,1,1.86-1.4c2.54-.08,3.8,1.21,3.57,3.62a16.46,16.46,0,0,0,.35,4.9c.46,2.25,1,4.49,1.58,7,1.51-2.31,3.16-4.24,3.52-6.89a21.15,21.15,0,0,1,3.13-8.2c1.48-2.42,3.8-3.88,6.14-5.16,2.85-1.57,6.14.82,6.68,4.59a20.45,20.45,0,0,1-.07,5.58V95Zm6.35,13.21c.24.82.63,1,1.34.24a3.89,3.89,0,0,0,.87-1.23c1.58-3.86,1.69-7.91,1.39-12-.09-1.21-1.35-1.12-2.09-1.34s-.52.77-.62,1.22a66.37,66.37,0,0,0-1.1,8.9A15.88,15.88,0,0,0,90.93,108.09ZM74.61,92.86a14.57,14.57,0,0,0-.93,8.35c.31,1.6,1.32,2,2.75,1.34a7.16,7.16,0,0,0,3-3.55c.14-.27.17-.52-.17-.69A9.63,9.63,0,0,1,74.61,92.86Zm1.76-1.73a7,7,0,0,0,3.44,3.81c.5.26.93.41,1.08-.41a10.62,10.62,0,0,0,0-5.34c-.53-1.56-1.58-2.2-2.93-1.76A2.82,2.82,0,0,0,76.37,91.13Z"/><path class="cls-1" d="M101.67,118.6c1.08-1.79,1.86-3.77,3.29-5.33,1.25-1.35,2.6-2.63,4.68-2s2.6,2.31,2.9,4.08c.69,4-.32,7.76-1.86,11.4a19.31,19.31,0,0,1-4.82,7.12c-2.8,2.46-4.94,2.34-7.53-.6a41.88,41.88,0,0,0-.55,11.07c.2,1.58-.44,1.79-1.67,1.63-2.11-.26-3.4-1.78-3.45-4.14a41.17,41.17,0,0,1,.57-7.26c.16-1,.29-2,.47-3.26-1.92,1-3.63,1.54-4.45,3.69a11.6,11.6,0,0,1-5.33,6c-3.53,1.95-6.91.72-8-3.17-1.26-4.53.1-8.69,2-12.77,1.44-3,4.09-4.78,6.74-6.46,2.27-1.44,5-.19,6.23,2.51.91,2,1,3.8.57,7.85a6.23,6.23,0,0,0,3.63-4.37,84.39,84.39,0,0,1,2.82-10c.47-1.3,1.21-2,2.67-1.72,1.72.3,2.05.83,1.47,2.48a12.29,12.29,0,0,0-.89,3.09l-.12.4c0,.13-.09.35,0,.39.22.16.34,0,.43-.2Zm6-2.63c-.17-.66-.36-1.1-.78-1.12-.63,0-1,.53-1.3,1a41.74,41.74,0,0,0-6.19,13.89c-.19.77-.35,1.63.54,2.12s1.64,0,2.28-.59a6.46,6.46,0,0,0,1-1.16,29.46,29.46,0,0,0,4.46-12A13.29,13.29,0,0,0,107.7,116ZM81.94,126.84c-1,3.19-1.57,5.94-.7,8.81a1.52,1.52,0,0,0,2.34,1.08c1.67-.73,2.47-2.22,3.25-3.72.31-.58-.22-.61-.51-.78A10.09,10.09,0,0,1,81.94,126.84Zm6.34-3.55a2.34,2.34,0,0,0-2.79-1.84,2.83,2.83,0,0,0-2,2.94,7.08,7.08,0,0,0,3.82,4.69c.54.29.82.16,1-.45A11.21,11.21,0,0,0,88.28,123.29Z"/><path class="cls-1" d="M144.71,105.43a80.06,80.06,0,0,0-7.81,17.84c-.48,1.7-1.71,2.08-3.22.93-1.16-.88-1.44-2.24-1.92-3.67-1,1.31-1.77,2.58-2.76,3.7-2.18,2.49-4.56,4.72-8.13,5a5.12,5.12,0,0,1-5.73-3.73c-2-5.65,1.54-15.37,6.67-18.54a5,5,0,0,1,5.46-.13c1.86,1.11,2.34,2.88,2.09,5-.43,3.64-4.6,8.77-8.49,8.81-.74,0-.92.37-.84,1.11.31,2.7,2,3.66,4.41,2.2a18.57,18.57,0,0,0,8.13-11.06c.82-2.88,1.27-5.86,2.45-8.64a1.9,1.9,0,0,1,2.83-1.21c1.33.55,1.92,1.23,1.28,2.83a45.1,45.1,0,0,0-2.17,8.69c1-.48,1.08-1.33,1.37-2a80.42,80.42,0,0,1,4.72-9.42,16,16,0,0,1,1.76-2.49,3.83,3.83,0,0,1,5.78.45,2,2,0,0,1,0,1.93,32.31,32.31,0,0,0-1.7,7.77,14.46,14.46,0,0,0-.09,2.37c.05.65-.11,1.62.59,1.82s1-.7,1.4-1.24a51.3,51.3,0,0,0,3.49-6.8c.25-.53.35-1.33,1.26-1a1.2,1.2,0,0,1,.78,1.76c-1.57,3.76-3,7.6-5.62,10.81-1.14,1.41-2.39,3.16-4.61,2.39s-2.39-2.8-2.49-4.77a36.47,36.47,0,0,1,1.5-10.53c0-.19.26-.41,0-.54S144.8,105.27,144.71,105.43Zm-24.62,13.21a2.55,2.55,0,0,0,2-1,12.57,12.57,0,0,0,3.16-7.87c0-.5.06-1.11-.53-1.3s-.94.36-1.22.75A20,20,0,0,0,120.09,118.64Z"/><path class="cls-1" d="M102.63,175.16a71.93,71.93,0,1,1,71.93-71.93A72,72,0,0,1,102.63,175.16Zm0-141.86a69.93,69.93,0,1,0,69.93,69.93A70,70,0,0,0,102.63,33.3Z"/><path class="cls-1" d="M37.88,165.35l4.22,4.14,1.7-.77,1.56,1.53-14.55,6.87-.49-.48L37,162l1.61,1.57Zm2,5.12-3-2.95-2.77,5.8Z"/><path class="cls-1" d="M28.45,155.55l.75,1.08,2.31-1.6L32.84,157l-12.12,8.36-2.07-3c-2.43-3.51-1.47-6.51,1.38-8.48S26,152,28.45,155.55Zm-7.81,5.61.66,1,6-4.16-.65-.94c-1.44-2.09-3.09-2.65-5.25-1.17S19.21,159.08,20.64,161.16Z"/><path class="cls-1" d="M21.5,141.61l2.7,5.26,1.85-.2,1,1.94-16,1.94-.32-.62,10.91-11.77,1,2Zm.32,5.51-1.93-3.76L15.44,148Z"/><path class="cls-1" d="M15.62,131.2l2.5-3.16,1,2.76-2.14,2.48c.1.22.17.44.26.69l.43,1.25,2.66-.92.76,2.2-13.9,4.82L6,137.87c-1.39-4,.33-6.66,3.6-7.8C11.88,129.26,14,129.55,15.62,131.2Zm-7.44,6.1.38,1.08L15.47,136l-.38-1.09c-.82-2.39-2.27-3.38-4.74-2.52S7.36,134.91,8.18,137.3Z"/><path class="cls-1" d="M5.15,128.08,3,128.52,1.23,120l2.15-.44L4,122.69l12.27-2.55.48,2.29L4.51,125Z"/><path class="cls-1" d="M15.42,114.73.8,116.44l-.27-2.32,14.61-1.71Z"/><path class="cls-1" d="M11.26,102.77l3.36-2.22.05,2.92-2.81,1.7c0,.23,0,.47,0,.73l0,1.32,2.81,0,0,2.34-14.71.25L0,106.1c-.07-4.26,2.38-6.22,5.84-6.28C8.31,99.77,10.27,100.71,11.26,102.77Zm-9,3.49,0,1.15,7.31-.13,0-1.15c0-2.53-1.11-3.91-3.72-3.87S2.25,103.73,2.3,106.26Z"/><path class="cls-1" d="M15.79,89.2l-.63,3.45L.68,90l.63-3.45c.92-5,4-7,8.59-6.13S16.7,84.15,15.79,89.2ZM3.57,87l-.21,1.15,10,1.82.21-1.15c.57-3.15-.25-5.26-4.06-6S4.14,83.82,3.57,87Z"/><path class="cls-1" d="M17.83,79.51l-14-4.59,2.51-7.65,2.11.7L6.7,73.4,8.59,74l1.68-5.1,2.11.7-1.67,5.09,5.73,1.89,1.79-5.43,2.12.7Z"/><path class="cls-1" d="M19.29,63.26l3.16-6,1.8.94-3.16,6Z"/><path class="cls-1" d="M23.71,55.11l3.76-5.67,1.69,1.12-3.75,5.67Z"/><path class="cls-1" d="M28.93,47.46l4.3-5.25,1.57,1.28-4.3,5.26Z"/><path class="cls-1" d="M34.87,40.39l4.81-4.81L41.12,37l-4.81,4.81Z"/><path class="cls-1" d="M41.51,33.92l5.26-4.3,1.29,1.57L42.8,35.5Z"/><path class="cls-1" d="M48.76,28.15l5.66-3.77,1.13,1.7-5.66,3.76Z"/><path class="cls-1" d="M56.53,23.13l6-3.18,1,1.8-6,3.17Z"/><path class="cls-1" d="M64.78,18.91l6.3-2.56.76,1.89-6.29,2.55Z"/><path class="cls-1" d="M73.39,15.55l6.52-1.91.57,2L74,17.5Z"/><path class="cls-1" d="M194.91,108l-.61,6.77-2-.18.6-6.77Z"/><path class="cls-1" d="M194,117.22l-1.28,6.67-2-.38,1.27-6.67Z"/><path class="cls-1" d="M192.11,126.3l-1.93,6.51-2-.58,1.93-6.51Z"/><path class="cls-1" d="M189.36,135.15l-2.58,6.29-1.88-.77,2.58-6.29Z"/><path class="cls-1" d="M185.74,143.66l-3.19,6-1.8-1,3.19-6Z"/><path class="cls-1" d="M181.28,151.78l-3.79,5.65-1.69-1.14,3.79-5.64Z"/><path class="cls-1" d="M176,159.4l-4.33,5.23-1.56-1.29,4.32-5.24Z"/><path class="cls-1" d="M162.31,170.79,158,174.65,156.49,173l7-6.19.72.2.27,5.53c.18,3.63.3,5.66,1.33,6.83a1.89,1.89,0,0,0,2.79.25,3.39,3.39,0,0,0,1-3l1.85-.05c.18,2.18-.3,3.5-1.57,4.62a3.74,3.74,0,0,1-5.65-.38c-1.43-1.62-1.65-4.08-1.79-7.22Z"/><path class="cls-1" d="M159.33,180.05c2.07,3.17,3,7.2-.72,9.61-2.84,1.85-6.31.77-9-3.31-2.07-3.17-3-7.22.57-9.51C153.25,174.87,156.68,176,159.33,180.05Zm-7.7,5c2,3,4.17,3.74,5.84,2.65,1.17-.76,2.23-2.64-.16-6.3-1.95-3-4.12-3.77-5.79-2.68C150.34,179.48,149.25,181.37,151.63,185Z"/><path class="cls-1" d="M141.15,182.32l5.11,10.31.36-3.12,2,.17-.79,5.76-2.23,1.1-6.54-13.18Z"/><path class="cls-1" d="M141.22,193.73a4.6,4.6,0,0,1-2.75,6.05c-2.84,1.05-5.06,0-6-2.67-.67-1.79-.56-4.37,0-7.64l.7-4,2.41-.9-.69,4.11c-.21,1.31-.38,2.34-.5,3.19a4,4,0,0,1,1-.54C138,190.31,140.31,191.3,141.22,193.73Zm-3.55,3.83a2.19,2.19,0,1,0-2.85-1.27A2.09,2.09,0,0,0,137.67,197.56Z"/><path class="cls-1" d="M123.34,193.3l-6.67,1.27-.38-2L123,191.3Z"/><path class="cls-1" d="M114.24,194.91l-6.77.6-.18-2,6.77-.61Z"/><path class="cls-1" d="M105,195.6l-6.8-.07,0-2,6.8.08Z"/><path class="cls-1" d="M95.73,195.38,89,194.62l.22-2,6.76.75Z"/><path class="cls-1" d="M86.55,194.23l-6.64-1.42.42-2L87,192.24Z"/><path class="cls-1" d="M77.54,192.17l-6.46-2.07.62-1.94,6.47,2.08Z"/><path class="cls-1" d="M64.19,187.28l-6.07-3.05.91-1.82,6.07,3.05Z"/><path class="cls-1" d="M56,183l-5.73-3.65,1.09-1.71,5.73,3.64Z"/><path class="cls-1" d="M88.84,16.24,86.93,4.68,85.66,7.62l-1.89-.76,2.48-5.37,2.5-.41,2.43,14.77Z"/><path class="cls-1" d="M101,2.62a2.52,2.52,0,0,1-.92,2.27,5.12,5.12,0,0,1,3.94,5c.15,3.27-2.27,5.53-5.61,5.69s-6-1.85-6.13-5.13a5.11,5.11,0,0,1,3.49-5.32,2.53,2.53,0,0,1-1.18-2.19A3,3,0,0,1,97.65,0C99.45-.08,100.91.86,101,2.62Zm.49,7.4A3.25,3.25,0,0,0,98,6.66a3.17,3.17,0,0,0-3.15,3.64,3,3,0,0,0,3.46,2.92C100.44,13.11,101.56,11.74,101.48,10Zm-4.67-7a1,1,0,0,0,1.06,1A1,1,0,0,0,98.78,3a.87.87,0,0,0-1-.94A.89.89,0,0,0,96.81,3.06Z"/><path class="cls-1" d="M114.27,15.91l-3.52-.55L113,.58l3.53.54c5.15.8,7.19,3.87,6.47,8.57S119.43,16.7,114.27,15.91ZM116.2,3.43,115,3.24l-1.57,10.18,1.17.18c3.22.5,5.34-.4,5.94-4.29S119.42,3.92,116.2,3.43Z"/><path class="cls-1" d="M124,17.68l4.31-14.32,7.83,2.35-.65,2.17-5.56-1.67-.58,1.94,5.22,1.56-.65,2.18-5.22-1.57-1.77,5.87,5.56,1.67L131.82,20Z"/><path class="cls-1" d="M145.45,14.26l4.6,2.3-1,2-4.6-2.29-3.76,7.51-2.12-1.06,6.68-13.38L152.56,13l-1,2-5.2-2.59Z"/><path class="cls-1" d="M147.4,27.3l8.21-12.51,6.84,4.49-1.24,1.9L156.35,18l-1.11,1.69,4.56,3-1.24,1.89-4.56-3-3.37,5.13,4.85,3.19-1.24,1.89Z"/><path class="cls-1" d="M160,37l-.69-.59L165,21.06l2,1.68-3.85,10,9.5-5.17,1.87,1.61Z"/><path class="cls-1" d="M165.51,41.49l11.14-10,5.46,6.1-1.68,1.51-3.88-4.33L175,36.14l3.64,4.07L177,41.72l-3.64-4.06-4.58,4.09,3.88,4.33L171,47.59Z"/><path class="cls-1" d="M179.39,53.39l-1.6,3.77-1.68-2.45,1.43-3c-.15-.19-.29-.38-.44-.6L176.34,50,174,51.61l-1.34-2L185,41.19l2.1,3.07c2.45,3.57,1.47,6.62-1.43,8.61C183.58,54.29,181.39,54.59,179.39,53.39Zm5.66-8-.66-1-6.14,4.2.66,1c1.46,2.13,3.14,2.71,5.33,1.21S186.5,47.54,185.05,45.41Z"/><path class="cls-1" d="M179.33,59.79,192.67,53l3.7,7.29-2,1-2.63-5.18-1.8.92,2.47,4.86-2,1-2.47-4.86-5.47,2.78,2.63,5.17-2,1Z"/><path class="cls-1" d="M184.06,69.66,198,64.13l.88,2.21-13.9,5.53Z"/><path class="cls-1" d="M191.21,80.08l-2.71,3.07-.82-2.86,2.31-2.4a6.57,6.57,0,0,1-.23-.71l-.37-1.29-2.75.79L186,74.39l14.38-4.12,1,3.57c1.19,4.17-.7,6.75-4.09,7.72C194.9,82.25,192.72,81.85,191.21,80.08Zm7.89-5.78-.32-1.12-7.15,2,.32,1.12c.71,2.47,2.12,3.55,4.68,2.82S199.81,76.77,199.1,74.3Z"/><path class="cls-1" d="M198.38,100.16a7.6,7.6,0,0,1-8.55-6.85,7.75,7.75,0,0,1,6.93-8.6,7.6,7.6,0,0,1,8.55,6.85A7.75,7.75,0,0,1,198.38,100.16Zm-1.36-13A5.21,5.21,0,0,0,192.23,93a4.92,4.92,0,0,0,5.87,4.67,5.26,5.26,0,0,0,4.84-5.88C202.58,88.55,200.21,86.82,197,87.18Z"/></g></g></svg>