<svg xmlns="http://www.w3.org/2000/svg" viewBox="0 0 591.9 789.34"><defs><style>.cls-1{fill:#231f20;}.cls-2{fill:#0b4e7c;}</style></defs><title>anka-default</title><g id="Layer_2" data-name="Layer 2"><g id="Layer_1-2" data-name="Layer 1"><path class="cls-1" d="M0,434.24l11.75-1.69,50-143H95.55l49.7,143L157,434.24V454H101V434.24l11.41-2-7.23-22.59H51.84l-7.23,22.59,11.41,2V454H0Zm59.63-48.9H97.36L78.84,327.4h-.68Z"/><path class="cls-1" d="M434.9,434.25l11.75-1.7,50-143h33.77l49.7,143,11.75,1.7V454h-56V434.25l11.4-2-7.22-22.58H486.75l-7.23,22.58,11.4,2V454h-56Zm59.64-48.91h37.72L513.74,327.4h-.68Z"/><path class="cls-1" d="M294.47,334.43v14.44l-12.8,2.46V453.89H257.79l-48.25-80.41-.49.08v63.51l12.8,2.46v14.36H172.38V439.53l12.71-2.46V351.33l-12.71-2.46V334.43h36.67l48.25,80.4.49-.08V351.33L245,348.87V334.43h49.48Z"/><path class="cls-1" d="M310.18,439.53l12.72-2.46V351.33l-12.72-2.46V334.43H359v14.44l-12.15,2.46v31.91h10.42l23-33.39-7.06-1V334.43h47.34v14.44l-13,2.21L378.2,390.3l33,47.18,12,2v14.36H375.83V439.53l7.38-1-23-34.55H346.86v33.07L359,439.53v14.36H310.18Z"/><path class="cls-2" d="M546.91,576.71c-11.65,9.82-23.46,19.44-34.89,29.51-10.52,9.27-14.57-1.7-18.9-6.72-6.18-7.18,3.42-7.36,6.44-9.23,28.54-17.62,54-38.95,78.31-64.51,5.59,20.42,3.48,39.36.68,58.18-3.34,22.5-10.34,43.88-22.13,63.43-1.72,2.86-2.89,11.18-8.59,5.94-4.84-4.45-14.9-7.16-11-17.43,1.72-4.48,5.78-7.94,6.17-13-1.75-1.81-2.55.06-3.06.73C495.6,682,436.73,721,370.51,750c-23.1,10.13-47.16,18.53-65.33,37.2-3.78,3.88-5.89,1.86-8.65-1-15.08-15.69-34.39-24.38-54-32.59-62.68-26.21-120.12-60.27-165.13-112.32-7.32-8.47-10.26-2-14.47,2-13.18,12.67-13.3,12.79-21.43-3.08-18.4-35.9-24.33-73.9-19.53-114,5.89-.38,7.29,4.25,9.88,6.83,22.11,22.12,46.26,41.6,73.22,57.52,2.13,1.26,6.47,2.63,4.73,5.21-3.17,4.75-7.63,8.82-12.15,12.42-2.49,2-4.83-1.12-6.93-2.64-.7-.51-1.85-1.67-1.72-1.9,9.52-16-8.16-14.95-13.78-20-11-10-22.66-19.21-34.57-30.45-.23,8,4.18,12.57,7.62,17.13,38.48,51.06,90.6,82,151.13,98.8,32.84,9.1,59.89,6.18,63.21-28.75,8.4-88.62.05-22.73,9.53-87.7.33-12.68,4.13-16.35,16.15-15.15a144.75,144.75,0,0,0,28.38-.33c9.41-.93,12.41,2.2,12.54,11.71,1.15,11.54,1.49,12.89,2.75,24.28,3.14,37.18,6,50.22,6.2,64.8.6,20.8,8.5,16,26.24,27.42,9.87,6.37,21.16,9.14,32.42,6.34C457.15,656.7,507.69,625.57,546.91,576.71Zm-243.7,88c3.39-104.78,4.3-11.86-2.53-116.54C297.44,653,298,560.06,303.21,664.76Zm-17-104.55c-9.16,31.7-6.67,24.93-4.12,72.23C282.72,602.06,292,610.18,286.24,560.21ZM282.37,752c-59.59-37.5-128.1-60.25-181.88-107.94C148.48,701.09,219.42,719.73,282.37,752Zm44.1-100.42c11.11,43.1,69.94,58.49,103.61,27.12C365.05,697,350.24,684,326.47,651.61Zm-151.6,26.65c31.47,26.19,86.59,22.81,96.49-24.84C247.89,696.43,212.71,692.37,174.87,678.26Zm132,80c27.91-20,63.81-22.24,92-41C366.29,727.12,331.62,732.24,306.83,758.25Zm-49.45-48.34c20-6.87,36.56-19.31,52.61-32.53C289,682.65,272.47,695.16,257.38,709.91ZM49.83,627.06c-1-14.31-5.36-27.66-14.66-39.11C33.7,603.15,38.41,616.09,49.83,627.06Zm233.48,88.32c13-5.14,24.84-12.14,34.77-22.2C304.35,697.16,293.22,705.3,283.31,715.38Zm156.22-16.82a69.15,69.15,0,0,0,31.88-19.9C459,682.48,448.11,689,439.53,698.56Zm-319.79-49.7c9.4,8.77,19.52,16.84,32.92,19.13A93,93,0,0,0,119.74,648.86Zm209,62.39c-11.71,2-20.12,9.19-28,17.15C311.85,725.55,320.56,718.9,328.74,711.25Z"/><path class="cls-2" d="M396.1,148.6c-.15.53-63.69,30-55.06,34.65s6.25,5.42,6.82,14.78c.55,9.11-2.74,17-12.38,18-8.76.9-9.7,4.58-9.52,12.06.8,33,.58,33,33.74,34.35,20.74.87,25.24,1.58,46,2.79,6.5.38,10.6-.34,13.1-7.63C422,248.25,430,244.9,439.56,247c9.08,2,13.61,8.69,14,17.66.43,10.82.42,21.67,0,32.49-.31,8.43-4.72,14.7-12.94,17.15s-16,.44-20.1-7.07c-3.55-6.44-8-7.21-14.34-6.85-82.08,4.7-134.38,4.79-216.46,0-6.38-.37-10.76.36-14.26,6.77-4.13,7.58-11.89,9.49-20,7.15s-12.67-8.42-12.84-17.05c-.21-10.82-.2-21.66,0-32.48.14-9.21,4.75-15.62,13.71-17.78,9.56-2.29,17.82,1.25,20.88,10.46,2.52,7.59,6.65,8,13,7.69,28.84-1.54,44.14-3.1,73-3.94,8.57-.24,12.32-2.68,11.79-11.6-.43-7.18.26-14.43.58-21.65.13-2.81.8-5.53,4.57-5.08,3,.35,2.81,2.95,3.12,5.11.86,6.06-.87,12.6,4.82,20.39.91-10.62,1.35-19.13,2.47-27.55.64-4.86-2.75-3.74-4.94-3.9a124.62,124.62,0,0,0-13.53-.17c-8.42.31-15.84-1.83-18-10.76-2.07-8.53-1.88-16.88,7.44-22.45,6.66-4-41.41-26.73-51.13-33.91-2.18-1-.25-.73-.54-1l184.39-1S396.26,148.07,396.1,148.6ZM347.43,275.43c-50.92-7-101.73-4.75-152.51,1.23C245.79,281,296.64,277.61,347.43,275.43Zm-84.59,19.8c39.18,5.67,125.17,3.92,134.1,0ZM154.58,254.84c-7.89,12.77-8.17,39.36,0,52.49Z"/><path class="cls-1" d="M153.65,494.68s-2.22.6-6.09,1.43c-1.94.42-4.29.93-7,1.42l-4.3.82a7.89,7.89,0,0,1-2.33,0c-.79,0-1.61,0-2.44,0H34.07c-.83,0-1.64,0-2.43,0a7.24,7.24,0,0,1-2.33-.1l-4.3-.82c-2.7-.49-5.05-1-7-1.4-3.87-.83-6.09-1.4-6.09-1.4s2.22-.57,6.09-1.39c1.94-.41,4.29-.91,7-1.41l4.3-.81a7,7,0,0,1,2.33-.1c.79,0,1.6,0,2.43,0H131.5c.83,0,1.65,0,2.44-.05a8.24,8.24,0,0,1,2.33.06l4.3.82c2.7.48,5.05,1,7,1.41C151.43,494.09,153.65,494.68,153.65,494.68Z"/><path class="cls-1" d="M586.92,494.68s-2.22.6-6.09,1.43c-1.94.42-4.29.93-7,1.42l-4.3.82a7.89,7.89,0,0,1-2.33,0c-.79,0-1.61,0-2.44,0H467.34c-.83,0-1.64,0-2.44,0a7.19,7.19,0,0,1-2.32-.1l-4.3-.82c-2.7-.49-5-1-7-1.4-3.88-.83-6.09-1.4-6.09-1.4s2.21-.57,6.09-1.39c1.94-.41,4.29-.91,7-1.41l4.3-.81a6.92,6.92,0,0,1,2.32-.1c.8,0,1.61,0,2.44,0h97.43c.83,0,1.65,0,2.44-.05a8.25,8.25,0,0,1,2.33.06l4.3.82c2.7.48,5,1,7,1.41C584.7,494.09,586.92,494.68,586.92,494.68Z"/><path class="cls-1" d="M189,507.42l4.06-4.87c2.82,2.32,5.76,3.8,9.34,3.8,2.81,0,4.51-1.12,4.51-3v-.09c0-1.74-1.08-2.63-6.3-4-6.3-1.61-10.36-3.35-10.36-9.56v-.09c0-5.67,4.56-9.42,10.94-9.42a18.08,18.08,0,0,1,11.61,4l-3.57,5.17c-2.77-1.91-5.5-3.08-8.13-3.08s-4,1.21-4,2.73v.09c0,2,1.34,2.72,6.74,4.11,6.34,1.65,9.92,3.92,9.92,9.37v.09c0,6.21-4.74,9.69-11.48,9.69A19.88,19.88,0,0,1,189,507.42Z"/><path class="cls-1" d="M241.52,498.58V480.72h6.88V498.4c0,5.09,2.54,7.72,6.74,7.72s6.74-2.54,6.74-7.5v-17.9h6.88v17.63c0,9.47-5.32,14.11-13.71,14.11S241.52,507.78,241.52,498.58Z"/><path class="cls-1" d="M296,507.42l4.06-4.87c2.82,2.32,5.76,3.8,9.33,3.8,2.82,0,4.51-1.12,4.51-3v-.09c0-1.74-1.07-2.63-6.29-4-6.3-1.61-10.36-3.35-10.36-9.56v-.09c0-5.67,4.55-9.42,10.94-9.42a18.08,18.08,0,0,1,11.61,4l-3.57,5.17c-2.77-1.91-5.5-3.08-8.13-3.08s-4,1.21-4,2.73v.09c0,2,1.34,2.72,6.74,4.11,6.34,1.65,9.92,3.92,9.92,9.37v.09c0,6.21-4.74,9.69-11.48,9.69A19.88,19.88,0,0,1,296,507.42Z"/><path class="cls-1" d="M349,480.72h6.88v12.37h12.68V480.72h6.87V512h-6.87V499.43H355.91V512H349Z"/><path class="cls-1" d="M405.62,480.72h6.88V512h-6.88Z"/><g id="_7OGnVT.tif" data-name="7OGnVT.tif"><path class="cls-2" d="M301.69,83.31c.64.92,1.24,1.88,1.9,2.78,7.76,10.6,17.76,16.22,31.25,13.88a46.57,46.57,0,0,0,15.88-6.39c3.56-2.13,3.71-2.06,4.69,2.08,2.92,12.36,12.34,18.72,24.9,16.91a62.47,62.47,0,0,0,18-6c1-.47,1.93-1.41,3.08-.43s.4,2.11.13,3.14c-1.85,7.27-3.37,14.59-3.37,22.13,0,4.67.09,4.68-4.62,4.68H209l-2.15,0c-1.63,0-2.46-.67-2.37-2.41.4-8.4-1.33-16.51-3.39-24.58-.24-.94-.82-2,.13-2.89,1.12-1,2.1-.13,3.07.33a62,62,0,0,0,18.6,6.11c11.4,1.56,20.18-3.89,23.76-14.84a21,21,0,0,0,.88-3.26c.39-2.5,1.53-2.85,3.58-1.54a52,52,0,0,0,10.72,5.31c13.89,4.93,26.52,1.36,35.73-10.18,1.27-1.59,2.38-3.31,3.66-5.11C301.52,83.21,301.64,83.24,301.69,83.31Zm-93.84,29.8a29.5,29.5,0,0,0,1.36,8.93c.45-4.11,2.61-3.76,5.53-3a43.44,43.44,0,0,0,20.09.79c8.21-1.64,14.49-6,18.49-13.41.93-1.73,1.65-2,3.45-1.23a30,30,0,0,0,23.35-.68c-9.68,1.52-19.06,1.5-27.07-5.27C244.69,115.7,230.23,123.37,207.85,113.11Z"/><path class="cls-2" d="M239.79,88.13c-3.53,10.12-11.27,14.66-21.85,12.82-7.19-1.24-13.62-4.37-19.89-7.9a5.33,5.33,0,0,1-2-2.26C187.64,75.88,177.56,62.25,165,50.55c-.79-.73-2-1.41-1.26-2.78.58-1.13,1.75-.92,2.75-.84,9.94.8,17.65,5,21.7,14.54.4.93.72,1.66,2,1.92,5.76,1.14,7.19,3,7.18,9.1a3.23,3.23,0,0,0,.84,2.78c4.89,4.42,10,8.58,16.23,10.92,7.63,2.86,13,.41,16-7.15,2.09-5.35,2.25-11,2.65-16.63a2.77,2.77,0,0,0-2-3.22,7,7,0,0,1-4.26-5.65,7.89,7.89,0,0,1,12.88-7.41,8,8,0,0,1,2.25,8.95c-.39,1.06-1.53,1.94-.29,3.28,5.46,6,11.35,11.26,19.13,14s14.92.53,21.1-4.07,9.57-11.28,12.4-18.29a6.3,6.3,0,0,0-.84-6.6c-1.56-2.14-3.83-2.21-6.12-1.78a23.74,23.74,0,0,0-7.84,3.42c-2.35,1.44-3.28.89-3.4-1.89-.35-8.1,4.49-13.78,13.29-15.28,2.19-.38,3-1,3-3.43,0-8.11,1.34-15.94,6.24-22.73,1.74-2.41,2.8-2.35,4.25.2a43.41,43.41,0,0,1,5.91,21.7c0,2.59.65,3.47,3.33,3.73,8.55.85,13.29,7.54,11.77,16.13-.55,3.12-1.57,3.52-3.95,1.48a20.13,20.13,0,0,0-5.61-3.71c-2.15-.86-4.28-.93-5.94,1s-3,3.77-1.85,6.6a66.42,66.42,0,0,0,7.41,13.65c3.85,5.38,8.89,8.59,14.8,10.78,2.76,1,5.59,1.83,8.69.91a52.4,52.4,0,0,0,23.8-14c1.34-1.4,1.83-2.4.68-4.4a7.71,7.71,0,0,1,4.34-11.05,7.93,7.93,0,1,1,5.18,15c-.9.35-2.51-.09-2.35,1.75.64,7.37,1.26,14.75,5.22,21.29,2.15,3.54,5.28,4.93,9.41,4.21,7.22-1.25,12.85-5.09,17.57-10.51a4.5,4.5,0,0,0,1.27-3.84c-.46-4,1.17-7.81,4.65-8.37,4.85-.79,6.83-4.14,9.29-7.43a22.93,22.93,0,0,1,3.66-3.71,22.49,22.49,0,0,1,17.75-5.26c1.05.12,2.13.3,2.37,1.54s-.72,1.56-1.51,2c-1.74,1.08-3.54,2.09-5.19,3.3-12.42,9.08-21,21.12-27.06,35.13-.56,1.31-1.05,2.6-2.43,3.4-6.06,3.53-12.35,6.48-19.26,7.86-13.42,2.69-22-3.44-23.86-17-.37-2.68-.53-5.39-.81-8.36-.67.47-1.08.74-1.46,1a55.49,55.49,0,0,1-18.92,10.59c-9.7,2.92-18.77,1.83-26.52-5-4.76-4.19-8.83-9.05-10.94-15.24-.34-1-.65-2.17-1.91-2.55C284.62,95.39,263,94.39,241.89,76A45.42,45.42,0,0,1,239.79,88.13ZM192.1,76.19c8.33,19.88,28.48,23.93,36.31,18.73C212.73,96.07,201.25,88.45,192.1,76.19Zm104-47c.18,2.14.28,3.25-2.7,2.67-6.05-1.16-11.15,1.66-13.06,7,5.52-5.69,11.51-7.85,19-4-1.16-6.67-2.14-12.89-2-19.22A38.94,38.94,0,0,0,296.15,29.23Zm69,25.6c2.11-.34,2.58-2.35,2.69-4.24.08-1.21,0-2.92-1.52-2.78-2.38.23-2.58,2.47-2.91,4.22C363.45,53.42,363.56,55.07,365.1,54.83Zm-133.7-.95c1.21,0,1.39-1.35,1.39-2.35s-.12-2.49-1.57-2.46c-1.24,0-1.23,1.37-1.4,2.26C230,52.51,229.9,53.93,231.4,53.88ZM173,54.37a30.66,30.66,0,0,0,6.3,6.76A22.35,22.35,0,0,0,173,54.37Z"/></g></g></g></svg>