<svg xmlns="http://www.w3.org/2000/svg" viewBox="0 0 881.64 416.67"><defs><style>.cls-1{fill:#fff;}</style></defs><title>armzem-original-negativo</title><g id="Layer_2" data-name="Layer 2"><g id="Layer_1-2" data-name="Layer 1"><path class="cls-1" d="M238.7,104l4.64-2.45-1.13-9.6,17.57-9.29L267,89,272,86.35,233.36,50.84l-.17-.16-1.25.66,6.7,52.18Zm17.56-24.7L241.65,87,238.17,61.9Zm39.35-2.81,5.27-1.81-3.4-9.9,6.06-2.08c1.55-.53,3-1.13,4.33-1.72l10.74,7.61L325,66.39,312.54,58c5.79-4.63,7.19-11,4.26-19.55-4-11.51-12.72-15.31-25.34-11L280.13,31.4,295.5,76.17Zm-3.48-44.06c10.55-3.62,16.39-1.25,19.55,7.94,3.24,9.43.45,14.13-10.66,17.94l-5.15,1.78L287,34.18Zm63.59,10.9,1.7,14.89-5,.78,0-.33L346.66,9.58l1.91-.29.12.14,23.75,29.28L386.34,3.4l1.91-.3.06.31,9.28,48.53-5,.78-3.18-16.36c-.5-2.52-2.35-13.65-3.29-19.58L374.33,47.29l-1.44.22-.12-.15L353,22C353.82,27.43,354.66,34.26,355.72,43.31Zm74.82-1.57,19.88.3,3.15,8.85.08.21,5.72.09L442.53,1.45l-.07-.22-1.41,0-19.21,49-.17.43,5.25.08Zm10.89-28.28,7.51,23.95-16.53-.26Zm70.63,44.91-30-4.9-.58-1.39.13-.15,30.38-37-21.24-3.47.77-4.67.31,0,27.7,4.53.58,1.39-.12.15L490.21,49.4l23,3.76-.87,5.26ZM563.67,72.9l-24.23-7.76.09-.31L554,19.76l.3.1,24.24,7.76-1.45,4.5-.3-.09L557.83,26l-3,9.24L573,41l-1.41,4.39-.3-.1-17.78-5.69-7.29,22.74,19.24,6.16L564,73Zm2.43-58.3-4.47-1.43L576.21,0l6.85,2.19Zm30,71.38-4.51-2.36,24.71-43.15,1.72.89v.19l1.73,37.66L652,59.05l1.71.89-.13.28-21.34,44.57-4.52-2.35,7.17-15.06c1.09-2.34,6.15-12.28,9-17.71L616.23,87.24l-1.29-.67v-.19l-.84-32.18c-2.58,4.88-6,10.87-10.48,18.79Zm-32.67,80.78c-15.61,5.85-25.13,8.17-27.28,1.24-.79-4.27,6.77-6.47,10.57-5.38C553,164.35,557.08,166.47,563.47,166.76Zm-28.94-9.9c-1.55-7.11,7.9-9.73,24.38-12.28-5.44,3.4-7.94,7.21-12.55,11.79C543.57,159.19,535.91,161,534.53,156.86Zm37.4-1.49c6.26,1.73,10.32,3.86,16.7,4.15-15.61,5.86-25.12,8.17-27.25,1.22C560.57,156.49,568.13,154.29,571.93,155.37Zm12.14-18c-5.42,3.39-7.93,7.21-12.54,11.79-2.77,2.8-10.46,4.6-11.83.48C558.16,142.5,567.59,139.86,584.07,137.34Zm9.72,13.51c-3.22,2.29-11.09,2.76-11.74-1.53-.32-7.27,9.43-8.27,26.1-8C602.22,143.78,599.1,147.12,593.79,150.85Zm-280.3,15.91c6.38-.29,10.45-2.41,16.71-4.14,3.79-1.09,11.35,1.11,10.56,5.38C338.61,174.93,329.1,172.61,313.49,166.76ZM318,144.58c16.49,2.55,25.94,5.17,24.38,12.28-1.37,4.11-9,2.33-11.83-.49C326,151.79,323.49,148,318,144.58Zm-29.72,14.94c6.39-.29,10.44-2.42,16.71-4.15,3.79-1.08,11.35,1.12,10.55,5.37C313.44,167.69,303.93,165.38,288.32,159.52Zm17.1-10.39c-4.6-4.58-7.12-8.4-12.54-11.79,16.48,2.52,25.92,5.16,24.37,12.27C315.88,153.73,308.2,151.93,305.42,149.13Zm-36.61-7.77c16.67-.31,26.41.69,26.1,8-.65,4.29-8.53,3.82-11.74,1.53C277.85,147.12,274.73,143.78,268.81,141.36Zm99.68,26.87c6.86-8.4,9.26-11.67,9.26-15.48,0-4.48-3.47-5-5-5a7.48,7.48,0,0,0-6.34,3.46l-.48.68-3.64-3.11.42-.57c2.84-3.81,6-5.51,10.22-5.51a9.6,9.6,0,0,1,9.83,10c0,4.61-2.15,8.06-8.62,16.08h0L369,175.17h14.4V180h-22l-.8-1.94Zm48.7,13c9.16,0,14.86-7.18,14.86-18.74,0-12.34-5.62-19.71-15-19.71-9.16,0-14.86,7.18-14.86,18.74C402.15,174,407.63,181.19,417.19,181.19Zm-.27-33.58c5,0,10,4.61,10,14.93,0,4.14-.93,13.78-9.63,13.78-6.26,0-10-5.58-10-14.93C407.29,157.25,408.22,147.61,416.92,147.61ZM450.5,161l11-17h5.05v36h-5V152.36l-7.4,11.15Zm34.82,6.58c0,8,5.94,13.63,14.42,13.63s14.51-5.74,14.51-13.63c0-6-3-10.56-8.24-12.57a7.27,7.27,0,0,0,1.72-4.79c0-4.46-3.21-7.46-8-7.46-4,0-8,2.56-8,7.46a7,7,0,0,0,1.85,4.8C488.33,157,485.32,161.55,485.32,167.56Zm14.51-20.21c.79,0,3.38.21,3.38,2.93,0,2.34-1.06,3.39-3.47,3.39a3.18,3.18,0,0,1-3.47-3.3C496.27,148.36,497.47,147.35,499.83,147.35Zm-.09,10.57c6,0,9.46,3.51,9.46,9.64,0,5.46-3.62,8.84-9.46,8.84-5.57,0-9.46-3.7-9.46-9C490.28,160.85,495,157.92,499.74,157.92ZM290.05,266.38c0-14.93-5.2-26.44-15.47-34.21-5.28-3.95-11.92-6.58-19.75-7.81a144.41,144.41,0,0,0-17.8-.77h-50.1V357.82h51.33v-18.4c3.15,8.46,6.53,17.56,6.53,17.56l.34.92H303l-29-57.19A43.64,43.64,0,0,0,290.05,266.38Zm-43,88.7c-1.29-3.48-5.95-16-8.93-24l-2.73.49V355H189.76V226.42H237a142.18,142.18,0,0,1,17.4.74c7.34,1.15,13.55,3.6,18.45,7.27,9.52,7.2,14.34,17.95,14.34,31.95,0,13.31-5.34,24.37-15.88,32.86l-.9.72,27.95,55.12Zm-5.19-92.41-.17-.11a13.55,13.55,0,0,0-4.78-.94l-1.52-.12v15.83l1.6-.22c3.08-.42,4.21-1.28,4.54-1.61h0c1.55-1.63,1.88-4.65,1.88-6.9C243.46,265.58,242.88,263.37,241.91,262.67ZM238.26,274v-9.4a12.91,12.91,0,0,1,1.89.37,10.24,10.24,0,0,1,.48,3.63c0,2.71-.53,4.29-1,4.89A4.63,4.63,0,0,1,238.26,274Zm64.67,83.78h51.33V223.56H302.93Zm2.83-131.4h45.68V355H305.76Zm177.42,131.4h51.33V223.56H483.18ZM486,226.38h45.68V355H486Zm-62.9,87.35a16,16,0,0,1-4.72-4.31c-3.69-4.83-5.48-10.86-5.48-18.43,0-8.09,2-14.23,6.18-18.78,3.92-4.28,9.15-6.36,16-6.36a31.66,31.66,0,0,1,10.48,1.75L455,271,470,232.27l-9-4a73.78,73.78,0,0,0-30.5-6.6c-20.28,0-37.22,6.37-50.35,18.93s-20,29.09-20,48.81c0,20.21,6.88,37.18,20.46,50.43s30.79,19.88,51.33,19.88c10.85,0,22.73-2.07,35.31-6.18l7.14-2.33V287.8l-51.32-15Zm2.82-37.19,45.67,13.38v59.21l-5.19,1.7c-12.3,4-23.88,6-34.43,6-19.78,0-36.38-6.42-49.35-19.08S363,308.8,363,289.38c0-18.92,6.43-34.66,19.11-46.77s28.86-18.14,48.39-18.14a71.09,71.09,0,0,1,29.34,6.35l6.52,2.93-13,33.62-6.91-2.43A34.3,34.3,0,0,0,435.07,263c-7.67,0-13.58,2.38-18.07,7.28-4.65,5.09-6.92,11.86-6.92,20.69,0,8.21,2,14.8,6.07,20.14a17.14,17.14,0,0,0,7.9,6.13l1.88.67ZM611,264.32l-28.33-40.16-.42-.6h-37V357.78H590.2V315.46l30,41.73.42.59h35.11V223.56H611Zm2.82-37.94h39.08V355H622.06c-2.86-4-19.7-27.4-32.13-44.71l-2.56-3.56V355H548.12V226.38h32.66l30.47,43.21,2.56,3.65ZM844,315.49V223.56H792.69V357.37L747.35,224.51l-.33-.95H706.44L657.19,357.78h46.1l.34-.93s4.53-12.52,7.46-20.6l31.1,21.28.36.25H881.64V315.49ZM743.43,355l-32.24-22.06-1.51-1-.62,1.71L701.31,355H661.24l47.17-128.57H745L788.88,355Zm135.38,0h-83.3V226.38h45.68v91.94h37.62ZM279.68,266.37q0-17.33-11.35-25.93-5.85-4.37-15.08-5.83A137.73,137.73,0,0,0,237,234H197.3V347.44h30.59V303.13h7.94l16.51,44.4H286.1l-25.29-49.87Q279.68,287,279.68,266.37ZM247,280.73q-4,4.15-13.76,4.15h-5.37V254h5.7q9,0,12.53,2.44Q251,259.81,251,268.6,251,276.58,247,280.73Zm66.29-46.8h30.58V347.41H313.31Zm180.25,0h30.58V347.41H493.56Zm-64.62,91.76a17.34,17.34,0,0,0,4.53-.66V286.61l30.59,9v48.08q-17.34,5.67-32.08,5.66-26.75,0-44.08-16.92t-17.34-43q0-25.28,16.77-41.32t43.18-16a63.45,63.45,0,0,1,26.24,5.68L449,257.83a41.56,41.56,0,0,0-13.92-2.35q-14.73,0-23.63,9.73T402.54,291q0,14.75,7.61,24.72T428.94,325.69Zm147.92-91.76,44.5,63.1v-63.1h24V347.41H625.93l-46.1-64.15v64.15H555.67V233.93Zm148.22,0h-11.4L672,347.41h24l9.88-27.28,39.86,27.28h32.57L739.6,233.93Zm-14,68.3,11.5-35.34,14.66,51Zm122.55,23.63h37.63v21.55H803.05V233.93h30.59ZM92.57,213.63l-1.18,0c-5.14.17-8.53,1.44-10.73,3.27a11,11,0,0,0-3.75,8.83V359.41a12.15,12.15,0,0,0,2.63,8c2.24,2.63,6.22,4.52,13,4.52,10.28,0,16.18-4.57,16.18-12.56V225.75a11.78,11.78,0,0,0-1.4-5.81C105.07,215.84,100,213.63,92.57,213.63ZM79.43,359.41V225.75c0-6.47,4.3-9.61,13.14-9.61,4,0,7.12.64,9.4,1.91,2.87,1.58,4.26,4.1,4.26,7.7V359.41c0,8.31-7.42,10-13.66,10C83.73,369.46,79.43,366.18,79.43,359.41Zm89.74-83.07c-4.89-92.91-50.76-106.83-77.71-106.85h0c-12.85,0-31.47,3.22-47.19,18.57-17.84,17.42-28.09,46.45-30.46,86.25A19.11,19.11,0,0,1,2.55,290.13L0,291.28l2.55,1.14a19.23,19.23,0,0,1,10.78,13.12c.68,28.94,5,51.65,13.23,69.43,12.79,27.67,34.62,41.7,64.85,41.7h0c30.42,0,52.32-14.22,65.08-42.24,8.14-17.86,12.39-40.67,13-69.72a19.1,19.1,0,0,1,10.59-12.29l2.55-1.15-2.55-1.14A19.1,19.1,0,0,1,169.17,276.34Zm-2.11,27.85,0,.15v.16c-.59,28.78-4.76,51.31-12.77,68.89-12.32,27.05-33.46,40.77-62.83,40.77-29.17,0-50.22-13.54-62.58-40.25-8.08-17.48-12.33-39.91-13-68.55v-.13l0-.12a21.76,21.76,0,0,0-10-13.83,21.63,21.63,0,0,0,10.48-16.79c2.33-39.18,12.33-67.66,29.72-84.63C61.09,175.1,79,172,91.41,172s30.59,3.16,45.77,18.21c17.47,17.32,27.39,46.37,29.48,86.35l0,.17a21.65,21.65,0,0,0,10.2,14.55A21.56,21.56,0,0,0,167.06,304.19Zm-10.82-25.53c-2.54-54.24-20.24-96.13-64.83-96.13-43.71,0-61.57,40.26-64.66,93a.35.35,0,0,0,0,.11,17.28,17.28,0,0,1-10.24,15.76A17.31,17.31,0,0,1,26.4,304c1.58,55.94,16.17,99.65,65,99.65,49.09,0,63.59-44.17,65.05-100.51a17.26,17.26,0,0,1,9.72-11.78A17.3,17.3,0,0,1,156.24,278.66Zm-37,80.75c0,11.76-8.21,23.08-26.69,23.08s-26.18-11.32-26.18-23.08V225.75c0-11.77,7.7-22.65,26.18-22.65s26.69,10.88,26.69,22.65Z"/></g></g></svg>