<svg xmlns="http://www.w3.org/2000/svg" viewBox="0 0 150.2 163.86"><defs><style>.cls-1{fill:#e52a16;}.cls-1,.cls-2,.cls-3{fill-rule:evenodd;}.cls-2{fill:#14110e;}.cls-3{fill:#fff;}</style></defs><title>coffee-cube-default</title><g id="Layer_2" data-name="Layer 2"><g id="Layer_1-2" data-name="Layer 1"><path class="cls-1" d="M57.26,153.61c-.14-1-1.74-2.8-2.29-3.66-2.56-4-2.5-4.26-4.25-8.41l-1.49-4a1.7,1.7,0,0,0-.15-.22c-.31-.42,0,0-.28-.33-3.88-.31-8.58,1.63-12.06,2.4a52.11,52.11,0,0,1-13,1.54c-5.52-.11-11.33-2.61-14.33-7.15-.72-1.09-2.14-3.37-2.13-5,.7,0,1.14.66,1.75,1.13,2.72,2.1,2.41,1.89,5.89,3.34,5.8,2.41,19-1.9,26.77-2.86.87-.11,1.78-.32,2.55-.42s2.22.16,3-.19c.57-.85.09-6.3.28-7.94.25-2.13,1.18-6.26.93-7.33-3.61-2.15-12.46-2.89-17-2.88A44.47,44.47,0,0,0,14.67,115a7.3,7.3,0,0,0-.87.39l-2.48,1.25c-3.58,2.22-5.49,3.65-8,7.1a12.13,12.13,0,0,0-1.85,3.09c-1.56,3.82-2.06,9.07-.41,12.81,4,9.15,12.15,14.75,22.8,17.47A42.78,42.78,0,0,0,30,158.44c.78.1,1.61,0,2.38.15,5.86,1.11,15.94-.53,21.59-3.07Z"/><path class="cls-1" d="M62,99.73c.17.29-.07.33.19.18-2.89.72-6.83,5.79-8.33,8.76-2,4-2.87,9.7-2.81,14.33a48.8,48.8,0,0,0,2.66,14.49l1.6,4.11a73.26,73.26,0,0,0,5.37,8.85c3.44,4.75,10,10.53,15.84,12.29.8.24,1.45.58,2,.73a23.56,23.56,0,0,0,5.46.38,16.71,16.71,0,0,0,11.83-5.35,30,30,0,0,0,4.24-7.13c4-9.23,1.35-23.7-3.34-32.71A20.26,20.26,0,0,0,94.7,115c.3-.27-.31-.17.54-.18-1.3-.9-.92-.42-1.76-1.65a42,42,0,0,0-8.1-8.79c-.6-.5-1.28-1-1.93-1.45s-1.38-.63-1.66-1.41c-1-.15-3.41-1.79-6.38-2.66-1.24-.37-.56-.57-2.67-.79-.16,0-.77,0-.82,0-1.21-.24-.58.28-.75-.56-.82.69-.64.7-2.08.71-3.39,0-5.62,1.39-7.08,1.54"/><path class="cls-2" d="M81.79,101.54c.28.78,1,.93,1.66,1.41s1.33,1,1.93,1.45a42,42,0,0,1,8.1,8.79c.84,1.23.46.75,1.76,1.65a40.47,40.47,0,0,0,8.82,3.31c4.09.81,7.22-.13,8.36-3.23,1.68-4.58,0-10.21-3-13.91-1-1.28-2.17-2.11-2.94-3.1.44-.32.7-.23,1.43-.48,4-1.4,3.87-7.31,3-10.56-2.4-9-9.87-12.39-17.46-16L84.94,67c-.78-.36-2.22-1.31-3.12-1Z"/><path class="cls-2" d="M41.42,78.93c.36.47.52,2.3.77,3.13a22.89,22.89,0,0,0,1.05,3.09,37.75,37.75,0,0,0,3,5c1.12,1.08,2,2.07,3.33,3.21s2.65,1.77,3.76,2.69c1.41.49,2.42,1.44,4.07,1.9C58,98.55,61,99.47,62,99.73c1.46-.15,3.69-1.51,7.08-1.54,1.44,0,1.26,0,2.08-.71,2.66-4.32,2-11,2-16.83,0-6.27.18-12.81,0-19l-6.88-3.22c-.75-.35-1.68-1.06-2.38-.72-.89.86.64,27.2-.69,30.81-.53,1.43-1.55,2.14-3.49,1.71A12,12,0,0,1,56,88.54c-.87-.75-1-2-3.6-4.22-2-1.7-1.47-9.12-1.47-11.86,0-3.13.21-19.56-.09-21.17-1.25-.79-5.3-2.49-7.11-3.33C40.52,46.45,41.2,46,41.2,55V75.14c0,1.35.27,2.57.21,3.79"/><path class="cls-2" d="M120.89,85.28l0,41.42c1.89,1.1,4.65,2.22,6.65,3.13l16.9,7.82c4.31,1.95,3.77,3.1,3.58-6.76-4.38-2.33-12.33-5.63-17.38-8.09l0-9.06c1.9.26,13.41,6.59,14.56,6.38l.28-.11c.36-.85.19-6.33.1-7.69a32.07,32.07,0,0,0-3.82-1.83l-7.79-3.6L132,106c-.92-.43-1.38-.27-1.38-1.46V97c1.24.19,7.37,3.28,8.86,4l6.55,3c1.18.57,1.86,1.16,1.86-.62l0-7.26c-2.42-1.34-10.44-4.84-13.84-6.44l-10.47-4.87c-2.42-1.14-2.68-1.52-2.68.42"/><path class="cls-1" d="M23,82.1c-.13.75.06.23-1.27,1.4-2.69,2.37-4.45,4.69-5,8.38-.95,6.16,2.68,11,7.34,14L25.65,107a16,16,0,0,0,2.11.81C35,110.34,43,110.54,49.7,106.48c7.27-4.41,6.35-7.93,7.72-8.5-1.65-.46-2.66-1.41-4.07-1.9-.38.28-1-.43-1.68-.7a10.24,10.24,0,0,0-2.25-.66c-4.62-.8-7.24,1-9.4,1.62-5.09,1.43-8.38,2.92-13.91,1-2.11-.75-4.87-3.38-5.14-6a7.51,7.51,0,0,1,2.65,1.58,6.45,6.45,0,0,0,2.94,1,9,9,0,0,0,3.56-.28,29,29,0,0,0,6.27-1.6c1.17-.39,1.86-.45,3.21-.79.78-.19.74-.39,1.29-.55a14,14,0,0,1,5.37-.41,37.75,37.75,0,0,1-3-5,22.89,22.89,0,0,1-1.05-3.09c-.25-.83-.41-2.66-.77-3.13-.08,0-2.78-.28-3.48-.3-1.23,0-2.91.12-4,0,.24,1.69,1.14,3.56,1.07,5.3-4,1.16-8.84-.43-11.93-1.8"/><path class="cls-2" d="M23,82.1c3.09,1.37,7.94,3,11.93,1.8.07-1.74-.83-3.61-1.07-5.3l-1-3.55c-1.46-.22-6.87,2.41-13.48-4.19-3.12-3.11-4.95-8.15-5.11-13.7s.75-12.77,7.24-11.22c3.6.86,7.24,4.06,9.59,6.81.54.63.58,1,1.52,1,.6-1.36,1.18-3.78,1.68-5.41.29-1,.83-1.77.14-2.54-7.41-8.21-24.2-16.48-28.85-2-2.57,8-.48,17.86,2.57,24.14C11,73.74,17.54,80.3,23,82.1"/><path class="cls-3" d="M84.62,157.3c1.29-.17,3.73-3.92,4.22-5.42,1.23-3.77.3-7.25-.82-10.49a43.7,43.7,0,0,0-4.73-7.67C81.15,131.25,71.8,120,70.63,117c-2.82-7.2-.73-9.93-.69-12.86-.83,0-.84.41-1.34.91a14.2,14.2,0,0,0-1.19,1.29,15.15,15.15,0,0,0-2.72,11.78c1.56,8,6,13.1,11,18.89,1.6,1.86,2.93,3.09,4.64,5.32l2.86,4.6a26.74,26.74,0,0,1,1.66,5.78c.32,2.74-.32,3.42-.25,4.56"/><path class="cls-2" d="M106.79,75c3,1.35,6.06,2.8,9.1,4.23.76.36,8.22,4.08,9.21,4l.15,0a9.41,9.41,0,0,0,.08-3.49l-14.44-6.7,0-10.32c2.37.46,11.13,5.6,12.63,5.38l.06-3.3c-1.1-1-11-4.87-12.62-6.05l-.07-9.19a21.52,21.52,0,0,1,3.7,1.62c1.2.56,2.42,1.1,3.55,1.63l6.57,3c1,.08-.92.24.36-.06.57-.13.22-3.41.22-3.41-.52-.52-7.75-3.71-9-4.29-1.45-.66-8.39-4.18-9.37-4Z"/><path class="cls-2" d="M131.68,55.71l-.06,30.81,17.81,8.32c.73.1.8.33.77-2.27l0-1.18-14.5-6.77V74.23L147,79.45c1.45.72,1.27.52,1.27-2.36,0-1.26-.47-1-2.73-2.1l-9.91-4.61V61.11c2,.53,13,6.44,14.31,6.29a10.47,10.47,0,0,0,0-3.54,12.61,12.61,0,0,0-2.46-1.25L133.1,56a6.34,6.34,0,0,0-.64-.29.82.82,0,0,0-.78.05"/><path class="cls-3" d="M53.35,96.08c-1.11-.92-2.37-1.54-3.76-2.69s-2.21-2.13-3.33-3.21a14,14,0,0,0-5.37.41c-.55.16-.51.36-1.29.55-1.35.34-2,.4-3.21.79a29,29,0,0,1-6.27,1.6,9,9,0,0,1-3.56.28,6.45,6.45,0,0,1-2.94-1A7.51,7.51,0,0,0,21,91.26c.27,2.66,3,5.29,5.14,6,5.53,2,8.82.47,13.91-1,2.16-.6,4.78-2.42,9.4-1.62a10.24,10.24,0,0,1,2.25.66c.69.27,1.3,1,1.68.7"/><path class="cls-3" d="M91.35,105c.65.48,6.1,2.92,7.15,3.35,3.63,1.49,5.58.5,4.8-4-.52-2.93-2.49-4.64-4.63-5.82a67.86,67.86,0,0,0-7.3-3.31Z"/><path class="cls-3" d="M91.35,87.56c4.12,1.75,11.67,7,10.24-1.38-.38-2.29-2.23-4-4-5-.89-.53-5.43-2.78-6.26-2.82Z"/><path class="cls-2" d="M35.23,11.86c-8.46,2.06-6.73,15.79-4.48,21.7,2.53,6.65,9.69,13.86,16.68,12.68,8-1.34,7-15.35,4.5-21.76a22,22,0,0,0-6.07-8.69C43.82,14,39,11,35.23,11.86"/><path class="cls-3" d="M37,16c-5.11,1.35-4.47,11.75-2.9,16.59,1.72,5.3,7,10.74,11.87,9.53s4.17-12,2.69-16.68a15.61,15.61,0,0,0-4.08-6.57C43.33,17.76,39.65,15.32,37,16"/><path class="cls-2" d="M83.81,64.31a14.67,14.67,0,0,0,2.84,1.49c1,.42.88.08.92,0,.56-.89.06-11.2.21-13.31,1.23.18,10.07,4.7,11,5,.6.18.75.21.83-.72,0-.21,0-.66,0-.89,0-.58,0-1.13,0-1.71L87.78,48.64V39c1.64.22,12,5.93,13.24,5.77l.07-3.59L86.74,34.5c-3.55-1.62-3-1.88-3,1.66s-.29,27.1.12,28.15"/><path class="cls-2" d="M24.08,34.2a12.89,12.89,0,0,0-1.14-3.85c-1.72,0-2.91,1.23-6.57-.38-5.75-2.52-8.79-8.54-9.06-15.16C7.12,10.13,7.74,3.71,13,4.26c5.53.57,8.52,6.13,9.8,6.53a4.64,4.64,0,0,0,.87-1.87c.36-1,.56-1.12-.17-1.93C15.47-1.88,3.4-4.26,3.23,11.6,3,31.29,20.16,37,24.08,34.2"/><path class="cls-2" d="M60.47,53.5a10.73,10.73,0,0,0,3.76,1.66c.31-1.38,0-11,.13-13.45,1.26,0,10.48,5,11.78,5.07a12.25,12.25,0,0,0,.06-3.53L64.35,37.76l0-9.67c.63.08,8.18,3.7,9.89,4.48,3.65,1.67,3.68,2.55,3.46-2.21-1.49-.86-3.17-1.54-4.67-2.25l-9.63-4.44c-3.69-1.69-3.12-2-3.12,1.64V50a14.62,14.62,0,0,0,.16,3.46"/></g></g></svg>