<svg xmlns="http://www.w3.org/2000/svg" viewBox="0 0 185.75 33.98"><defs><style>.cls-1{fill:#fff;}</style></defs><title>da torre</title><g id="Layer_2" data-name="Layer 2"><g id="Layer_1-2" data-name="Layer 1"><path class="cls-1" d="M84.55,1.44V0h-18V1.44h8.15V33.3H76.4V1.44h8.15ZM117.6,17.15A16.51,16.51,0,0,1,100.67,34,16.85,16.85,0,0,1,83.74,16.86,16.52,16.52,0,0,1,100.67,0,16.85,16.85,0,0,1,117.6,17.15Zm-1.89,0A15.26,15.26,0,0,0,89.87,5.93a15.32,15.32,0,0,0-4.24,10.93,15.26,15.26,0,0,0,25.84,11.21A15.31,15.31,0,0,0,115.71,17.15ZM172.6,1.55V1.41h13.15V0H170.87V33.39h14.88V32H172.6V13.78h10.28V12.4H172.6V1.55ZM100.65,14a2.9,2.9,0,1,0,2.9,2.9A2.9,2.9,0,0,0,100.65,14Zm33.23,12.88,6.19,6.46h-2.39l-5.44-5.68-.07-.06-.08,0a14.22,14.22,0,0,1-5.44,1.21h-.13v4.5h-1.73V0h1.86a14.51,14.51,0,0,1,14,14.42,14.51,14.51,0,0,1-6.8,12.21l-.14.08Zm5.19-12.41A12.82,12.82,0,0,0,126.65,1.69h-.13V27.17h.13A12.83,12.83,0,0,0,139.07,14.43ZM157,26.84l6.19,6.46h-2.39l-5.44-5.68-.07-.07-.08,0a14.41,14.41,0,0,1-5.45,1.21h-.13v4.5h-1.72V0h1.85a14.5,14.5,0,0,1,14.06,14.42A14.51,14.51,0,0,1,157,26.64l-.14.08Zm5.19-12.42A12.82,12.82,0,0,0,149.73,1.68h-.14v25.5h.14A12.84,12.84,0,0,0,162.15,14.42ZM35.53,8.83V33.3H33.84V21c0-5.23-2.44-8.23-6.67-8.23A6,6,0,0,0,21.3,16.5v.16a25.28,25.28,0,0,1-.8,6.58V33.3H18.8V27.23A12.17,12.17,0,0,1,17.54,29C15,31.84,11.08,33.3,6,33.3H0V0H6c6.2,0,10.58,2.22,13,6.5A7.9,7.9,0,0,1,27.17,0C32.17,0,35.53,3.56,35.53,8.83ZM19.46,16.66c0-10.48-4.38-15.15-14.21-15.15H1.7v30.3H5.25C15,31.81,19.46,27,19.46,16.66ZM33.84,9.9c0-5.23-2.44-8.23-6.67-8.23s-6.67,3-6.67,8.23v.23a22.44,22.44,0,0,1,.63,3.39,8,8,0,0,1,6-2.44,8,8,0,0,1,6.23,2.63l.21.23.23.26V9.9Z"/></g></g></svg>