<svg xmlns="http://www.w3.org/2000/svg" viewBox="0 0 165.65 108.62"><defs><style>.cls-1{fill:#00589c;}.cls-2{fill:#db0c48;fill-rule:evenodd;}</style></defs><title>edmar-victor-default</title><g id="Layer_2" data-name="Layer 2"><g id="Layer_1-2" data-name="Layer 1"><path class="cls-1" d="M9.18,43.13H0L13.66,75.62h6.55L34.08,43.13H24.91L17,62.87Zm35.46,0H36.19V75.62h8.45Zm28.61.78a19.72,19.72,0,0,0-7.71-1.64,17.59,17.59,0,0,0-12.37,5.26,17,17,0,0,0-4.78,11.89A15.9,15.9,0,0,0,53.6,71.7a18.1,18.1,0,0,0,12.2,4.78A23.91,23.91,0,0,0,73.25,75V64.85A9.7,9.7,0,0,1,66,68.3a8.43,8.43,0,0,1-8.79-8.84c0-5,3.49-9,8.66-9A9.17,9.17,0,0,1,73.25,54Zm18.14,6.38h7V43.13H76v7.16h7V75.62h8.44Zm64,12c4.61-.82,7.11-4.7,7.11-9.18,0-6.94-4.87-10-11.29-10H138.63V75.62h8.44V63.13h.09l8,12.49h10.52ZM147.07,49.6h.82c2.76,0,5.86.51,5.86,4s-3.1,4.05-5.86,4.05h-.82ZM21.09,7.35V0h-19V33.39h19V26H10.77V20.28h9.79V12.93H10.77V7.35Zm5.27,26H38.67A16.7,16.7,0,1,0,38.67,0H26.36ZM35,7.35h2c5.58,0,9.53,3.37,9.53,9.35C46.6,23.21,42.17,26,37,26H35Zm21.45,26h8.64l2.79-19.22H68l7.66,19.22h3.46l8-19.22h.09l2.44,19.22h8.68L93.3,0H84.66L77.49,17.85,70.71,0H62.16Zm67.17-5.8,2.17,5.8h9.25L122.51,0H113L100.18,33.39h9.22l2.3-5.8ZM121.31,21h-7.22l3.59-10.63h.09Zm33.84-1.24c4.74-.84,7.31-4.83,7.31-9.44,0-7.13-5-10.27-11.61-10.27h-13V33.39h8.68V20.55h.09l8.19,12.84h10.81ZM146.56,6.64h.84c2.83,0,6,.53,6,4.17s-3.19,4.16-6,4.16h-.84ZM8.47,98l-2.65,8h0L3.14,98H1v10.48H2.54v-4.13l-.12-4.24h0L5,107.8H6.61l2.55-7.7h0l-.14,4.24v4.13h1.59V98Zm4.45,0v10.48h6.44V107H14.51v-3H18.6v-1.39H14.51V99.44h4.73V98Zm11.43,10.48a3.91,3.91,0,0,0,2.14-.64,5.47,5.47,0,0,0,2-4.56,5.62,5.62,0,0,0-2-4.64A3.92,3.92,0,0,0,24.35,98H21.13v10.48Zm-1.63-9h1.33a2.69,2.69,0,0,1,1.53.43,5.05,5.05,0,0,1,0,6.7,2.73,2.73,0,0,1-1.53.45H22.72ZM30.24,98v10.48h1.6V98Zm8.17-.15c-2.74,0-4.85,2.09-4.85,5.39s2.11,5.39,4.84,5.39a4.71,4.71,0,0,0,2.68-.79l-.58-1.26a4.18,4.18,0,0,1-2.06.6c-1.87,0-3.22-1.69-3.22-3.94s1.34-3.94,3.24-3.94a4.09,4.09,0,0,1,2,.6l.58-1.23A4.57,4.57,0,0,0,38.41,97.84Zm4.27.15v10.48h1.61V98Zm3.88,0v10.48h1.59v-4.16l-.09-3.69h0l4,7.85h1.68V98H52.18v3.37l.09,4.39h0l-4-7.76Zm11.61-.08-3,10.56h1.62l.75-2.71h3.29l.77,2.71h1.69l-3-10.56Zm1,1.63h0l1.3,4.84H57.84ZM67.94,98v10.48h5.93V107H69.53V98Zm9.41-.08-3,10.56h1.61l.75-2.71H80l.76,2.71h1.69l-3-10.56Zm1,1.63h0l1.3,4.84H77ZM83.74,98v10.48h4.18a2.69,2.69,0,0,0,2.68-2.83,2.5,2.5,0,0,0-1.88-2.55,2.3,2.3,0,0,0,1.43-2.29A2.72,2.72,0,0,0,87.29,98Zm1.59,9v-3.15h1.93c1.28,0,1.74.71,1.74,1.55a1.47,1.47,0,0,1-1.51,1.6Zm0-7.58h1.8a1.36,1.36,0,0,1,1.47,1.5,1.44,1.44,0,0,1-1.49,1.57H85.33Zm6.44,3.77c0,3,1.66,5.41,4.62,5.41s4.61-2.37,4.61-5.41-1.77-5.37-4.61-5.37S91.77,100.1,91.77,103.21Zm1.65,0c0-2.25,1.15-3.94,3-3.94s3,1.72,3,3.94-1.08,3.94-3,3.94S93.42,105.52,93.42,103.23ZM102.75,98v10.48h1.59v-4.25h1.84l2,4.25h1.74L107.74,104a2.88,2.88,0,0,0,1.87-2.89,3,3,0,0,0-3.1-3.11Zm1.59,1.45h2a1.67,1.67,0,1,1,0,3.34h-2Zm9.21-1.53-3,10.56h1.62l.75-2.71h3.29l.77,2.71h1.69l-3-10.56Zm1,1.63h0l1.3,4.84h-2.62ZM119,98v1.4h2.84v9.08h1.6V99.39h2.8V98Zm8,5.22c0,3,1.66,5.41,4.61,5.41s4.62-2.37,4.62-5.41-1.77-5.37-4.62-5.37S127,100.1,127,103.21Zm1.65,0c0-2.25,1.15-3.94,3-3.94s3,1.72,3,3.94-1.08,3.94-3,3.94S128.61,105.52,128.61,103.23ZM137.94,98v10.48h1.59v-4.25h1.84l2,4.25h1.73L142.93,104a2.88,2.88,0,0,0,1.87-2.89A3,3,0,0,0,141.7,98Zm1.59,1.45h2a1.67,1.67,0,1,1,0,3.34h-2ZM146.61,98v10.48h1.61V98Zm6-.08-3,10.56h1.62l.74-2.71h3.3l.76,2.71h1.7l-3-10.56Zm1,1.63h0l1.3,4.84h-2.62ZM159,98v10.48H165V107H160.6V98ZM115.5,48.72h0a2.58,2.58,0,0,1-1.71,2.33l-.22.08h0l-.21.09-.21.09-.2.09-.2.1h0l-.2.1-.19.11a1.18,1.18,0,0,0-.19.11l-.19.11-.18.12-.18.13h0l-.18.12-.17.14-.17.13h0l-.16.14-.16.15a1.07,1.07,0,0,0-.16.14l-.16.15c-.15.15-.29.31-.43.47a9.42,9.42,0,0,0-.76,1l-.11.18c-.11.18-.21.37-.31.56l-.09.19-.09.19-.09.19a1.67,1.67,0,0,1-.08.2c0,.07,0,.13-.07.2s-.05.13-.07.2-.09.27-.13.4a3379297884832.52,3379297884832.52,0,0,1-.1.42,1.17,1.17,0,0,0,0,.2c0,.07,0,.14,0,.21s0,.14,0,.21h0l0,.22a1.49,1.49,0,0,0,0,.21l0,.21h0c0,.07,0,.14,0,.22a1.48,1.48,0,0,0,0,.21h0c0,.07,0,.14,0,.22v.21c0,.08,0,.15,0,.22s0,.14,0,.22a1.8,1.8,0,0,0,0,.22,1.49,1.49,0,0,0,0,.21l0,.22,0,.22a2.07,2.07,0,0,0,0,.22c0,.07,0,.14,0,.22s0,.14,0,.21h0l.06.22.06.22a1.72,1.72,0,0,0,.07.21h0c0,.08,0,.15.07.22l.08.21.08.21.09.21.09.21a1.24,1.24,0,0,1,.1.2l.11.19.1.2.11.19.12.19.12.18.12.18.13.17.13.18c0,.05.09.11.14.17l.14.16.14.16.15.16.15.15.15.15.16.15.16.14.16.13.17.14.17.12.17.13.18.12.18.11.18.12.18.1.18.11.19.09.19.1.19.09.2.08.2.08.19.08.2.07.21.06.2.06.2.06.21,0,.21.05.21,0,.21,0a1.52,1.52,0,0,0,.21,0l.21,0,.22,0,.21,0h1.08l.22,0,.22,0,.22,0,.21,0,.22,0h0l.22,0,.22,0h0l.22,0,.21-.06.22-.07.22-.07h0l.19-.07h0l.18-.07h0l.18-.08h0l.18-.09h0l.17-.09h0l.17-.09,0,0,.17-.09,0,0,.17-.09,0,0,.15-.09,0,0,.15-.1,0,0,.15-.1,0,0,.14-.11,0,0,.13-.1,0,0,.14-.1,0,0,.13-.1,0,0,.13-.11,0,0,.09-.09.06-.06.1-.09,0-.05.1-.11,0-.06a.94.94,0,0,0,.1-.1l.06-.06.06-.08.08-.09.07-.08,0-.07.08-.1.06-.08,0-.06.09-.12,0-.06.09-.12,0-.06.12-.18h0l.06-.1,0,0,.1-.17,0,0,.1-.17,0,0,.16-.31h0l.1-.21v0l.09-.2h0c.08-.19.15-.37.22-.56h0a2.55,2.55,0,0,1,2.34-1.71h0a11.42,11.42,0,0,0,6.77-2.49A17.47,17.47,0,1,1,118,42,11.46,11.46,0,0,0,115.5,48.72Z"/><path class="cls-2" d="M1,84.18H165V89.3H1ZM127,41.1a8,8,0,1,1-8,8A8,8,0,0,1,127,41.1Z"/></g></g></svg>