<svg xmlns="http://www.w3.org/2000/svg" viewBox="0 0 334 332"><defs><style>.cls-1{fill:none;}.cls-2{fill:#1a573b;}</style></defs><title>Em Breve 2</title><g id="Camada_2" data-name="Camada 2"><g id="Camada_9" data-name="Camada 9"><rect class="cls-1" width="334" height="332"/><path class="cls-2" d="M68.81,210.51c3.11-5.76,6-11.62,10.24-16.7,2.47-3,5.19-5.67,9.06-6.75,5.25-1.47,9.71,1,11.35,6.22,1.39,4.43,1,8.89.26,13.35-.2,1.12-.46,2.22-.72,3.45,1.28.12,2-.74,2.84-1.3,5.42-3.75,8.59-9.17,11-15.11.17-.42.44-.8-.11-1.24-4.09-3.21-3.93-7.4-2.38-11.69a14.07,14.07,0,0,1,7.76-8.58c3.21-1.38,5.58.07,5.59,3.56a33.7,33.7,0,0,1-.45,5.2c-.15,1,0,1.33,1.1,1.15a31.47,31.47,0,0,0,12.6-4.62,2.18,2.18,0,0,1,2.75,0,11.37,11.37,0,0,1,3.44,3.89c.67,1.13-.09,2.08-.52,3a193.07,193.07,0,0,0-7.54,18.95,41.9,41.9,0,0,0-2.47,10.78c-.07,1.1-.16,2.41.74,3s2.16-.09,3.12-.78c3.7-2.63,6.18-6.33,8.7-10a26,26,0,0,0,4.17-9.69c2-9.66,6.08-18.39,13.22-25.43,3.33-3.3,7.27-5.68,12-5.94,8.06-.45,13.57,5.93,12.3,14-1.53,9.71-10.63,19.34-20.22,21.41a10.2,10.2,0,0,1-3.6.23c-1-.13-1.15.39-1.17,1.13a16.28,16.28,0,0,0,1.24,6.52c.82,2,3.13,2.89,5.65,2.41a22.37,22.37,0,0,0,10.26-5.3A58.7,58.7,0,0,0,194.37,185c1.55-3.36,2-7.23,3-10.84a60.8,60.8,0,0,1,4.86-12.6c1.78-3.26,3.33-3.85,6.76-2.48a12.38,12.38,0,0,1,2.65,1.44c2.38,1.71,2.45,2.17,1.42,4.87a94.12,94.12,0,0,0-6.43,27.73,16.29,16.29,0,0,0,.3,3.81c.3,1.75,1.24,1.85,2.6,1.23a10,10,0,0,0,3.45-3c3.71-4.52,6.32-9.71,8.91-14.9.4-.8,0-1.43-.12-2.14-2.07-9.58.69-17.79,7.15-24.91a7.52,7.52,0,0,1,3.31-2.23c2.46-.78,4,0,4.81,2.49a14.55,14.55,0,0,1,.25,7,68.31,68.31,0,0,1-4.92,16.14c-.75,1.73-.18,2.11,1.36,2.19,3.71.2,6.59-1.5,9.12-4,.55-.54.48-1.38.65-2.09,2.28-9.68,6.24-18.48,13.48-25.53,3.32-3.23,7.21-5.54,11.9-5.77,8-.39,13.44,5.84,12.26,13.82-1.42,9.68-10.53,19.42-20.09,21.53a12.15,12.15,0,0,1-3.8.26c-.92-.1-1.13.22-1.09,1.14a17.64,17.64,0,0,0,.88,5.54c1.1,3,3.05,4,6.18,3.33,6.3-1.38,10.83-5.44,15-10a69.73,69.73,0,0,0,10.51-15.79c.4-.81.63-1.93,1.83-1.93a3.54,3.54,0,0,1,3,1.77,2.07,2.07,0,0,1,.26,2.1c-5.54,11.66-12,22.65-22.69,30.44a25.67,25.67,0,0,1-14,5.08c-8.16.43-13.26-5.27-14.34-12.86-.08-.58.11-1.22-.39-1.84-2.51,1.66-5.09,3.15-8.2,3.43a8.62,8.62,0,0,1-4.72-.54c-1.49-.74-1.9-.08-2.53,1.07-3.6,6.59-7.63,12.89-13,18.26-2.9,2.92-6,5.55-10.23,6.48a7.64,7.64,0,0,1-9.06-4.83,27.63,27.63,0,0,1-1.57-8.35c-1.93,2.66-3.61,5.15-5.46,7.51-4.44,5.65-9.48,10.69-16.22,13.54-6.45,2.73-13,3.28-18.08-1.14-2.37-2.07-3.53-4.84-4.62-8-1.61,2.29-3.06,4.49-4.64,6.59-3.6,4.8-7.3,9.51-12.64,12.56-6.23,3.56-12.4.11-12.87-7.11-.42-6.5,1.58-12.46,3.86-18.37a137.69,137.69,0,0,1,6.83-14.43,3.57,3.57,0,0,0-1.89.5c-1.36.58-2.72,1.52-4.12,1.59-3.47.19-4.7,2.34-5.87,5.18a46.8,46.8,0,0,1-11.45,16.74,18.76,18.76,0,0,1-9.21,5.1c-1.12.22-1.32,1-1.67,1.77C91.74,229,87.62,236,81.47,241.61c-3.63,3.3-7.63,5.93-12.87,5.81A15.16,15.16,0,0,1,54,232.91c-.47-8,1.11-15.75,2.94-23.45,2.89-12.13,6.56-24,12.16-35.21.51-1,1.19-2,1.77-2.95,1.81-3.09,4.18-2.94,6.76-2a9.71,9.71,0,0,1,2.82,1.54c2.06,1.68,2.23,2.44,1,4.8a193.34,193.34,0,0,0-13.23,34.65l-.24.64A.6.6,0,0,0,68.81,210.51ZM76.56,207c-1.82,3.46-3.53,6.5-5,9.64-2.6,5.38-5.22,10.78-6.37,16.72-.53,2.76,1.22,4.54,4,4.23,2.1-.23,3.53-1.56,4.84-3,4.25-4.72,7-10.35,9.54-16.09.24-.54.31-.91-.27-1.33A17.64,17.64,0,0,1,76.56,207Zm100.35-34.73c-.52-1.23-1.27-1.87-2.5-1a10.44,10.44,0,0,0-2.26,2c-5.22,6.51-8,14.1-9.6,22.17-.26,1.28.34,1,1.07.76a11,11,0,0,0,4.59-2.82,32.41,32.41,0,0,0,8.7-18.69A15.62,15.62,0,0,0,176.91,172.24Zm94.19-23c-.46-2.42-1.18-2.68-2.85-1.63a11.91,11.91,0,0,0-3.43,3.64,52.35,52.35,0,0,0-7.21,16.53c-.39,1.51-1.49,4-.59,4.38,1.51.59,3.32-.9,4.7-2.09a26.77,26.77,0,0,0,7.11-10.63C270.21,156,271.38,152.51,271.1,149.23Zm-183,48.64c-.38-1-.24-2.2-1.4-2.45s-1.75.52-2.41,1.19a12.94,12.94,0,0,0-2.78,4.15c-1.68,4.13.9,7.68,4,9.38.28.15.8.66,1-.22C87.64,205.91,88.68,201.91,88.15,197.87ZM138.67,133c-4.44,6.36-9.26,12.38-15.88,16.67A25.94,25.94,0,0,1,110,154c-8.23.48-13.71-5.19-14.37-12.75-1.3-14.91,3.77-27.76,14-38.55,3.31-3.5,7.42-5.86,12.41-5.92,7.95-.09,13.06,5.89,11.91,13.75-1.43,9.91-10.84,19.78-20.66,21.67a14.71,14.71,0,0,1-2,.16c-2.56.1-2.58.1-2.31,2.7a22.23,22.23,0,0,0,.46,2.79c1.07,4.67,4.89,5.92,10,3.49,6.55-3.1,11.24-8.19,15.42-13.87,1.24-1.68,2.27-3.51,3.49-5.21,2.93-4.11,3.94-8.94,5.28-13.65a84.24,84.24,0,0,1,5.43-14.76c.87-1.73,1.46-4,4.06-3.94a9,9,0,0,1,7.16,3.93c.53.72.11,1.38-.19,2.08a132.06,132.06,0,0,0-8,26.38c-.08.37-.33.76.08,1.31a7.54,7.54,0,0,0,1.56-2.85,229.68,229.68,0,0,1,15.55-29.07,43.34,43.34,0,0,1,4.83-6.22A5.56,5.56,0,0,1,180.54,84a11.29,11.29,0,0,1,5.24,4,3.56,3.56,0,0,1,.41,3.93,104.47,104.47,0,0,0-7.19,24.5c-.06.37-.39.76.2,1.2,1.57-3.37,3.09-6.74,4.7-10.06,4.18-8.55,8.45-17.06,14-24.86.9-1.26,1.95-2.41,2.89-3.64,3.64-4.75,12-2.24,14.51,2.22a3.79,3.79,0,0,1,.07,3.63A72.21,72.21,0,0,0,209,111a23.27,23.27,0,0,0,.07,3c.18,2,1.41,2.58,3,1.3a27.44,27.44,0,0,0,5.38-6.52,123.8,123.8,0,0,0,8-13.88c.64-1.3,1.42-1.9,2.86-1.23,1.65.75,2.64,2.35,2,3.66-4.58,9.48-9.26,18.93-16.34,26.89a23.31,23.31,0,0,1-6,5c-5.88,3.27-10,.56-11.66-4.67-1.26-4-.88-8.11-.38-12.18a97.84,97.84,0,0,1,5.63-22.21c.2-.56.39-1.13.56-1.71,0-.08-.11-.22-.24-.45a158.9,158.9,0,0,0-9.88,16.48A234.42,234.42,0,0,0,179.74,130a39,39,0,0,0-1.49,4.59c-.78,3.07-3.21,4.24-6.12,2.79-2.57-1.29-3.94-3.58-4.79-6.2-1.13-3.49-.77-7-.33-10.58a136.43,136.43,0,0,1,3.52-17.33c.12-.47.53-1,.18-1.47-.73-.22-.82.4-1,.75a242.71,242.71,0,0,0-18,36.66,23.92,23.92,0,0,0-.74,2.5c-.7,2.64-2.76,3.87-5.35,2.95-4-1.42-5.32-4.87-6.16-8.59a23.68,23.68,0,0,1-.32-2.81.46.46,0,0,0,0-.69C138.79,132.35,138.82,132.8,138.67,133Zm-14.8-28.37c-.46-2.41-1.18-2.67-2.85-1.61a11.91,11.91,0,0,0-3.43,3.64,52.35,52.35,0,0,0-7.21,16.53c-.38,1.5-1.49,4-.58,4.38,1.5.57,3.31-.9,4.69-2.1a27,27,0,0,0,7.12-10.63C123,111.37,124.16,107.86,123.87,104.58Z"/></g></g></svg>