<svg xmlns="http://www.w3.org/2000/svg" viewBox="0 0 334 332"><defs><style>.cls-1{fill:none;}.cls-2{fill:#fdbc36;}</style></defs><title>Flower 2</title><g id="Camada_2" data-name="Camada 2"><g id="Camada_9" data-name="Camada 9"><rect class="cls-1" width="334" height="332"/><path class="cls-2" d="M52.84,123.41c-7.47-12-12.58-23.79-17.11-35.82-2.57-6.83-4.61-13.82-4.7-21.14-.18-13.83,8.56-23.92,21.91-26.78,15.22-3.26,30.11-6.16,45.58-.26,10.92,4.16,18.83,12.45,28.05,18.32,5.21-2.16,3.54-6.27,3.76-9.62.34-5.15-.33-10.48.75-15.45,5.19-24,21.09-34.54,47.46-32.39C207,2.6,226.89,16.86,238.42,42.9c.41.94.48,2.05,1,2.94a13.54,13.54,0,0,0,1.92,2.25c3.46.29,6.44-1.71,8.36-3.63,10.68-10.61,23.35-4.78,35.2-4.6,5.27.07,6.39,6.23,9.48,9.5,9.59,10.14,13,23.08,9.81,36-3.53,14.25-4.78,29.62-14.36,42-1.23,1.58-1.72,3.72-2.64,5.79,2.7,3.67,6.78,4.33,10.5,5.61,13.36,4.58,23.12,13.73,30.5,25.28,11.06,17.33,6.22,29-13.06,37.24-13,5.52-26.75,6.81-41.05,10,3.73,12,2.07,23.86,2.89,35.56,1.15,16.39-5.55,30.09-12.6,44.06-8.87,17.57-33.91,23.54-49.86,16.91-15-6.23-15.16-5.82-26.24-19.58-6.15,5.67-8.68,13.72-13,20.32-10.66,16.14-27.06,19.61-43.81,23.3-4.6,1-7.72-1.38-11.16-4-12-9-19.39-21.13-24.08-34.93-2.37-7-4.94-9.23-12.11-5.33-4.4,2.39-9.86,3.09-15,3.86-23.17,3.5-41.69-17.34-36.39-40.48,2.7-11.81,9.6-21.47,16.45-31.92-6.54-2.9-12.23-5.1-17.62-7.89C19.49,204.86,15.27,190.39,3,184c-4.07-2.12-3.13-8.67-2-13.16a51.65,51.65,0,0,1,21.65-31.14C31.58,133.66,41.67,129.32,52.84,123.41Z"/></g></g></svg>