<svg xmlns="http://www.w3.org/2000/svg" viewBox="0 0 35.5 41.9">
  <defs>
    <style>
      .cls-1 {
        fill: #224c2f;
      }
    </style>
  </defs>
  <g id="Group_47" data-name="Group 47" transform="translate(0)">
    <path id="XMLID_9_" class="cls-1" d="M46.7,18H29.3v1.6h7.9V40.2h1.6V19.6h7.9Z" transform="translate(-20.2 -18)"/>
    <g id="XMLID_2_" transform="translate(0 8.6)">
      <path id="XMLID_6_" class="cls-1" d="M38.7,35.1a10.889,10.889,0,0,0-.8-3.1h0a9.076,9.076,0,0,0-8.4-5.4h0A9.291,9.291,0,0,0,21.1,32h0a10.092,10.092,0,0,0-.8,3.1h-.1V59.9h1.6V46.8h0a7.644,7.644,0,0,1,7.1-7.6h1A7.639,7.639,0,0,1,37,46.8h0V59.9h1.6l.1-24.8Zm-1.6,6.7a9.189,9.189,0,0,0-7.6-4.1h0a8.95,8.95,0,0,0-7.6,4.1v-6h0A7.57,7.57,0,0,1,29,28.2h1a7.639,7.639,0,0,1,7.1,7.6h0Z" transform="translate(-20.2 -26.6)"/>
      <path id="XMLID_3_" class="cls-1" d="M55.7,35.1a10.889,10.889,0,0,0-.8-3.1h0a9.076,9.076,0,0,0-8.4-5.4h0A9.291,9.291,0,0,0,38.1,32h0a10.092,10.092,0,0,0-.8,3.1h-.1V59.9h1.6V46.8h0a7.644,7.644,0,0,1,7.1-7.6h1A7.639,7.639,0,0,1,54,46.8h0V59.9h1.6l.1-24.8Zm-1.6,6.7a9.189,9.189,0,0,0-7.6-4.1h0a8.95,8.95,0,0,0-7.6,4.1v-6h0A7.57,7.57,0,0,1,46,28.2h1a7.639,7.639,0,0,1,7.1,7.6h0Z" transform="translate(-20.2 -26.6)"/>
    </g>
  </g>
</svg>
