<svg xmlns="http://www.w3.org/2000/svg" viewBox="0 0 605.09 452.34"><defs><style>.cls-1{fill:#13110c;}</style></defs><title>la-glace-default</title><g id="Layer_2" data-name="Layer 2"><g id="Layer_1-2" data-name="Layer 1"><path class="cls-1" d="M17,327.82c1.62,1.51,1.58,2.87,2.12,3.37.3.28.56.24,1,.2a.51.51,0,0,1,.5.13c.15.13.12.28,0,.43l-3.13,3.36c-.08.09-.29.07-.44-.07a.34.34,0,0,1-.1-.44c1.55-2.75,1.46-4.68-.43-6.44a2.63,2.63,0,0,0-4,0c-.89,1-1.16,2.51.49,5.49,2,3.7,1.87,6.22.14,8.08-2.23,2.4-5.53,2.52-8.56-.3-1.92-1.79-1.8-3.24-2.72-4.11A1.35,1.35,0,0,0,.6,337.3a.54.54,0,0,1-.5-.13c-.15-.14-.12-.29,0-.43l4.32-4.65c.09-.09.26-.1.44.07s.15.32.1.43c-2.11,3.47-2.24,6.37.07,8.52,1.77,1.65,3.71,1.66,5,.25s1.32-3-.29-5.93c-1.92-3.46-2-5.83-.11-7.87,2.06-2.22,5.15-1.75,7.31.26"/><path class="cls-1" d="M26.34,360.36a8.92,8.92,0,0,1-1.28-12.88c3.35-4.23,8.79-4.89,12.83-1.68s4.64,8.64,1.29,12.88a8.94,8.94,0,0,1-12.84,1.68m-1-3.14a3.94,3.94,0,0,0,4.3,3.4c1.72-.19,3.63-1.55,6.1-4.67s3.35-5.28,3.16-7a3.7,3.7,0,0,0-1.47-2.57,3.63,3.63,0,0,0-2.83-.83c-1.73.2-3.64,1.55-6.11,4.67s-3.35,5.28-3.15,7"/><path class="cls-1" d="M44.3,372.33l1.8,1.22c.5.34.62.32,1-.19l8.26-12.21c.34-.51.32-.63-.19-1l-1.59-1.08c-.14-.09-.18-.17,0-.44s.27-.26.41-.17l4.88,3.31c.51.34.54.45.19,1l-.11.17c-.23.34-1.19,1.62-1.54,2.13l.06.13c1.83-1.68,4.19-2.1,6.12-.8A3.26,3.26,0,0,1,64.67,369a2.48,2.48,0,0,1-3.4.87,1.61,1.61,0,0,1-.53-2.29c.62-.92,1.4-.83,1.84-1.47a1,1,0,0,0-.28-1.43c-1.18-.8-3.62-.27-6.4,2.89l-5.48,8.11c-.34.51-.32.62.19,1l2,1.35c.13.09.18.17,0,.44s-.28.26-.41.17l-8.31-5.62c-.14-.09-.19-.17,0-.44s.27-.26.41-.17"/><path class="cls-1" d="M74.24,371.87l7.93,4.59c.15.08.2.16,0,.44s-.25.28-.43.18L79.86,376c-.53-.3-.58-.23-.67.42l-1.29,8.95c-.14,1.05-.48,2.94-.76,4.34l.14.08,5.78-4.93c4.3-3.67,4.23-4.37,1.87-5.93-.15-.08-.18-.19,0-.44s.25-.28.4-.19l5.56,3.21c.14.08.19.16,0,.44s-.26.28-.4.2c-1.61-.74-2.22-.57-6.82,3.29l-8.5,7.1a.49.49,0,0,1-.56.06l-1.24-.72c-.21-.12-.2-.21-.19-.49l2.46-17c.1-.65.07-.76-.46-1.07l-1.31-.76c-.15-.08-.2-.16,0-.44s.25-.28.4-.2"/><path class="cls-1" d="M107.8,389.53c4.19,2.05,4.84,6.69,3.07,10.3-.23.48-.43.52-.87.3l-9.82-4.8-.33.66c-1.74,3.57-2,5.7-1.49,7.34a4.33,4.33,0,0,0,2.22,2.36c2.39,1.17,5,.27,6.89-1,.2-.13.58.42.41.57a7.89,7.89,0,0,1-8.25.93c-4.3-2.1-6.07-7.34-3.72-12.16s7.77-6.56,11.89-4.54m-3.13.34c-1.75.6-3,2.39-4.23,4.81l6.22,3c.52.26.68.29.86-.08,1.44-2.94,1.83-4.48,1.36-5.85a3.09,3.09,0,0,0-1.61-1.74,3.55,3.55,0,0,0-2.6-.18"/><path class="cls-1" d="M124.17,397.64l2.31,1,.14-.34a.67.67,0,0,1,.32-.35,31.51,31.51,0,0,0,4.58-3.55c.35-.3.46-.35.68-.25s.43.26.19.83l-2.17,5.22,4.2,1.74c.15.06.21.13.08.44s-.21.31-.36.24l-4.2-1.74-5.2,12.51c-.7,1.67-.36,2.47.66,2.9.87.36,2.09.07,3.59-1.17.2-.18.7.33.49.51-2,1.85-3.82,2.27-5.71,1.49-2.69-1.12-3.53-3.47-2.12-6.87l4.54-10.93-2.3-1c-.15-.06-.21-.13-.09-.43s.22-.31.37-.25"/><path class="cls-1" d="M154.11,408.72c4.41,1.53,5.61,6.07,4.29,9.86-.18.5-.37.56-.84.4l-10.32-3.6-.25.7c-1.3,3.75-1.36,5.9-.6,7.46a4.34,4.34,0,0,0,2.48,2.08c2.52.88,5-.33,6.74-1.77.18-.15.61.34.47.51a7.89,7.89,0,0,1-8.08,1.91c-4.53-1.58-6.91-6.57-5.14-11.63s6.92-7.43,11.25-5.92m-3.06.71c-1.67.8-2.73,2.73-3.62,5.28L154,417c.54.19.71.2.85-.18,1.07-3.1,1.28-4.67.65-6a3.11,3.11,0,0,0-1.81-1.54,3.57,3.57,0,0,0-2.6.14"/><path class="cls-1" d="M196.26,429.52a8.25,8.25,0,0,1,3.3,1.56l.89-3.87c.7-3-.46-4.56-2.41-5s-3.19.14-3.37.94.46,1.45.21,2.53a1.58,1.58,0,0,1-2,1.17,2,2,0,0,1-1.22-2.55c.45-2,3.31-3.56,6.54-2.81,4.86,1.12,6.72,4,5.8,8l-2.12,9.13c-.29,1.28.09,1.79.89,2a3.55,3.55,0,0,0,1.62-.09c.23-.08.45.61.26.69a5.61,5.61,0,0,1-3.15.15,4.24,4.24,0,0,1-3.1-3.83l-.16,0a4.53,4.53,0,0,1-5.11,1.92c-4-.93-5.3-3.62-4.67-6.33.75-3.23,3.56-4.51,7.79-3.53m-1.76,9.25c1.59.37,3.23-.89,4.08-3.46l.8-3.47a5.31,5.31,0,0,0-2.52-1.47c-2-.45-3.48.33-4.24,3.64-.72,3.07,0,4.34,1.88,4.76"/><path class="cls-1" d="M215.37,442.88l2.14.37c.61.1.7,0,.81-.57l2.48-14.53c.11-.61,0-.7-.56-.8l-1.9-.33c-.16,0-.24-.08-.18-.41s.14-.34.3-.32l5.81,1c.61.1.68.2.57.8l0,.2c-.07.41-.42,2-.52,2.57l.1.1c1-2.28,3-3.64,5.25-3.25a3.26,3.26,0,0,1,2.9,3.69,2.48,2.48,0,0,1-2.74,2.19,1.59,1.59,0,0,1-1.42-1.86c.18-1.09.93-1.34,1.06-2.1a1,1,0,0,0-.84-1.18c-1.41-.25-3.41,1.24-4.64,5.27l-1.65,9.64c-.1.61,0,.7.57.81l2.38.4c.16,0,.24.09.18.41s-.14.35-.3.32l-9.89-1.69c-.16,0-.24-.08-.18-.41s.14-.35.3-.32"/><path class="cls-1" d="M242.7,430.15l2.48.3,0-.37a.67.67,0,0,1,.22-.42,31.75,31.75,0,0,0,3.44-4.66c.25-.38.34-.46.59-.43s.48.14.4.75l-.67,5.61,4.51.54c.17,0,.24.07.2.4s-.12.35-.28.33l-4.52-.54-1.61,13.46c-.21,1.79.32,2.47,1.42,2.6.94.11,2-.5,3.14-2.1.15-.23.77.14.62.37-1.39,2.3-3.07,3.22-5.1,3-2.89-.34-4.34-2.37-3.9-6l1.41-11.75-2.48-.3c-.16,0-.24-.06-.2-.39s.12-.36.29-.34"/><path class="cls-1" d="M274.48,432.76c4.66.31,7,4.37,6.75,8.37,0,.53-.21.64-.7.61L269.62,441l-.05.74c-.27,4,.25,6.05,1.39,7.36a4.36,4.36,0,0,0,3,1.34c2.66.18,4.75-1.65,6-3.49.14-.2.69.16.59.36a7.86,7.86,0,0,1-7.28,4c-4.78-.32-8.4-4.5-8-9.85s4.7-9,9.28-8.7m-2.77,1.5c-1.39,1.22-1.91,3.36-2.09,6.06l6.91.46c.57,0,.74,0,.76-.4.22-3.27,0-4.85-1-5.94a3.13,3.13,0,0,0-2.15-1,3.61,3.61,0,0,0-2.48.82"/><path class="cls-1" d="M299.71,433.74c2.21,0,3.1,1.07,3.83,1.08.41,0,.58-.2.87-.53a.53.53,0,0,1,.45-.24c.21,0,.29.13.29.34l-.06,4.58c0,.12-.17.24-.37.24s-.33-.08-.37-.25c-.7-3.08-2.07-4.45-4.65-4.48a2.63,2.63,0,0,0-2.94,2.71c0,1.31.83,2.63,4.05,3.73,4,1.36,5.56,3.35,5.53,5.89,0,3.27-2.4,5.58-6.54,5.52-2.62,0-3.5-1.19-4.77-1.2-.41,0-.7.19-1.08.64a.52.52,0,0,1-.45.24c-.2,0-.29-.13-.28-.33l.08-6.35c0-.12.12-.24.37-.24s.33.13.36.25c.77,4,2.63,6.22,5.78,6.26,2.42,0,3.87-1.26,3.89-3.19s-1.07-3.12-4.21-4.19c-3.75-1.27-5.4-3-5.37-5.76,0-3,2.64-4.75,5.59-4.72"/><path class="cls-1" d="M325.17,441.68a8.31,8.31,0,0,1,3.59.63l-.17-4c-.13-3.11-1.65-4.28-3.65-4.2s-3,1-3,1.81.83,1.28.88,2.38A1.61,1.61,0,0,1,321.2,440a2,2,0,0,1-1.85-2.14c-.08-2,2.24-4.31,5.55-4.45,5-.21,7.55,2.06,7.72,6.15l.39,9.37c.06,1.31.57,1.7,1.38,1.66a3.47,3.47,0,0,0,1.54-.51c.2-.13.59.46.43.59a5.48,5.48,0,0,1-3,1,4.24,4.24,0,0,1-4-2.87h-.16a4.54,4.54,0,0,1-4.42,3.22c-4.13.17-6.07-2.08-6.19-4.87-.14-3.31,2.24-5.29,6.58-5.48m.76,9.4c1.64-.07,2.88-1.72,3-4.43l-.15-3.56a5.27,5.27,0,0,0-2.82-.74c-2,.08-3.26,1.24-3.12,4.64.13,3.15,1.2,4.17,3.08,4.09"/><path class="cls-1" d="M347.27,449.56l2.16-.23c.61-.06.69-.15.62-.76l-1.53-14.66c-.06-.61-.15-.68-.77-.62l-1.66.17c-.17,0-.25,0-.29-.34s.05-.37.21-.39l5.62-.59c.61-.06.7,0,.76.62s.1,1.68.1,2.5l.13.07a5.45,5.45,0,0,1,5.11-4.32c4.11-.43,6.63,1.57,7,5.65l1.07,10.26c.07.61.16.68.77.62l1.67-.18c.16,0,.25,0,.28.35s0,.37-.2.39l-9,.93c-.17,0-.25,0-.29-.34s.05-.37.21-.39l1.87-.2c.61-.06.69-.15.62-.76l-1.12-10.71c-.38-3.67-2.06-4.81-4.1-4.59s-3.51,2.26-3.67,5.07l1.15,11c.07.61.16.68.77.62l1.87-.2c.17,0,.25,0,.28.34s0,.38-.2.4l-9.45,1c-.16,0-.25,0-.28-.34s0-.37.2-.39"/><path class="cls-1" d="M385.55,435.55a8.26,8.26,0,0,1,3.64.17l-.66-3.92c-.52-3.06-2.18-4-4.16-3.69s-2.88,1.36-2.75,2.16,1,1.17,1.17,2.26a1.58,1.58,0,0,1-1.38,1.85,2,2,0,0,1-2.11-1.89c-.34-2,1.68-4.56,4.95-5.11,4.92-.84,7.74,1.1,8.43,5.13l1.56,9.25c.22,1.29.77,1.61,1.58,1.48a3.38,3.38,0,0,0,1.46-.71c.18-.15.65.39.51.54a5.61,5.61,0,0,1-2.85,1.35,4.26,4.26,0,0,1-4.34-2.33l-.16,0a4.53,4.53,0,0,1-4,3.75c-4.07.69-6.28-1.3-6.75-4.05-.55-3.27,1.56-5.54,5.84-6.26m1.93,9.22c1.62-.27,2.65-2.06,2.44-4.77l-.6-3.51a5.39,5.39,0,0,0-2.89-.39c-2,.34-3.08,1.65-2.52,5,.53,3.11,1.72,4,3.57,3.67"/><path class="cls-1" d="M408.27,440.52l2.32-.52c.6-.13.66-.23.53-.83L405,411.88c-.13-.6-.23-.67-.83-.53l-1.88.42c-.16,0-.25,0-.32-.31s0-.38.16-.41l5.83-1.31c.6-.13.7-.07.84.53l6.26,28c.14.59.24.66.84.52l1.83-.41c.16,0,.25,0,.32.31s0,.37-.15.41l-9.48,2.12c-.16,0-.24,0-.32-.31s0-.37.16-.41"/><path class="cls-1" d="M454,402.49a1.41,1.41,0,0,1-1.89-.94c-.36-1.09.05-1.69-.17-2.35-.26-.82-1.14-1-2.07-.71-1.91.62-2.76,2.92-1.41,7.08l2,6.16,3.93-1.27c.16,0,.25,0,.35.27s0,.38-.12.43l-3.93,1.27,4.75,14.69c.19.58.29.63.87.44l2.42-.78c.16,0,.25,0,.35.28s0,.37-.12.42l-9.74,3.16c-.16,0-.25,0-.35-.28s0-.38.12-.43l2.14-.69c.59-.19.64-.29.45-.88l-4.75-14.68-2.61.84c-.16.05-.25,0-.35-.27s0-.38.12-.43l2.61-.84-.75-2.34c-2.05-6.31.18-11.68,3.8-12.85,2.53-.82,4.91.13,5.5,2a2.1,2.1,0,0,1-1.14,2.74"/><path class="cls-1" d="M470.65,422.66l2-.77c.58-.22.62-.33.4-.9l-5.28-13.76c-.22-.58-.33-.62-.9-.4l-1.8.69c-.15.05-.24.05-.36-.26s-.06-.37.1-.43l5.5-2.12c.58-.22.68-.17.9.4l.07.2c.15.38.65,1.9.87,2.47l.14,0c-.33-2.46.67-4.64,2.85-5.48a3.27,3.27,0,0,1,4.38,1.7,2.49,2.49,0,0,1-1.24,3.28,1.61,1.61,0,0,1-2.18-.87c-.39-1,.13-1.63-.15-2.35a1,1,0,0,0-1.33-.59c-1.33.51-2.29,2.81-1.29,6.9l3.51,9.13c.22.58.32.62.89.4l2.26-.86c.15-.06.24-.05.36.25s.06.38-.1.44l-9.36,3.59c-.15.06-.24,0-.36-.25s-.06-.38.1-.44"/><path class="cls-1" d="M497.84,401.66a8.27,8.27,0,0,1,3.56-.78l-1.65-3.6c-1.3-2.83-3.16-3.33-5-2.5s-2.43,2.06-2.09,2.81,1.25.86,1.71,1.87a1.59,1.59,0,0,1-.85,2.15,2,2,0,0,1-2.53-1.27c-.83-1.83.44-4.84,3.45-6.23,4.54-2.08,7.77-.95,9.48,2.77l3.91,8.53c.54,1.19,1.16,1.35,1.9,1a3.38,3.38,0,0,0,1.23-1.05c.13-.2.73.2.63.38a5.58,5.58,0,0,1-2.4,2.05,4.26,4.26,0,0,1-4.8-1.13l-.15.06a4.51,4.51,0,0,1-2.86,4.65c-3.76,1.73-6.41.38-7.57-2.16-1.38-3,.06-5.75,4-7.56m4.26,8.41c1.49-.68,2-2.68,1.11-5.24l-1.48-3.24a5.36,5.36,0,0,0-2.89.38c-1.83.84-2.56,2.39-1.14,5.48,1.31,2.86,2.69,3.4,4.4,2.62"/><path class="cls-1" d="M521.54,400.4l1.9-1c.53-.3.57-.41.27-1l-7.12-12.9c-.3-.54-.41-.58-1-.28l-1.46.81c-.15.08-.24.09-.4-.2s-.1-.36,0-.44l4.95-2.73c.54-.3.65-.27.94.27s.74,1.51,1.07,2.27h.14a5.45,5.45,0,0,1,3-6c3.63-2,6.72-1.13,8.7,2.45l5,9c.3.54.41.57,1,.27l1.47-.81c.14-.08.23-.08.39.21s.11.36,0,.44l-7.88,4.35c-.15.08-.24.08-.4-.2s-.1-.37,0-.45l1.65-.91c.54-.29.57-.4.27-.94l-5.2-9.43c-1.78-3.23-3.77-3.63-5.57-2.64s-2.35,3.45-1.4,6.11l5.36,9.72c.3.53.41.57,1,.27l1.65-.91c.14-.08.23-.08.39.2s.1.37,0,.45L521.89,401c-.14.08-.23.09-.39-.2s-.11-.36,0-.44"/><path class="cls-1" d="M555.75,368a1.5,1.5,0,0,1-2.13-.42c-.61-.92-.19-1.78-.78-2.67s-2-1.19-3.71-.07a3.64,3.64,0,0,0-1.69,2.43c-.35,1.7.33,3.95,2.51,7.27s3.85,4.67,5.55,5a4.34,4.34,0,0,0,3.16-.7c2.06-1.35,2.41-3.88,2.32-6.18,0-.23.65-.27.7-.06a7.67,7.67,0,0,1-3,7.33c-4,2.62-9.41,1.47-12.36-3s-1.87-9.89,2.45-12.72c2.57-1.68,6.18-1.55,7.57.58a2.39,2.39,0,0,1-.55,3.2"/><path class="cls-1" d="M563.63,338.87a27.41,27.41,0,0,0,8.64,3.54c.35,0,.26.67,0,.67a30.81,30.81,0,0,1-7.94-1.6,30.32,30.32,0,0,1-.5,8.08c-.07.25-.7.17-.65-.17a27.77,27.77,0,0,0-1.18-9.27c-.08-.3-.07-.56.51-1s.84-.39,1.12-.24m6.7,9.88c3.7-2.84,8.15-1.35,10.59,1.83.33.42.27.62-.12.92l-8.67,6.66.45.58c2.42,3.15,4.18,4.38,5.9,4.61a4.38,4.38,0,0,0,3.11-.94c2.11-1.62,2.47-4.38,2.21-6.6,0-.24.63-.33.68-.12a7.89,7.89,0,0,1-2.83,7.81c-3.8,2.92-9.28,2.17-12.55-2.09a8.94,8.94,0,0,1,1.23-12.66m-1.09,2.95c-.24,1.84.79,3.79,2.43,5.93l5.49-4.21c.46-.35.56-.49.31-.81-2-2.6-3.2-3.63-4.63-3.82a3.1,3.1,0,0,0-2.28.66,3.59,3.59,0,0,0-1.32,2.25"/><path class="cls-1" d="M589.9,332.5c1.65-1.47,3-1.31,3.55-1.8.3-.27.29-.54.28-1a.5.5,0,0,1,.18-.48c.15-.14.29-.1.43.05l3.06,3.41a.34.34,0,0,1-.11.43.34.34,0,0,1-.44.07c-2.6-1.8-4.54-1.88-6.46-.16a2.64,2.64,0,0,0-.34,4c.88,1,2.39,1.37,5.51,0,3.87-1.7,6.37-1.3,8.06.59,2.19,2.44,2,5.73-1.08,8.49-1.95,1.75-3.38,1.5-4.33,2.35a1.33,1.33,0,0,0-.36,1.19.5.5,0,0,1-.17.49c-.15.13-.29.1-.43-.06L593,345.38c-.09-.1-.08-.27.11-.43s.32-.13.44-.07c3.26,2.42,6.13,2.81,8.48.7,1.8-1.61,2-3.54.71-5s-2.9-1.58-5.93-.24c-3.63,1.59-6,1.46-7.85-.61-2-2.26-1.28-5.29.92-7.26"/><polygon class="cls-1" points="476.12 286.51 476.12 267.59 526 267.59 526 251.35 476.12 251.35 476.12 178.43 532.41 178.43 532.41 159.94 457.64 159.94 457.64 304.99 534.83 304.99 534.83 286.51 476.12 286.51"/><path class="cls-1" d="M99,282.46c-34.7,0-61.89-27-61.89-61.59a60.86,60.86,0,0,1,60.64-60.93c18.25,0,35.51,7.6,46.17,20.31l-14.16,11.87c-7.08-8.45-19.35-13.69-32-13.69a42.35,42.35,0,0,0-42.15,42.44C55.63,245.05,74.69,264,99,264a42.79,42.79,0,0,0,30-12.69,29.53,29.53,0,0,0,4.55-6.13H104.17V226.68H154l.4,8.81c.46,9.84-3.8,20-12,28.56A61,61,0,0,1,99,282.46"/><polygon class="cls-1" points="183.09 306.38 183.09 169.19 164.61 169.19 164.61 322.77 235.78 322.88 235.78 306.38 183.09 306.38"/><path class="cls-1" d="M407.61,343.23c-24,0-46.7-9.84-63.84-27.69a93.52,93.52,0,0,1-26.26-65c0-49.93,40.42-90.55,90.1-90.55a89.54,89.54,0,0,1,13.14,1L418,179.19a70.75,70.75,0,0,0-10.43-.76c-39.49,0-71.62,32.33-71.62,72.07,0,40.24,32.8,74.25,71.62,74.25a65.51,65.51,0,0,0,37.63-11.81l10.57,15.16a83.88,83.88,0,0,1-48.2,15.13"/><path class="cls-1" d="M224.64,289H205.93l51.63-120.24h1L310.41,289H290.83l-6.76-16.46H231.4Zm33.27-79.53L238.33,256.1h38.81c.17,0-19.23-46.61-19.23-46.61"/><path class="cls-1" d="M221.51,99.44c-.36,2.83-2.13,5.84-3.89,8.31a15.86,15.86,0,0,0-.89,1.6v.17c-1.24,2-1.95,3.36-2.3,3.9l-1.24,1.94c0,.18-1.06,1.59-1.06,1.77a106.09,106.09,0,0,1-16.81,20.7c-7.78,7.61-17.16,11.33-26.72,11.33A37.09,37.09,0,0,1,153,145.62a91.81,91.81,0,0,1-14.51-9,6.4,6.4,0,0,0-1.41-.88c-1.59-1.24-3.19-2.3-4.6-3.54-.36-.35-.53-.53-.71-.53s-.35.18-.71.18a23.23,23.23,0,0,0-2.3,1.94c-.17.18-.53.36-.88.71-5.84,5-13.63,8.14-22.3,9.38-6.19.88-11,.18-15.21-1.77-7.08-3.54-11.15-9.38-11.33-17.34a17.25,17.25,0,0,1,.36-2.83,4.35,4.35,0,0,0,.35-1.42c.71-2.47,1.24-4.77,3-7.07a24.1,24.1,0,0,1,6.55-6.2h.17a31.31,31.31,0,0,1,8.67-3,17.57,17.57,0,0,1,5.13-.36A39.26,39.26,0,0,1,123.48,109c1.07.53,2.3,1.24,3.37,1.77a15.72,15.72,0,0,1,2.3,1.24c.17-.35.35-.53.53-.88a4.2,4.2,0,0,1,.7-1.24,63.8,63.8,0,0,0,4.78-10.62c.18-.88.53-1.59.71-2.3l1.59-3.72c.53-1.41,1.06-2.65,1.42-3.89,1.77-4.6,3.18-9,5-13.62.53-1.77,1.24-3.36,1.77-5.13a.65.65,0,0,0,.18-.53c-.18-.18-.36-.18-.71-.36-2.65-.88-5.31-1.77-7.78-2.83-9-3.54-15.4-8.85-19.29-16.1-3.54-7.08-3.72-16.28-.53-24.24,2.65-6.55,7.43-11.32,13.27-13.27A3.39,3.39,0,0,1,135,14.51a13.41,13.41,0,0,1,2.47,5.31,2.35,2.35,0,0,1-1.59,2.83c-6.9,2.65-10.44,10.44-8.49,18,1.77,6.55,9.55,14.69,20.52,17.17a10.92,10.92,0,0,0,1.77.35c.35,0,.53-.18,1.24-2.12,1.24-3.19,2.48-6.37,3.54-9.38a50.93,50.93,0,0,1,2.65-7.25,147.38,147.38,0,0,1,9-20.53,46.15,46.15,0,0,1,10.79-13.8A21.31,21.31,0,0,1,190.9,0c9.55,0,16.81,5.84,18.22,15,.89,5.13.36,10.79-1.41,17a51.61,51.61,0,0,1-14.16,23.7,54.39,54.39,0,0,1-16.1,11.5,54.19,54.19,0,0,1-17.52,4.43,1.23,1.23,0,0,0-1.41,1.06c-.89,2-1.6,4.07-2.3,6-1.06,3-2.3,6.19-3.19,9.2-2.3,6.9-5.13,13.44-7.78,19.81-1.77,3.9-3.36,7.79-5,11.68-.35,1.06-.35,1.06.18,1.59,5.66,5,12.56,10.44,20.88,13.8a25,25,0,0,0,8.49,1.77c7.43,0,14.51-4.06,21.94-12.74a146.89,146.89,0,0,0,13.27-18.22,16.31,16.31,0,0,1,.89-1.41c.17-.36.53-.89.71-1.24h.17c.71-1.24,1.59-2.48,2.3-3.72h.18l.35-.53c.18-.35.36-.71.53-1.06,1.24-1.59,2.13-3,3.36-3.72,1.77-1.06,3.72-1.06,5.84.53a5.28,5.28,0,0,1,2.13,5M119.24,121.38a21.74,21.74,0,0,0-14.16-4.78h-.88a22.18,22.18,0,0,0-3.54.18c-2.48.35-5.84,1.59-7.08,3.71s-1.77,5.31.36,7.08a13.16,13.16,0,0,0,7.78,3.19h.89a21.36,21.36,0,0,0,11.14-3.19l.18-.18c3.72-2.3,5.66-4.07,5.84-5.3,0-.18,0-.36-.53-.71M180.1,18.75a108.38,108.38,0,0,0-13.27,28c-.7,1.95-1.41,4.07-1.94,6a58.72,58.72,0,0,0-1.95,6h.18a34.27,34.27,0,0,0,12.21-4.07,45.79,45.79,0,0,0,17.69-18,27.61,27.61,0,0,0,3.89-13.45,34.38,34.38,0,0,0-.53-6.19,5.27,5.27,0,0,0-4.6-4.61,5.07,5.07,0,0,0-1.59-.17,9.66,9.66,0,0,0-6,2.12,19.84,19.84,0,0,0-4.07,4.42"/><path class="cls-1" d="M316,99.26c-.35,2.83-2.3,6-3.89,8.32a15.31,15.31,0,0,1-1.06,1.77,68.47,68.47,0,0,1-4.25,6.37,9.56,9.56,0,0,1-1.24,1.59,106.75,106.75,0,0,1-11.14,13.45l-1.06,1.06c-2.48,2.47-4.6,4.77-8,6.54a21.77,21.77,0,0,1-7.6,2.66c-8.5,1.06-15-3-18-11.15,0-.18-.18-.35-.18-.71l-.35.18a11.18,11.18,0,0,1-1.42,1.42c-6.9,5.48-13.09,8.84-19.46,10.26-2.12.35-6.37.71-6.37.71-12.92,0-22.65-9-24.24-22.47a59.44,59.44,0,0,1,1.41-20A74,74,0,0,1,220.8,74.84c5-7.07,12.92-16.63,24.77-20.87,7.08-2.48,14-2.66,20.35-.18,5.84,2.12,9.91,5.84,11.5,11.5v.18c.18.35.18.88.36,1.41.35-.53.53-.88.88-1.41a7,7,0,0,0,1.06-1.95h.18a3.88,3.88,0,0,1,3.18-2,7.21,7.21,0,0,1,6,2,3.06,3.06,0,0,1,1.06,4.07C288,72.72,285.74,77.85,283.44,83c-2.13,4.07-3.36,8.5-4.78,12.92-.88,2.65-1.77,5.31-2.65,7.78-.89,2.66-1.95,5.31-2.66,8a30.5,30.5,0,0,0-1.59,9v2.12c0,2.83,1.59,5.84,4.25,5.84a4.65,4.65,0,0,0,2.12-.53,18.08,18.08,0,0,0,4.6-2.83,73.23,73.23,0,0,0,10.44-11.5c.53-.53.88-1.24,1.41-1.77l1.07-1.42a46.18,46.18,0,0,0,3.71-5.13c.71-.88,1.24-1.77,1.95-2.65v-.18a41.69,41.69,0,0,0,2.3-3.54l.53-.53a16.06,16.06,0,0,1,3.71-4.77c1.77-1.07,3.72-1.07,6,.53a5.11,5.11,0,0,1,2.12,5m-62.46-35a24.58,24.58,0,0,0-12.2,5.48c-11.86,9.38-20.71,26.9-21.77,42.47-.17,5.31,1.24,10.26,4.07,13.27a11,11,0,0,0,8.5,3.36,19.13,19.13,0,0,0,7.6-1.42,39.71,39.71,0,0,0,16.64-13.27A71.72,71.72,0,0,0,264.86,98a40.51,40.51,0,0,0,3.36-13.8,34.57,34.57,0,0,0-2-12.56c-1.77-5-5.48-7.61-10.61-7.61a9.26,9.26,0,0,0-2.13.18"/></g></g></svg>