<svg xmlns="http://www.w3.org/2000/svg" viewBox="0 0 204.62 74.98">
    <path fill="white" d="M16.69,9.41V33.3h-1.6V9.41c0-4.92-2.44-7.74-6.71-7.74s-6.67,3-6.67,8.23V33.3H0V8.83C0,3.56,3.37,0,8.38,0a7.34,7.34,0,0,1,7.31,4.72L15.8,5l.12.29L16,5l.11-.25A7.3,7.3,0,0,1,23.41,0c5,0,8.37,3.54,8.37,8.81V33.3h-1.7V9.9c0-5.23-2.43-8.23-6.67-8.23S16.69,4.49,16.69,9.41Zm24-7.88V1.39H53.84V0H39V33.3H53.84V31.91H40.72V13.73H51V12.35H40.72V1.53ZM99.9,0A16.51,16.51,0,0,0,83,16.86,16.84,16.84,0,0,0,99.9,34a17,17,0,0,0,11.86-4.63L110.6,28.2a15,15,0,0,1-10.7,4.13c-8.43,0-15-6.8-15-15.47A15.31,15.31,0,0,1,89.1,5.93a15.37,15.37,0,0,1,21.5.25l1.22-1.29A16.77,16.77,0,0,0,99.9,0Zm64.7,16.64c0,5.37-1.27,9.5-3.77,12.3s-6.46,4.34-11.56,4.34h-6V0h6C159.31,0,164.6,5.78,164.6,16.66Zm-1.85,0c0-10.48-4.38-15.15-14.21-15.15H145v30.3h3.55C158.24,31.81,162.75,27,162.75,16.66Zm41.87.49A16.51,16.51,0,0,1,187.69,34a16.85,16.85,0,0,1-16.93-17.12A16.52,16.52,0,0,1,187.69,0,16.85,16.85,0,0,1,204.62,17.15Zm-1.89,0A15.26,15.26,0,0,0,176.89,5.93a15.32,15.32,0,0,0-4.24,10.93,15.26,15.26,0,0,0,25.84,11.21A15.31,15.31,0,0,0,202.73,17.15Zm-15-3.19a2.9,2.9,0,1,0,2.9,2.9A2.9,2.9,0,0,0,187.69,14ZM120.9,21V33.3h-1.7V8.83c0-5.27,3.36-8.81,8.36-8.81s8.37,3.54,8.37,8.81V33.3h-1.7V21c0-5.23-2.43-8.23-6.67-8.23S120.9,15.73,120.9,21Zm6.66-9.88a8.05,8.05,0,0,1,6.24,2.63l.2.23.23.26V9.9c0-5.23-2.43-8.23-6.67-8.23s-6.66,3-6.66,8.23v4.3l.22-.26.21-.23A8,8,0,0,1,127.56,11.08ZM70.19,26.84l6.19,6.46H74l-5.44-5.68-.07-.07-.08,0A14.4,14.4,0,0,1,63,28.8h-.13v4.5H61.1V0H63a14.41,14.41,0,0,1,7.25,26.64l-.14.08Zm5.19-12.42A12.82,12.82,0,0,0,63,1.68h-.13v25.5H63A12.84,12.84,0,0,0,75.38,14.42Zm9.17,28V41h-18v1.44h8.15V74.3H76.4V42.45h8.15Zm33.05,15.7A16.51,16.51,0,0,1,100.67,75,16.85,16.85,0,0,1,83.74,57.86,16.51,16.51,0,0,1,100.67,41,16.85,16.85,0,0,1,117.6,58.15Zm-1.89,0A15.26,15.26,0,0,0,89.87,46.93a15.32,15.32,0,0,0-4.24,10.93,15.27,15.27,0,0,0,25.84,11.22A15.36,15.36,0,0,0,115.71,58.15Zm56.89-15.6v-.14h13.15V41H170.87V74.4h14.88V73H172.6V54.79h10.28V53.4H172.6V42.55ZM100.65,55a2.9,2.9,0,1,0,2.9,2.89A2.89,2.89,0,0,0,100.65,55Zm33.23,12.88,6.19,6.45h-2.39l-5.44-5.67-.07-.07-.08,0a14.39,14.39,0,0,1-5.44,1.2h-.13v4.5h-1.73V41h1.86a14.4,14.4,0,0,1,7.25,26.62l-.14.09Zm5.19-12.42a12.83,12.83,0,0,0-12.42-12.74h-.13V68.18h.13A12.82,12.82,0,0,0,139.07,55.43ZM157,67.84l6.19,6.46h-2.39l-5.44-5.68-.07-.06-.08,0a14.22,14.22,0,0,1-5.45,1.21h-.13v4.5h-1.72V41h1.85A14.41,14.41,0,0,1,157,67.64l-.14.08Zm5.19-12.42a12.82,12.82,0,0,0-12.42-12.74h-.14v25.5h.14A12.83,12.83,0,0,0,162.15,55.42ZM35.53,49.83V74.3H33.84V62c0-5.23-2.44-8.23-6.67-8.23A6,6,0,0,0,21.3,57.5v.16a25.28,25.28,0,0,1-.8,6.58V74.3H18.8V68.23A11.62,11.62,0,0,1,17.54,70C15,72.84,11.08,74.3,6,74.3H0V41H6c6.2,0,10.58,2.21,13,6.49A7.89,7.89,0,0,1,27.17,41C32.17,41,35.53,44.56,35.53,49.83ZM19.46,57.66c0-10.48-4.38-15.15-14.21-15.15H1.7V72.82H5.25C15,72.82,19.46,68,19.46,57.66ZM33.84,50.9c0-5.23-2.44-8.23-6.67-8.23s-6.67,3-6.67,8.23v.23a22.44,22.44,0,0,1,.63,3.39,8,8,0,0,1,6-2.43,8,8,0,0,1,6.23,2.63l.21.23.23.26V50.9Z"/>
</svg>