<svg xmlns="http://www.w3.org/2000/svg" viewBox="0 0 629.39 1075.24"><defs><style>.cls-1,.cls-13,.cls-9{opacity:0.2;}.cls-2,.cls-9{fill:#080607;}.cls-3{fill:#59c1aa;}.cls-4{fill:#fdbc36;}.cls-5{fill:#712220;}.cls-6{fill:#ac6a33;}.cls-7{fill:#f4876a;}.cls-8{fill:#a64c13;}.cls-10,.cls-13{fill:#020203;}.cls-11{fill:#28684c;}.cls-12{fill:#eae2d2;}</style></defs><title>Men Left 3</title><g id="Camada_2" data-name="Camada 2"><g id="Camada_10" data-name="Camada 10"><g class="cls-1"><path class="cls-2" d="M111.59,343.63c51.44-58.94,126.9-61.42,126.9-61.42l2-38.22-14.22-7.41c-31.08-16-36.44-83.73-36.44-83.73V73.39H171.77s-1.27,51.13,0,82.45c0,0,8.21,62.67,50.18,89.21v.41c-69.46,7-123.28,38.62-155.78,76.59C26.47,368.42,0,517.4,0,630.53L40.18,795.32H68.57C68,677,70.94,390.21,111.59,343.63Z"/></g><path class="cls-3" d="M2.68,627.82c0-113.13,26.47-262.11,66.17-308.48s98.09-70.14,196.86-70.14S478.09,316.1,503.9,409.94s43,391.46,43,391.46H34.07Z"/><path class="cls-4" d="M311.7,405.41a47,47,0,0,0-1.16-6.42,37.24,37.24,0,0,0-9.24-15.33,42.87,42.87,0,0,0-7.21-5.67,40.34,40.34,0,0,0-8.44-3.81,33.21,33.21,0,0,0-8.92-1.51,34.63,34.63,0,0,0-9.24.93,36.63,36.63,0,0,0-8.89,3.3,23.33,23.33,0,0,0-4.53,2.82,42.64,42.64,0,0,0-7,6.3,53.9,53.9,0,0,0-5.51,7.81,61.28,61.28,0,0,0-3.8,9,35.41,35.41,0,0,0-1.73,9.53,12.09,12.09,0,0,0,0,2.48,33.18,33.18,0,0,0,1.18,6.47,26.66,26.66,0,0,0,4,8.1,36.88,36.88,0,0,0,6.2,6.82A37.6,37.6,0,0,0,254.7,441c1.51.69,3.1,1.4,4.73,2a34.1,34.1,0,0,0,5,1.75,45.26,45.26,0,0,0,6.75.83,35.33,35.33,0,0,0,9.16-1,22.73,22.73,0,0,0,5-1.59,46,46,0,0,0,8.38-4.3,50.6,50.6,0,0,0,7.27-6,48.12,48.12,0,0,0,5.75-7.44,41.18,41.18,0,0,0,3.8-8.52,29.37,29.37,0,0,0,1.31-8.87A15,15,0,0,0,311.7,405.41Z"/><path class="cls-5" d="M311.74,346.06a44.5,44.5,0,0,0-1.16-6.43,37.29,37.29,0,0,0-9.23-15.32,43.17,43.17,0,0,0-7.21-5.67,40.66,40.66,0,0,0-8.45-3.81,33.62,33.62,0,0,0-8.92-1.52,35.14,35.14,0,0,0-9.24.94,36.37,36.37,0,0,0-8.89,3.3,23.33,23.33,0,0,0-4.53,2.82,43.06,43.06,0,0,0-7,6.3,53.83,53.83,0,0,0-5.5,7.81,60.26,60.26,0,0,0-3.81,9A35.34,35.34,0,0,0,236.1,353a13.7,13.7,0,0,0,0,2.48,33.94,33.94,0,0,0,1.18,6.47,26.91,26.91,0,0,0,4.06,8.1,36.83,36.83,0,0,0,6.19,6.82,38.07,38.07,0,0,0,7.18,4.76c1.51.69,3.1,1.4,4.73,2a31.65,31.65,0,0,0,5,1.75,43.86,43.86,0,0,0,6.74.83,34.89,34.89,0,0,0,9.16-1,23.92,23.92,0,0,0,5-1.59,46.34,46.34,0,0,0,8.38-4.3,51.72,51.72,0,0,0,7.27-6,48.68,48.68,0,0,0,5.74-7.44,40.66,40.66,0,0,0,3.8-8.52,28.76,28.76,0,0,0,1.31-8.87A13.06,13.06,0,0,0,311.74,346.06Z"/><path class="cls-6" d="M233.6,439.26c.89,2.85,46,125.37,46,125.37L314.31,433.8Z"/><path class="cls-7" d="M299.8,485c-15.08-4.46-29.52,5.73-40.79,6.14-5.64.21-7.78-3.68-9.08-7.21l-9.28-25.29-.16-.45c-12.77,10.59-39.3,19.84-43.48,20.43l8.28,31.86L204.66,529s13.38.63,37,0,32.49-7.65,42.87-17.84,15.11-7,19.57-11.47S314.88,489.49,299.8,485Z"/><polygon class="cls-8" points="250.89 486.59 249.93 483.96 249.93 483.96 250.89 486.59"/><polygon class="cls-8" points="238.49 452.76 240.49 458.22 240.49 458.22 238.49 452.76"/><polygon class="cls-8" points="249.93 483.96 249.93 483.96 240.49 458.22 240.49 458.22 240.65 458.67 249.93 483.96"/><path class="cls-9" d="M111.59,343.63c51.44-58.94,126.9-61.42,126.9-61.42l2-38.22-14.22-7.41c-31.08-16-36.44-83.73-36.44-83.73V73.39H171.77s-1.27,51.13,0,82.45c0,0,8.21,62.67,50.18,89.21v.41c-69.46,7-123.28,38.62-155.78,76.59C26.47,368.42,0,517.4,0,630.53L40.18,795.32H68.57C68,677,70.94,390.21,111.59,343.63Z"/><path class="cls-7" d="M171.77,73.39s-1.27,51.13,0,82.45c0,0,8.21,62.67,50.18,89.21,0,3.6.06,7.31.25,10.39,0,0,3.32,31.68,35.14,31.68s44-27.13,45.93-33.58a43.7,43.7,0,0,0,1.27-7.74c39.62-23.76,51-79.42,54.49-96.35,4.47-21.73,4.47-76.06,4.47-76.06Z"/><path class="cls-10" d="M386,135.79c4.87-8.27,4.4-17.26.71-25.92a52.79,52.79,0,0,0-7.07-11.42c-2.29-3-4.7-6-5.33-9.81-.95-5.82,1.62-11.63,3.37-17a73.7,73.7,0,0,0,3.14-13.28c.91-7.24,0-15-5.9-20.07-7-6-18.24-6.58-26.92-5.39S331.29,39.52,322.6,40c-10.8.6-16-13.4-21.3-20.67-5.8-8-13.12-15.87-23-18.45-9.73-2.54-20.52.63-28.3,6.74-6.13,4.81-9.6,11.55-14.1,17.72-4.83,6.63-11.07,9.5-18.54,10.23-3.22-1.93-6.26-4.39-9.12-6.35-7.24-4.94-15.29-8.17-24-5-19.93,7.23-13.91,32.24-28.82,43.64-13.9,10.62-37.32,17.68-33.43,39.81,1.64,9.27,9.12,15.39,15.15,22,3.56,3.88,6.83,8.24,7.5,13.61.72,5.87-1.72,11.38-4.19,16.53-4.29,9-8,18.07-1.76,27.2,6.07,9,18.12,13.53,28.67,11.22,3.72-.81,8.11-2.21,10.43-5.46,1.79-2.51,1.77-5.55,2.13-8.49.73-6.06,3.58-10.59,7.77-14.92,3.6-3.71,7.48-7.31,9.43-12.22a16,16,0,0,0-.4-12.77c-1.77-4-6.42-8.16-6.93-12.54-.8-6.81,6.82-6.67,11.18-5.6,3.61.88,7.69,2.51,11.45,1.56,7.83-2,7-10.6,9.31-16.47,1.92-4.83,8.42-3.63,11.45-.5,3.25,3.34,5.17,7.78,8.61,11,6.45,6,16.6,5.89,22.5-.58s15.44-22.4,26.11-15.87c3.45,2.11,3,7.28,4.35,10.69s3.87,6.71,7.31,8c6.43,2.37,11.89-3.81,16.1-7.7,2.09-1.92,5.31-5.45,8.5-4.76,4.34,1,7.28,7.58,5.54,11.41-1.38,3.06-3.84,5.34-4.46,8.77a12.09,12.09,0,0,0,3.81,11c3.08,2.6,7.27,2.07,10.53,4.13a8.76,8.76,0,0,1,2.22,13.25c-5.78,7.15-10.18,14.21-12.44,23.2-3.52,14.06-.87,31.3,17.09,30.82,8.28-.22,18.21-3,22.28-10.89,3.61-7.05,1.75-15.71.13-23.05-1.75-7.89-5.1-16.94-.92-24.58C374.49,148.17,381.69,143.05,386,135.79Z"/><path class="cls-11" d="M610.83,1057.83s32.21-253.63-39-423.64L533.1,583.37s-54.62-64.2-97.87-6.49-69.3,76.9-76.77,153.42,0,344.94,0,344.94Z"/><path class="cls-12" d="M623.66,428.94c-2.34,1-7.06,1.94-7.91,4.19-1.22,3.2,5.68,23.91,7,27.26,3.27,8.09,5.82,20.09-1.87,29.49-12.82,15.66-67.76,21.87-82.52,50.91s-5.29,42.58-5.29,42.58l-97.87-6.49s17.74-56.56.71-98.73S400.71,363,441.16,333c19.46-14.48,46.24-26.33,74-26.15,25,.16,50.86,10.09,72.93,36.64,1,1.14,1.88,2.31,2.81,3.5,3.35,4.32,7,20.14,9.51,25.63,14.1,31.11,23.06,33,27.79,44.94C631.11,424.75,628.29,427,623.66,428.94Z"/><path class="cls-13" d="M538.39,540.79S498.93,519.71,506.3,484c0,0,21.35,36.86,55.12,35.6C561.42,519.58,544.61,527.9,538.39,540.79Z"/><path class="cls-7" d="M441.16,333c19-14.11,44.87-25.72,71.88-26.14l.22,2c3.42,24.44-26.15,38.82-19.35,56.8s23.61,63,23.61,63c4.58,11.62,15,27.17,39.2,25.94s60.56-11.51,60.56-11.51,7.43,19.29,8.78,22.64c3.27,8.1,2.74,22.38-4.95,31.78-7.91,9.66-31.91,12.83-52.62,20.66-26.89,8.36-59.08-15.71-73.62-59-15.16-45.15-20.05-75.7-35.41-70.29s-21.54,21.84-17.09,43.62c2.19,10.71,16.53,26.74,16.53,26.74,3.16,20.05-9,30-18.85,33.69a65.42,65.42,0,0,0-4.11-14.72C418.92,436,400.71,363,441.16,333Z"/><ellipse class="cls-6" cx="578.08" cy="372.16" rx="9.68" ry="22.83" transform="translate(-95.62 235) rotate(-21.27)"/><path class="cls-6" d="M612.38,386.85c-1.54.61-3.35.25-5.25-.86-2.09-3.78-4.32-8.18-6.69-13.42-2.15-4.73-5.17-17.14-8.11-23.23.6-2.55,1.75-4.36,3.49-5,5-1.94,12.73,6,17.3,17.76S617.36,384.92,612.38,386.85Z"/></g></g></svg>