<svg id="XMLID_17_" xmlns="http://www.w3.org/2000/svg" viewBox="0 0 339.169 124.103">
  <defs>
    <style>
      .cls-1 {
        fill: #224c2f;
      }
    </style>
  </defs>
  <path id="XMLID_22_" class="cls-1" d="M88.531,113.937v39.532H85.876V113.937c0-8.162-4.032-12.784-11.112-12.784-6.982,0-11.014,5.015-11.014,13.669v38.745H60.9V113.052C60.9,104.3,66.5,98.5,74.764,98.5c5.8,0,9.932,2.655,12.1,7.769l.2.393.2.492.2-.492.2-.393c2.065-5.114,6.294-7.769,12-7.769,8.26,0,13.866,5.9,13.866,14.554v40.515h-2.852V114.724c0-8.654-4.032-13.669-11.014-13.669C92.563,101.153,88.531,105.775,88.531,113.937Zm39.827-13.079v-.2h21.733V98.4H125.507v55.168h24.585v-2.262H128.358V121.215h17.013v-2.262H128.358V100.858ZM226.4,98.4c-16.029,0-28.026,12-28.026,27.928S210.668,154.65,226.4,154.65a28.34,28.34,0,0,0,19.668-7.67l-1.868-1.868a24.979,24.979,0,0,1-17.7,6.884c-13.964,0-24.88-11.211-24.88-25.666a24.074,24.074,0,0,1,24.88-25.175,24.85,24.85,0,0,1,17.7,7.474l2.065-2.163A28.225,28.225,0,0,0,226.4,98.4Zm107.287,27.535c0,8.85-2.065,15.734-6.2,20.356-4.229,4.72-10.719,7.179-19.176,7.179h-9.932V98.4h10.031C324.937,98.4,333.689,107.939,333.689,125.935Zm-3.048,0c0-17.406-7.277-25.076-23.6-25.076h-5.9v50.153h5.9C323.167,151.109,330.641,143.046,330.641,125.935Zm69.329.885c0,15.931-12.1,27.83-28.026,27.83a27.894,27.894,0,0,1-28.026-28.322c0-15.931,12.1-27.928,28.026-27.928C387.677,98.4,399.969,110.889,399.969,126.82Zm-3.048,0c0-14.357-10.916-25.666-24.88-25.666a24.7,24.7,0,0,0-17.9,7.08,25.335,25.335,0,0,0-6.982,18.094c0,14.357,10.916,25.666,24.88,25.666a24.7,24.7,0,0,0,17.9-7.08A25.932,25.932,0,0,0,396.921,126.82Zm-24.978-5.31a4.819,4.819,0,1,0,4.819,4.819A4.826,4.826,0,0,0,371.943,121.51Zm-110.729,11.6v20.454h-2.852V113.052c0-8.752,5.605-14.554,13.866-14.554s13.866,5.9,13.866,14.554v40.515h-2.852V133.113c0-8.654-4.032-13.669-11.014-13.669S261.214,124.46,261.214,133.113Zm11.112-16.422a13.213,13.213,0,0,1,10.326,4.327l.3.393.393.393v-7.08c0-8.654-4.032-13.669-11.014-13.669s-11.014,5.015-11.014,13.669V121.9l.393-.393.3-.393A13.142,13.142,0,0,1,272.326,116.691Zm-95.192,26.158,10.227,10.719h-3.934l-9.047-9.441-.1-.1-.1.1a22.026,22.026,0,0,1-9.047,1.967h-.2v7.474h-2.852V98.4h3.048a23.865,23.865,0,0,1,12,44.154l-.2.1Zm8.654-20.553a21.319,21.319,0,0,0-20.553-21.143h-.2v42.187h.2A21.231,21.231,0,0,0,185.788,122.3Zm15.144,46.416v-2.36h-29.8v2.36h13.472v52.709h2.852V168.712h13.472ZM255.8,194.673c0,15.931-12.1,27.83-28.026,27.83a27.894,27.894,0,0,1-28.026-28.321c0-15.931,12.1-27.928,28.026-27.928A28.039,28.039,0,0,1,255.8,194.673Zm-3.147,0c0-14.357-10.916-25.666-24.88-25.666a24.7,24.7,0,0,0-17.9,7.08,25.335,25.335,0,0,0-6.982,18.094c0,14.357,10.916,25.666,24.88,25.666a24.7,24.7,0,0,0,17.9-7.08A25.587,25.587,0,0,0,252.658,194.673Zm94.307-25.863v-.2H368.7v-2.262H344.014v55.266H368.7v-2.262H346.965V189.265h17.013V187H346.965V168.81ZM227.68,189.461a4.819,4.819,0,1,0,4.819,4.819A4.826,4.826,0,0,0,227.68,189.461ZM282.75,210.7l10.227,10.719h-3.934L280,211.981l-.1-.1-.1.1a22.026,22.026,0,0,1-9.047,1.967h-.2v7.474H267.7V166.253h3.049a23.865,23.865,0,0,1,12,44.154l-.2.1Zm8.555-20.553a21.319,21.319,0,0,0-20.553-21.143h-.2v42.285h.2A21.184,21.184,0,0,0,291.305,190.15ZM321,210.7l10.227,10.719H327.3l-9.047-9.44-.1-.1-.1.1a22.026,22.026,0,0,1-9.047,1.967h-.2v7.474h-2.852V166.253h3.048a23.865,23.865,0,0,1,12,44.154l-.2.1Zm8.654-20.553A21.319,21.319,0,0,0,309.1,169.007h-.2v42.285h.2A21.252,21.252,0,0,0,329.657,190.15ZM119.7,180.906v40.515h-2.852V200.967c0-8.654-4.032-13.669-11.014-13.669a9.969,9.969,0,0,0-9.736,6.2v.3A41.415,41.415,0,0,1,94.727,204.7v16.619H91.875V211.292a19.084,19.084,0,0,1-2.065,2.852c-4.229,4.72-10.719,7.179-19.176,7.179H60.8v-55.07H70.831c10.227,0,17.5,3.639,21.536,10.719,1.377-6.589,6.49-10.719,13.472-10.719C114.2,166.352,119.7,172.154,119.7,180.906Zm-26.65,12.981c0-17.406-7.277-25.076-23.6-25.076h-5.9v50.153h5.9C85.581,218.963,93.055,211,93.055,193.887Zm23.9-11.211c0-8.654-4.032-13.669-11.014-13.669s-11.014,5.015-11.014,13.669v.393a47.171,47.171,0,0,1,1.082,5.605,13.18,13.18,0,0,1,10.031-4.032,13.213,13.213,0,0,1,10.326,4.327l.3.393.393.393v-7.08Z" transform="translate(-60.8 -98.4)"/>
  <g id="XMLID_18_" transform="translate(101.387 0)">
    <path id="XMLID_19_" class="cls-1" d="M178.749,142.652l.2-.1a23.865,23.865,0,0,0-12-44.154H163.9v55.168h2.852v-7.474h.2A25.728,25.728,0,0,0,176,144.127l.1-.1.1.1,9.047,9.44h3.934l-10.227-10.719Zm-11.8.688h-.2V101.153h.2a21.1,21.1,0,0,1,0,42.187Z" transform="translate(-163.9 -98.4)"/>
  </g>
</svg>
