<svg xmlns="http://www.w3.org/2000/svg" viewBox="0 0 204.61 33.98"><defs><style>.cls-1{fill:#fff;}</style></defs><title>mercado</title><g id="Layer_2" data-name="Layer 2"><g id="Layer_1-2" data-name="Layer 1"><path class="cls-1" d="M16.68,9.41V33.3h-1.6V9.41c0-4.92-2.45-7.74-6.71-7.74S1.7,4.67,1.7,9.9V33.3H0V8.83C0,3.56,3.36,0,8.37,0a7.34,7.34,0,0,1,7.31,4.72l.11.25.12.29L16,5l.1-.25A7.32,7.32,0,0,1,23.4,0c5,0,8.36,3.54,8.36,8.81V33.3H30.07V9.9c0-5.23-2.43-8.23-6.67-8.23S16.68,4.49,16.68,9.41Zm24-7.88V1.39H53.83V0H39V33.3H53.83V31.91H40.71V13.73H51V12.35H40.71V1.53ZM99.89,0A16.52,16.52,0,0,0,83,16.86,16.85,16.85,0,0,0,99.89,34a17,17,0,0,0,11.86-4.63l-1.16-1.15a15,15,0,0,1-10.7,4.13c-8.43,0-15-6.8-15-15.47A15.31,15.31,0,0,1,89.09,5.93a15.37,15.37,0,0,1,21.5.25l1.22-1.29A16.77,16.77,0,0,0,99.89,0Zm64.69,16.64c0,5.37-1.26,9.5-3.76,12.3s-6.46,4.34-11.56,4.34h-6V0h6C159.3,0,164.58,5.78,164.58,16.66Zm-1.84,0c0-10.48-4.38-15.15-14.21-15.15H145v30.3h3.55C158.23,31.81,162.74,27,162.74,16.66Zm41.87.49A16.51,16.51,0,0,1,187.68,34a16.85,16.85,0,0,1-16.93-17.12A16.52,16.52,0,0,1,187.68,0,16.85,16.85,0,0,1,204.61,17.15Zm-1.89,0A15.26,15.26,0,0,0,176.88,5.93a15.32,15.32,0,0,0-4.24,10.93,15.26,15.26,0,0,0,25.84,11.21A15.31,15.31,0,0,0,202.72,17.15Zm-15-3.19a2.9,2.9,0,1,0,2.9,2.9A2.9,2.9,0,0,0,187.68,14Zm-66.8,7V33.3h-1.69V8.83c0-5.27,3.36-8.81,8.36-8.81s8.37,3.54,8.37,8.81V33.3h-1.7V21c0-5.23-2.43-8.23-6.67-8.23S120.88,15.73,120.88,21Zm6.67-9.88a8.05,8.05,0,0,1,6.24,2.63l.2.23.23.26V9.9c0-5.23-2.43-8.23-6.67-8.23s-6.67,3-6.67,8.23v4.3l.23-.26.21-.23A8,8,0,0,1,127.55,11.08ZM70.18,26.84l6.19,6.46H74l-5.44-5.68-.07-.07-.08,0a14.41,14.41,0,0,1-5.45,1.21h-.13v4.5H61.09V0h1.85A14.41,14.41,0,0,1,70.2,26.64l-.14.08Zm5.19-12.42A12.82,12.82,0,0,0,63,1.68h-.14v25.5H63A12.84,12.84,0,0,0,75.37,14.42Z"/></g></g></svg>