<svg xmlns="http://www.w3.org/2000/svg" viewBox="0 0 154.61 154.61"><defs><style>.cls-1{fill:#13110c;}</style></defs><title>oficina-cabron-icon</title><g id="Layer_2" data-name="Layer 2"><g id="Layer_1-2" data-name="Layer 1"><path class="cls-1" d="M75.48,117.07A15.19,15.19,0,0,1,62.13,102V96.13l-3.65,3.64V102a18.83,18.83,0,0,0,37.65,0v-1.82H88.84l3.54,3.54a15.19,15.19,0,0,1-13.25,13.34V96.13l-3.65,3.64Z"/><path class="cls-1" d="M79.13,123.1c-.6.06-1.21.09-1.82.09s-1.23,0-1.83-.09v1.13l-2.57,2.58H81.7l-2.57-2.58Z"/><path class="cls-1" d="M104,58.48H79.13V47.07h9.39a15,15,0,0,0-2-3.6h0l-11,0H72.91l2.57,3.65V58.48H62.13V52.6a15.18,15.18,0,0,1,30.34-.75l-2.58,2.57h6.24V52.6a18.74,18.74,0,0,0-.83-5.53h6.19v4.78l-2.57,2.57h8.79l-2.57-2.57V43.42l-11.39,0A18.82,18.82,0,0,0,58.48,52.6v5.88H54.64A18.85,18.85,0,0,0,36,74.77v0l-2.57,2.58L36,79.88v0A18.85,18.85,0,0,0,54.64,96.13H104a18.86,18.86,0,0,0,18.65-16.26l2.56-2.56-2.56-2.57A18.86,18.86,0,0,0,104,58.48Zm15,21.21a15.19,15.19,0,0,1-15,12.79H79.13V79.13H93.55l2.58,2.57V72.91l-2.58,2.57H79.13V62.13l-3.65,3.64v9l-2.57,2.58,2.57,2.57v12.6H62.13V79.88l2.57-2.57-2.57-2.58V62.13l-3.65,3.64v9l-2.57,2.58,2.57,2.57v12.6H54.64a15.2,15.2,0,0,1-15-12.79L42,77.31l-2.38-2.39a15.2,15.2,0,0,1,15-12.79H104a15.19,15.19,0,0,1,15,12.79l-2.38,2.39Z"/><path class="cls-1" d="M143.25,65.94A67,67,0,0,0,88.68,11.37L77.31,0,66,11.36l.25,0A67,67,0,0,0,11.37,65.93L0,77.31,11.36,88.67a67,67,0,0,0,54.57,54.57l11.38,11.37,11.35-11.36-.17,0a67,67,0,0,0,54.75-54.6l11.37-11.37Zm-75-50.56a62.61,62.61,0,0,0-8,1.74l-43.1,43.1A62.64,62.64,0,0,1,68.22,15.38ZM86.63,139.19c1.28-.19,2.54-.41,3.79-.68C89.17,138.78,87.91,139,86.63,139.19Zm7.76-1.66,43.13-43.14A62.71,62.71,0,0,1,94.39,137.53Zm-8,1.69a61.94,61.94,0,0,1-9.09.68c-1.82,0-3.61-.09-5.39-.25l4.55,4.56.84,0c1.53,0,3-.07,4.55-.17l-.33,0-4.22,4.23L15.38,86.39a62.6,62.6,0,0,0,1.71,8l43.13,43.12A62.61,62.61,0,0,1,14.71,77.31c0-1.82.09-3.61.25-5.39l-4.55,4.55c0,.28,0,.56,0,.84,0,1.42.06,2.83.15,4.23L6.3,77.31,68.23,15.38a63.11,63.11,0,0,1,9.08-.67c1.81,0,3.6.09,5.38.25l-4.55-4.55-.83,0c-1.51,0-3,.07-4.47.17l.24,0L77.31,6.3l61.91,61.92a62.39,62.39,0,0,0-1.71-8L94.39,17.09A62.61,62.61,0,0,1,139.9,77.31c0,1.81-.09,3.6-.25,5.38l4.56-4.55c0-.28,0-.56,0-.83,0-1.66-.08-3.31-.2-4.94,0,.24.05.48.07.72l4.21,4.22Z"/></g></g></svg>