<svg xmlns="http://www.w3.org/2000/svg" xmlns:xlink="http://www.w3.org/1999/xlink" viewBox="0 0 1169.48 1362.68"><defs><style>.cls-1{fill:none;}.cls-2{stroke:#000;stroke-miterlimit:10;}.cls-3{fill:#ac6a33;}.cls-4{fill:#f4876a;}.cls-5{fill:#712220;}.cls-6{fill:#020203;}.cls-10,.cls-6{opacity:0.2;}.cls-7{fill:#eae2d2;}.cls-8{clip-path:url(#clip-path);}.cls-9{fill:#fdbc36;}</style><clipPath id="clip-path"><path class="cls-1" d="M363.78,912.61s23.46-248.07,195.5-327.35S919,532,952.88,565.93s73,80.8,73,182.46l-36.49,13L999.8,1180l-477,22L488.9,912.61Z"/></clipPath></defs><title>People Right 3</title><g id="Camada_2" data-name="Camada 2"><g id="Camada_11" data-name="Camada 11"><path class="cls-2" d="M766,239.71c8.62-4.87,9.16-30.88,1.78-38.75a9.06,9.06,0,0,0-4.57-2.71c5.53-4.76,8.48-12.3,8.17-19.9-.36-8.7-5.32-16.54-13.52-17.95,5.53-3.64,9.27-9.77,7.76-16.77-1.61-7.47-8.07-9.78-14.51-8.92,3.25-4.11,4.75-9.38,1.68-14.37-2.65-4.33-7.1-5.71-11.63-5.38,4.66-4.21,7-10.11,2.42-16.11-4.18-5.52-11.27-8.13-18.13-8,5.14-4.62,8.3-11.51,4.15-18.11-3.41-5.43-9.12-6.46-14.66-5.3a13.39,13.39,0,0,0-1.56-15.48,12.69,12.69,0,0,0-13.69-4.37c2.32-6.54.67-14.51-5.65-18.6-6.15-4-16.17-3.63-21.49,1.69,1-12.92-13.88-23.06-23.25-15.13-.52-16.71-22-15.43-31.93-5.6a28.24,28.24,0,0,0-3.9-5.69C610.7,1.31,606.62.47,602.69.5c-5.52,0-12.15,1.94-16,6.16-8.91-10.54-27.06-4.94-31.36,8-3.71-4.93-6.59-10.22-14.06-9.32-6.89.83-14.5,7.92-13.23,15.24-9.89-12.16-30.74-1.61-30.69,13.09-5.64-1-11.28.35-15.1,5.18-4.47,5.65-4.87,13.46-3.15,20.21,0,0,0,0,0,.07a11.17,11.17,0,0,0-2.12-.47c-8.2-1-17.37.63-21.15,9.12a19.11,19.11,0,0,0,3.67,21c-7.06.37-15.84,2.09-16.79,10.15-.92,7.74,4.39,16,8,22.63-7.89-.23-15.77,2.9-16.42,11.84-.54,7.52,3.65,15.26,9.15,20.29-7.37.58-15.44,3.35-18.54,10.44-3.35,7.68,2.2,14.35,8.27,18.57-7.3,3.79-12.85,10.39-11.93,19.3.88,8.56,7,15,14.29,18.84-3.78,1.63-7.59,3.61-9.79,7.11-2.68,4.26-2,9.91.43,14.12a23.45,23.45,0,0,0,5.89,6.67c-5.23,3.26-11.33,9-10.92,18.08.7,15.68,18.08,19.78,18.08,19.78l316.77,4,0,0,0,0,3.31,0v-3.23c4.42-4.67,11.83-14.11,13.6-26.45C774.35,251.23,770.17,244.17,766,239.71Z"/><path class="cls-3" d="M673.65,83c-.38-.21-19-.68-34.78-1.15-23.89-.73-53.67-1.49-53.67-1.49s-31.32.8-55.43,1.54c-14.85.46-30.42,1.66-30.78,1.86-.75.43,1.7,59.12,7.27,87.3a100.91,100.91,0,0,0,5.89,20.18,76.38,76.38,0,0,0,27,32.22,16.68,16.68,0,0,1,7.17,13.75v59.52h78V237.1a16.67,16.67,0,0,1,7.13-13.73,76.34,76.34,0,0,0,26.8-32.11,97.86,97.86,0,0,0,6.46-18.72C670.67,144.11,674.41,83.45,673.65,83Z"/><path class="cls-4" d="M577.49,186.91c6.29-.25,8.81,2.57,8.81,2.57s2.52-2.82,8.81-2.57,16.15,7.83,16.15,7.83-6.29,13.54-25,13.54-25-13.54-25-13.54S571.2,187.16,577.49,186.91Z"/><path class="cls-5" d="M831.93,365.09C825.2,319.33,789,282.58,728.38,275s-114.31-4.21-142.93-4.21-82.31-3.36-142.93,4.21S345.7,319.33,339,365.09c0,0-8.64,54.48-9,106.8V949.11H840.88V471.89C840.57,419.57,831.93,365.09,831.93,365.09Z"/><rect class="cls-5" x="530.68" y="252.9" width="109.66" height="26.22"/><path d="M681.85,80.36h3.95V59.43H488.85V80.36h.63c-3,8.51,5.16,17.94,14.23,16.69,4.7-.65,7.66-3.93,9.6-8,2.22,3.43,5.75,6.16,9.26,6.84,6.83,1.32,10.76-4.86,13.06-10.52,2.21,5.4,6.93,9.79,13,9.44,4.66-.26,7.44-3.44,9.71-7.14.81-1.31,1.63-2.7,2.38-4.14.85,2.84,1.83,5.56,4.54,7.54a13.62,13.62,0,0,0,12.67,1.54c3.51-1.42,6.4-4.55,8.63-8.24,2,5.87,6.78,10.83,13.24,11.38,7,.59,12.24-4.14,15.39-9.91,2.11,6.27,7,11.09,14.87,9.69,4.33-.77,7.8-3.6,10.42-7.26,1.64,6.06,5.59,11.17,13,9.77,4-.77,7.29-3.88,9.71-7.8a21.77,21.77,0,0,0,1.72,3.85c4.21,7.29,12.22,10.34,19.79,6.41,2.58-1.34.3-5.24-2.28-3.9l-.43.19-1.74-2h1.64Z"/><path class="cls-6" d="M529.77,81.92s-14.9,90.7,6.27,114.21,16.36,21.2,18.29,39,0,61.63,0,61.63H514.61c-60.54,0-104.21,20.85-104.21,62.65V830.15H321.48s7.13-347.92,9-378S335.12,351.08,357,320.68s47.35-44.42,101.44-47.44,70.74-3.19,70.74-3.19l1.46-17.15h15.6V237.23c0-8.41-2.22-7.52-12.19-17.49s-31.8-27.29-32.77-88.42-2.46-67.24-2.46-67.24"/><path class="cls-3" d="M237.93,433.57s6.15-44.37.07-77.29-9.73-25.59-.76-43.8,11.08-19.77,11.08-19.77-1-15.14,8.49-25.53,22.1-31.19,27.82-28-14,35.93-14,35.93,3.41-10.94,19.6-11.89,25.05.66,24.51,4.31-21.43,4.05-27.7,6.63S273.84,284,273.84,284s10.57-5.16,23.58,1.18S312,292,310.94,294.11s-6.26,0-19.83-.12-29.84,15.49-26.73,20.21,15.71-9.31,31.35-6.61,17.77,2.71,18.78,5.85-.06,6.24-15.19,5.64a40.39,40.39,0,0,0-25.59,8.22s1,8.36,9.78,18.84,8.23,20.41,1.89,33.42-2.91,54.26-2.91,54.26l10.72,46.66-62.32-19.76Z"/><path class="cls-6" d="M263.89,365.17s6.89,9.29,2,22.74c0,0,11.41-4.62,7.64-20.74S263.89,365.17,263.89,365.17Z"/><path class="cls-7" d="M280.78,222.61l-9.39,129s-28.19,1.57-29.31,11.09,67.31,7.31,65.65-4.82-25.84-6.21-25.84-6.21l7.53-125.53"/><path class="cls-7" d="M322.15,176.41l-78.83,3a254.26,254.26,0,0,0-.08,38.69l77-4.38A337.17,337.17,0,0,0,322.15,176.41Z"/><path class="cls-5" d="M243.24,218.12c2.14,27.89,10.14,61.32,35.86,65.43,27.69,4.42,37.6-37.16,41.13-69.81Z"/><path class="cls-3" d="M237.24,312.48c9-18.22,11.08-19.77,11.08-19.77s-1-15.14,8.49-25.53,22.1-31.19,27.82-28-14,35.93-14,35.93,3.41-10.94,19.6-11.89,27.68.52,27.14,4.17-24.06,4.19-30.33,6.77S273.84,284,273.84,284s13.88-6.13,26.89.2S316,292.87,314.89,295s-10.21-.88-23.78-1-29.84,15.49-26.73,20.21,15.71-9.31,31.35-6.61,17.77,2.71,18.78,5.85-.06,6.24-15.19,5.64a40.39,40.39,0,0,0-25.59,8.22"/><path class="cls-6" d="M271.88,272.61s-13.78,2.92-23.56,20.1Z"/><path class="cls-4" d="M363.78,912.61s23.46-248.07,195.5-327.35S919,532,952.88,565.93s73,80.8,73,182.46l-36.49,13L999.8,1180l-477,22L488.9,912.61Z"/><g class="cls-8"><path class="cls-5" d="M1167.54,721.51c-2.94-2.63-2.57-5.23-2.23-8.51.59-5.67,2.22-11.18,1.49-17.07a28.26,28.26,0,0,1-.24-3.25c-3.73-4.66-7.19-9.57-10.49-14.54a13.81,13.81,0,0,0,1.48,3.29c1.46,2.4,1.16,2.59-1.44,7.47,1.78,2.53,1.7,5.26,1,8.58-1.06,5.16-.73,10.61-1.07,15.93-.37,5.8-.72,6.16-6.74,6.13-4.63,0-9.25-.36-13.88-.45a23.17,23.17,0,0,0-5.53.41c-8.46,1.94-16.89,1.79-25.44.6-3.58-.5-7.32.21-11.67.4.46-4.16.81-8,1.33-11.75,1.47-10.69,3-21.36,4.5-32,1-7.52,1.9-15.06,2.83-22.6s3-8.94,9.84-6.28a11.38,11.38,0,0,0,9.15,0,7.33,7.33,0,0,1,8.27,1.34,20.7,20.7,0,0,0,8.41,4c1.25.34,2.49.75,3.72,1.2a209,209,0,0,0-18.68-25.45,47.64,47.64,0,0,1-12.3.64c-4.77-.37-5.61-1.46-4.94-6,1-6.69,9.25-80.57,11.31-87-3.81-.89-7.61-1.81-11.35-2.88-.6,4.3-8.12,75.85-8.68,80.15-.49,3.84-.62,7.72-1.28,11.52-1,5.78-3.81,7.87-9.31,6.09a9.32,9.32,0,0,0-6.18.09,11.21,11.21,0,0,1-4.44.18c-13.43-1.6-26.92-.76-41.44-1,.4-3.65.62-6.76,1.09-9.84,1.92-12.7,3.7-25.42,6-38.06,2.06-11.52,4.65-22.94,7.07-34.4a26.88,26.88,0,0,1,1.59-4.76,12.64,12.64,0,0,1,1.52-2.94c-.27,0-.81-.46-1.35-3.35,1-1.08,3-2.44,2.84-3l15.58,8.08-14.6-8.54a94.86,94.86,0,0,0-20.21-.2,44.3,44.3,0,0,1-1.07,8.29c-1.09,5.45-1,1.75-1.06,7.37,0,2.55-1,5.07-1.17,7.62-.24,3.14.36,6.41-.28,9.44-2.15,10.18-1.79,20.79-5.3,30.74a21.34,21.34,0,0,0-.67,4.41c-1.1,8.11-2.15,16.23-3.3,24.33a22.56,22.56,0,0,1-1.36,3.89c-5.58-.23-10.94-.48-16.31-.67-1.48-.06-3,.07-4.45.09q-9.14.15-18.26.27c-3.71,0-7.43-.12-11.12.13-4.07.28-8.1.64-12.67-1,.7-3.7,1.38-7.3,2-10.9,1.79-9.68,3.59-19.36,5.33-29.05.29-1.64.25-3.34.43-5,.52-4.78.89-9.58,1.64-14.33,1.53-9.54,3.35-19,4.88-28.57.59-3.66.56-1.39,1.09-5.07,1.33-9.19-8-2.65-8.44.47-1,6.41-2.35,6.75-3.22,13.18-2.33,17.16-4.46,34.35-6.74,51.52-1,7.57-2.06,15.13-3.37,22.65-1,5.52-1.48,5.87-6.89,5.86-9.28,0-18.49-1.66-27.83-.62-5.31.59-10.74.06-16.08.44-7.07.5-8.41-.83-7.12-7.71,3.08-16.45,6.77-32.78,7.31-49.64.42-13.36,3.33-25.05,3-38.49a26.46,26.46,0,0,1,.41-2.75c.29-3.51-15.73-2.15-16.11.6-.51,3.69-1.1,7.37-1.39,11.07-.58,7.22-.84,13-1.48,20.17-.4,4.63-1.45,9.21-1.87,13.84-1.33,14.64-2.47,29.3-3.76,43.94-.22,2.54-.76,5.06-1.2,7.83-19.95,2.59-39.25-.76-60.1-1.43,3.39-5.89,1.94-10.9-.07-15.91-.38-.94.07-2.21.15-3.32.12-1.86.21-3.72.39-5.57,1.46-15.19,2.12-42.58,4.65-57.58,2.62-15.56-9.15-20.7-10.76-8.9-2.87,21-5.54,54.12-6.43,75.34-.16,3.91.07,7.83,0,11.73-.08,3.16-.73,4.25-3,4.39-1.42,5.53-6.51,10.57-13.72,9.4-1-.16-2-.26-3-.4l-55.22-.64c-.08-.41-.15-.82-.23-1.23.45-.24.89-.55,1.33-.81-4.88-3.49-5.7-11-2.51-15.89a51,51,0,0,1,.37-5.27c1.75-11.4,3.69-22.78,5.34-34.2,1.14-7.92-2.63,17.28-1.67,9.34.85-7,1.56-14.07,2.68-21,1.28-7.89,3-14.2,4.43-22.06a39.14,39.14,0,0,0,1-7.17c0-3.89-2.22-5.65-6.16-5.45-5.3.27-8.39,4.11-8.32,9.84a95.28,95.28,0,0,1-.51,13.31c-2.38,18.44-.47,2.16-3,20.58-1.8,13.28-3.5,26.57-5.35,39.84a11,11,0,0,1-.61,2.6,9.57,9.57,0,0,1-4.8,6.38,10.5,10.5,0,0,1-7.15,2.57h-42a10.61,10.61,0,0,1-6.78-2.23,79.29,79.29,0,0,1-8.3.45c-4,0-4.56-.64-4.18-4.6.47-5,1.31-10,1.63-15,1.07-16.71.46-19.85,1.46-36.56a20.76,20.76,0,0,1,.54-3.31c1.82-8.33,2.17-16.66,4-25,.56-2.63-.56-4.31-3.17-5-3-.75-5.06,1-5.7,4.48-.74,4-1.6,8-2.4,12-.26,1.27.86,2.54.77,3.83-1.29,17.82-.88,22.08-2.36,39.88-.75,8.9-2.18,17.74-3.33,26.6a3.29,3.29,0,0,1-3.27,3.18c-5.37.51-10.72,1.29-16.1,1.59-15.78.9-31.57,1.6-47.35,2.41-4.53.23-5.86-1-5.1-5.47,1.62-9.68,2.18-58,4.63-67.52.54-2.1.22-4.44.25-6.66s-1.43-3.38-3.39-3.82c-3-.68-6.14-1.23-9.21-1.8-5.11-1-7.78,2-5.71,6.71a15.11,15.11,0,0,1,.88,9.18c-.69,4-.8,46.57-1.23,50.63-.53,5-1.1,10-1.71,14.94-.37,3-1.91,4.63-5.08,4.89-4.82.39-9.61,1.25-14.44,1.57-20.22,1.35-40.45,2.59-60.68,3.83-2.15.13-4.31,0-6.89,0-.08-2.22-.28-3.86-.17-5.47.72-10.58,1.31-21.18,2.34-31.74.88-9,2.15-18.07,3.5-27.07,1.51-10.12-.83-2.56.88-12.65,1-5.83-.71-11.06-3.55-16a5,5,0,0,0-6.2-2.47c-2.67.73-3.15,2.71-3.1,5.2a93.33,93.33,0,0,1-.27,10.58c-1.48,15.17.66,12.66-.44,27.86-1.13,15.62-3.76,31-5.83,46.48-.42,3.2-1.75,4.72-5,5.67-12.75,3.73-25.81,2.83-38.78,2.92-7.23,0-14.46-.64-21.7-.9a19.41,19.41,0,0,0-3.25.68c-3.48.48-7,1.26-10.46,1.26-6.22,0-9.43-3.69-9.13-9.68.26-5.2.4-10.41.51-15.61.19-9.47,2.46-18.81,1.3-28.39a18.89,18.89,0,0,1,1.51-9.3c2.79-6.43,1.08-12.78.56-19.18a13.87,13.87,0,0,0-1.2-3.26c-.94.8-1.66,1.15-2,1.72-2.39,4.41-5,8.76-6.92,13.36a15.21,15.21,0,0,0-.92,7.51,31.64,31.64,0,0,1-1.13,13.19c-.76,2.56-.5,5.43-.61,8.16a37.54,37.54,0,0,1,.11,3.81c-.67,4.41-1.82,8.78-2.17,13.21a121.14,121.14,0,0,0,.08,13.87c.19,5,.73,10,.86,15,.09,3.41-.55,6.37-4.28,8.25-2.85,1.43-3,4.57-.46,5.75,3.93,1.84,3.48,4.56,3.05,7.87-1.65,12.54-3.52,25.06-4.54,37.65-1.06,13.08-.24,26.33-4.43,39.05a7.29,7.29,0,0,0,.14,2.2c.17,5.37.69,10.76.4,16.11-.84,16-2,31.9-3,47.85-.71,11.51-1.3,23-2,34.54-.42,7.42-.57,14.88-1.4,22.25-1.46,13-3,25.87-3.24,38.92-.23,10.4-.09,20.92-1.54,31.18-3,21.24-4.18,42.6-5.56,64a176.85,176.85,0,0,0-.53,17.82c.27,7.5.16,14.84-2.35,22-.57,1.63-.31,3.61-.16,5.41.13,1.45,1,2.88,1,4.31-.1,8.56,0,17.13-.66,25.65-.54,7.38-2,14.67-.85,22.16.35,2.27-.55,4.72-.86,7.1-.18,1.46-.42,2.93-.48,4.4-.45,11-.82,21.92-1.29,32.88-.32,7.61-1,15.22-1.07,22.83-.11,12.45.13,24.92.25,37.37.07,7.29.2,14.58.31,21.86l.34.33c.38.19.75.49,1.12.71.52.3,1.06.56,1.58.84l0,0,.76-.18c.85-.22,1.7-.45,2.53-.73,0,0,2.9-1.11,1.58-.53a13.47,13.47,0,0,1,5.66-1.21,93.49,93.49,0,0,1,13.11-2.78c10.85-1.5,21.75-2.62,32.63-3.91,8.93-1.06,17.85-2.19,26.78-3.2a9.87,9.87,0,0,1,2.9-.46c5.47,0,10.92-.49,16.38-.83l2.35-.22c.72-1.09,2-1.41,4.59-1.67,9.8-1,19.6-2,29.43-2.75,8.89-.67,17.81-1,26.71-1.41,1.22,0,2.44,0,3.69,0,4.21-.65,8.43-1.08,12.66-1.47,1.7-.16,3.4-.33,5.1-.53-.08,0,1.94-.29,2-.3,1-.18,2-.39,3.06-.62a11.29,11.29,0,0,1,6.13.31c.92-.11,1.83-.2,2.75-.26,8.53-.56,17.07-1,25.6-1.43,7-.37,14.1-.82,21.15-1,.61,0,1.23,0,1.85,0a12.59,12.59,0,0,1,6.19-2.24c7-.57,13.94,0,20.91,0a10.17,10.17,0,0,1,4,.82,37,37,0,0,0,7.89-1.39c3.8-1.16,8.36.42,12.56.33,5.39-.12,10.75-.77,16.13-1,5.72-.24,11.45-.34,17.17-.37q7.32,0,14.66.11a9.68,9.68,0,0,1,2.28-.28H682a.14.14,0,0,0,0-.06,77,77,0,0,1,8-.85c10.16,0,20.32.34,30.48.19,3,0,6-.18,9-.34.41-.06.81-.11,1.22-.13,11.15-.61,22.27-1.76,33.44-1.8a9.83,9.83,0,0,1,4.43,1c5.8-.19,11.61-.4,17.41-.44,4.47,0,8.94,0,13.41.1a15.34,15.34,0,0,1,3-.69c34-4.21,68.11,1.14,102.14,1.2a10.69,10.69,0,0,1,2.21.24q19.9.16,39.81.43a10.92,10.92,0,0,1,5.76-1.87c12.78-.26,25.51.75,38.23,1.8,11.1.91,22.21,1.82,33.35,1.84,6.49,0,13,0,19.47,0a14.45,14.45,0,0,1,4.74-.39c13.58.12,27.16.49,40.73.85a24.64,24.64,0,0,1,4.58.83q4.17.3,8.33.7a3.78,3.78,0,0,1,.52-.9c3.58-4.36,2.21-8.55.46-13a13.22,13.22,0,0,1-1-5.35c.3-5.57.81-11.13,1.42-16.67,1.73-15.74,3.45-31.47,5.37-47.18.65-5.25.73-10.74,4.88-15a4.51,4.51,0,0,0,.3-6.18c-2.54-3.15-1.86-6.52-1.24-10.09,1.32-7.5,2.38-15,3.46-22.58,1.8-12.52,3.45-25.06,5.37-37.56a11.94,11.94,0,0,1,2.71-5.21,68.33,68.33,0,0,1,5.9-5.78c-.33,0,.22-.07.77-.07,4.93,0,6.59-1.6,6.21-6.1-.28-3.2-2.28-4.4-6.58-4-1.74.16-3.49.24-5.8.39.31-3.19.44-5.58.79-7.94,3-19.7,6-39.38,8.89-59.11.61-4.19,1.37-7.64,6.36-8.34,1.75-.25,3.46-1.5,2.88-3.44a18.58,18.58,0,0,1,0-9.87,4.29,4.29,0,0,0-1.12-3.5c-3.65-3.27-3.25-7.15-2.42-11.33.72-3.65,1-7.38,1.65-11,2.87-16.69,6-33.34,8.54-50.08.77-5.09,3-8.15,7.32-10.25a36.12,36.12,0,0,0,4-2,5,5,0,0,0,2.2-5.84c-.69-2.45-2.52-3.58-5-3.54-1.58,0-3.15.06-5.4.11.29-4.36.33-8.06.84-11.69,1.31-9.41,3.1-18.75,4.21-28.18,1.52-12.92,2.58-25.9,3.86-38.85.32-3.2,1-5.88,4.29-7.85C1170,728.84,1170.58,724.22,1167.54,721.51ZM1023,704.67c.71-6.08,1.93-12.1,2.78-18.17,1.53-10.87,2.91-21.76,4.41-32.63,1.12-8,1.16-8.15,9.32-8.28,3.13-.05,6.27.55,9.42.75,5.92.36,11.84.77,17.77.92,7,.18,14.12,0,21.17.19,4,.13,4.24.85,4.25,4.81a176.12,176.12,0,0,1-2.61,28.23c-1.88,11.73-2.78,23.61-4.31,35.4-.72,5.51-1.23,5.77-6.84,5.54-3.35-.14-6.67-.61-10-.79-2-.11-4,0-6.08.11-7.79.33-15.58.72-23.37,1-3.9.16-7.81.21-11.71.26-1.6,0-3.2-.13-5.43-.22C1022.18,715.71,1022.36,710.16,1023,704.67Zm-4,32.7c.61-4.62,1.36-5.14,6.19-5.39,13-.7,26-2.05,39-.07,4.18.63,8.54,0,12.82,0,4.76,0,6.13,1.4,5.7,6-1.3,13.89-2.76,27.77-4,41.66-.68,7.22-1.06,14.47-1.73,21.69-.47,5.17-1,10.35-1.88,15.47-.75,4.56-1.58,5.17-6.33,5.25q-24.54.43-49.09.7c-3.65.05-7.29-.13-11-.21-.83-5.22,0-9.55.87-13.92.71-3.64,1.18-7.33,1.71-11,.8-5.49,1.63-11,2.33-16.48C1015.42,766.5,1017.14,751.92,1019.05,737.37ZM896,913.56c-10.56.7-21.15.71-31.73,1-2.2.07-4.4.11-7.31.18,0-2.24-.09-4.2.14-6.12,2.56-21.44,5-42.9,7.85-64.3,1.51-11.18,1.24-9.74,10.76-10.22,12.05-.61,24.15-.47,36.23-.65,1.47,0,3,0,5.59,0-.84,6-1.5,10.51-2.11,15.06-.72,5.33-1.39,10.66-2.1,16-.23,1.66-.54,3.31-.82,5-1.93,11.17-4,22.31-5.74,33.52C905.3,912.2,905.16,913,896,913.56Zm5.63,113.07c-.06,1.95-.11,3.9-.17,5.85l-1.5,0,.63-5.83Zm-7.86-107c-5.59,2.13-25.42,3.46-31.85,1.81C868.31,919.74,888.4,918.74,893.72,919.6ZM821.5,1090c-12.09,0-24.17-.07-36.26-.08-4.83,0-9.67.06-14.5.14-4.61.09-5.36-.5-5-4.94.55-7.24,1.34-14.45,1.9-21.68.87-11.27,1.63-22.55,2.43-33.82.07-.93.07-1.87.21-2.78.72-4.89,2-6,6.88-6.22s9.66-.26,14.49-.42c10.79-.35,21.58-.76,32.37-1.05,2.54-.07,5.09.24,8.19.41.07,3.86.39,7.19.14,10.46-1.39,18-2.91,36-4.39,53.92C827.51,1089.29,826.86,1090,821.5,1090Zm4.88,6.35c-1.62,3.47-4.67,2.81-7.23,2.94-2.09.11-3.48-1-3.46-4C819.57,1094.13,823,1093.39,826.38,1096.35Zm-63.14-54.78c-.25,4.85-.5,9.7-.78,15.26C760,1053.14,760.09,1047.23,763.24,1041.57Zm-1.07,24.57-1.64.12v-4.14l1.25-.07C761.92,1063.41,762.05,1064.78,762.17,1066.14Zm0-94.9c-.85,5.69-2,11.36-2.56,17.07-.55,5.16-.62,10.37-.8,15.56s-.68,5.91-5.66,6.29q-12.21.9-24.46,1.42c-8.35.36-16.71.44-25.07.75-5.16.19-5.6-.25-5.16-5.72.49-6.1,1.3-12.22,1.19-18.32-.27-14.86,2.38-29.53,2.46-44.35a34.54,34.54,0,0,1,1.13-6c3.17-.66,5.86-1.64,8.57-1.71,11.7-.28,23.41-.24,35.12-.42,5-.08,10-.58,15-.55,4.63,0,5.7,1.16,5.11,5.78-.6,4.79-1.84,9.49-2.62,14.26C763.64,960.61,763,965.94,762.21,971.24Zm-57.38-54.75c0-4-.07-8.1.1-12.15.54-13.38,1.06-26.76,1.83-40.12.4-7,1.21-14,2.06-21,.44-3.67,1.38-4.38,5.15-4.41,13.77-.14,27.54-.14,41.31-.31,6.69-.08,13.37-.44,20.06-.6,1.78,0,3.57.18,5.72.29a44.83,44.83,0,0,1,.08,5.47c-1.6,13.46-3.18,26.93-5,40.37-1.22,9.2-2.54,18.41-4.21,27.54-.92,5-1.29,5.08-6.26,5.32-4.64.23-9.3.16-14,.28a28.19,28.19,0,0,0-5.52.47c-2.73.63-5.23.45-7.36-1.4-2.32-2-4.65-1.57-7.3-.78-8,2.34-16.15,2.33-24.35,2A8.81,8.81,0,0,1,704.83,916.49Zm124.34,89.8c-6.31.25-12.62.33-18.94.55-10.56.35-21.13.77-31.7,1.12-1.79.06-3.6-.05-5.94-.1.09-2.36.08-4.16.24-6,1.12-12.39,2.34-24.78,3.39-37.17.65-7.57.76-15.19,1.65-22.73.94-7.91,1.66-7.38,8.22-7.62,17.26-.61,34.52-1.3,51.78-1.72,5.67-.14,6,.61,5.07,6.25-3.24,19.81-6.58,39.61-7.91,59.67a21.28,21.28,0,0,1-.37,2.76C833.9,1005.25,833,1006.14,829.17,1006.29Zm-47.61-79.17,8-1.12.17,1.25c-2.48,1.66-5.31,1-8,1.09Zm58.58-11c-11.52.23-23,.4-34.57.61-6.31.11-12.62.27-18.93.4-4.29.08-4.81-.38-4.44-4.84,1.41-17,2.9-34.08,4.35-51.12.45-5.37.91-10.74,1.23-16.12.44-7.16,1.21-8.05,8.19-8.22,12.43-.28,24.87-.44,37.3-.76,5.57-.14,11.14-.59,16.72-.8,2-.07,4,.13,7,.24-.07,3.12.29,5.59-.23,7.85-5.42,23.71-7.2,48-10.42,72.2C843.79,915.84,842,916.13,840.14,916.17Zm-50.08-90.43c.89-9.43,1.94-18.84,2.85-28.26.38-3.88.27-7.82.83-11.66,1.9-13.06,4-26.09,6-39.13.52-3.31,1.13-6.6,1.7-9.9.67-3.83,1.66-5.1,5.31-5.17,8.16-.15,16.33.26,24.48,0a143.88,143.88,0,0,0,16.54-1.78c6.91-1,13.62.32,21,.5-.33,5.85-.46,11-.94,16.11q-1.38,15-3.09,29.89c-1.68,14.76-3.46,29.5-5.25,44.25-.5,4.13-1,4.69-5.18,5-13.88,1-27.78,1.89-41.67,2.81-6.3.42-12.6.85-18.91,1.25-.89.06-1.8,0-3-.09A14.84,14.84,0,0,1,790.06,825.74Zm143.1,6.43c9.28-.18,18.55-.58,27.83-.59,7.42,0,14.84.44,22.27.69l13.77.5c-2.73,27.48-5.76,54.16-9.56,81.23l-71.18,0a46.82,46.82,0,0,1,0-6q3.45-26.84,7.06-53.65c.74-5.52,1.4-11.06,2.6-16.48C927.07,832.65,928,832.28,933.16,832.17Zm-4.24-8.54c-.22-10.86,2.49-20.91,4-31.09s3.09-20.62,4.83-30.91,3.66-20.43,5.59-31.13c4.85.22,8.55.32,12.24.57,8.71.58,17.4,1.42,26.12,1.77,4.24.17,8.53-.53,12.79-.8,4-.27,8.11-.5,12.88-.78-.5,5.92-.87,11.22-1.42,16.51q-3.52,33.86-7.15,67.72c-.1.92-.13,1.86-.29,2.78-.69,4-1.39,4.75-5.41,4.86-4.27.12-8.55-.06-12.83-.08-8,0-16-.12-24,0-6,.09-11.89.51-17.83.68C935.48,823.81,932.52,823.67,928.92,823.63Zm-23,125.66c-1-5.52,1.06-9.64,1.63-14.74C908.73,938.53,908,945.71,905.9,949.29ZM908.28,1093H905c-.61-6.43-1.38-11.89-.29-17.49a75,75,0,0,0,.82-10.51c.44-8.92.74-17.85,1.27-26.76.3-5.2.85-10.39,1.43-15.57.63-5.58,5.65-7.79,9.71-3.78,2.88,2.85,5.63,2.76,9.05,2.69,11.16-.24,22.32-.17,33.48-.25,2.61,0,5.21-.12,7.81-.23,5.62-.25,6.52.66,6,6.42-.28,3.15-.8,6.28-1.1,9.43-1.51,15.92-2.86,31.86-4.53,47.77-.89,8.38-1.14,8.48-9.6,8.48C942.11,1093.25,925.2,1093.11,908.28,1093Zm19,7.08a47.68,47.68,0,0,1-5,.75c-4.65.08-9.3.13-13.94,0-1.28,0-2.55-.71-4.55-1.31C908.05,1097.64,920.49,1098,927.24,1100.11ZM971.55,1005q-11.68.36-23.38.5c-10.58.13-21.16.18-31.74.22-2,0-4-.17-6.65-.29a40.51,40.51,0,0,1-.39-5.09c1.34-20.76,2.68-41.52,4.15-62.27.42-5.93.62-6,6.59-6.26,6.31-.23,12.63,0,18.93-.27,8.71-.43,17.4-1.27,26.11-1.78,5.36-.31,10.74-.4,16.12-.45a11.85,11.85,0,0,1,3.29,1c-.26,3.85-.39,7.54-.78,11.2q-2.4,22.15-4.94,44.31c-.55,4.8-1.32,9.57-2,14.34C976.22,1004.28,975.68,1004.86,971.55,1005Zm3.67,76.19c1.86-17.77,3.79-35.54,5.69-53.3.08-.74.15-1.49.28-2.22.69-4,1.13-4.39,5-4.43,6.14-.06,12.29-.2,18.42,0a8.49,8.49,0,0,1,5.39,2.12c2,2.06,4,2.16,6.55,2.08,9.49-.33,19-.48,28.46-.71,1.29,0,2.59-.14,4.57-.25-.71,8.4-1.28,15.24-1.85,22.07q-1.76,20.87-3.51,41.73c-.08.93-.29,1.85-.34,2.78-.16,3-1.66,4.33-4.68,4.19-3.35-.16-6.7-.18-10-.22-15.82-.17-31.63-.31-47.44-.52a23.81,23.81,0,0,1-4.38-.77c-2-.41-2.72-1.76-2.62-3.68C974.88,1087.11,974.91,1084.13,975.22,1081.17ZM1045,1005a323.77,323.77,0,0,0-33.41,0c-8,.45-16,0-23.95,0-1.11,0-2.23.21-3.91.38.27-3.59.36-5.93.64-8.25,2-15.86,3.9-31.73,6-47.57.72-5.53,1.71-11,2.77-16.5.76-4,1.39-4.66,5.6-4.79,9.28-.27,18.58-.44,27.86-.27,11,.2,21.92.8,32.88,1.25a13.18,13.18,0,0,1,2.2.58,36.27,36.27,0,0,1-.09,4.65c-1.9,13.45-3.35,27-6,40.3-1.6,8-2.5,16.12-3.49,24.22C1051.33,1004.69,1050.89,1005.28,1045,1005ZM1055,909.91c-2.83-.61-4.63.18-7.08,1.57a23.07,23.07,0,0,1-10.58,2.59c-12.81.29-25.63.12-38.44.1a7.32,7.32,0,0,1-1.77-.47c-1.57-3.19-.59-6.56-.17-9.76,2.17-16.4,4.59-32.77,6.82-49.16.81-5.89,1.39-11.81,2-17.72.58-5.54,1.65-6.36,7-6,8.71.51,17.51,1.68,26.13,1,7.28-.61,14.4,0,21.59.15,3.65,0,7.28,1.25,12,2.12-.34,7.52-.29,15.12-1.1,22.63-1.64,15.16-3.77,30.26-5.63,45.39C1064.67,910.79,1063.57,911.75,1055,909.91ZM953.22,659c.47-3.31.35-6.7.77-10,.49-3.88,1.61-4.95,5.45-4.81,9.28.34,18.54,1,27.82,1.33,4.8.16,9.62-.31,14.43-.34,3.34,0,6.7.1,10,.35a50.33,50.33,0,0,1,5.79,1.15c-.53,5.37-1,10.31-1.53,15.26q-2.43,23.85-4.89,47.68c-.31,3-.74,5.92-1.25,8.85-.61,3.52-2.18,5-5.79,4.44-8.6-1.41-17,.51-25.55.57-11.08.06-22.17-.9-34-1.45.7-6.11,1.14-11.1,1.85-16.06C948.62,690.33,951,674.7,953.22,659ZM879.6,705.35c.95-8.51,1.82-17,2.93-25.51.7-5.34,1.94-10.61,2.64-16,.63-4.78.63-9.64,1.33-14.4.89-6.14,1.52-6.72,7.94-6.77,8.55-.06,17.1.22,25.66.45,7,.18,14.1.48,21.15.78a39.33,39.33,0,0,1,4.17.74c-.44,7.37-1,14.2-1.2,21-.28,9.36-2.38,18.4-4.19,27.51-1,4.89-1,10-1.7,14.92-.5,3.48-1.35,6.92-2.14,10.36-.6,2.65-2.75,2.64-4.86,2.63-4.64,0-9.28-.07-13.91-.06-13,0-25.94.08-39.53.13C878.5,715.56,879,710.45,879.6,705.35Zm-2.54,25.44c6-2.46,47.77-1.84,56.43.89a74.33,74.33,0,0,1-2.19,20.79c-2.47,10.29-5,20.56-7.18,30.92-1.43,6.89-2.24,13.91-3.22,20.88-.72,5.14-1.39,10.29-1.88,15.45-.21,2.24-1.14,3.47-3.31,3.72-3.5.41-7,1-10.52,1.09-11.69.41-23.38.65-35.08.93a18.87,18.87,0,0,1-2.86-.58C870.54,793.34,873.81,762.05,877.06,730.79ZM809,671.86c1-8.1,2.65-16.13,4.26-24.15.87-4.33,1.72-4.76,6.16-4.7q25.68.36,51.35.74c1.48,0,3-.16,4.77-.26-.61,26.52-3.38,51.6-4.92,76.88A555.86,555.86,0,0,1,804,723.71a17.41,17.41,0,0,1-.32-3.6C805.36,704,807,687.91,809,671.86ZM723,715.9c2.11-9.52,2.35-19.2,2.6-28.88.08-3.53.47-7,.58-10.58,0-1.83.39-4-.43-5.42-1.74-3-1.51-6-1.22-9.2.49-5.38.91-10.76,1.44-16.14a31.54,31.54,0,0,1,.89-3.87c25.63-1.33,51,.51,77,.94-.73,8.35-1.44,16.08-2.08,23.81-.27,3.33-.3,6.68-.62,10-.42,4.44-1,8.86-1.54,13.29-.14,1.1-.48,2.17-.6,3.28-1,8.85-2,17.71-2.89,26.57-.29,2.85-1.66,4.47-4.52,4.73-5.18.46-10.36,1.06-15.55,1.28q-12.81.54-25.64.63c-9.24.06-18.47-.13-28.85-.23C722.15,722.06,722.34,718.93,723,715.9Zm-6.17,54c1.09-9.61,1.9-19.26,2.83-28.89.69-7.11.84-7.37,8.14-7.45,9.87-.09,19.74.21,29.61,0,11.15-.19,22.3-.72,33.46-1.07,1.08,0,2.16.18,4,.34-6.21,32.2-9.63,64.46-12.73,96.45-3.65,1.21-66.53,2.33-71.72,1.37.16-3.56.12-7.24.53-10.87C712.88,803.16,715,786.53,716.84,769.88Zm-82.34-48.8c.94-8.88,2.33-17.71,3.21-26.6,1-10.55,1.8-21.13,2.58-31.7.46-6.31.62-12.64,1.16-18.94.35-4,1-4.42,5-4.16A75.56,75.56,0,0,1,657,640.73c6,1.26,11.91.91,17.77,0,7.82-1.15,15.55-.76,23.36-.3,5.34.31,10.73,0,16.47,0,.27,1.79.81,3.24.65,4.61-.73,6.1-1.64,12.18-2.52,18.26-.84,5.87-2,11.72-2.53,17.62-.83,8.7-1,17.47-2,26.16-.68,6.41-2.08,12.73-3.22,19.43-2.28.44-4.43-1.74-6.61-1.57-9.62.79-19.19,1.95-28.94.9-5.06-.55-10.33.51-15.47,1.14-6.25.77-12.46,1.79-19.31.3C634.59,724.12,634.19,724,634.5,721.08ZM704,736.33c-.49,3.31-.82,6.24-1.38,9.13-1.95,10.06-2.18,20.38-3.87,30.39-1.27,7.61-1,15-1.41,22.56-.51,9.64-.57,19.3-.81,29,0,.93,0,1.85,0,3.47-13.21.74-25.95-.1-38.66.18s-25.56.09-38.84.11c-.15-2.43-.41-4.23-.33-6,.27-6.69.38-13.4,1.09-20,.55-5.16,1.89-10.23,2.93-15.34q4.77-23.49,9.58-47c.26-1.25.69-2.47,1.13-4C657,738,680.33,734.62,704,736.33Zm-73.74,279.82c-11.3.44-22.6,1-34.57,1.52a48.15,48.15,0,0,1,0-6.39c1.17-8.47,2.51-16.91,3.74-25.38,1.15-7.87,2.37-15.7,2.16-23.74-.09-3.4,1.46-6.83,2.1-10.28a77.45,77.45,0,0,0,1.22-8.83c.22-3,1.72-4.48,4.62-4.35,4.63.2,9.27.41,13.86,1,2.85.33,5.38.55,8-1.12a11.06,11.06,0,0,1,5.83-1.48c15.8.23,31.64-.38,47.35,2.05,2.15.34,4.35.34,6.9.53-.06,9.57,0,18.83-.23,28.08-.31,11-.94,21.95-1.43,32.92,0,.56,0,1.13-.07,1.68-1.4,11.17-.91,10-10.7,10.49-8.89.41-17.71,2-26.59,2.63C645.12,1016,637.69,1015.86,630.28,1016.15Zm10.37,6.24-4,.32c0-.44-.07-.88-.1-1.31l4-.23C640.58,1021.58,640.61,1022,640.65,1022.39Zm-27.52-.23c-3.33,2.79-6.86,2.53-11.51,1.15C606,1020.78,609.54,1021.38,613.13,1022.16Zm-91.37,0a54.25,54.25,0,0,1,.25-5.89c2.6-16.75,3.6-33.62,4.36-50.54.33-7.4,1.38-14.77,2.26-22.13.41-3.42,3.48-3.06,5.71-3.16,4.26-.18,8.55.13,12.83.22,7.8.18,15.61.36,23.42.5,1.48,0,3-.37,4.45-.14a34.86,34.86,0,0,0,18-1.37c5-1.81,6.33-.13,5.61,5.13C597.1,955.88,595.8,967,594.25,978c-1.68,12-3.54,23.93-5.29,35.9-.43,3-1.87,4.85-5,5.07-9.65.68-19.29,1.39-28.94,2-9.28.53-18.57.89-27.85,1.29C525.73,1022.31,524.25,1022.23,521.76,1022.2Zm4.49,5.62a5.1,5.1,0,0,1-1.33.54c-.2,0-.45-.38-.68-.58a4.51,4.51,0,0,1,1.17-.65C525.58,1027.08,525.87,1027.49,526.25,1027.82Zm-90-58.62c.94-6.8,1.15-13.7,1.66-20.56.36-4.73.73-5.12,5.19-5.31,10.58-.43,21.17-1.38,31.74-1.2,14,.23,27.88-.21,41.8-1.1,4.65-.29,5.86.79,5.38,5.44-.71,7-2,14-3,21q-2.79,19.6-5.53,39.21c-.57,4.06-1.24,8.1-1.64,12.17-.32,3.25-2,4.49-5.12,4.63-4.83.22-9.65.58-14.47.92q-27,1.84-53.93,3.7c-1.78.12-3.58,0-5.7,0,0-3.54-.09-6.48.06-9.41C433.56,1002.13,434,985.61,436.27,969.2Zm-.46-150.62,1.11-6.12c2.2,2.33,1,4.3.29,6.31Zm100.62,52c1-9.4,2.13-18.8,3.05-28.22.26-2.71,1.67-3.42,4-3.44,7.8-.08,15.61-.32,23.42-.29,13,0,26,.21,39,.43a22.28,22.28,0,0,1,4.6,1,17.74,17.74,0,0,1,.38,3.28,105.68,105.68,0,0,1-1.08,10.54c-3.59,19.4-5.67,39-7.28,58.63-.11,1.29-.28,2.59-.47,3.88-.59,4.09-1.09,4.77-5.25,5-14.44.75-28.89,1.37-43.34,2q-8.91.39-17.84.59c-5.22.11-6-.91-4.81-5.81a21.58,21.58,0,0,0,.64-2.7Q534,893.05,536.43,870.6Zm-2.31-29.22c-.07-.2.32-.57.5-.87l.75.2c-.13.67-.25,1.34-.38,2A6.61,6.61,0,0,1,534.12,841.38Zm8.62-90.82-3,38.06C537.94,785.29,540.12,755.52,542.74,750.56Zm141.6,167.69a40.16,40.16,0,0,0-13.83.85c-1.2.31-2.57-.11-3.87-.11-4.62,0-9.25,0-13.87,0-2,0-4.06,0-6.1-.06-1.29,0-2.59-.31-3.88-.26-9.81.41-19.62.89-29.43,1.33-5,.22-5.59-.38-5.1-5.23.93-9.43,1.6-18.9,2.83-28.29,1.27-9.77,3.1-19.46,4.61-29.2.69-4.4,1.17-8.84,1.79-13.26.57-4,1-4.5,4.81-4.49,16.18,0,32.37.13,48.55.11,6.88,0,13.76-.26,20.64-.31a38.5,38.5,0,0,1,4.76.53c.1,2,.28,3.23.22,4.51-.51,11.32-1,22.65-1.64,34-.65,10.91-1.46,21.83-2.36,32.73C692,917,690.14,918.78,684.34,918.25Zm-130.19-223q2.21-19.08,4.58-38.15c.47-3.86,1.12-7.7,1.74-11.54.51-3.19,1.57-4.15,4.75-4.3,11.69-.55,23.38-1.19,35.08-1.55,3.49-.1,7,.83,10.52.92,5.21.13,10.42-.11,15.62-.11,2,0,3.94.22,6.67.39-.78,7.41-1.38,14.21-2.22,21-1.14,9.21-2.51,18.39-3.68,27.59-1.44,11.24-2.76,22.49-4.19,33.74-.81,6.34-1.69,7.19-8.11,7.3-14.11.23-28.22.33-42.34.49l-21.85.25a14.62,14.62,0,0,1-.24-2.77C551.67,717.36,552.86,706.28,554.15,695.2Zm-5,49.87c.73-5.65,1-5.6,6.61-5.78,10.41-.34,20.81-1,31.23-1.24s20.77-.2,31.16-.25a12.43,12.43,0,0,1,2.62.9c-.66,5.84-.7,11.68-2.06,17.19-4,16.38-4.39,33.12-5.64,49.78-.48,6.44-.44,12.93-.9,19.37-.41,5.65-1.49,6.32-6.95,6s-11-1.37-16.09-.33c-7.46,1.51-14.59-.84-21.89-.33-7.77.56-15.58.53-23.38.77-.75,0-1.49.12-2.47.21-.29-2.07-.78-3.51-.65-4.88.7-6.83,1.61-13.63,2.33-20.46.27-2.56.14-5.17.35-7.75.59-7,1.17-14.08,1.94-21.1C546.52,766.47,547.75,755.76,549.14,745.07Zm-2.84-47.4c1,3.52,1.5,7-.54,10.18l-1.19-.22C545.15,704.31,545.72,701,546.3,697.67Zm-94,33c2.47-8,2.28-16.08,1.74-24.21-.37-5.55-1.49-11.07-1.59-16.61A30.19,30.19,0,0,1,454.31,679a30.82,30.82,0,0,0,2-10.84c.06-5.55.48-11.1.74-16.68a29.14,29.14,0,0,1,12.17-3c4.62-.11,9.25-.68,13.85-1.22,3.87-.45,7.73-1.75,11.57-1.63,11.28.34,22.14-2.4,33.17-3.85a49.5,49.5,0,0,1,17.35,1c0,3.23.15,6-.13,8.74-.93,9-2,18.09-3.08,27.12-1.16,9.55-2.62,19.06-3.61,28.62-.67,6.46-.72,13-1.13,19.49-.12,1.8-.54,3.59-.88,5.79l-83.07,5.83A8.51,8.51,0,0,1,452.31,730.64Zm-4.56,91.74c2.05-11.77,1.9-23.66,2.13-35.55a134.4,134.4,0,0,1,1.7-15.45,61.47,61.47,0,0,0,.43-16.6c-.69-5.23,0-5.3,5.09-6.61,8.89-2.29,18-2.28,27-3.34,4.42-.52,8.79-1.69,13.22-2,8.53-.62,17.09-.77,25.62-1.24,3.86-.22,7.7-.76,12.33-1.23a49.38,49.38,0,0,1,.49,6.59c-.35,5.93-1,11.85-1.35,17.78-.64,13-.93,26-1.74,38.95-.49,8-1.6,15.88-2.68,23.78-.16,1.17-1.54,2.37-2.65,3.13a6.22,6.22,0,0,1-3.23.67c-9.65.25-19.3.45-29,.66-11.32.24-22.64.53-34,.68-4,.06-8.11-.23-12.3-.36C447,828.67,447.2,825.55,447.75,822.38Zm-1.6,24.29c.74-5.8,1.6-6.54,7.46-6.6,12.46-.12,24.91,0,37.36-.26,9.67-.17,19.33-.72,29-1,2.54-.07,5.08.2,8.09.34,0,6.3.22,12,0,17.76-.36,8.92-1.15,17.82-1.51,26.74s-.37,17.83-.69,26.73c-.12,3.34-.67,6.66-1,10-.31,2.72-2,3.74-4.57,3.86-18.35.89-36.69,1.78-55,2.78-6.3.35-12.58,1.07-18.87,1.54-2.18.17-4.37.09-7.35.14.24-5.52.3-10.49.7-15.43.78-9.82,1.71-19.63,2.65-29.44.75-7.76,1.63-15.51,2.42-23.27C445.23,855.92,445.56,851.28,446.15,846.67Zm-2.72-97c1.91,2.65,1.86,4.61.15,7.22C441.86,754.36,442.4,752.38,443.43,749.64Zm-91.69-6c3.46-9.73,3.27-20,4.3-30.08.76-7.33.38-14.78.52-22.18.12-6.13.22-12.26.37-18.39.15-5.86.93-6.61,6.65-7.27,6.46-.75,12.9-1.72,19.36-2.46,3.87-.45,7.8-.42,11.64-1a99.46,99.46,0,0,0,14.14-2.85c7.76-2.35,15.39-3.9,23.54-1.85,1.78.45,4.2-.85,6.09-1.8,2.1-1.07,3.8-3.07,7.11-1.85-.35,7.48-.57,15-1.8,22.48-.32,1.94,0,4-.16,5.94-.28,4.42-.53,8.84-1,13.23-1.38,12.19-2.89,24.36-4.34,36.54-.07.56-.08,1.12-.15,1.67-.66,5.14-1,5.78-6.17,5.7-9.71-.15-19.16,2.32-28.74,2.72-13.48.56-26.86,2.66-40.39,2.45-3.42-.06-6.86.92-10.49,1.45C352,745,351.54,744.21,351.74,743.63ZM349,693.15c2.13,4.14.87,7.3.8,10.35-.08,3.33-.12,6.67-.41,10s-.58,6.45-3,9.07C346,713,346.34,703.61,349,693.15Zm-6.5,133.22c1.23-15,2.58-30,3.86-45,.3-3.52.17-7.11.82-10.56.75-3.94,3.09-7.43,3.08-11.72,0-2.61,2.79-2.62,4.81-2.68,4.83-.13,9.68.11,14.5-.21,13-.84,25.93-1.86,38.89-2.89,8.68-.68,17.35-1.5,27-2.34-.77,5.56-1.55,10.31-2.05,15.09-1,9.22-2.05,18.45-2.63,27.7-.43,6.83,0,13.7-.25,20.55-.17,5.17-.73,10.34-1.12,15.51-.19,2.57-1.69,3.44-4.13,3.42-6.86-.07-13.73,0-20.6-.07q-18.66-.24-37.32-.63c-5-.11-10-.47-15-.67a22,22,0,0,0-3.89.15C342.62,832.81,342.05,832.38,342.54,826.37ZM424,997.28c5.59-1.11,5.94-.88,5.93,2.39,0,1.61.07,3.21.13,5.51C425.43,1003.15,427.6,999.12,424,997.28Zm4.13,29.78-1.34.23a14.73,14.73,0,0,1,0-2,2.48,2.48,0,0,1,.92-.19C427.82,1025.74,428,1026.4,428.09,1027.06Zm-1.67,19c-.21,2.36-.41,4.71-.61,7.07l-1.36-.08q.17-3.57.32-7.15Zm-88-143.16c.81-10,1.75-20,2.69-29.94s-.93-19.94.61-30.64c3.07.48,5.54,1,8,1.23s5.38.94,7.58.09c5.41-2.07,11-2,16.5-2.06,16.54-.3,33.09-.29,49.63-.35,1.47,0,2.93.29,5,.5.28,2.77,1,5.51.73,8.15-1.08,10.95-.79,21.87-.27,32.83a124.05,124.05,0,0,1-.7,15c-.69,9.27-1.59,18.53-2.22,27.8-.2,3-1.58,4.33-4.45,4.56-5.74.45-11.46,1.06-17.2,1.45-10.76.75-21.53,2-32.28,1.9-10.19-.07-20.38,2.12-30.57,0-1.39-.29-2.9,0-5.31,0C336.93,922.78,337.58,912.82,338.4,902.87ZM323.16,1095c1.73-7.81.78-15.58,1.51-23.33.65-6.84,1-13.72,1.61-20.56.42-4.69.87-5.37,5.7-6a86.09,86.09,0,0,1,18.47-.35c-2,.47-3.93,1-5.91,1.4a19.3,19.3,0,0,0-3.77.83c-1.88.88-4,2.24-3.1,4.57.39,1,2.63,1.77,4.11,1.93a19.1,19.1,0,0,0,6.06-.47,54.61,54.61,0,0,1,17.67-1.52c3.61.36,7.37-.43,11-1,7.53-1.06,15-2.38,22.54-3.41,5.84-.81,11.72-1.33,18.17-2a37.84,37.84,0,0,1,.74,6.07c-.62,15.6-1.25,31.21-2.11,46.79-.34,6.27-.95,6.39-7,6.8-10,.68-20,1.87-30,2.37-12.05.6-24.14.5-36.19,1.09-6,.3-12,1.48-19.22,2.42C323.29,1105.53,322,1100,323.16,1095Zm89.26,17.4c-1.8,2.24-3.63,1.69-6.45.68C408.55,1111.51,410.26,1110.86,412.42,1112.37Zm-31.71,3.86-35.85,4.36c.78-3.29,2.74-3.93,4.65-4.06,9.76-.67,19.53-1.18,29.29-1.71C379.08,1114.81,379.37,1115.22,380.71,1116.23ZM411,1168.74c-.55,7.21-1.54,14.38-2.29,21.58-.22,2.11-1,3.32-3.39,3.54-6.29.56-12.54,1.48-18.82,2.1-3.68.36-7.39.39-11.08.59-10,.54-20.08,1.06-30.11,1.69a7.7,7.7,0,0,0-4.22,1.2,12.35,12.35,0,0,1-9.28,2.87c-1.11-.07-2.35,1.43-3.49,2.26s-2.53,2.79-3.7,2.72c-2.53-.15-2-2.82-2.13-4.48-.37-6.68-.66-13.38-.65-20.07,0-16,.18-32,.36-48,.06-4.84.32-5.15,5.3-6.2a17.79,17.79,0,0,1,6.59-.47c6.39,1.11,12.59,0,18.85-.89,13.61-2,27.23-4,40.88-5.78,6.41-.82,12.89-1,19.92-1.54a20.19,20.19,0,0,1,.35,3.16C413.05,1138.3,412.11,1153.53,411,1168.74Zm8.12-4.8c-1,7.8-.11,15.58-1.37,23.27-.24,1.54-.67,3-1,4.55l-1.57-.24c-.24-3.31-1.18-6.74-.6-9.9,3.72-20.32,1.34-41.24,6.36-62.77.61,2.12,1.16,3.05,1.1,4C421.15,1136.53,420.85,1150.33,419.08,1163.94Zm.7-150.71c-.4,4.23-.71,8.46-1.17,12.68-.25,2.21-1.8,3.09-3.88,3.28-9.81.89-19.6,1.84-29.41,2.69-13.31,1.15-26.62,2.31-39.94,3.28-5.16.37-10.37.31-15.55.29-2.47,0-3-1.78-2.84-3.89.65-11.13,1.24-22.26,1.94-33.39.33-5.18.76-10.36,1.33-15.51a66.8,66.8,0,0,1,1.53-7.65c1.22-5.25,2.27-10.4,1.4-15.93-.47-3,.61-6.23,1.15-9.33a8.72,8.72,0,0,1,1.46-2.45,60.37,60.37,0,0,1,6.11-.77c9.63-.22,19.26-.33,28.89-.49.36,0,.79-.16,1.09,0,7.83,3.47,15.66.36,23.46-.08,8.52-.47,17-1.49,25.54-2.07,3.56-.25,4.37.56,4.17,4.16s-.94,7.32-1.41,11a17.66,17.66,0,0,0-.37,4.38c1.14,9,.05,17.79-1.17,26.66C421.05,997.74,420.53,1005.5,419.78,1013.23Zm50,187.3c.38-.43.72-1.19,1.14-1.24,7.39-.89,14.79-1.7,22.19-2.53.11.71.23,1.41.35,2.12C486.08,1203.1,477.83,1199.66,469.74,1200.53Zm29.33-69.28a429.49,429.49,0,0,0-3.13,45c-.07,3.68-.73,7.35-1.12,11-3.62.44-7.23,1-10.86,1.29-14.27,1.17-28.55,2.32-42.84,3.34-5.68.41-11.38.46-17.81.7,0-5.15-.21-9.76.05-14.33.59-10.4,1.54-20.78,2.1-31.17.44-8.16.43-16.33.8-24.49.21-4.73,1-5.34,5.65-5.77,3.3-.3,6.44-.48,9.61-2.23,2.28-1.26,5.72-1,8.52-.62,7.56,1.11,14.78-1.14,22.16-1.75,8.15-.67,16.26-1.92,24.39-2.87a23.69,23.69,0,0,1,3.67.25C499.87,1117.21,499.93,1124.28,499.07,1131.25Zm-58.79-21.59c3-1.74,6.44-1.23,9.71-1.58l.24,1.47-9.77,1.36Zm56.87-9.12c-11-1-21.84.82-32.77,1.09-7,.16-14.05,1.44-21.1,1.85-4.22.25-8.48-.21-12.73-.36-2.31-.07-3.28-1.37-3.37-3.58-.11-3-.53-6-.37-8.92.42-7.59,1.11-15.17,1.64-22.76.24-3.51.17-7,.57-10.51a68.1,68.1,0,0,1,2.25-12.53c.41-1.33,3.15-2.43,5-2.73,5.68-.94,11.42-1.7,17.17-2.07,14.45-.94,28.92-1.62,43.37-2.46,1.46-.08,2.89-.72,4.35-.86,2.5-.24,5-.28,8.26-.44-.74,7.64-.44,14.53-2.35,21.12-1.64,5.63-1.92,11.26-2,17.07A188.68,188.68,0,0,1,503,1096C502.46,1099.71,500.76,1100.88,497.15,1100.54Zm8.05,44.62h-1.57c.18-2,.37-4,.55-5.93C506.71,1141.33,505.11,1143.21,505.2,1145.16Zm2.51-34.42c-.13,7,.76,14.19-1.57,21.52C504.28,1128.59,504.81,1119,507.71,1110.74Zm-1.13,86.82c.72-.63,1.5-1.85,2.15-1.78,3.39.33,7.06-1.18,11.32,1.61C515,1199.65,510.94,1198.48,506.58,1197.56Zm27.83-1.66c.87-.63,1.52-1.52,2.16-1.51,6.54,0,13.16-.91,20.79.8C551.69,1197.22,538.13,1197.54,534.41,1195.9ZM578.88,1151c-1,9-1.18,18.17-1.92,27.24-.3,3.64-1.11,7.25-1.71,11-1.69.17-2.78.32-3.86.36-17.1.61-34.19,1-51.26-.59-3.33-.31-6.68-.31-10-.53-2.49-.16-3.62-1.49-3.36-4.07.81-8.32,1.49-16.65,2.34-25,.94-9.23,2.13-18.45,3-27.69.6-6.45.9-12.94,1.16-19.41.12-2.92,1.3-4.5,4.25-4.78q12.75-1.21,25.49-2.51a128.82,128.82,0,0,1,31.14,1.11c6.28.9,6.75,1.4,6.84,7.69A310.5,310.5,0,0,1,578.88,1151Zm-.27-55c-10,.51-20,1.22-30,1.91s-20,1.43-29.92,2.14a20,20,0,0,1-2.79.09c-2.35-.14-3.19-1.44-2.93-3.74,1.42-12.71,2.78-25.42,4.17-38.12q.93-8.55,1.94-17.09a19.32,19.32,0,0,1,.64-3.29c1-3.29,2.35-4.24,5.25-2.65s5.57,1.08,8.57.78c16.62-1.71,33.27-3.15,49.92-4.67,1.08-.1,2.19,0,3.81-.06-.14,2.56-.22,4.34-.34,6.13-.75,11.48-1.45,23-2.31,34.45-.52,6.84-1.29,13.66-2,20.49C582.39,1094.73,581.2,1095.88,578.61,1096Zm99.33,45.11c-.31,8.54-.79,17.07-1,25.61-.1,4.81.41,9.63.43,14.44,0,5.63-1.13,6.88-6.87,7-18.19.57-36.39,1-54.59,1.46-9.28.22-18.56.32-27.84.51-3.2.06-4.06-.49-3.92-3.82.27-7,.95-14,1.26-21.07.22-4.81,0-9.65.18-14.47.1-3.15.57-6.29.7-9.44a55.56,55.56,0,0,0-.25-6c-.05-.72-.52-1.45-.44-2.12,1.12-8.81,2.2-17.62,3.5-26.4.65-4.35.87-4.41,5.3-4.78,7.78-.66,15.56-1.34,23.34-1.84,16.9-1.09,33.8-1.49,50.7-.08,2.59.22,5.17.59,7.74,1a14.59,14.59,0,0,1,2.63,1,26,26,0,0,1,.31,3.43Q678.6,1123.33,677.94,1141.13Zm-4.09-48.69c-9.85.28-19.71.16-29.55.61-7.22.33-14.39,1.63-21.61,1.92-10.52.43-21.06.34-32.51.49.7-8.64,1.47-16.55,2-24.48.44-7,.59-14,.83-21.07.18-5,.34-10,.45-15,.07-3.07,1.63-4.16,4.6-4.22a76.55,76.55,0,0,0,8.78-1c2.26-.3,4.52-.61,6.25,1.31s4,1.68,6.24,1.55q30.88-1.81,61.75-3.69c5.36-.32,6.15.21,5.57,5.38-1.32,11.82-2.91,23.61-4.33,35.42-.62,5.17-1.28,10.34-1.59,15.53C680.29,1092.12,680.43,1092.25,673.85,1092.44Zm77.1,88.7c-.09,1.27-.31,2.52-.57,4.49-7.17.21-13.83.36-20.48.61-5,.18-10,.57-15,.71-9.67.28-19.33.55-29,.61-3.42,0-4.28-1-4.14-4.48.23-5.56.69-11.11,1.07-16.67.79-11.68,1.53-23.37,2.43-35,.4-5.19,1.16-10.35,1.73-15.53.43-3.88.76-7.78,1.28-11.64.26-1.94.86-3.82,1.49-6.51,4.67,3.84,9.3,2.59,13.88,2.48q19.25-.47,38.5-.53c5.33,0,9.14,4.25,9.2,10.12.06,5-.39,10.06-.11,15.06A426.81,426.81,0,0,1,751,1181.14Zm4-138.38c-.79,10.54-1.42,21.1-2.11,31.65q-.39,6.12-.74,12.23a3.26,3.26,0,0,1-3,3.44,26.26,26.26,0,0,1-3.32.31l-37.31.93c-5.71.14-11.43.32-17.68.5a43.29,43.29,0,0,1,0-4.51q2.14-23.85,4.4-47.7c.28-3,.78-5.89,1.15-8.85.31-2.55,1.5-3.88,4.28-4.13,7.58-.7,15.12-1.92,22.71-2.44,6.1-.42,12.25-.22,18.37-.09,3.37.07,6.59.34,9.58-1.89,1.13-.85,3-.68,5.74-1.2C756.21,1029.15,755.45,1035.94,754.94,1042.76Zm70.38,67.54c-.66,9.09-1.63,18.14-2.48,27.21q-1.58,16.92-3.17,33.85c-.29,3.15-.57,6.29-.89,9.44-.26,2.65-1.55,3.77-4.42,3.74-11.85-.11-23.71,0-35.56.08a12.85,12.85,0,0,0-3.3.53c-7,1.89-9.57,2-18,.08.34-6.21.56-12.29,1-18.34,1-13.53,2.23-27,3.34-40.56.45-5.36.69-10.75,1.34-16.1.58-4.83,1.22-5.37,6-5.44,9.85-.17,19.7-.18,29.55-.22,7,0,14.11.09,21.17,0C825.07,1104.53,825.7,1104.88,825.32,1110.3Zm58.43,17.75c-.52,5.92-.7,11.86-1,17.79-.3,5.19-.65,10.38-.92,15.56-.32,6.12-.54,12.24-.87,18.35-.26,4.71-.57,5.11-5.17,5.35-3.9.2-7.81.08-11.71.08-6.32,0-12.63,0-18.95,0a8.73,8.73,0,0,0-3.8.64c-4.43,2.26-9,1.76-13.84,1.16-2.13-3.73-1.65-7.23-1.31-10.77,1.56-16.09,3-32.2,4.57-48.28.64-6.48,1.67-12.91,2.55-19.37a3.22,3.22,0,0,1,3.38-3,298.5,298.5,0,0,1,45.15.78,23.26,23.26,0,0,1,4.18,1.28C885.2,1114.5,884.33,1121.26,883.75,1128.05ZM890.29,1023c-3.43,22.29-2,44.86-3.47,67.86-16.48,1.44-32.21-2.12-47.79.35,0,3,1.59,3.13,3,3.22,7.6.45,15.21.77,22.82,1.21,5.93.35,11.86.8,17.79,1.27.46,0,.89.55,2.08,1.33-4.34,2-8.29.56-12.06.81-4.07.27-8.16.47-12.24.43s-8.18-.59-12.26-.58-8.18.08-12.56-2.3c.08-5-.28-10.42.34-15.7,2.18-18.67,4.7-37.3,7.09-55.95.12-.92.24-1.84.39-2.76a3.22,3.22,0,0,1,3.41-3c13.19-.53,26.38-1.12,39.56-1.64a19.73,19.73,0,0,1,3.18.37,6.66,6.66,0,0,1,.7,1.72A14.35,14.35,0,0,1,890.29,1023Zm2.65-29.29c.07,3-.26,5.94-.41,8.92-.15,2.82-1.7,3.82-4.44,3.69-9.27-.44-18.55-.87-27.83-1.11-3.51-.09-7,.32-10.56.52-3.33.18-4.21-.39-3.9-3.68,1-10.37,2.09-20.72,3.26-31.07.94-8.27,2.05-16.53,3.08-24.79.33-2.59.52-5.19,1-7.75,1-5.38,1.67-6.29,6.87-5.86a238.61,238.61,0,0,0,35.67.12c1.22-.08,2.48.41,4.69.81-1.1,7-2.15,13.43-3.08,19.84C895.36,966.72,892.6,980,892.94,993.68ZM965,1118.93c-1.14,13-2.41,25.88-3.55,38.83-.67,7.58-1.18,15.16-1.78,22.74-.21,2.72-1.49,4.55-4.38,4.92-.92.11-1.83.34-2.76.38-12.42.49-24.84,1-37.27,1.4-4.79.16-9.6.15-15.13.23a68.91,68.91,0,0,1-.56-7.92c.39-7.78,1.08-15.55,1.49-23.34.47-9.07.78-18.15,1.16-27.23.24-5.94.43-11.88.77-17.82.3-5.18.48-5.46,5.52-5.38,7.8.12,15.6.76,23.39.72,8.33,0,16.62,1.74,25,.32,2.61-.44,5.42.29,8.71.52C965.42,1111.62,965.35,1115.29,965,1118.93Zm76.75-4c-.47,7.25-1.11,14.48-1.66,21.72q-1.29,17-2.55,34l-.78,10.56c-.21,2.68-1.57,4.09-4.34,4-.38,0-.75,0-1.12,0-15.57-.7-31.15-.17-46.72-.33-5.74,0-11.48.33-18,.54a45.32,45.32,0,0,1-.34-5.79q2.91-33.1,5.94-66.19c.08-.93.19-1.85.29-2.78a3.64,3.64,0,0,1,4.12-3.6c3.53.06,7.08.1,10.6.36,10.4.77,20.78,1.71,31.18,2.44,3.71.26,7.45.06,11.17.13,2.78.06,5.59,0,8.35.36C1041.56,1110.72,1042,1111.26,1041.78,1114.93Zm60.31,4.21c-1.86,16.43-3.9,32.84-5.85,49.26-.28,2.4-.4,4.81-.62,7.22-.25,2.78-1.64,4.47-4.55,4.7a25,25,0,0,1-3.33.27c-10-.59-19.42,2.5-29.12,3.88-6.63.93-7.81,1-16.2-1.56.9-12.59,1.83-25,2.67-37.39.47-7,.6-14,1.26-21,.42-4.39,1.52-8.72,2.34-13.2,1.66-.31,2.89-.65,4.14-.75,13.4-1.15,26.74-.26,40.06,1.24a34.6,34.6,0,0,1,4.36,1C1102.1,1114,1102.63,1114.41,1102.09,1119.14Zm-14-15.16.21-1.46,9.18,1.15-.21,1.8Zm18-15.61c-.42,3-1.71,4.81-4.81,5.11-6.25.61-12.5,1.55-18.76,1.75-9.83.3-19.67.11-29.51.09a17.33,17.33,0,0,1-2.87-.61c0-2.42-.21-4.44-.06-6.44q2.22-29.46,4.54-58.91c.37-4.87.86-5.22,5.61-5.62a195.84,195.84,0,0,1,32.85-.25c2.33.2,4.77-.61,7.11-1.15,4.79-1.12,9.52-1.44,14.51.42a15.08,15.08,0,0,1,.19,3.2C1112,1046.76,1109,1067.56,1106.08,1088.37Zm18.45-128.9c-.55,4.23-.86,8.5-1.49,12.72-1.28,8.65-2.66,17.27-4.08,25.89-.86,5.2-1.43,5.92-6.73,6.4s-10.37.54-15.56.64c-10,.22-20.05.24-30.07.52-9.7.27-9.91.3-8.92-9.31.62-6.09,1.82-12.11,2.8-18.15q3.7-22.84,7.44-45.68c.6-3.61,1.23-4.11,4.75-3.88,13.16.84,26.39.85,39.36,3.63,2.81.6,5.54.65,8-1.17,2.66-2,5.19-1.19,7.8.3a5.11,5.11,0,0,1,.25,1.15C1126.91,941.51,1125.69,950.48,1124.53,959.47Zm15.53-103.25c-1.16,8.45-2.51,16.88-3.88,25.31-1.28,7.89-2.72,15.75-4,23.63a4.35,4.35,0,0,1-4,4,70.18,70.18,0,0,1-7.75.89c-14.84.24-29.69.38-44.54.52-1.46,0-2.93-.14-4.69-.23a35.2,35.2,0,0,1-.08-4.94c1.81-13.26,3.8-26.5,5.51-39.77,1.07-8.29,1.78-16.63,2.61-25,.46-4.52.83-5.24,5.48-4.89,10.17.77,20.29,2.16,30.46,2.91,5.9.44,11.87.1,17.8.16,2.73,0,5.45.16,8.86.26C1141.2,845.23,1140.81,850.75,1140.06,856.22Zm13.47-115.63c-.55,7.59-.91,15.19-1.71,22.75-1,9.41-1.18,18.88-3.41,28.21-1.63,6.82-1.75,14-2.52,21-.61,5.55-1.35,6.3-6.85,6.42-10.4.24-20.81.27-31.2.72-4.62.2-9.19,1.42-13.81,1.82-4,.36-8.07.22-13,.31.92-7,1.81-12.87,2.43-18.77,2.18-20.72,4.27-41.46,6.4-62.19a27.77,27.77,0,0,1,.57-3.87c.91-3.64,2-4.94,5.71-5,7.24-.07,14.48.29,21.73.5,2,.06,4,.31,6.05.28,6.3-.12,12.6-.44,18.89-.44a22.76,22.76,0,0,1,6,1.24C1152.52,734.72,1153.81,736.69,1153.53,740.59Z"/></g><path class="cls-2" d="M701.7,429.41c0-28.31,16.08-32.17,22.52-48.89s-2.58-37.32-18.66-37.32S683.69,356.07,683.69,376H660.53V349.64c0-12.87,0-21.88-13.51-21.88H582.24c.25-2.86.58-6,1-9.43,4.35-32.18,33.92-58.16,89.58-60.07s98.28,41.05,103.5,74.1S779,395,762.45,433c-6.7,15.44-8.82,34.57-8.92,53.47-7.26-1-18.52-3.16-27.22-7.56C712.32,471.87,701.7,457.72,701.7,429.41Z"/><path class="cls-9" d="M753.53,486.51c-7.26-1-18.52-3.16-27.22-7.56-14-7.08-24.61-21.23-24.61-49.54s16.08-32.17,22.52-48.89-2.58-37.32-18.66-37.32S683.69,356.07,683.69,376H660.53V349.64c0-12.87,0-21.88-13.51-21.88H582.24c-2,23.84,2.28,29.08-6.91,44.6-10.31,17.4-19,17.4-17.26,27s13.64,3.55,17.26,13.95A67.2,67.2,0,0,1,578.94,433s.94,9.28.87,12.38c-.41,17.57,4.31,29.63,15.24,40,19.46,18.47,50.86-.87,52.6,22.61a406.11,406.11,0,0,1,.87,43S713,634.61,756.25,533.41C755.74,518.94,753.39,514.2,753.53,486.51Z"/><path class="cls-6" d="M635.28,495.43c6.85,1,11.71,3.77,12.37,12.61.44,5.93.71,11.9.87,17.52l42.89-47.22C676.25,492.52,641.06,495.3,635.28,495.43Z"/><path class="cls-6" d="M599,455.16c-5.15-23.57-2.38-123.66-.82-168.66a58.64,58.64,0,0,0-14.86,31.83c-.47,3.45-.8,6.57-1,9.43-2,23.84,2.28,29.08-6.91,44.6-10.31,17.4-19,17.4-17.26,27s13.64,3.55,17.26,13.95A67.2,67.2,0,0,1,578.94,433s.94,9.28.87,12.38c-.41,17.57,4.31,29.63,15.24,40,7.62,7.24,17.07,8.67,25.86,9.15C619,493.33,605.2,483.6,599,455.16Z"/><path class="cls-9" d="M0,1073.35S23.46,825.27,195.5,746s359.71-53.21,393.6-19.33,73,80.81,73,182.47l-36.5,13L636,1340.72l-477,22-33.88-289.33Z"/><path class="cls-1" d="M0,1073.35S23.46,825.27,195.5,746s359.71-53.21,393.6-19.33,73,80.81,73,182.47l-36.5,13L636,1340.72l-477,22-33.88-289.33Z"/><path class="cls-9" d="M337.92,590.15c0-28.31,16.08-32.17,22.52-48.9s-2.58-37.31-18.66-37.31-21.87,12.87-21.87,32.81H296.75V510.37c0-12.86,0-21.87-13.51-21.87H218.46c.25-2.86.58-6,1-9.43,4.35-32.18,33.92-58.16,89.58-60.07s98.28,41,103.5,74.09,2.61,62.63-13.92,100.69c-6.7,15.44-8.82,34.57-8.92,53.47-7.26-1-18.52-3.17-27.22-7.57C348.54,632.61,337.92,618.45,337.92,590.15Z"/><path class="cls-4" d="M389.75,647.25c-7.26-1-18.52-3.17-27.22-7.57-14-7.07-24.61-21.23-24.61-49.53S354,558,360.44,541.25s-2.58-37.31-18.66-37.31-21.87,12.87-21.87,32.81H296.75V510.37c0-12.86,0-21.87-13.51-21.87H218.46c-2.05,23.84,2.28,29.07-6.91,44.6-10.31,17.4-19,17.4-17.26,27s13.64,3.56,17.26,14a67.2,67.2,0,0,1,3.61,19.76s.94,9.28.87,12.38c-.41,17.57,4.31,29.63,15.24,40,19.46,18.47,50.86-.87,52.6,22.61a405.93,405.93,0,0,1,.87,43s64.44,83.57,107.73-17.63C392,679.68,389.61,674.94,389.75,647.25Z"/><path class="cls-7" d="M391.79,695.69A600.88,600.88,0,0,0,286.2,713.57C295.94,725.08,352.36,785.66,391.79,695.69Z"/><g class="cls-10"><path d="M391.79,695.69c.23-.52.46-1,.68-1.54-.51-14.47-2.86-19.21-2.72-46.9,0-4.19.16-8.39.41-12.56l-39.06-15,7.24,79.64C369.68,697.77,380.86,696.55,391.79,695.69Z"/></g></g></g></svg>