<svg xmlns="http://www.w3.org/2000/svg" viewBox="0 0 785.96 829.3"><defs><style>.cls-1{fill:#ffb819;}</style></defs><title>Plant Right 1</title><g id="Camada_2" data-name="Camada 2"><g id="Camada_3" data-name="Camada 3"><path class="cls-1" d="M156.24,667.52A6.52,6.52,0,0,0,151,664c-10-.66-20.31-2.48-30-.83-12.47,2.11-25.21,2.05-37.5,5.17-13.48,3.42-27.93,2.54-40.85,7.69-10.78,4.3-21.71,5.85-33,6.94-4.07.39-7.72.57-9.17-4.18-1.16-3.79-.51-7.2,2.63-10,11.92-10.42,25.37-18.55,39.15-26.18,15.36-8.49,32.87-10.35,49.22-15.8a332.18,332.18,0,0,1,34.62-9.7c14-3,28.07-5,42.57-4.14,5.2.32,10.23.78,15.36,1.45,2,.26,4.59,1.84,6.93.5,6.48-3.7,12.95-3.73,19.75-.6,2.49,1.15,5-.69,6.85-2.37,6.31-5.73,12.54-11.54,18.61-17.51,3.18-3.13,2.5-4.77-2-6.71-8.58-3.7-17.35-1.58-26-.83-17.27,1.5-34.46,2.06-51.82.31-13.45-1.36-27.09-1-40.65-1.15-18.65-.17-37.15,1.76-55.6,4.36a58.17,58.17,0,0,1-13.24.5c-8.2-.75-16.25-.84-24.26,1.4-2.08.58-4.83,1.4-6.4-.18-2.06-2.08-3.32-5-4.95-7.46-2.18-3.31-.24-7.11,3.15-9.75,3.89-3,8.61-5.57,7.85-11.86-.09-.71,1.56-1.85,2.6-2.47,8.09-4.84,15.65-10.54,24.86-13.48,5.67-1.82,11-4.86,16.41-7.33,11.28-5.11,23.45-7.59,35.29-10.67,16.1-4.19,32-9.56,48.69-11.39,23.44-2.57,46.93-4.24,70.48-5.53,16.36-.9,32.66-3.13,49.08-3.1,13.68,0,27.59-.58,39.62,7.84,2.09,1.47,3.78,3.43,6.42.94,6.8-6.41,13.66-12.76,21.48-20-15.16-2.5-28.9-2.79-42.59-3.7a324,324,0,0,1-34.76-4c-13.77-2.42-27.67-1.07-41.5-1.88-23-1.35-46,1.25-69-.91-5.89-.55-12.07.4-17.93,1.59-15.87,3.23-32.09,2.63-48,5a29.43,29.43,0,0,1-20.73-4.87c-7.58-5-7-10.11,1-14.44,6.41-3.5,13.65-4.81,20.17-7.95,30.48-14.71,63.48-17.46,96.43-21,11.55-1.24,23.16-1.73,34.69-3.22a171.12,171.12,0,0,1,40-.93c.93.1,2,.93,2.72.63,6.8-2.9,14-.48,20.76-1.6,7.53-1.25,15-1.18,22.46-1.25a402.29,402.29,0,0,1,42.34,2.36c13.74,1.32,27.54,2,41.23,3.84A13.5,13.5,0,0,0,397.06,441c4.56-5.08,10.17-9.22,14-15.2-2.32-2.41-5.22-2.14-7.34-2-18.78,1.12-37.13-2.57-55.5-5.19-28.37-4.06-56.9-6.57-85.3-10.13-18.87-2.36-37.76-1.34-56.57-3.08-14.1-1.31-28.2-2.69-42-6a14.31,14.31,0,0,0-6.51-.08c-12.05,2.52-22.89-1.44-32.83-7.49a11.87,11.87,0,0,1-5.71-12.67c.67-3.32,6.51-9.53,9.67-10.65,7.79-2.77,16.46-1.54,24-5.18s14.7-3.88,22.83-2.38c16.26,3,32.72.26,49.1.32,23.64.09,47.27-1.43,70.93,1.88,13.89,2,28.19.87,42.29,1.44,5.13.2,10.52-.61,15.28,2.29.27.16.66.37.89.28,11.79-4.51,23.48,2.8,35.39.16,6.1-1.35,12.39-.08,18.54,2.13s12.88,2.46,19.51,2.82c9,.48,18.19-.39,27,3.08,4.45,1.75,9.12.57,12.72-3.54,4.35-5,9.12-9.56,14.27-14.89-5.22-4.19-11.53-3.68-16.17-3.12-11.27,1.36-22-.44-32.73-2.62a237.19,237.19,0,0,0-27.05-3.92c-17.89-1.53-35.75-3.51-53.61-5.5-20.34-2.26-40.77-3.05-61.19-4.31-21.94-1.35-43.8-3.91-65.74-5.26-15.08-.94-30.19-1.69-45.27-2.37-6.89-.32-9.13-6.43-14.73-7.44-1.07-.19-.74-1.86-.2-3.23,1.24-3.13,4-5.84,3.45-9.48-.31-2.19,1.18-1.71,2.16-1.88q6.53-1.19,13.08-2.19c2.5-.38,5.17-.2,7.52-1,23.09-7.74,47.19-7.57,71.05-9.39,28.83-2.19,57.64-4.68,86.49-6.61,27.38-1.82,54.78-3.41,82.2-4.44,10.67-.4,21.4,1.23,32.12,1.54,12.58.36,25.26,1.23,37.76.16,15-1.27,29.79-4.26,44.82-5.35A5.92,5.92,0,0,0,550.4,278c4.24-5.47,8.75-10.72,13-16.15,2.45-3.12-1.48-5.18-2.42-5.08-10,1.09-19.7-5.22-29.8-1.41-3.41,1.29-7,.19-10.28-.12-14.38-1.37-28.8-.58-43.12-1.22-20.12-.9-40.28.68-60.39-2.21-19.66-2.83-39.63-.95-59.45-1.4-18.84-.44-37.69.15-56.51-1.59a36.88,36.88,0,0,1-19.13-6.91c-1.63-1.2-5.5-2.73-3.61-4.14,2.69-2,.28-6.16,5.12-7.39a188.33,188.33,0,0,0,18.91-5.76c18.92-7,38.9-7.56,58.59-10,16.77-2,33.37-5.08,50.36-5.34C432.81,209,453.91,208,475,207c14.39-.68,28.78-2.74,43.14-2.46,15.91.31,32.13-1.26,47.71,3.34,6.63,2,13.95-.08,20.11,4,.75.5,1.86.45,2.67.89,2.62,1.42,4.35,4.74,7.9,4.12,4.05-.71,5-4.74,6.73-7.49,7.81-12.51,17-24.16,23.64-37.16-1.28-2-3-2-4.44-2-14.15-.53-28.16-3.34-42.4-2.56a41.64,41.64,0,0,1-9.41-.36c-9.18-1.62-18.25-.7-27.39.31-13.18,1.44-26.36-.51-39.55-.52-5.4,0-10.6,1.28-16,1.14-14.13-.37-28.26-.84-42.4-.93a188.91,188.91,0,0,0-19.88,1.11,226.88,226.88,0,0,1-42.5.6c-1.54-.13-3.87.28-4.47-.55-1.65-2.27-5.76-3.09-5.25-6.23a9.63,9.63,0,0,1,5.07-7.33,50.74,50.74,0,0,1,17-5.42c9.68-1.2,18.17-5.32,26.91-8.62,15.87-6,32.29-8.94,49-10.24,29.45-2.31,59-2.94,88.43-5.74,16.27-1.55,32.54-2.39,48.81-3.46a90.11,90.11,0,0,1,25.31,1.86c7.62,1.67,15.61,1.61,23.44,2.31,4.21.38,6.15-2.61,8.1-5.53,7.55-11.28,15-22.61,22.64-33.85,5.27-7.77,10.7-15.44,16.48-23.77-3.15-1.24-5.53,0-7.71.4-14.93,2.69-30.06,3.93-45,6.33-13,2.09-25.58,6.15-38.69,7.77-18,2.22-36,4.77-54.06,6.9a42.49,42.49,0,0,0-13.69,3.58c-8.33,4.08-17.18,3.65-25.94,4.17-3.54.22-9.75-4.32-9.9-7.24a9,9,0,0,1,5.52-9c.29-.14.56-.3.85-.44l28-13.68c6-2.95,13.11-2.47,19.09-5.25,16-7.46,32.89-12.45,49.58-17.9,9.82-3.21,20.06-5.18,30.19-7.36,16.59-3.55,32.78-9.12,49.87-10.06,7.67-.42,14.74-2.52,21.92-5.16a98,98,0,0,1,24-5.07C742,10,744.27,8.48,747.12,6a23.6,23.6,0,0,1,16.53-6c5.58.29,8.94,4.21,12.58,7.42a7.4,7.4,0,0,1,1.57,8.06c-4.89,11.28.49,21.81,2.53,32.31a232.9,232.9,0,0,1,4.17,37.55c.56,18.87-1.43,37.72.85,56.67,1.41,11.8-.06,23.94,0,35.92.13,21.34.61,42.67.6,64,0,11.88,0,23.81-2.34,35.56-.85,4.28-1.66,8.6-4.62,12.74-4.23-4.8-6.26-10.5-7.45-16-2.71-12.61-7.19-24.84-8.44-37.77-1.22-12.56-3.31-25-5-37.49-2-15-5.3-29.83-7.38-44.84-1.5-10.82-5.28-21.32-8.09-31.95-2.14-8.11-2.34-16.78-7.2-25.1-4.64,3.14-6.24,8.24-8.34,12.34-6.48,12.65-13.47,25-20.53,37.32a13.73,13.73,0,0,0-1.13,11.73c7.63,25,15,50,20.19,75.63,3.3,16.34,5.52,32.94,8.05,49.45,2.27,14.88,3,30.1,7.36,44.7,2.19,7.26,2.74,14.93,2.62,22.54-.07,4.37-.25,8.67,1.23,12.9a12.09,12.09,0,0,1-.42,9.3c-4.66,9.16-4.62,19.26-6.4,29-.54,3-2.24,5.19-3.6,7.61-1.47,2.63-2.48,6.32-6.31,6.33-4.59,0-3.64-4.51-4.9-7.08-11-22.45-18-46.27-23.57-70.51-3.54-15.39-9.36-30.05-13.61-45.19-5.7-20.32-11.8-40.57-15.32-61.46-1-6.13-3.41-12-3.76-19.06-4.23,2.5-6,5.83-7.91,8.89-5.6,9.15-10.74,18.58-16.44,27.67-2.3,3.66-2.2,7.16-1.11,10.85,5.1,17.17,5.15,34.89,5.49,52.53A107.41,107.41,0,0,0,649.59,334c2,8.69,2.26,17.17,2.64,26,.5,11.89-.63,23.72.15,35.62.63,9.61,1,19.38-.16,29.16-1.63,13.73-1.72,27.64-3.15,41.4-.79,7.54,1.58,15.75-4.06,22.53-1.5,1.81-.71,4.3-.44,6.47.75,6,.14,12,.13,17.93,0,9.81-4.61,17.17-10.36,24.69-4.12-2.82-4.6-6.81-5-10.86-3-29.9-9.7-59.09-16.43-88.3-2.62-11.36-4.43-22.93-6.59-34.39-3.1-16.44-4.12-33.18-8-49.49-2.46-10.39-2.09-21.35-6.23-32.21-4.88,5.81-9.56,11.39-14.27,17-2,2.34-2.36,5-2,8,1.87,16.64,1,33.37,1.24,50.06.13,8.71,0,17.78-1.63,26.13-3.86,20.28-2.84,40.71-4.52,61-1.63,19.74-.25,39.65-3.53,59.24-1.06,6.33.08,12.6.71,18.6,1.63,15.46-2.7,30.51-1.79,45.83.21,3.49-1.47,7-5.69,7.5s-7.41-2.09-8.66-7c-4.1-15.9-6.84-32.06-9.47-48.25-2.17-13.37-5.15-26.6-7.22-40-2.79-18.12-5.16-36.29-5.1-54.72a157.62,157.62,0,0,0-3.89-35.71c-1.47-6.46-2.25-13.07-3.43-20.07-3.79.83-5.76,4.1-7.76,6.37-4.59,5.2-8.88,10.63-14.22,15.11-3.19,2.7-3.86,6-3.51,10.13,2.1,24.48,5.13,48.86,6.47,73.43.49,9.07,2,18.39,3.57,27.55,3.18,19,3.5,38.33,2.53,57.54-.35,7-3.61,13.72-4.07,21-.44,6.89-1.69,13.7-.84,20.66,1.2,9.9-1.93,19.4-3,29.08-.26,2.28-2.38,4.35-3.6,6.45-7.81-2.23-9.29-7.76-10.5-14.94-4.82-28.57-9.05-57.27-16.47-85.38-3.21-12.17-4.93-24.72-7.38-37.08-2.15-10.81-4.73-21.54-6.48-32.41-1.45-8.94-2-18-3.11-29.1-7.13,6.11-12.56,10.67-17.89,15.35-2.46,2.16-2.13,5-1.61,7.92,1.56,9,3.45,17.9,4.38,26.93,2.72,26.36,4,52.73,1.36,79.24-.92,9.24.64,18.69.65,28,0,11.91,1.87,23.62,3.25,35.39,1.62,13.76,0,27.42-1.64,41-.9,7.36.54,14.93-3.06,22.12-2.1,4.19-4.31,5.29-8.77,5s-7.06-1.37-8.12-6c-3.55-15.36-7.08-30.67-8.9-46.42s-5.42-31.06-7.85-46.64c-5-32.1-12.24-63.81-16.68-97-8.25,5.77-14.77,12.39-21.37,18.88-1.47,1.45-1.17,3.55-.74,5.39,4.77,20.5,5.84,41.57,9.24,62.29a156.32,156.32,0,0,1,1.54,32.94c-.34,6.3-.34,12.7-.1,18.84.4,10.52-2.73,20.55-2.19,31.05.48,9.39-4.61,18.27-5.09,27.6a118.89,118.89,0,0,1-3,23.21c-1.41,5.64-5,5-8.5,4.94-3.8,0-7.37-.59-8-5.92-1.45-11.89-3.07-24-5.93-35.4-6.95-27.8-6.89-56.45-12.31-84.31-2.75-14.15-3.19-28.8-8.26-42.52-8,11.43-6.8,24.22-6,37a111.61,111.61,0,0,1-2,27.19c-1.91,10.34-.47,20.54-1,30.76-.44,8.46-.55,16.94-1.38,25.4-.76,7.79-1.11,15.64-1.37,23.47-.3,9.55-3.22,18.57-5.74,27.61-1.09,3.9-4.73,6.63-7.86,9.34-2.83,2.44-6.35,4.34-6.54,8.77-.1,2.28-1.82,2.09-3.39,2.14-6.48.19-11.28-3.64-12.33-10.23-2.67-16.89-2.63-34-2.4-51,.08-6.32-.5-12.61-.22-18.91.39-8.82.15-17.71,1.28-26.43,1-8-1-15.36-2-23-2.3.11-2.41,1.72-2.62,2.74-2.78,13.84-4.87,27.84-8.28,41.51-3.56,14.28-6.17,28.76-10.45,42.94-3.69,12.2-9,23.87-11.64,36.41-1.62,7.71-6,13.8-13.3,17.29a10.62,10.62,0,0,0-5.65,6.08c-1.52,4.24-3.82,6-8.51,4.79-5.31-1.42-7.72-3.5-7.93-9a86.25,86.25,0,0,1,.49-15.08c2.42-17.74,4.61-35.55,8-53.12,2.13-11.09,6.24-21.79,9.42-32.68.41-1.43,1.7-2.77.44-4.89-8.06,11.13-15.24,22.76-24.12,32.91-12.71,14.52-20.86,32-32.77,47.15-7.5,9.54-14.83,19.91-20.22,31.4-3.64,7.78-11.68,13-19.07,17.59-4,2.52-11.68-3.93-10.78-9.16,1.93-11.09,3.85-22,10.7-31.84,14.16-20.43,27.12-41.69,40.52-62.64.23-.36-.13-1.1-.34-2.44-10.23,5.46-19,12-25.63,21.43-6.51,9.3-13.82,17.86-24.44,23-8.61,4.13-15,11.42-22.51,17C83.54,792.76,70,798.53,58.42,807.35c-.73.56-2.12.59-2.49,1.26-4.13,7.52-12.57,6.72-19,9.78-5.78,2.78-10.92-.76-15.92-3.22-1.61-.79-2.71-2.48-4.22-3.64-6.08-4.69-6.06-6.16-.73-11.75,19.62-20.58,41.23-39,61.8-58.63,12.3-11.71,25.42-22.48,37-35.07,11-12,24.27-21.94,36.56-32.77C153.38,671.64,155.5,670.2,156.24,667.52Z"/></g></g></svg>