<svg xmlns="http://www.w3.org/2000/svg" viewBox="0 0 543.46 1082.96"><defs><style>.cls-1{fill:#fb6d4d;}</style></defs><title>Plant Left 2</title><g id="Camada_2" data-name="Camada 2"><g id="Camada_7" data-name="Camada 7"><path class="cls-1" d="M362.27,196.26a6.49,6.49,0,0,0,6.29.35c8.91-4.59,18.68-8.36,26.12-14.77,9.59-8.25,20.53-14.78,29.45-23.79,9.78-9.89,22.6-16.6,31-27.68,7-9.25,15.57-16.22,24.66-23,3.28-2.44,6.31-4.47,10-1.16,2.95,2.65,4.15,5.91,2.88,9.89-4.83,15.08-12.15,29-20,42.63-8.77,15.2-22.81,25.83-34,38.94a335,335,0,0,1-24.64,26.19c-10.43,9.84-21.46,18.77-34.32,25.52-4.62,2.42-9.17,4.62-13.91,6.69-1.87.82-4.87.79-6.19,3.15-3.63,6.52-9.16,9.89-16.6,10.71-2.73.31-3.93,3.18-4.65,5.57-2.44,8.16-4.77,16.36-6.89,24.6-1.11,4.32.32,5.38,5.17,4.72,9.27-1.26,15.68-7.61,22.73-12.74,14-10.2,28.46-19.55,44.23-27,12.22-5.78,23.72-13.11,35.4-20,16.06-9.48,30.91-20.69,45.36-32.44a57.76,57.76,0,0,1,11.09-7.27c7.4-3.59,14.34-7.68,20-13.72,1.48-1.57,3.42-3.7,5.57-3.15,2.84.71,5.42,2.56,8.09,3.83,3.58,1.71,3.88,6,2.34,10-1.78,4.6-4.5,9.22-.6,14.21.44.57-.39,2.39-.95,3.46-4.43,8.32-8,17.11-14.33,24.38-3.92,4.49-6.87,9.81-10.27,14.75-7,10.2-16.17,18.61-24.71,27.36-11.63,11.9-22.47,24.71-35.82,34.89-18.74,14.31-38,27.87-57.5,41.14-13.54,9.21-26.35,19.53-40.43,28-11.73,7.05-23.33,14.75-38,13.74-2.54-.17-5-1-6,2.51-2.52,9-5.12,18-8.05,28.25,14.27-5.68,26.19-12.53,38.38-18.82a325.62,325.62,0,0,1,31.81-14.56c13.05-5,24.25-13.38,36.51-19.82,20.37-10.7,38.75-24.82,59.57-34.85,5.32-2.57,10.13-6.57,14.52-10.62,11.92-11,26.13-18.82,38.55-29.09a29.47,29.47,0,0,1,20.27-6.53c9.06.35,11.19,5.05,6.63,12.86-3.68,6.31-9.21,11.17-13.17,17.23-18.5,28.33-45.34,47.72-71.73,67.77-9.26,7-18.95,13.44-28.05,20.67a171.52,171.52,0,0,1-33.74,21.42c-.84.4-2.21.26-2.65.86-4.32,6-11.74,7.65-16.95,12.1-5.8,5-12.22,8.74-18.59,12.66a402.56,402.56,0,0,1-37.48,19.85c-12.44,6-24.59,12.54-37.28,18A13.49,13.49,0,0,0,273,514.63c-1.28,6.7-3.95,13.14-4.15,20.24,3.23.87,5.57-.86,7.32-2.06,15.51-10.66,33.13-17,50.22-24.21,26.38-11.18,52.11-23.76,78.27-35.38,17.38-7.72,33-18.34,50-26.56,12.75-6.17,25.54-12.27,39.06-16.6a14.28,14.28,0,0,0,5.62-3.29c9-8.38,20.34-10.59,32-10.54a11.88,11.88,0,0,1,11.43,7.91c1.15,3.18-.65,11.52-2.78,14.11-5.24,6.39-13.3,9.81-17.86,16.81S511.57,466,503.84,468.89c-15.47,5.83-28.16,16.67-42.22,25.08-20.29,12.13-39.73,25.63-61.71,35-12.9,5.51-24.59,13.81-37,20.61-4.5,2.47-8.69,5.95-14.27,5.92-.31,0-.76,0-.91.22-7.76,9.95-21.54,9.73-30.39,18.14-4.52,4.3-10.57,6.47-17,7.74s-12.3,4.55-18.17,7.67c-8,4.25-15.37,9.73-24.74,11.32-4.72.81-8.11,4.22-9.07,9.6-1.16,6.5-2.87,12.89-4.53,20.12,6.63.89,11.77-2.8,15.46-5.68,8.94-7,19.06-11,29.38-14.66a237.48,237.48,0,0,0,25.19-10.6c16.11-7.94,32.43-15.45,48.75-23,18.58-8.57,36.49-18.44,54.62-27.91,19.49-10.17,39.53-19.26,59-29.43,13.4-7,26.73-14.15,40-21.35,6.07-3.28,11.14.79,16.46-1.24,1-.38,1.59,1.22,1.84,2.67.56,3.32-.37,7,1.94,9.9,1.39,1.71-.13,2.07-.88,2.72q-5,4.38-10.07,8.63c-2,1.62-4.32,2.84-5.93,4.73-15.77,18.55-36.51,30.85-56,44.72-23.55,16.77-46.94,33.78-70.66,50.33-22.5,15.7-45.14,31.2-68.09,46.24-8.93,5.85-19,10-28.3,15.27-11,6.19-22.28,12-32.43,19.35-12.16,8.83-23.31,19-35.62,27.74a5.9,5.9,0,0,0-2.73,4.58c-.81,6.86-2,13.69-2.82,20.56-.49,3.93,3.94,3.66,4.69,3.1,8-6.12,19.57-5.71,26.25-14.19,2.25-2.86,5.87-3.76,8.87-5.2,13-6.26,25-14.37,37.56-21.22,17.68-9.61,34.13-21.38,52.85-29.29,18.3-7.73,34.43-19.64,51.64-29.49,16.35-9.36,32.19-19.59,49.21-27.82a36.86,36.86,0,0,1,20-4c2,.18,6.12-.51,5.23,1.68-1.26,3.12,3,5.42-.57,9a189.22,189.22,0,0,0-13.22,14.7c-12.61,15.73-29.41,26.55-45,38.79-13.3,10.4-25.95,21.57-40.38,30.57-17.91,11.17-35.43,23-53,34.72-12,8-23.24,17.2-35.68,24.38-13.79,8-26.86,17.67-42.58,21.77-6.69,1.74-11.91,7.27-19.28,7-.91,0-1.83.57-2.75.61-3,.14-6.17-1.81-8.9.56-3.1,2.69-1.84,6.64-1.89,9.88-.23,14.75-2.1,29.49-1,44,2.12,1.06,3.62.13,4.85-.55,12.39-6.84,25.84-11.67,37.63-19.69a41.77,41.77,0,0,1,8.24-4.56c8.7-3.34,16-8.82,23.3-14.4,10.54-8,22.84-13.17,34.14-20,4.63-2.78,8.42-6.56,13.07-9.21,12.29-7,24.64-13.88,36.79-21.09a187,187,0,0,0,16.45-11.22,227.51,227.51,0,0,1,36.09-22.46c1.39-.68,3.17-2.24,4.11-1.84,2.58,1.1,6.53-.33,7.71,2.63a9.6,9.6,0,0,1-.56,8.89A50.73,50.73,0,0,1,425,763.44c-7.67,6-12.81,13.94-18.59,21.27-10.5,13.33-23,24.33-36.63,34-24,17.17-49.05,33-72.78,50.57-13.13,9.72-26.63,18.85-40,28.17A90.42,90.42,0,0,1,234.37,909c-7.39,2.51-14.2,6.68-21.27,10.12-3.81,1.85-3.91,5.42-4.08,8.92-.64,13.56-1.2,27.12-1.91,40.68-.5,9.38-1.19,18.75-1.84,28.87,3.34-.57,4.73-2.86,6.4-4.32,11.39-10,23.71-18.89,35.27-28.67,10-8.49,18.74-18.47,29.13-26.63,14.29-11.21,28.38-22.68,42.73-33.83A42.12,42.12,0,0,0,328.67,894c5-7.79,12.83-12,20.06-17,2.93-2,10.58-1.34,12.22,1.09a9,9,0,0,1-.06,10.6c-.17.26-.33.54-.5.8l-16.95,26.2c-3.65,5.65-9.95,8.88-13.64,14.36C320,944.72,308.06,957.7,296.59,971c-6.76,7.82-14.51,14.8-22.06,21.89-12.37,11.61-23.36,24.74-37.51,34.37-6.35,4.32-11.32,9.76-16.11,15.73A97.85,97.85,0,0,1,203,1059.73c-2.78,2.08-4,4.55-5.15,8.13a23.7,23.7,0,0,1-11.07,13.67c-4.92,2.63-9.82,1-14.6.13a7.4,7.4,0,0,1-5.51-6.09c-1.63-12.18-11.68-18.42-18.84-26.36a233.21,233.21,0,0,1-23-30c-10.22-15.86-18.25-33-30-48.09-7.31-9.38-12.32-20.53-18.56-30.75-11.13-18.21-22.55-36.24-33.57-54.51-6.13-10.18-12.28-20.4-16.35-31.66-1.48-4.1-3-8.22-2.62-13.3,6.1,1.93,10.77,5.76,14.65,9.89,8.84,9.4,19,17.56,26.74,28,7.52,10.13,15.74,19.71,23.61,29.54,9.48,11.84,19.94,22.8,29.47,34.59,6.87,8.49,15.54,15.53,23.43,23.19,6,5.84,10.67,13.16,19.12,17.77,2.36-5.09,1.09-10.28.78-14.87-1-14.18-1.38-28.38-1.7-42.57a13.74,13.74,0,0,0-5.08-10.63c-19.43-17.44-38.7-35.09-56.34-54.34C87.15,849.16,76.68,836.09,66,823.26,56.36,811.7,47.91,799,36.61,788.78c-5.63-5.09-10.06-11.37-13.89-17.95-2.19-3.78-4.25-7.55-7.71-10.41a12.09,12.09,0,0,1-4.44-8.18c-.74-10.25-6-18.88-9.49-28.13-1.07-2.84-.76-5.6-.85-8.38-.09-3-1.14-6.69,2.14-8.68,3.92-2.38,5.45,2,7.85,3.54,21,13.56,39.3,30.32,56.59,48.2,11,11.36,23.54,20.91,35,31.68,15.38,14.46,31.06,28.65,44.86,44.73,4,4.71,9.11,8.5,13.06,14.37,2.33-4.32,2.17-8.11,2.19-11.69.06-10.73-.41-21.46-.22-32.18.08-4.33-1.81-7.28-4.64-9.87-13.24-12.07-22.44-27.22-31.83-42.15a107.4,107.4,0,0,0-13.22-17c-6.17-6.43-10.8-13.53-15.67-20.88-6.57-9.92-11.71-20.64-18.52-30.43-5.5-7.9-10.87-16.07-14.93-25.05-5.68-12.6-12.79-24.56-18.67-37.08-3.22-6.87-9.49-12.67-8.16-21.4.35-2.31-1.61-4-3-5.76-3.73-4.74-6.28-10.17-9.37-15.29-5.05-8.4-4.91-17.08-3.87-26.49,5,.29,7.46,3.46,9.89,6.72,18,24.06,38.82,45.59,59.67,67.13,8.1,8.38,15.63,17.35,23.4,26,11.14,12.48,20.66,26.29,32.39,38.25,7.48,7.63,12.81,17.21,22,24.38,1.19-7.5,2.32-14.7,3.47-21.89.48-3-.56-5.51-2.39-7.89-10.19-13.29-18.06-28.08-26.9-42.24-4.62-7.39-9.15-15.24-12.1-23.22-7.17-19.35-18.59-36.33-27.64-54.58-8.8-17.75-20.25-34.09-27.56-52.56-2.36-6-6.57-10.75-10.22-15.57-9.38-12.4-13.43-27.51-22.13-40.17-2-2.87-2.34-6.73,1-9.36s7.42-2,11,1.48c11.72,11.5,22.41,23.93,33,36.43,8.76,10.33,18.14,20.12,26.82,30.52,11.75,14.07,23.16,28.4,32.62,44.22a158.14,158.14,0,0,0,21.77,28.58c4.59,4.76,8.68,10,13.3,15.41,2.82-2.66,2.81-6.49,3.35-9.46,1.25-6.82,2.13-13.69,4.38-20.29,1.35-4,.23-7.1-2.22-10.48-14.44-19.87-29.62-39.19-43.46-59.54A250,250,0,0,0,126,484.43c-12.54-14.64-22.79-31-31.88-48-3.3-6.16-4-13.62-7.35-20.09-3.18-6.13-5.63-12.61-10-18.13-6.14-7.85-8.37-17.61-12.42-26.47-1-2.08-.21-4.95-.25-7.38,7.84-2.12,12,1.85,16.7,7.37,18.89,22,37.33,44.38,58.2,64.62,9,8.76,17,18.63,25.47,27.94,7.42,8.15,15.16,16,22.28,24.41,5.85,6.91,11,14.42,17.69,23.31,2.95-8.9,5.24-15.62,7.39-22.37,1-3.13-.76-5.38-2.71-7.62-6-6.87-12.2-13.55-17.66-20.8-15.94-21.17-30.66-43.09-42.08-67.16-4-8.38-10.2-15.67-15-23.68-6.16-10.2-13.8-19.26-21.06-28.62-8.49-10.95-14.17-23.48-19.78-36-3-6.76-8.17-12.5-8.8-20.52-.37-4.67,1-6.76,4.91-8.85s6.75-2.47,10,.94c11,11.33,21.9,22.61,31.59,35.16s20.68,23.8,30.8,35.89c20.85,24.91,43.42,48.32,64.37,74.46,4.1-9.2,6.26-18.23,8.55-27.2.52-2-.83-3.65-2.14-5-14.68-15.09-26.47-32.58-40.08-48.57a155.45,155.45,0,0,1-18.32-27.42c-3-5.56-6.28-11.05-9.65-16.19-5.77-8.79-8.27-19-14.15-27.71-5.27-7.8-5.49-18-9.9-26.27-3.72-7-7.1-13.8-9.42-21.41-1.7-5.57,1.73-6.84,4.73-8.63,3.27-1.94,6.61-3.3,9.93.93,7.37,9.43,15,18.94,23.35,27.25,20.31,20.23,35.05,44.79,54.07,65.85,9.67,10.7,17.61,23,29,32.15.92-13.9-6.67-24.25-14-34.74a111.26,111.26,0,0,1-12.32-24.32c-3.71-9.84-10.21-17.83-15-26.86-4-7.47-8.27-14.79-11.94-22.46-3.37-7.07-7.12-14-10.94-20.8-4.67-8.35-6.83-17.57-9.34-26.62-1.08-3.9.63-8.12,1.91-12.05,1.16-3.55,3.19-7,1.07-10.89-1.09-2,.48-2.73,1.8-3.58,5.45-3.51,11.54-2.71,15.84,2.4,11,13.08,19.78,27.71,28.36,42.39,3.2,5.45,6.94,10.53,10,16.08,4.21,7.75,9,15.24,12.55,23.29,3.25,7.39,8.78,12.64,13.55,18.64,1.92-1.29,1.18-2.72.83-3.7-4.76-13.29-10.2-26.36-14.34-39.83-4.32-14.07-9.57-27.81-13.22-42.17-3.14-12.35-4.62-25.08-8.84-37.19-2.59-7.43-2-14.9,2.47-21.68a10.58,10.58,0,0,0,1.7-8.11c-.89-4.42.15-7.16,4.81-8.5,5.28-1.53,8.42-1,11.44,3.61a86.83,86.83,0,0,1,7.37,13.17c7.08,16.44,14.4,32.82,20.58,49.62,3.9,10.59,5.9,21.88,8.81,32.85.38,1.44,0,3.25,2.14,4.42,1.16-13.7,1.3-27.36,3.67-40.64,3.38-19,1.32-38.2,3.71-57.3,1.5-12,2.42-24.71,1.1-37.33-.89-8.54,3.32-17.14,7.25-24.91,2.15-4.24,12-2.67,14,2.28,4.08,10.49,8.05,20.79,7.28,32.79-1.58,24.8-1.69,49.7-2.35,74.57,0,.42.68.87,1.55,1.91,5.94-10,10.1-20.07,10.88-31.59.77-11.33,2.61-22.43,9.07-32.29,5.24-8,6.91-17.5,10.48-26.2,5.52-13.46,14.12-25.38,19.5-38.92.34-.86,1.51-1.6,1.48-2.36C375,15.07,382.61,11.4,386.5,5.48,390,.12,396.24.49,401.79,0c1.8-.16,3.61.72,5.5.94,7.63.87,8.37,2.14,6.69,9.69-6.17,27.75-15.14,54.73-22.65,82.11-4.48,16.38-10.16,32.38-13.59,49.15-3.26,16-9.45,31.32-14.39,46.94C362.59,191.26,361.52,193.59,362.27,196.26Z"/></g></g></svg>