<svg xmlns="http://www.w3.org/2000/svg" viewBox="0 0 569.78 709.54"><defs><style>.cls-1{fill:#fb6d4d;}</style></defs><title>Plant Left 1</title><g id="Camada_2" data-name="Camada 2"><g id="Camada_5" data-name="Camada 5"><path class="cls-1" d="M234.59,518.5c1.58-12,1.83-22.75,2.22-33.56.53-14.86,1.83-29.7,3.21-44.5.39-4.15-.45-7-3.46-9.91-14-13.57-28.59-26.47-43.15-39.44-9.67-8.61-20.25-15.8-30.3-23.79s-21.32-14.85-29.72-24.82a100.14,100.14,0,0,0-19-17.09,45,45,0,0,1-11.76-12.5c-6.17-9.74-14.1-18.05-21.35-26.91a107.92,107.92,0,0,1-6.89-9.86c-.92-1.42-2.16-3.22-2-4.68,1-8.14-1.42-15.68-3.66-23.23-1.09-3.67.13-6.49,1.47-9.78a166.46,166.46,0,0,1,16.53-30,44.44,44.44,0,0,1,6.86-7.63,6.72,6.72,0,0,1,5.46-2.1c8.23,1.34,16.56,2.74,21.1,11.18.81,1.5,1.34,3.71,2.62,4.32,10.65,5.1,15.14,16.14,23.21,23.72A143.36,143.36,0,0,1,166.74,263c5.59,8.37,12.77,15.46,19.12,23.22,1.82,2.22,4.27,4,5.77,6.39,11.62,18.54,27.89,33.35,40.71,50.92a95.7,95.7,0,0,0,8,9c3.57,3.8,7,7.66,7.34,13.22.14,1.95,1.33,3.09,4.18,4.27,1-8.35,4.72-15.82,5.9-23.87,1.25-8.58,4.35-16.63,6-25.08,1.43-7.48.1-11.34-6.55-14.28-11.85-5.24-20.4-14.35-29.08-23.47-21.46-22.53-34.21-50.54-49.8-76.87-10.5-17.74-13.79-37.52-20.5-56.31-2.41-6.73-4-13.77-6.2-20.57-3-9.15-1.2-18.15.73-27.06.8-3.69,4-5.89,7.48-7.79,7.61-4.14,15.85-6.61,23.84-9.72,8.16-3.19,17.27-3.35,24.95-8.3,2.75-1.77,5.3-.1,6.6,3.29q11,28.82,22.32,57.54a27.52,27.52,0,0,0,3.38,6.93c10.18,13.15,15.64,28.65,21.19,43.94,4.91,13.51,11,26.45,16.91,39.47,3.17,6.94,5.33,14.37,9.91,20.85,2.18-2.3,2.68-5.12,3.29-7.88,2.81-12.84,5.34-25.5,4.92-39-.48-15.07,1.73-30.25,3.22-45.34,1.19-12.2-.31-24.62,3.05-36.62,2.7-9.67,4-19.53,5.23-29.51,1.95-16.18,8-31,18.79-43.6a31,31,0,0,0,5-7c7.72-17,21.23-27.82,37.36-36.31,9.29-4.89,17.89-4.38,26.75.25,1.26.65,2.37,2.07,3.84,1.64,14.73-4.28,24.1,5.18,34,13.21,1.83,1.49,3.56,2.83,6,3.12,5.12.61,7.87,4.31,10.22,8.25,2.1,3.5,2,8.66,7.6,9.33a1.66,1.66,0,0,1,.85,1.36c-2,6.21,2.87,10.76,3.88,16.23.5,2.71.62,5.34-2.21,6.71-5.18,2.51-7.6,6.24-9.38,12-1.94,6.32-7.06,11.68-10.94,17.36a353.59,353.59,0,0,1-45.49,54.81c-2,2-4.32,4.17-5.27,6.71-5.44,14.61-17.58,25.28-23.12,39.78a12.86,12.86,0,0,1-1.94,3.84c-13.35,15.45-19.32,35.14-29.93,52.22-6.72,10.81-10.67,23.33-14.19,36.61,4.24-.32,6.27-2.89,8.39-4.84,5.5-5.05,10.85-10.28,16.07-15.63,14.95-15.34,33-26.68,50.19-39.09,12.68-9.15,26.07-16.8,40.82-21.82,13.82-4.71,27.68-9.62,41.9-12.7,6.74-1.47,14.19-2.77,21.24-2,12.38,1.42,24.53,4,30.37,17.3.92,2.07,1.74,4.25,4.38,4.93,3.49.89,4.63,3.62,5.74,6.83,3.93,11.39,3.66,14.18-6.71,20.44-5,3-7.56,8.56-13.06,10.72-1.11.44-1.21,1.77-1,3,.64,3.77-1.64,6.31-4.53,7.56-11.92,5.16-21.36,14.31-32.78,20.18-19.31,9.93-38.83,19.49-59.57,26.16-6,1.94-11,5.9-17.34,7.44-25.6,6.23-50.49,15.17-76.42,20.19-6.49,1.26-12.92,3-19.6,2.64-3.84-.19-5.91,1.45-6.4,5.28-.64,5.07-2.15,10-2.51,15.15-1.29,18.25-3.39,36.45-4.35,54.71-.32,6.26-.44,12.51-1.48,18.75,2.62,1.08,3.64-1.16,5.19-2.16,21.7-14,42.93-28.67,65.8-40.81,14.19-7.53,27.91-15.94,43.41-20.69,1.36-.42,2.62-1.24,4-1.54,17.09-3.63,32.09-12.18,47.16-20.4a223.45,223.45,0,0,1,78.85-25.75c14.34-1.86,22,4.75,25.56,19.72,1.72,7.17,4.91,14,5.84,21.46a18.26,18.26,0,0,1-.19,6.79c-1.93,8.06-3.39,16.25-5.51,24.27-2.06,7.83-7.4,13.91-11.9,20.44-7.36,10.68-19.73,11.86-30.37,16.2-5,2.05-10.52,2.84-15.81,4.18-1.4.36-3.09.26-4.17,1-9.34,6.77-20.77,5.56-31.18,7.94s-20.77,4.44-31.13,6.8c-21.77,5-43.59,9.66-65.61,13.45-14.9,2.56-29.65,5.77-44,10.86a101.7,101.7,0,0,1-31.14,5.86c-10.53.3-10.48.5-12.68,10.86-3.76,17.65-3.21,35.66-6.22,54.65,9.67-3.29,17.85-5.78,25.81-8.84,27-10.39,53.63-21.9,81-31.19,20.07-6.8,39.88-14.51,60.31-20.24,10-2.8,20.46-2.66,30.6-4.33,12.85-2.12,24,4.83,36.06,5.2,10.72.34,17.64,7.19,25.45,12.4,4.26,2.83,5.77,8.91,6,13.72.34,8.8.57,17.67.08,26.54a36.27,36.27,0,0,1-8.48,21.13A40.45,40.45,0,0,1,518.16,572a228.43,228.43,0,0,1-27.31,7.2c-8.26,1.62-16.68,2.23-25,5.05-13.51,4.62-27.92,5.85-42.37,6.6s-29.2,1.84-43.74,1.9c-15.94.07-32.1.45-47.86-3.54-13.91-3.51-27.89-6.7-41.87-9.89a55.18,55.18,0,0,0-8.54-.88c-2.87-.19-3.56,1.1-3.89,4.1-2,18.86.56,37.68.32,56.52-.11,8.54-.45,17.08-.7,25.62a33.17,33.17,0,0,1-3.53,14.9c-3.79,7-3.29,14.32-3,21.72.14,3.06,1.42,7.6-1.91,8.19-3.6.64-6.32-3.07-7.53-6.91-2.15-6.85-5-13.57-6.39-20.57-2.42-11.79-5.2-23.51-6.2-35.61A141.55,141.55,0,0,0,243.88,621c-3.36-12.34-3.31-25-3.95-37.54-.42-8.06-4.05-15.62-2.75-23.83.37-2.32-2.13-3.25-3.87-4.13-11-5.54-22.5-10.34-33.06-16.66-12.05-7.22-26-8.67-38.43-14.62-1.28-.62-3-.68-4-1.57-9.09-8.19-20.68-10.69-31.78-14.35-12.75-4.2-23.42-11.89-33.81-20.15-15-11.94-30.23-23.59-42.48-38.63-8.35-10.25-14.73-21.8-22.5-32.42-2.36-3.23-4.28-6.8-6.81-9.89-9.63-11.76-13.87-26.06-19.37-39.81-2.74-6.85.46-13.35.36-20-.05-2.92,2.16-5.34,4.85-6.74,8.22-4.25,13.31-12.64,21.84-16.45,1.92-6.06,7.2-6.9,12.18-6.81,5.21.09,9.71,2.81,13.54,6.51,20.63,19.94,40.6,40.44,56.63,64.45,5.67,8.48,14.6,13.69,21.85,20.61,11.21,10.7,23.77,20,32.89,32.79,1.66,2.33,3.09,4.83,4.8,7.13,7.56,10.1,15,20.12,26.22,26.88s18.47,17.93,24.25,29.5C223.56,511.3,227.65,515.22,234.59,518.5Z"/></g></g></svg>