<svg xmlns="http://www.w3.org/2000/svg" viewBox="0 0 281.5 212.76"><defs><style>.cls-1{fill:#1a573b;}</style></defs><title>Plant Top 4</title><g id="Camada_2" data-name="Camada 2"><g id="Camada_14" data-name="Camada 14"><path class="cls-1" d="M197.14,112.47a88,88,0,0,0-10.78,2.75c-.69.21-.88.73-1.14,1.29a10.93,10.93,0,0,0-1.25,5c.1,4.19-1.42,8.14-1.6,12.3-.06,1.47-1.63,2.56-1.63,4.2,0,2.24-1,4.31-1.25,6.45a68.37,68.37,0,0,1-2.17,9.12,30.37,30.37,0,0,1-3,7c-4.11,7.1-8.15,14.23-13.48,20.58-4.76,5.67-9.43,11.36-15.29,16a89.8,89.8,0,0,1-9.19,5.92c-3,1.84-6.06,3.69-8.94,5.78a5.31,5.31,0,0,1-1.23.87c-1,.35-2,.82-2.92.13-1.06-.81,0-1.86.08-2.77a3.48,3.48,0,0,1,1.17-2.1c3-2.55,4.68-6.08,7.06-9.09,3.85-4.85,8.2-9.24,12.34-13.84a131.5,131.5,0,0,0,18-25.56c.67-1.25,1.31-2.53,2.09-3.71a71.13,71.13,0,0,0,7.81-17.11c1.7-5.21,3.47-10.39,5.53-15.46a3.26,3.26,0,0,0,.39-2.65c-3.29.73-6.6,1.48-9.92,2.2-.9.2-1,.94-1.17,1.61-.35,1.68-.72,3.37-.92,5.08-.64,5.57-2.91,10.65-4.5,15.95-1,3.52-2.68,6.76-4,10.14-.54,1.39-1.68,2.53-2.4,3.87a77.24,77.24,0,0,1-11.54,15.88c-6.16,6.68-12.2,13.53-19.87,18.61a153.74,153.74,0,0,1-22.67,12.31c-5.66,2.5-10.91,5.76-16.3,8.76-.79.45-1.49,1.08-2.58.8-.82-1.8-.53-4,.64-5A39.9,39.9,0,0,0,86,204.1a67.55,67.55,0,0,1,12.36-10.26c1.6-1.07,3-2.37,4.63-3.45a170.79,170.79,0,0,0,27.22-23.27,210.87,210.87,0,0,0,14.95-16.81,82.4,82.4,0,0,0,10.93-18.24c1.22-2.89,3-5.56,3.71-8.65a1.84,1.84,0,0,0-.07-1.58c-2-.07-3.89.63-5.85,1-.4.08-.88.14-.93.61-.27,2.33-2.62,3.65-2.87,6a2.45,2.45,0,0,1-.67,1.33c-4.71,5.39-9.49,10.73-14.08,16.22-3.06,3.66-6.06,7.37-9.4,10.75a188,188,0,0,1-16.12,15.06,70.72,70.72,0,0,1-13.21,8.54,59.52,59.52,0,0,0-6.84,4c-3.73,2.48-7.78,4.36-11.71,6.48-7.26,3.91-15.17,5.59-23.25,6.69-2.83.38-5.65-.44-8.5-.1a1.4,1.4,0,0,1-1.61-1.11,1.69,1.69,0,0,1,.77-1.86,16.16,16.16,0,0,1,3.3-1.52c5.33-1.66,10.57-3.62,16-4.94,4-1,7.33-3.43,10.77-5.56,8.11-5,15.86-10.59,23.56-16.21a140.23,140.23,0,0,0,19-17.09c7.25-7.65,14.61-15.19,21.92-22.8.32-.34.55-.77,1.15-1.61-4.46.77-8.42,1.47-12.4,2.13a3.2,3.2,0,0,0-1.5,1c-8.3,6.8-16.5,13.74-25,20.36-9.42,7.38-19.16,14.31-29.95,19.68a100.34,100.34,0,0,1-16.56,6C50,176.49,44.22,178,38.44,179.6a40.21,40.21,0,0,1-10.5,1.7,9,9,0,0,0-2.35.57,6.06,6.06,0,0,1-3.83-.24,2.41,2.41,0,0,1-1.4-3.64,4.62,4.62,0,0,1,2.44-2.19c4.64-2,9.26-4.1,14.3-5a37,37,0,0,0,4.32-1.32c5.67-1.81,11.36-3.54,17-5.45,9.6-3.24,19.16-6.7,27.66-12.31a196.36,196.36,0,0,0,21.69-16.1c1.79-1.58,3.93-2.77,5.65-4.79-1.59-.76-2.66-.12-3.66.7-5.87,4.73-12.51,8.24-19.06,11.89a141.93,141.93,0,0,1-26.34,11,190.68,190.68,0,0,1-36.9,7.65,98.49,98.49,0,0,1-22.18.35c-1.26-.15-2.39-.31-3.09-1.55-.81-1.44-.47-2.18,1.19-2.56,4.55-1,9.22-1,13.8-1.82,8.26-1.42,16.69-1.78,24.91-3.52,6.45-1.36,12.74-3.37,19.07-5.2,9.86-2.84,19.17-7.07,28.53-11.17a39.56,39.56,0,0,0,4-2.35c-1.21-.73-2,.18-2.92.17a12.17,12.17,0,0,0-3,.24c-6.61,1.57-13.38,2.25-20,3.49-6.3,1.18-12.63,1.89-18.95,2.72-9.34,1.23-18.71,2.49-28.15,2.52-4.14,0-8.29.08-12.44,0-2.25,0-4.4-.63-6.61-.86a1.08,1.08,0,0,1-1-.79c-1.19-2.65-.41-4.14,2.2-5.3A19.93,19.93,0,0,1,11,135a42.48,42.48,0,0,0,9-1.36c3.34-.76,6.67-.17,10-.46,8.49-.73,16.94-1.82,25.41-2.69,6.79-.69,13.51-1.86,20.28-2.69,2.53-.32,5.09-.81,7.64-1.19.49-.07,1.12-.16,1-.82s-.71-.52-1.21-.54c-3.54-.19-7.08-.34-10.61-.6-12.73-.94-25.44-2.11-38.14-3.4A39,39,0,0,0,28,121c-6.6.42-13.12-1.3-19.72-.58-2.25.25-3-.25-3.78-2.39a6.58,6.58,0,0,1,5.77-8.45,36.43,36.43,0,0,1,11.69,1.31,42.29,42.29,0,0,0,10.39,1.8,14.92,14.92,0,0,1,6.79,1.24c1.25.62,3,.24,4.46.41,4.51.52,9,1.52,13.47,1.79,5.54.33,10.85,2.2,16.5,1.81,3.28-.23,6.63.39,9.93.82a53.1,53.1,0,0,0,6,.3c3.14,0,6.21.72,9.36.67,2.81-.05,5.51,1.23,8.39,1.14,2.6-.09,5.19.68,7.81.13a3.77,3.77,0,0,0,1.82-.7,2.63,2.63,0,0,0-1.94-1c-9-2.1-17.8-4.53-26.59-7.2-10.82-3.29-21.55-6.91-32.4-10.08-8.44-2.46-17-4.63-25.6-6.41a24.88,24.88,0,0,1-8.47-3.25c-1.72-1.1-3.86-1.3-5.5-2.56-.77-.59-2.19-.87-1.78-2.13a3.08,3.08,0,0,1,2.89-2.31,17.28,17.28,0,0,1,5.44.26c1.69.44,3.49.26,5,.86,5.66,2.22,11.64,2.31,17.49,3.32C49.94,90.5,54.62,91.1,59,93c1.8.78,4,.66,5.92,1.17,2.91.77,5.94,1,8.68,2.59a9.35,9.35,0,0,0,4.36,1,8.07,8.07,0,0,1,4.91,1.37c1.24.93,2.76.43,4.12.89q8.88,3.06,17.84,5.87c7.31,2.3,14.54,4.89,22.09,6.36,1.56.3,3,1.11,4.94,1.26-2.07-2-4.49-2.92-6.6-4.29-5.38-3.49-11.4-5.75-17.12-8.57-6.15-3-12.7-5.23-18.9-8.18-7.6-3.62-15.53-6.3-23.44-9.12A54.88,54.88,0,0,1,53.86,78a12.18,12.18,0,0,0-4.8-1.76c-5.29-.84-10.39-2.49-15.62-3.57-.63-.14-1.5,0-1.84-.84-.45-1.09-1.84-1.74-1.51-3.17.17-.76,3.17-2.4,4.37-2.34,4.31.2,8.61-.7,12.95.12,1.18.22,2.34.57,3.5.84,6.18,1.43,12.44,2.56,18.49,4.52,1.9.62,3.52,1.79,5.42,2.45,3.61,1.27,7.48,1.68,11,3.3a56.11,56.11,0,0,0,9,3.6c7.16,1.93,13.72,5.38,20.59,8,4.91,1.91,9.55,4.38,14.42,6.37a44.4,44.4,0,0,1,4.39,2.13c8.13,4.37,16.27,8.73,24.34,13.19a6,6,0,0,0,4.93.57c2.51-.73,5.06-1.3,7.62-1.94a2.08,2.08,0,0,0-1.45-1.28c-5.87-2.17-10.68-6.27-16.23-9C146.7,96,140.69,91.62,134,88.39s-13.55-5.86-20.39-8.63a150.13,150.13,0,0,1-15.7-7.22,69.51,69.51,0,0,0-15.82-6c-5.49-1.45-10.91-3.07-15.77-6.1-2-1.23-3.77-2.66-3.24-5.55.44-2.39.48-2.59,2.84-3a19.84,19.84,0,0,1,10.43,1.3,48.68,48.68,0,0,0,6.05,2,8,8,0,0,1,4.63,3.12,5.34,5.34,0,0,0,2.39,1.76c5.62,2.31,11.39,4.16,17.16,6A216.24,216.24,0,0,1,128.27,74c5.61,2.51,11.22,5.12,16.72,7.93,6.76,3.45,13.43,7.09,20.22,10.49a157,157,0,0,1,13.84,8.32c2.2,1.41,4.33,2.94,6.62,4.22.34.19.8.47,1.1.37,2.47-.79,5.17-.6,7.45-1.61-4.71-4.22-10.1-7.31-15.32-10.67-12.19-7.85-24.48-15.57-37.08-22.74-4.55-2.59-9.61-4.27-14.4-6.45-6.26-2.84-12.86-4.83-19-7.93a68.5,68.5,0,0,0-11.05-4.11c-1.57-.48-2.79-1.58-4.4-2-1.19-.32-1.62-3-1.13-5a1.9,1.9,0,0,1,2.44-1.64c.2,0,.51.2.57.13,2.36-2.78,4.58-.62,7,0A138.46,138.46,0,0,1,115.59,48c4.42,1.73,8.52,4.09,12.75,6.19,3.72,1.84,7.21,4.08,11,5.75a66.08,66.08,0,0,1,12.43,7c.74.54,1.52,1,2.3,1.49,9.3,5.43,18.45,11.11,27.33,17.2a30.79,30.79,0,0,0,3.63,2.24c3.67,1.82,6.54,4.8,10.09,6.8,1.42,2.94,5.06,3.49,6.69,6.37.89,1.57,3.06.82,4.62.87,1,0,2.07-.39,3.46-.51-2.18-2.18-4.1-4.35-6.27-6.23-3.66-3.17-7-6.63-10.5-10a32.15,32.15,0,0,0-6.59-5.33c-2.77-1.56-4.75-4.07-7.26-6-6.21-4.67-12-9.86-18.73-13.88-2.6-1.57-5-3.57-7.66-4.91-5.45-2.79-10.43-6.56-16.64-7.93A18.54,18.54,0,0,1,127,42.22a18.81,18.81,0,0,0-5-3.74c-2.65-1.3-4.77-3.35-7.25-4.89-1.55-1-1.56-2.15-.42-3.53s2.58-1.82,4.57-1.29c4.15,1.09,7.91,3.1,11.76,4.89a18.7,18.7,0,0,0,4.13,1.85c3.12.58,5.3,2.76,7.35,4.66a26.2,26.2,0,0,0,5.8,4c2.76,1.46,5.54,2.93,8.34,4.32a91.46,91.46,0,0,1,15.75,10c6.42,5.07,12.85,10.13,18.76,15.8a13.68,13.68,0,0,0,2.95,2.12,28.54,28.54,0,0,1,5.8,4.83c3.83,3.72,7.7,7.41,11.87,10.77,2,1.63,3.69,3.7,6,5.08,1.26.76,2.18,1.32,3.79.45a58.38,58.38,0,0,1,7.33-2.76,5,5,0,0,0-1.83-2.21c-3.65-2.39-6.63-5.57-9.88-8.43s-6.59-5.65-9.95-8.41c-2.18-1.8-4.09-3.88-6.41-5.55-4.67-3.36-9.09-7.05-13.76-10.45-6.63-4.83-13.77-8.92-20.32-13.88-3.39-2.56-6.45-5.52-9.81-8.07-5.18-3.92-9.7-8.57-14.83-12.52a12.81,12.81,0,0,1-2.33-2.38c-1.08-1.39-2.66-2.77-.73-4.7.63-.62-.47-1.59.45-2.38,2.18.27,4.5.41,6.47,1.86a3.12,3.12,0,0,0,1.06.6c4.55,1.06,8.24,3.85,12.18,6.13a42.93,42.93,0,0,0,6.47,3.33,7.79,7.79,0,0,1,4.16,4c1.25,2.47,3.69,4.26,6,5.92a51.93,51.93,0,0,1,9,8c2.66,3.12,6,5.27,9,7.88s5.78,5.35,8.89,7.79c3.48,2.72,6.69,5.78,10.13,8.56.8.65,1.3,1.51,2.13,2.12,6.54,4.88,12.41,10.58,18.78,15.67A12.25,12.25,0,0,1,236,90.94c.67,1.1,1.61,2,3.18,1,1.24-.81,2.94-.66,4.33-1.79-7-7.82-13.46-16-21.12-23.15-3.46-3.22-6.37-7-9.81-10.29-4-3.82-7.62-8.16-12-11.5C193,39.39,186.85,32,179,26.54c-5.51-3.82-10.06-8.78-15.67-12.42-2.56-1.66-5.24-3.13-7.85-4.7-.53-.32-1.58-.19-1.31-1.3.22-.92.57-1.75,1.64-2a15.16,15.16,0,0,1,6.9.15,12.39,12.39,0,0,1,4.75,2,4.32,4.32,0,0,0,1.59.88c3.08.57,5.17,2.81,7.34,4.66,5,4.26,10.11,8.31,15,12.73a82.41,82.41,0,0,0,7.47,6.2c1.1.8,1.71,2,2.67,2.9,2.81,2.65,6,4.84,8.92,7.3A119.4,119.4,0,0,1,225.36,58c4.09,4.9,9,9,13.1,13.85,3.36,4,7.18,7.69,9.48,12.52a4,4,0,0,0,.34.5c2,2.83,2,2.84,5.31,1.58a15.47,15.47,0,0,1,5.89-1.4c-.93-2.86-2.7-5-4.29-7.34a24.86,24.86,0,0,1-2-3.71A15.82,15.82,0,0,0,250,69.5a6.73,6.73,0,0,1-2.25-3.1c-.1-.38-.32-.92-.61-1-2.46-.86-2.91-3.44-4.44-5.07-4.73-5.05-10-9.6-14.26-15.09a9.24,9.24,0,0,0-2.68-2.45,3.18,3.18,0,0,1-1.36-1.16c-1.41-3-4.2-4.26-6.83-5.75a2.34,2.34,0,0,1-.78-.48c-2.25-3-5.54-5-8.14-7.68a51,51,0,0,0-10.53-8.54c-3.32-2-6.91-3.49-10.14-5.57-1.7-1.1-3.43-2.35-5.1-3.48-2.43-1.64-4.36-4-7.14-5.15-2.2-1-2.4-2.29-1.07-4,.73-.95,1.5-1.3,2.59-.58a23.6,23.6,0,0,0,5.07,2,36.59,36.59,0,0,1,6.62,3c4.42,2.71,9,5.19,13.36,7.94a44.77,44.77,0,0,1,6.47,5A56.22,56.22,0,0,1,213,22.17a99.34,99.34,0,0,0,7.63,7.32,16.6,16.6,0,0,0,3.36,2.6,24,24,0,0,1,6.9,6.28c3.43,4.15,7.65,7.47,11.21,11.48a239.13,239.13,0,0,1,16.09,19.73,40,40,0,0,1,6.07,12.14c.31,1.1,1,1.4,2.07,1.09,2.05-.58,4.16-.91,6.17-1.69a22.15,22.15,0,0,1,5.56-1.53,3.34,3.34,0,0,1,3.41,1.55c-3.59,1.15-6.43,3.29-9.64,4.73-2.5,1.12-2.43,1.11-1.17,3.44,1.54,2.86,3,5.76,4.37,8.7s1.43,6.22,1,9.53c-.54,4.57-2.17,8.84-3.37,13.23-.52,1.92-1.37,3.88-3.79,4.67-1.12.36-1.57,2.18-3.45,1.49-.57-.22-1.08,0-1.35-.82a9,9,0,0,1,.38-6.25c2-4.86,2.66-10,3.12-15.11.43-4.93-.56-9.69-1.66-14.45-.33-1.42-1.08-1.75-2.41-1.15s-2.63,1.07-4,1.53c-1.91.66-2.2,1-2.09,3a10,10,0,0,0,.28,1.81A50.92,50.92,0,0,1,259,110.25a59.14,59.14,0,0,1-3.61,18.09,155.12,155.12,0,0,1-8.76,20.36,8.4,8.4,0,0,1-3,3.28c-.71.42-1.41,1.06-2.19.54a2.14,2.14,0,0,1-1.06-2.35,51.56,51.56,0,0,1,1.69-6.43,142.3,142.3,0,0,0,6-17.85,75.78,75.78,0,0,0,2.18-25.95c-.12-1.47.21-3-.57-4.69l-9.56,3.67c-.62,1.06,1,.77.94,1.43a15.1,15.1,0,0,1-.44,2.08c-.48,2,0,4,0,6a9.5,9.5,0,0,1,.16,1.81c-1.13,4.8.09,9.88-1.59,14.6a27.19,27.19,0,0,0-1,5.34c-.67,4.41-2.18,8.61-3.42,12.87A91.14,91.14,0,0,1,226.77,161a23.17,23.17,0,0,1-3.41,4.23c-2.45,2.69-5,5.32-7.48,8a6.3,6.3,0,0,1-1.7,1.24c-.41.21-1.19.27-1.19-.41,0-1.24-1-2-1.31-3a3.21,3.21,0,0,1,.21-2.85c6-10.87,10.49-22.38,14.9-33.94A226.17,226.17,0,0,0,236.28,101a2.47,2.47,0,0,0-2.34.25,29.81,29.81,0,0,1-5.81,1.78,4.56,4.56,0,0,0-4.11,4.46,112.2,112.2,0,0,1-2,15.25c-1,4.36-.89,8.82-2,13.12A130.8,130.8,0,0,1,215.36,151c-1.05,2.72-1.66,5.58-2.84,8.29a78.1,78.1,0,0,1-11.88,18.68c-3,3.58-5.81,7.28-8.79,10.86a25.24,25.24,0,0,1-4.59,4.59,3.7,3.7,0,0,1,.49-4.45c2.91-3.71,4.45-8.17,6.21-12.5,3-7.22,5.77-14.5,8.26-21.9q2.47-7.35,4.75-14.78c1.81-5.9,4.27-11.59,5.47-17.69.76-3.88,1.83-7.69,2.73-11.54.22-1,.29-2,.49-3.38-1.78.45-3.32.74-4.79,1.24a34.55,34.55,0,0,1-6.08,1.89,1.62,1.62,0,0,0-1.57,1.85c.14,6.16-.71,12.26-1.14,18.38A5.39,5.39,0,0,1,202,132c-1.48,3.38-1.49,7.1-2.5,10.61-2.83,9.81-6.57,19.14-12.34,27.65-3.63,5.36-7.2,10.77-10.94,16.06-3.61,5.11-8.66,8.78-13.57,12.53-.87.66-2.14,1.76-3.37,0a3.15,3.15,0,0,1,.07-4.26,23.5,23.5,0,0,0,1.86-2.77c3.48-5.91,6.51-12.07,10-18,4.16-7,8.43-13.93,11.94-21.23a196.17,196.17,0,0,0,11.41-28.18C195.71,120.72,196.25,116.77,197.14,112.47Zm-15-7.69c.93,1,1.73,1.58,3,1C184.46,104.75,183.59,104.67,182.17,104.78Z"/></g></g></svg>