<svg xmlns="http://www.w3.org/2000/svg" viewBox="0 0 445.61 540.79"><defs><style>.cls-1{fill:#e5bba4;}</style></defs><title>Plant Left 3</title><g id="Camada_2" data-name="Camada 2"><g id="Camada_13" data-name="Camada 13"><path class="cls-1" d="M129.33,367.25A186.06,186.06,0,0,0,141.39,347c.7-1.35.2-2.41-.24-3.66a23.23,23.23,0,0,0-5.58-9.3c-6.42-6.13-10.08-14.34-16-20.84-2.12-2.31-1.4-6.29-3.86-8.74-3.37-3.34-5-7.9-7.8-11.56-4-5.35-7.17-11.13-10.41-16.91a64.78,64.78,0,0,1-6-14.91C87,244.23,82.34,227.49,80.81,210c-1.36-15.64-2.9-31.16-1-46.85.93-7.72,3.08-15.16,4.91-22.64,1.8-7.32,3.54-14.63,4.73-22.07a11.94,11.94,0,0,1,.54-3.16c.9-1.93,1.82-4.26,4.18-4.57,2.82-.36,2.78,2.8,4,4.29a7.32,7.32,0,0,1,1.4,4.88c-.66,8.3,2.1,16.14,3,24.22,1.5,13,1.57,26.15,2.26,39.23a277.07,277.07,0,0,0,11.29,65.35c.86,2.89,1.82,5.76,2.43,8.71,2.73,13.18,7.89,25.44,14,37.36,5.25,10.35,10.36,20.76,14.87,31.47.65,1.55,1,3.35,3.4,4.54,3.82-6,7.67-12.1,11.56-18.17,1.05-1.63.14-2.93-.65-4.15-2-3.05-4-6.14-6.24-9-7.38-9.32-11.61-20.35-17.17-30.67-3.69-6.85-6.11-14.15-9.21-21.19-1.28-2.89-1.28-6.31-2.21-9.39a164,164,0,0,1-6.51-41.11c-.77-19.25-2-38.57,1.9-57.68a323.57,323.57,0,0,1,15.53-52.45c4.74-12.23,7.7-25,11.29-37.56.53-1.86.62-3.86,2.68-5.06,3.92,1.46,6.79,5.21,6.53,8.46a85.32,85.32,0,0,0,.24,10.51c.49,11.45-.93,22.71-3.14,33.91-.79,4-1,8.11-1.78,12.11-4.81,25-6.41,50.29-5.91,75.68.31,15.9.77,31.85,2.78,47.62a174.76,174.76,0,0,0,11,43.74c2.5,6.16,3.88,12.77,7.39,18.53a3.9,3.9,0,0,0,2.49,2.26c3.07-2.86,4.88-6.77,7.23-10.29.49-.73,1.11-1.54.48-2.33-3.09-3.89-1.54-9.38-4.65-13.26a5.12,5.12,0,0,1-1-3c-1-15.15-1.87-30.31-3.21-45.42-.9-10.06-1.95-20.13-2-30.21-.12-15.59-.14-31.24,1.59-46.74a149.64,149.64,0,0,1,7-32.61,122,122,0,0,0,4.32-16.17c1.88-9.31,5.14-18.2,7.85-27.26,5-16.75,14.36-31.13,24.82-44.88,3.68-4.82,9.13-7.83,12.88-12.6a3,3,0,0,1,4.09-.75,3.57,3.57,0,0,1,1.64,3.94,34.85,34.85,0,0,1-2.67,7.23C224.21,33.25,219.31,44,213.13,54.17c-4.57,7.51-5.83,16.13-7.79,24.48-4.62,19.69-7.91,39.66-11,59.62-2.79,17.85-3.3,35.93-2.81,54,.6,22.34.88,44.69,1.33,67a37.6,37.6,0,0,0,.68,4.14c5.53-7.83,10.43-14.82,15.4-21.76.85-1.18.69-2.42.82-3.68,2.25-22.65,4.15-45.34,6.89-67.93,3.06-25.2,7.27-50.18,15.4-74.41,4-12,9.85-22.89,15.82-33.83,6.09-11.15,12.46-22.15,18.78-33.18,3.75-6.54,7.8-12.91,13.18-18.28,1.27-1.27,1.82-2.9,2.67-4.38A13,13,0,0,1,288.58.64C292-.92,294.94.43,296.14,4a9.85,9.85,0,0,1-.37,6.93c-3.94,10-7.76,20-13.93,29a76.65,76.65,0,0,0-4.49,8.46C271.57,59.57,265.63,70.7,260,82c-9.52,19.26-18.68,38.78-23,59.93-3.82,18.69-7.14,37.53-8.37,56.65-.33,5.06-1.73,10.05-1.3,15.65,3.53-1.23,4.16-3.8,4.45-6.53,1.71-15.9,6.39-31.11,10.74-46.4,5.55-19.53,13.7-38,23-56A404.42,404.42,0,0,1,309.4,38.53c9.79-12.24,20.34-24,32.73-33.77,2.1-1.67,4-3.12,6.95-2.3,3.37.94,4,2.55,2,5.61-5.29,8.33-12.27,15.35-17.95,23.4C322.92,46,310.81,59.18,301.1,74.1c-7.62,11.71-14,24.15-20.79,36.38-10.53,19-18.13,39.34-26,59.52-1.14,2.92-1.61,6.1-2.5,9.56,2.91-.73,2.76-3.31,4.13-4.64a26.42,26.42,0,0,0,4.16-4.88c7.56-12.26,16.68-23.43,24.77-35.26,7.68-11.21,16.12-21.75,24.34-32.47,12.15-15.85,24.31-31.78,38.42-46,6.2-6.23,12.32-12.55,18.64-18.68,3.41-3.31,7.54-5.64,11.19-8.61a2.28,2.28,0,0,1,2.75-.39c5.77,2.2,6.82,5.6,4.66,11.24-2.23,5.84-6,10.27-10.19,14.58-4.52,4.6-8,10.07-11.42,15.47C359.38,76.1,353.5,80.22,349,85.62c-11.62,13.83-22.67,28.12-34.06,42.13-9.13,11.22-17.46,23-26.35,34.43-3.33,4.27-6.42,8.84-9.68,13.22-.63.85-1.44,1.93-.31,2.78s1.85-.29,2.65-1c5.57-5,11.11-10.1,16.79-15q30.75-26.52,62.28-52.09a82.62,82.62,0,0,0,10-9.17c9.26-10.51,21.61-17.72,30.42-28.68,3-3.75,4.91-4.15,9.26-2.08,7.71,3.66,9.81,14.75,4,21.3A77.37,77.37,0,0,1,394.45,107c-6.43,3.74-12.86,7.58-18.28,12.88-3.5,3.41-7.05,6.67-12,8.33-2.79.93-4.81,4.08-7.31,6.06-7.52,6-15.74,11.2-22.86,17.52-8.8,7.81-19.58,13-27.45,22-4.57,5.26-10.53,9.36-16.11,13.66a112.77,112.77,0,0,0-9.48,8.56c-4.79,4.64-10.39,8.24-15,13-4.15,4.27-10.11,6.41-14.29,10.88-3.76,4-8.8,6.75-11.9,11.5a7.91,7.91,0,0,0-1.67,3.77c1.79.44,3.06-.49,4.45-1.36C259,223.62,276,214,293.12,204.81c21.16-11.29,42.66-21.94,63.68-33.47,16.34-9,32.4-18.5,48-28.75a52.24,52.24,0,0,1,17.56-7.83c4.25-.93,7.74-3.84,12.1-4.41,2-.27,4.58-2,5.86.53a6.57,6.57,0,0,1-.88,7.8c-2.58,2.93-5.31,5.85-8.55,7.76s-5.63,4.84-8.82,6.23c-11.8,5.15-20.9,14-31.19,21.25-7.93,5.58-15.84,11.7-25.17,15.37-3.87,1.52-6.94,5-10.62,7.1-5.51,3.23-10.43,7.39-16.9,9.15a19.65,19.65,0,0,0-8.08,5c-2.54,2.5-5.61,4.77-9.43,5.3-3.24.45-4.76,3.5-7.5,4.84q-17.88,8.73-35.54,18c-14.41,7.51-29.13,14.46-42.65,23.59-2.78,1.88-6.14,2.79-9.29,5.52,6.07-.14,11.1-2.36,16.33-3.47,13.3-2.84,25.7-8.47,38.5-12.82,13.76-4.69,26.89-11.21,40.6-16.07,16.83-6,32.73-13.85,48.81-21.47,8.29-3.93,16.69-7.92,25.83-9.82a25.78,25.78,0,0,0,9.84-4.55c9.18-6.68,19.3-11.85,28.77-18.06,1.15-.76,2.27-2.24,4-1.52,2.3,1,5.37-.15,7,2.49.88,1.41-1.15,8.36-3,10.08-6.77,6.15-11.86,14-19.59,19.22-2.11,1.44-4.38,2.65-6.52,4-11.41,7.12-22.47,14.83-34.5,20.95-3.77,1.92-7.95,2.6-11.79,4.45-7.31,3.52-13.72,8.7-21.37,11.49-6.45,2.35-12.91,4.63-18.87,8.06-13.63,7.84-28.63,12.49-42.91,18.8-10.22,4.51-20.9,7.77-31.17,12.09a97.93,97.93,0,0,1-9.77,3.37c-18.74,5.64-37.47,11.31-56.28,16.73a12.76,12.76,0,0,0-8.24,6.54c-2.67,4.84-5.63,9.52-8.5,14.32a4.42,4.42,0,0,0,4.08-.24c12.06-5.57,25.41-6.62,37.79-10.88,14.89-5.13,30.5-7.52,45.33-12.67s29.09-11.53,43.51-17.63a317.87,317.87,0,0,1,34.35-12.7c11.47-3.35,22.37-8.65,32.75-14.7s20.95-11.77,32.77-14.5c4.79-1.11,9.65-1.67,13.18,3.47,2.92,4.24,3.16,4.6.21,8.71-4.53,6.29-10.68,10.61-17.61,13.68a102.73,102.73,0,0,0-12,6.07,16.85,16.85,0,0,1-11.63,2.27,11.26,11.26,0,0,0-6.22,1c-11.88,5-23.31,10.83-34.78,16.67-14.53,7.38-29.13,14.81-44.32,20.6-12.19,4.65-24.5,9.15-37,13.18-15.32,5-30.76,9.52-46,14.58-10.81,3.58-22.08,5.82-33.22,8.28-5.42,1.19-10.9,2.1-16.25,3.59-.8.23-1.91.51-2.22,1.1-2.5,4.89-6.85,8.65-8.74,13.59,13.38-.73,26.09-4.19,39-7,30.07-6.51,60-13.37,89.7-21.5,10.7-2.93,20.8-8,31.24-11.92,13.64-5.12,26.53-12,40.42-16.62,7.91-2.62,15.36-6.48,22.71-10.41,3.08-1.64,6.55-1.82,9.62-3.58,2.26-1.3,6.84,2,9.13,5.74,1.48,2.42,1.18,4.46-1.21,6.11-.35.24-1.06.48-1,.67.62,7.7-5.94,7.79-10.49,10.38a289.05,289.05,0,0,1-27.53,13.84c-9.22,4-18.9,6.65-28.39,9.84-8.34,2.81-16.94,4.68-25.19,7.94a138.67,138.67,0,0,1-29.09,8.18,58,58,0,0,0-5.68,1.23c-22.09,5.79-44.3,11-66.75,15.18a65.43,65.43,0,0,0-8.8,2.07c-8.23,2.79-17,2.62-25.32,4.94-6.54-2.27-12.83,2.35-19.57.48-3.69-1-5.83,3.36-8.24,5.61-1.51,1.41-2.53,3.7-4.42,6,6.53,0,12.67.37,18.74-.07,10.24-.73,20.49-.61,30.72-.76,6-.08,12-.23,17.86-1.88,6.48-1.82,13.23-1,19.83-2,16.32-2.31,32.82-3.25,48.9-7.25,6.24-1.56,12.88-2.21,18.83-4.13,12.35-4,25.47-5.8,36.84-13.07a39.2,39.2,0,0,1,21.21-6.56,40.51,40.51,0,0,0,13.07-1.87c5.92-2,12.18-2.13,18.2-3.55,3.75-.88,5.56.89,5.93,4.68.4,4.05-1.14,6.58-4.92,8.79-7.86,4.57-16.5,7.2-25,10.28-3,1.1-6.41,1.67-9,3.43-5.54,3.81-12.08,3.81-18,4a55.26,55.26,0,0,0-14.69,2.69c-6.34,1.95-12.71,3.92-19,6a191.35,191.35,0,0,1-38.68,8.55c-17.22,2-34.46,4.09-51.82,4.45a30,30,0,0,0-7.6,1.23c-5.23,1.49-10.55,1.38-15.93,1.46-11.32.16-22.65.43-33.93,1.66-5.5.6-11.08,0-16.56,1.32-3,.74-5.24,1.28-6.36,5-1.53,5.08-4.35,9.77-6.86,15.12a10.58,10.58,0,0,0,6.06.58c9.06-1.89,18.29-1.6,27.46-2.19s18.36-1.4,27.52-2.29c6-.59,12-.32,17.93-1.29,12-2,24.21-3.07,36.29-5,17.2-2.71,34-7.28,51.27-9.66,8.93-1.24,17.94-1.4,26.81-2.62,13.63-1.88,27.39-1.68,41-3.45a27.89,27.89,0,0,1,7.07.06c3.71.48,8.15.18,8.13,6,0,1.87,3.1,1.68,2.89,4.24-3.67,2.87-7.34,6.13-12.48,6.91a6.4,6.4,0,0,0-2.48.69c-8.43,5.24-18.13,6.6-27.47,9.08A91.78,91.78,0,0,0,304,446.5a16.5,16.5,0,0,1-12.2.27c-5.58-1.83-11.92-.84-17.84.08-8.45,1.32-17.08,2.19-25.41,1.52-8.67-.69-16.88,1.09-25.29,1.66s-16.69.66-25,1.67c-9.3,1.12-18.7,1.35-28,2.33-2.17.23-4.21-.29-6.37,0-17.12,2.49-34.46,2.74-51.64,4.67a25.92,25.92,0,0,1-8.88-1c-2.64-.63-5.38-.56-6.2,3.35-.63,3.07-3.41,5.4-3.8,9.17,22.17,1.29,44.16,3.8,66.37,3,10-.34,20.06,1,30.13.72,11.75-.29,23.67.82,35.24-.75,20-2.73,40.36-.77,60.21-4.36,14-2.53,28.23-1.94,42.09-4.88,6.33-1.34,12.55-3.16,18.83-4.71,1.27-.32,2.65-2.09,3.91,0,1.05,1.7,1.75,3.47.54,5.44a32.31,32.31,0,0,1-10.58,10.14A26.58,26.58,0,0,1,330,479a8.9,8.9,0,0,0-3.7,1.07c-5.48,3.75-12,3.53-18,4-13.83,1.08-27.61,2.71-41.49,3.34a181.39,181.39,0,0,0-20.5,1.89c-2.85.46-5.55-.42-8.36-.33-8.16.23-16.2,1.7-24.32,2.42a250.85,250.85,0,0,1-45-.21c-13.48-1.21-27,.08-40.41-1.13-11.07-1-22.3-.75-33-4.54a8.78,8.78,0,0,0-1.26-.25C86.82,484,86.8,484,83.72,490.86c-1.76,3.91-3.47,7.83-6.74,10.95,5.69,2.88,11.63,3.51,17.44,4.57a51.78,51.78,0,0,1,8.52,2.62,33.87,33.87,0,0,0,11.61,1.86c2.86,0,5.49-.25,8,1.27.71.42,1.86.91,2.44.63,5-2.42,9.51.79,14.26.94,14.66.47,29.37-.59,44,1.24a19.16,19.16,0,0,0,7.68-.35,6.74,6.74,0,0,1,3.79-.3c6.58,2.37,12.68.09,18.86-1.62a4.85,4.85,0,0,1,1.88-.44c7.93,1.17,15.76-.86,23.71-.7a108.28,108.28,0,0,0,28.59-3c8-2,15.6-5.13,23.56-6.86,4.2-.91,8.67-1.62,12.87-2.43,6.1-1.19,12.46-.59,18.41-3,4.72-1.88,7-.17,7.61,4.37.31,2.53-.32,4.21-3,4.76-3.86.78-7.11,3-10.62,4.59a77.17,77.17,0,0,1-14.48,5.38c-10.67,2.56-21.22,5.68-31.92,8.12A93.64,93.64,0,0,1,253,525.74c-4.07.16-8.14,1-12.15.69-7.51-.5-14.95.18-22.42.47a34.86,34.86,0,0,0-8.92,1.14c-6.49,2-13.27,1.55-19.75.94-11.37-1.09-22.67.26-34-.43-18-1.09-35.94-2.42-53.7-5.46-9.5-1.62-18.77-4.32-27.29-9.08-2.12-1.19-3.54-.66-4.74,1.46-2.22,3.94-4.89,7.61-6.72,11.79a47.69,47.69,0,0,1-6,10.64c-1.74,2.19-3.75,3.28-7.44,2.77,3.65-7.1,4.71-14.56,7.37-21.54,2.07-5.42,2-5.3-3.42-6.91-6.59-2-13.14-4.11-19.59-6.48-6.65-2.44-11.46-7.18-15.84-12.73-6-7.67-10-16.51-14.78-24.88-2.1-3.67-3.77-7.89-1.32-12.69,1.13-2.22-.91-5.62,2.93-7.4,1.18-.54,1.6-1.64,3.25-.81a18.92,18.92,0,0,1,8.8,9.94c4.35,10.23,10.93,18.91,18,27.33,6.75,8,15.37,13.7,24.14,19.18,2.63,1.64,4.25,1,5.34-1.9s2.35-5.54,3.66-8.25c1.86-3.83,1.76-4.81-1.4-7.64a19.48,19.48,0,0,0-3.13-2.29C54.7,478.2,47.22,471.06,40,463.26a125.18,125.18,0,0,1-21.71-32.52C11.6,416.56,5.44,402.1.85,387.09a17.87,17.87,0,0,1-.39-9.42C.89,376,1,374,2.93,373.56s4,0,5.11,1.94c2.32,4.09,5.31,7.77,7.11,12.18a305.82,305.82,0,0,0,17.76,35.76c9.21,16.12,21.49,30.06,35.64,42.15,2.38,2,4.23,4.86,7.89,6.19l8.81-19.84c-.64-2.52-2.65.36-3.55-.74a32.78,32.78,0,0,1-2.45-3.76c-2.29-3.74-6.06-6-9-9.13-.88-.93-2.32-1.44-3-2.47-5.51-8.9-14.94-14.69-19.49-24.28-1.7-3.57-4.21-6.43-6.5-9.53-5.62-7.6-9.65-16.16-14.18-24.42-6.72-12.26-11.08-25.43-15-38.74-1.07-3.62-1-7.61-1.22-11.45-.36-7.71-.55-15.43-.7-23.15a13.37,13.37,0,0,1,.67-4.39c.32-.93,1.38-2.21,2.42-1.18,1.86,1.84,4.37,1.53,6.44,2.52a6.76,6.76,0,0,1,3.94,4.59C31,331.06,41.51,355.08,52.24,379c10,22.39,22.29,43.49,35.59,64.05,2-.61,2.51-2.37,3.14-3.88a62.57,62.57,0,0,1,6-11.37c2.86-4.21,3.15-8.41-.53-12.85-6.94-8.38-14.17-16.67-19.86-25.88-5-8.07-11.88-14.55-16.69-22.62a275.79,275.79,0,0,1-15.6-29.62c-2.5-5.65-5.87-10.85-8.17-16.7C30.34,305.37,27.4,290.08,26,274.37c-.9-9.84-2.2-19.64-3.12-29.47a55.17,55.17,0,0,1,0-13.77c3.74,1.28,5.44,3.33,5.94,7.41,1.21,9.92,5.59,18.92,9.42,28,6.4,15.26,13.1,30.4,20.46,45.22q7.3,14.73,15,29.27c6.13,11.56,11,23.78,18.33,34.73,4.67,6.94,8.78,14.27,13.21,21.38,1.12,1.79,2.53,3.41,4.33,5.81,2-3.34,3.86-6.08,5.32-9,2-4,3.54-8.29,6.28-12,1.3-1.74,1.38-3.43-.42-5.15-9.45-9-17.31-19.43-25.85-29.26-.71-.81-1.76-1.47-2.13-2.41-2.87-7.28-8.42-12.88-12.16-19.65-10.48-18.94-18.84-38.54-23-59.95-2.6-13.48-5.36-26.94-7.68-40.46C47.73,212,49.79,199,51.53,186c.31-2.31.58-5.86,5-5.1,3.79.66,5.82,2.53,6.28,6.49a53,53,0,0,0,1.36,6.95c3.65,14.08,8.35,27.86,11.92,42C80.32,253,84.35,269.84,90,286.05c7.11,20.26,14.93,40.36,25.13,59.34C119.11,352.74,124.23,359.45,129.33,367.25Zm34-10.92c-2.92-.11-5,.22-5.95,3C159.92,359.81,161.35,358.63,163.32,356.33Z"/></g></g></svg>