<svg xmlns="http://www.w3.org/2000/svg" viewBox="0 0 535.31 668.02"><defs><style>.cls-1{fill:#f4876a;}</style></defs><title>Plant Right 3</title><g id="Camada_2" data-name="Camada 2"><g id="Camada_13" data-name="Camada 13"><path class="cls-1" d="M312.94,489c-1.34-11.26-1.44-21.39-1.66-31.55-.32-14-1.35-27.92-2.46-41.85-.31-3.9.52-6.57,3.38-9.27,13.34-12.56,27.2-24.5,41-36.49,9.19-8,19.23-14.59,28.76-22s20.23-13.67,28.24-22.94a94.36,94.36,0,0,1,18.05-15.81,42,42,0,0,0,11.21-11.6c5.93-9.06,13.48-16.77,20.4-25a101.6,101.6,0,0,0,6.6-9.18c.88-1.32,2.07-3,1.92-4.37-.87-7.66,1.54-14.71,3.73-21.77,1.07-3.44,0-6.11-1.25-9.21a156.2,156.2,0,0,0-15.15-28.42,41,41,0,0,0-6.35-7.25,6.31,6.31,0,0,0-5.1-2c-7.75,1.15-15.6,2.37-20,10.23-.78,1.4-1.31,3.47-2.52,4-10.07,4.66-14.43,15-22.11,22a134.3,134.3,0,0,0-19.78,23.32c-5.36,7.79-12.2,14.36-18.27,21.57-1.73,2.06-4.06,3.69-5.5,5.92-11.15,17.27-26.62,31-38.89,47.33a91,91,0,0,1-7.64,8.33c-3.4,3.52-6.63,7.11-7.06,12.32-.15,1.83-1.29,2.89-4,4-.8-7.86-4.24-14.92-5.24-22.49-1.06-8.09-3.87-15.69-5.28-23.65-1.25-7,.05-10.64,6.33-13.32,11.2-4.78,19.35-13.23,27.63-21.69,20.43-20.89,32.77-47,47.75-71.58,10.09-16.53,13.43-35.07,20-52.64,2.34-6.29,3.88-12.88,6.08-19.24,2.94-8.55,1.36-17-.34-25.43-.71-3.48-3.67-5.59-6.93-7.41-7.1-4-14.8-6.41-22.27-9.44C358.67,79.26,350.11,79,343,74.24c-2.55-1.7-5-.16-6.24,3Q326,104.18,315,131a25.69,25.69,0,0,1-3.26,6.47c-9.74,12.23-15.05,26.72-20.47,41-4.78,12.63-10.63,24.7-16.38,36.86-3.07,6.48-5.19,13.43-9.58,19.46-2-2.19-2.45-4.85-3-7.45-2.49-12.1-4.7-24-4.13-36.68.64-14.15-1.25-28.45-2.45-42.64-1-11.48.6-23.12-2.4-34.44-2.41-9.12-3.53-18.4-4.54-27.79-1.63-15.23-7.08-29.25-17.1-41.2a29.18,29.18,0,0,1-4.6-6.63c-7-16.1-19.59-26.4-34.63-34.58-8.67-4.72-16.75-4.34-25.14-.11-1.18.6-2.25,1.92-3.63,1.5C150,.59,141,9.35,131.64,16.78c-1.74,1.37-3.39,2.61-5.66,2.85-4.81.5-7.44,3.94-9.7,7.62-2,3.26-2,8.11-7.26,8.67a1.55,1.55,0,0,0-.81,1.26c1.79,5.86-2.83,10.07-3.85,15.2-.5,2.55-.65,5,2,6.33,4.83,2.43,7.06,6,8.66,11.43,1.74,6,6.48,11.06,10,16.44a332.41,332.41,0,0,0,42,52.07c1.89,1.88,4,4,4.87,6.37,4.92,13.79,16.19,24,21.21,37.67a12,12,0,0,0,1.78,3.62c12.34,14.69,17.7,33.26,27.45,49.44,6.17,10.25,9.72,22.05,12.86,34.57-4-.35-5.85-2.79-7.82-4.65-5.1-4.81-10.06-9.8-14.89-14.89-13.85-14.59-30.63-25.47-46.65-37.36-11.8-8.75-24.29-16.11-38.08-21-12.92-4.59-25.88-9.38-39.2-12.46-6.31-1.46-13.29-2.78-19.92-2.11C57.05,179,45.61,181.3,40,193.7c-.88,1.94-1.68,4-4.17,4.57-3.29.8-4.4,3.35-5.48,6.35-3.84,10.65-3.62,13.27,6,19.29,4.66,2.9,7,8.14,12.14,10.24,1,.42,1.11,1.67.89,2.83-.64,3.54,1.46,6,4.16,7.17,11.14,5,19.89,13.71,30.54,19.37,18,9.57,36.23,18.79,55.64,25.33,5.63,1.9,10.27,5.68,16.19,7.21,24,6.17,47.24,14.89,71.54,19.94,6.08,1.26,12.09,3,18.37,2.73,3.61-.14,5.54,1.43,5.94,5,.55,4.78,1.9,9.4,2.17,14.27,1,17.16,2.72,34.29,3.39,51.45.23,5.88.26,11.76,1.16,17.64-2.48,1-3.41-1.14-4.85-2.1-20.21-13.4-40-27.48-61.3-39.17-13.24-7.26-26-15.33-40.52-20-1.27-.41-2.44-1.19-3.73-1.49-16-3.63-30-11.85-44-19.77a210,210,0,0,0-73.74-25.18C16.83,297.48,9.59,303.59,6,317.61,4.31,324.32,1.22,330.7.25,337.7a17.28,17.28,0,0,0,.09,6.37c1.72,7.6,3,15.31,4.87,22.87,1.84,7.39,6.78,13.16,10.92,19.35,6.78,10.13,18.39,11.39,28.33,15.61,4.67,2,9.85,2.8,14.8,4.13,1.31.35,2.9.28,3.9,1,8.69,6.47,19.44,5.49,29.2,7.85s19.45,4.44,29.15,6.79c20.39,4.93,40.83,9.62,61.46,13.46,14,2.6,27.78,5.8,41.21,10.77a95.61,95.61,0,0,0,29.18,5.9c9.88.41,9.83.6,11.77,10.36,3.31,16.63,2.55,33.54,5.14,51.42-9-3.22-16.69-5.66-24.13-8.63-25.24-10.11-50.1-21.26-75.71-30.33C151.66,468,133.16,460.5,114,454.86c-9.35-2.76-19.19-2.76-28.69-4.46-12-2.16-22.58,4.23-33.94,4.43-10.08.18-16.66,6.53-24.07,11.32-4,2.61-5.53,8.3-5.77,12.81-.43,8.27-.76,16.6-.41,24.94a34.15,34.15,0,0,0,7.7,20,38.07,38.07,0,0,0,17,11.75,214.48,214.48,0,0,0,25.57,7.11c7.74,1.63,15.64,2.31,23.38,5.07,12.62,4.51,26.15,5.85,39.72,6.74s27.4,2.09,41.06,2.34c15,.27,30.15.82,45-2.72,13.1-3.12,26.28-5.94,39.46-8.76a51,51,0,0,1,8-.72c2.7-.14,3.33,1.08,3.6,3.9,1.66,17.74-1,35.39-1,53.1,0,8,.21,16.05.33,24.07a31.11,31.11,0,0,0,3.13,14c3.47,6.59,2.91,13.5,2.5,20.44-.16,2.87-1.43,7.12,1.7,7.72,3.37.65,6-2.8,7.15-6.39,2.11-6.41,4.84-12.69,6.27-19.25,2.42-11,5.18-22,6.28-33.37a133.08,133.08,0,0,1,4.87-23.81c3.32-11.55,3.43-23.47,4.2-35.22.49-7.56,4-14.62,2.88-22.35-.32-2.18,2-3,3.69-3.83,10.43-5.07,21.27-9.42,31.26-15.23,11.42-6.63,24.58-7.81,36.29-13.24,1.22-.57,2.81-.61,3.75-1.43,8.64-7.57,19.55-9.78,30-13.08,12-3.79,22.14-10.87,32-18.5,14.27-11,28.7-21.77,40.4-35.75,8-9.52,14.12-20.29,21.55-30.17,2.26-3,4.11-6.33,6.52-9.2,9.19-10.92,13.36-24.3,18.7-37.15,2.66-6.41-.26-12.56-.08-18.83.08-2.74-2-5-4.47-6.39-7.67-4.1-12.34-12-20.31-15.73-1.73-5.72-6.68-6.57-11.36-6.55-4.89,0-9.16,2.52-12.8,5.94-19.64,18.47-38.65,37.48-54,59.82-5.43,7.91-13.89,12.69-20.78,19.09-10.67,9.91-22.59,18.49-31.32,30.39-1.59,2.17-3,4.5-4.6,6.63-7.22,9.39-14.3,18.72-25,24.92s-17.58,16.62-23.16,27.41C323.39,482.35,319.5,486,312.94,489Z"/></g></g></svg>