<svg xmlns="http://www.w3.org/2000/svg" viewBox="0 0 264.03 291.2"><defs><style>.cls-1{fill:#712220;}</style></defs><title>Plant Left Front 4</title><g id="Camada_2" data-name="Camada 2"><g id="Camada_14" data-name="Camada 14"><path class="cls-1" d="M91.93,216c-1.72,3.34-3.94,5.74-6,8.28-1.22,1.53-1,2.72,0,4.16a75.34,75.34,0,0,0,9.73,10.68c5.14,4.86,10.65,9.34,16,14a21,21,0,0,0,2.82,1.88c.6.38,1.4.52,1.86,1,4.27,4.44,10.1,6.68,14.72,10.62a8,8,0,0,0,2.42,1.7c5.07,1.83,8.27,5.78,11.24,10,1.36,1.92,2.11,4.28,4.78,5.15,1.16.37,1,1.79-.19,2.25-2.23.88-4.56,2.1-6.85,2.1-6.16,0-11.76,2.79-17.8,3.14-1,.06-2,.21-3,.21-6.64,0-13.29-.13-19.93.06a41.74,41.74,0,0,1-15.34-2.8c-3.32-1.19-6.8-2-10-3.54-1.92-.91-5.32-1.5-3.62-5.22-3-4.69-1.12-10-1.91-15-.11-.69,0-1.43-.08-2.13-.84-4.86-1.89-9.7-1.42-14.89-2.67,4.17-5.53,8.24-8,12.55-3.42,6-8.23,9.94-15,11.44a6.16,6.16,0,0,1-4.49-.56c-2.28-1.26-3-2.89-1.93-5.3a57.36,57.36,0,0,1,4.15-8.39c3.48-5.34,6.79-10.8,10.18-16.21a1.93,1.93,0,0,0,.34-1.84c-3.27.46-6.26,2-9.41,3a60.41,60.41,0,0,1-11.92,2.74c-3.08.33-3.94-.37-5.15-3.15a5.93,5.93,0,0,0-.73-1.52c-5.12-6.17-7.78-13.71-11.51-20.65Q11,210.41,6.64,200.71a71.09,71.09,0,0,1-4.93-16.16c-.48-2.64-1-5.28-1.45-7.9-.6-3.16,0-6.16,0-9.23,0-2.51,1.15-3.24,3.61-2.37a68.83,68.83,0,0,1,13.55,6.82c6.2,3.88,10.61,9.71,16.48,13.88,4.59,3.27,8.78,7,13.42,10.29,6.9,4.86,14.4,8.75,21.18,13.77.68.5,1.36,1,2,1.55,2.53,2.11,3.24,2.08,5.07-.45,1.16-1.59,2.2-3.26,3.37-5a362.14,362.14,0,0,1-36-25A275.51,275.51,0,0,1,8.24,148.2c-4.49-4.91-4.5-9.67-1.65-15.87,2.22-4.85,5.2-9.36,6.61-14.61,1.23-4.55,4.18-5.48,8.35-3.12,2.13,1.2,4.16,2.43,5.38,4.66a2.26,2.26,0,0,0,.81,1c5,2.32,6.78,7.85,11,11,3.61,2.68,4.84,6.94,7.07,10.52a93.44,93.44,0,0,0,8.43,11.74,30.28,30.28,0,0,1,2.6,3.89,43.85,43.85,0,0,0,6.42,8.44A56,56,0,0,1,71.54,176a4.29,4.29,0,0,0,.8,1c4.28,3.81,7.57,8.42,11,12.95,3.78,5,4.52,4.85,7.84-.26,1.16-1.78,2-3.78,3.24-5.5,3.19-4.41,3.35-3.46-.71-7.58A201.92,201.92,0,0,1,73.3,152c-7.23-10.16-15.15-19.82-21.78-30.4-2.25-3.59-4.06-7.45-6.25-11.1-3.57-6-6.83-12.1-10.21-18.17-1.65-3-1.62-5.52.5-8.62A139.11,139.11,0,0,1,52.45,63.62c2.11-2.11,4.29-2.38,6.85-.47a22,22,0,0,1,5.15,5c3.89,5.6,6.36,11.91,9.44,17.93,2.62,5.13,4.32,10.74,7.94,15.39,2.91,3.75,3.64,8.56,5.59,12.79,4.86,10.56,9.4,21.27,14.39,31.77,2,4.23,3.62,8.61,5.47,12.89.34.78.55,1.63,1,2.36.8,1.42,2,1.76,3.07.46,2-2.56,3.9-5.26,5.8-7.92a1.39,1.39,0,0,0-.21-1.9c-4.72-5.49-6.57-12.52-10-18.72C99.16,119,95.67,103.29,90.63,88.1c-3.26-9.82-5.91-19.82-8.47-29.84C81,53.72,79.34,49.32,78,44.82c-1.42-4.92.16-7.64,4.13-10.87,5.36-4.36,11.59-7,17.49-10.37,2.4-1.35,4.89-3.1,7.9-1.27a1.4,1.4,0,0,0,1.23,0c2.58-1.64,4.16.34,5.89,1.61a8.68,8.68,0,0,1,3.51,5.55c1.16,5.47.78,11,1.16,16.5.54,7.95.11,15.93.59,23.86.8,13.24.74,26.52,2,40,1.63-1.57,1.72-3.59,2-5.44A65.29,65.29,0,0,1,127,92a21.68,21.68,0,0,0,1.2-4.08A111.49,111.49,0,0,1,137.64,58a48.69,48.69,0,0,0,3.15-10.12A197.28,197.28,0,0,1,152.3,11.48a7.71,7.71,0,0,0,.92-2.37c.32-4.64,4.16-6.32,7.17-8.67a2.42,2.42,0,0,1,2.47-.19c2.2,1.09,4.37.75,6.62.25a9.76,9.76,0,0,1,4.65.1,16.56,16.56,0,0,0,6.35.17,15.69,15.69,0,0,1,8.65,1c4.71,2.24,9.68,4,14.08,6.87,3.93,2.58,4.74,5.69,2.22,9.74C196,33.53,187.51,49.23,179.14,65A223.88,223.88,0,0,1,166.2,86.45c-6.62,9.67-13.1,19.47-18.79,29.74-.66,1.18-1.57,2.34-1.5,4.15,4-2.92,6.41-7,9.79-10.18,1.86-1.75,3.69-3.5,5.71-5.09A47.15,47.15,0,0,0,168,98.52c6.4-7.57,13.07-14.93,19.68-22.33,5.57-6.24,11.12-12.52,16.85-18.62a158.52,158.52,0,0,1,21.28-19.48c2.88-2.12,6.22-2.49,9.39-3.48,2.21-.68,7.5,2.2,8.12,4.5.87,3.2,3,5.39,4.9,7.84,5.43,7.16,7.93,15.61,10.65,24a5.82,5.82,0,0,1-.86,4.75c-1.55,2.77-4.24,6.81-6.45,8.34-2.8,1.92-5.63,3.8-8.32,5.85-5.66,4.31-12.27,7-18.24,10.72-4.29,2.71-8.82,5.06-13.08,7.76-6.09,3.87-12.32,7.54-18.18,11.77a50.8,50.8,0,0,0-7.23,6.17c1.53-.25,3.08-.41,4.58-.76a211.86,211.86,0,0,1,36.51-5c7.37-.4,14.71-.87,22.11-.66,3.57.11,7,1.07,10.56,1.07,2.26,0,4,2.86,3.68,5.79q-.89,7.81-2.11,15.59c-.5,3.21-1.26,6.39-2,9.57a18.57,18.57,0,0,1-4.22,7.73c-1.29,1.58-2.95.33-4.35,1.08-2.63,1.41-5.57,1.14-8.35.58a39.61,39.61,0,0,0-8.05-.56c-6.53,0-13-.83-19.45-1.57-2.93-.34-5.94,0-8.9-.16-9-.56-18-1.08-27.06-.86-6.65.16-13.28.91-19.92,1.35a38.85,38.85,0,0,1-9.68-.21c-4.27-.76-8.79-.21-13.2-.25a2.34,2.34,0,0,0-1.89.79c-3.08,3.6-6.92,6.55-9.81,11,4.76.16,9,1.05,13.37,1.08A179,179,0,0,1,164.25,174a27.43,27.43,0,0,0,3.38.33A135,135,0,0,1,191.7,177c5.57,1.12,11.28,1.08,16.78,2.3,12.85,2.86,25.62,6,37.64,11.61,3.06,1.44,6.39,2.23,8.49,5.29.61.88,1.09,1.47.87,2.56-1.12,5.39-2.19,10.8-3.28,16.2-.09.41-.13,1-.41,1.19-3.43,3-3.29,7.71-5.33,11.38-.41.74-.79,1.51-1.2,2.25-2.43,4.36-5.82,4.22-9.43,2.34-5-2.56-10.15-3.78-15.44-5-.68-.16-1.46,0-2-.52-3.21-2.92-7.33-3.51-11.3-4.52a7,7,0,0,1-2-.66c-5-3.1-10.77-4.16-16.13-6.27-5.63-2.23-11-4.79-17.18-5.31-1.09-.09-2-1-3-1.55-5.29-3.27-11.4-4-17.14-5.77a9,9,0,0,1-2.36-.93c-4.4-2.92-9.45-3.69-14.52-4.24a13,13,0,0,1-4.76-1.55c-4.15-2.15-8.37-4.19-12.61-6.15-4-1.85-5.26-1.34-7.68,2.34-2,3.07-4.17,6-6.34,9-1.09,1.49-1.52,2.66.46,3.81.82.47,1.35,1.43,2.29,1.84,10.23,4.44,20.43,9,30.71,13.28,3.9,1.63,7.4,4,11.57,5.16,10,2.65,19.3,7.3,29.21,10.21,8.52,2.5,17.09,4.75,25.77,6.65,5.21,1.14,10.33,2.55,15.7,2.8,2.85.13,4.07,1.28,4.64,4.14.66,3.33.32,6.54-2.5,8.93a5.44,5.44,0,0,0-1.71,1.83c-2.32,5-6.64,8-11.11,10.8a6.32,6.32,0,0,0-1.45.89c-4.44,4.86-10.11,8-15.68,11.28a4.43,4.43,0,0,1-5.11,0,175.48,175.48,0,0,0-17-9.61,1.48,1.48,0,0,1-.37-.21c-8.26-7.4-19.22-10.2-28.12-16.53-7.85-5.58-15.9-10.9-23.76-16.49a44.67,44.67,0,0,1-7.48-7A116.69,116.69,0,0,0,91.93,216Z"/></g></g></svg>