<svg xmlns="http://www.w3.org/2000/svg" viewBox="0 0 1466.27 1240.47"><defs><style>.cls-1{fill:#183a22;}</style></defs><title>Plant Transition 1</title><g id="Camada_2" data-name="Camada 2"><g id="Camada_6" data-name="Camada 6"><path class="cls-1" d="M337.42,534.65c-18-1.27-32.79-6.53-47.8-10.62-9.07-2.47-13.94.57-18.34,7.87-12,19.93-20.82,41.47-28.76,63.09-11.72,31.9-21.09,64.66-31.25,97.13-1.61,5.14-2.18,10.63-3,16-.5,3.36.35,7.16-.91,10.13-11.53,27.2-10.41,57.19-19.06,85-1.42,4.56-3.2,8.95-2.91,13.91,1.49,25.83-9.91,47.41-22.84,68.45-5.91,9.62-14.92,17.4-13.71,30.79.53,5.85-6,7.77-10.29,3.44-8.09-8.18-17.88-16.16-22.23-26.26C104.64,866.41,81.85,847,68.87,821c-2.13-4.25-4.65-8.33-6.53-12.68C49.7,779,37.8,749.39,24.45,720.45c-10.76-23.33-15-47.75-16.62-73-1.06-16.89-3.9-33.81-3.22-50.6C5,586.63,1.2,570.52,20.81,571c15.12-21.87,42-23.79,62.39-36.66,2.87-1.81,6.41-2.55,9.24-4.39,19.88-12.87,39.25-26.68,63-34.39-23.46-3.91-46.82-8.82-70.43-11.49-33-3.72-59.45-17.54-78.93-44.75-4.67-6.53-6.72-13.15-6-20.86C1.38,406,7.26,399.79,19.87,399.93c14.94.17,29.89-.18,44.83,2.43,30.16,5.26,60.49,9.55,90.75,14.3,2.73.43,5.34.94,8.76-2-8.2-13.57-20.69-23.82-31.08-35.82-12.84-14.83-25-30.3-34.62-47.41-7.26-13-5.78-18.08,4.21-28.68,1.84-2,4.11-3.75,5.3-6.07,17.56-34.27,45.79-60.22,69.36-89.83q31.83-40,66.42-77.42c18.35-19.91,39.29-37.14,62-52.26,10.72-7.14,21.47-14.23,32.1-21.36,12.84-8.6,27.28-11.49,40.76-17.38,11-4.81,16.49-1,17.29,11.45,1.56,24.36-.7,48.33-4.5,72.66-5.43,34.7-22.82,65.19-30.12,98.92-5.73,26.44-14.44,52-20.06,78.65-8.37,39.64-11.4,80.08-20.74,119.45-.94,3.95-1.87,7.91-3,11.8-4.53,15.18-3.07,18.23,11.58,21.55,9.19,2.08,18.53,3.52,28.47,5.37,9.3-70.35,25.13-138.49,42.57-206.09,19.09-74,46.81-145.25,78.39-214.87C491.69,8.27,512.63-.8,545.39.05c25.58.67,51.12,5.27,77,1.6,22.41-3.19,32.09,8,29.55,30.92-1.29,11.68-2.86,23-10.42,32.54-1.24,1.58-2.71,3.57-2.77,5.42C637.88,97,616.85,115.31,611,139.67c-5,21-21.45,34.43-33,51-13.28,19-25.64,38.51-35.89,59.37-3.28,6.66-7.89,12.71-12.24,18.8-9.92,13.91-18.72,28.3-25.11,44.32-7.82,19.6-17.16,38.57-29.39,55.95a21.3,21.3,0,0,0-2.87,5.41c-8.69,26.05-22.82,49.3-36.32,73-14.86,26.11-12.86,29.11,15.95,34.1,10.06,1.74,20.47,1.71,30.39,3.94,25.47,5.72,21.57,8.21,32.11-17.46,19.52-47.51,43.24-92.94,69.81-136.5,31.17-51.09,58.86-104.32,93-153.55,11.58-16.71,25.2-32,37.18-48.53,19.54-27,40.46-53,60.85-79.35,10-12.92,21.33-17.57,39-14.1C856,44.28,896,56.91,935.17,72.62,948.47,78,953.78,87,950.2,102c-2.67,11.16-6.22,22.17-12.52,32.24-17.36,27.73-40.55,50.57-61.27,75.51C858.71,231,837.19,249,823.49,273.8c-11,20-30.86,32.26-45.87,48.86-37.41,41.39-76.09,81.65-113,123.5-14.88,16.88-31.17,32.2-46.56,48.47-2.81,3-6.14,5.5-8.6,8.71-4.75,6.18-4,12.25,3.8,14.39,15.12,4.17,30.54,7.26,45.87,10.62,3.71.82,6.21-.82,8-4.49,15.29-31.21,42.8-52.66,63.76-79.37,48-61.1,110.85-106.24,168.34-157.16,37.2-32.94,76.29-63.51,115.67-93.76,17.82-13.68,34.12-29.33,51.51-43.59,19-15.58,34-13.75,55.76-2.31,29.34,15.42,53,37.83,78.77,57.57,10.52,8,22.93,15.7,20.52,32.44a6.78,6.78,0,0,0,2.24,5.5c12.13,8.28,6.35,19,4,29-2.52,10.89-8.1,19.1-17.84,26-22,15.46-47.07,24.24-70.63,36.28-34.06,17.4-70,30.59-104.12,47.67-56.93,28.54-115.64,53.37-172.71,84.34,10,4.18,19.1.81,27.84-1.35,19.89-4.93,39.86-8.88,60.38-9.9,6.78-.33,13.72-.75,20.25-2.43,49.17-12.68,99.21-16.26,149.75-14.84,17.12.49,33.81-2,50.61-5.22,60.25-11.71,121.09-18.11,182.54-18,4.09,0,8.53.89,12.19-.39,21.07-7.39,35.72,6.39,51.8,15.25,3.72,2,5.7,6.53,5.48,10.53-.65,11.78,5,20.68,11.4,29.68a46.83,46.83,0,0,1,8.38,20.71c1.44,10.37,6.15,19.48,11.22,28.36,7.12,12.46,12.48,25.73,11.93,40-1,25,.76,50.21-3.7,75.13-4,22.21-16.17,31.66-38.8,28.17-84.68-13.06-170-20.77-255.27-28a1074.42,1074.42,0,0,1-119.14-16.52c-55.18-10.94-110.65-21-166.72-26.75-6.46-.66-13.27-2.48-21.15,1.27,20.47,12.1,43.09,15,63.41,23.92,11.23,4.94,22.42,9.71,33.26,15.57a224.43,224.43,0,0,0,41.39,16.88c45.52,14,90.56,29.49,135.7,44.67,38.07,12.81,76.25,25.4,114,39.16,43.44,15.85,86,33.56,126.15,57.09,14.81,8.7,22.76,22.76,33.09,34.89,7.19,8.46,4.47,37.23-4.52,44.33-12.46,9.85-18,23.59-25.32,36.4-21.33,37.46-53.89,64.45-85.53,92.23-6,5.23-13.62,6.13-22.62,5.18-15.12-1.59-38.06-5.85-49-12.73-13.76-8.7-27.4-17.62-41.55-25.63-29.69-16.81-53.86-41-81.76-60.22-20-13.79-39-29.39-58.94-43.06-28.55-19.55-56.55-40.11-86.24-58a245.27,245.27,0,0,0-40.87-20.21c4,6.27,7.59,12.8,12,18.77C959.16,849.11,989,899.86,1015.26,953c15.71,31.77,31.65,63.25,44.67,96.32,6.28,16,8.5,32.84,15.25,48.56,4.29,10-5.07,23.14-18.62,27.2q-36.15,10.83-72.74,20.16c-15.13,3.85-30.59,6.5-46,9.41-14.37,2.73-28.13,0-42.07-4-9.41-2.74-7-12.39-13-17.15-11.19-8.94-15.58-22.45-18.36-35.74-2.7-12.88-7.58-24.71-12.74-36.56-12.5-28.75-20.85-58.85-29.78-88.8-4.06-13.58-11.32-26.17-16.1-39.57-14.56-40.83-29.31-81.64-47.33-121-13.27-29-29.12-56.84-43.57-85.32-7-13.82-13.75-27.29-17.4-43.08-4.69-20.32-15.64-39.19-23.8-58.73a11.3,11.3,0,0,0-7-6.86c-21.74-6.79-42-18.17-67.15-22.47,8.32,21.28,12.39,41.65,20.5,61a861,861,0,0,1,39.26,118.11,123.29,123.29,0,0,0,4.93,15.52,648.78,648.78,0,0,1,33.9,111.13c5.57,26.69,16.55,51.83,21.55,78.42,11.66,62.06,21.93,124.36,19.85,188-.53,16.22,2.26,32.38-7.27,47.46-2.74,4.33-4.44,7.58-9.66,8.64-25.92,5.27-51.79,10.77-77.69,16.13-2,.41-4.42,1.22-6,.47-19.85-9.42-40.27,0-60.31-2-4-.42-8.12-.62-12.17-1-23.86-2.48-29.61-17.71-28.17-37.18,2-26.67-2.47-52-7.11-77.57-.6-3.3-2.7-6.46-1.52-9.89,6.8-19.67,1.61-39-1.43-58.39-.52-3.33-1.37-6.82-.87-10.06,4.26-27.92-2-55.39-2.77-83-.83-29.07.26-57.79-9.07-85.85-1.65-5,.49-10.89,1.25-16,4.42-29.51-4-57.77-6.93-86.55-.41-4-1-8.24-.33-12.14,4.55-25-1.57-48.67-8.72-72.07-2.49-8.13-2.78-15.65-2.17-23.94,1.66-22.38,2.68-44.82,3.3-67.26.59-21.22-4-25.75-24.78-29.45-17.36-3.08-34.59-7-51.77-11-8.64-2-14.59-1.69-15.9,9.22-.55,4.49-3.79,8.65-3.81,13.57-.26,53.53-1,107.06-.58,160.58.16,20.27-3.92,40.32-.93,60.77,7.19,49.11,4.23,99,10.12,148.21,5.07,42.3,11.32,84.35,19.34,126.24,4.82,25.15,8.25,50.38,17.3,74.57,4.81,12.83,2,20.37-9.5,28.26C428,1187.41,413.17,1192,397.3,1184c-3.69-1.84-7-4-11.3-4.07-26.55-.73-47.81-14.19-68.65-28.64-2.24-1.56-4.19-3.86-6.66-4.72-29.84-10.4-54.34-29.5-79.39-47.84-8.13-6-11-12.76-9.44-22.63,4.72-30.92,8.94-61.91,10.25-93.21a7.57,7.57,0,0,1,.22-2c17-50.42,8.68-104,19.8-155.26,9.81-45.21,18.05-90.76,27.88-136,3.46-15.93,9.46-31.29,16.54-46.15C313,609.06,327.78,574,337.42,534.65Z"/></g></g></svg>