<svg xmlns="http://www.w3.org/2000/svg" viewBox="0 0 226.6 347.72"><defs><style>.cls-1{fill:#1a573b;}</style></defs><title>Plant Left Back 4</title><g id="Camada_2" data-name="Camada 2"><g id="Camada_14" data-name="Camada 14"><path class="cls-1" d="M22.3,160.9a1.66,1.66,0,0,1-.13.59c-1.13,4.52-.57,9.07-.34,13.63s.54,8.86.41,13.32c-.11,3.48-1.34,6.72-1.49,10.13a9.4,9.4,0,0,1-.81,3.54q-4.32,9.52-8.76,19c-1.25,2.66-2.37,5.35-3.37,8.12-.44,1.19.54,2.19.09,3-1.63,3-1.4,6.34-1.63,9.47A36.87,36.87,0,0,0,6.89,250a49.15,49.15,0,0,1,.58,8.73C7.26,266.76,5,274.38,2.8,282,2.1,289.78.51,297.57.1,305.42a.67.67,0,0,1,0,.2A55.92,55.92,0,0,0,.6,317.16c.05.3.07.59.09.88s.16.52.21.77c.32,1.4,1.67,3,.44,4.83-1.8,2.65,2.63,1.14,2.21,3,0,.18.11.4.08.6a6.7,6.7,0,0,0,.13,2.5,34.34,34.34,0,0,0,12.1,11.06,7.27,7.27,0,0,1,1.19.8,45.23,45.23,0,0,1,10.84,3.3A10.61,10.61,0,0,0,31,346c4.69.61,9.43.63,14.14,1.18,3,.35,6,.14,9.07.46a8.17,8.17,0,0,0,2.41-.11,95.78,95.78,0,0,0,24.09-8.1c9.71-4.77,17.6-11.27,23.05-20.87a232.76,232.76,0,0,0,13.87-28,24.9,24.9,0,0,1,2.79-5.7c4.46-6,10-10.93,15.62-15.76a68.57,68.57,0,0,0,12.85-14.06c3.25-5,6-10.17,6.8-16.09a178.93,178.93,0,0,0,1.71-18.79c.07-2.83.3-5.64.16-8.5a20.33,20.33,0,0,1,3.78-13.5,89.52,89.52,0,0,1,7.4-8.88c4.23-4.43,9.47-7.63,14-11.68,9.6-8.55,15.54-18.95,15.92-32,.3-10.22,5.12-18.35,11-26.09,3.45-4.51,7.49-8.54,10.68-13.26A32.8,32.8,0,0,0,226,92.69a68.83,68.83,0,0,0,.59-10,34.22,34.22,0,0,0-4-16.92,35.57,35.57,0,0,1-2.33-4.61,49.3,49.3,0,0,0-4.39-9c-1.77-2.77-2.53-6-4.36-8.84-3.31-5.17-5.56-11-8.43-16.48-2.31-4.42-3.8-9.15-5.8-13.69-1.24-2.83-3.51-5.18-4-8.38A1,1,0,0,0,192.15,4c-1.58.24-1.77-.78-2.05-2C189.55-.3,188.8-.5,186.74.8a40.86,40.86,0,0,1-6.26,3.68C177.54,5.67,174.22,6,172.24,9a1.71,1.71,0,0,1-.73.53c-2.93,1.1-5.6,2.79-8.62,3.7-2.41.72-5,1.28-7.1,2.54a46.83,46.83,0,0,1-16.35,6.12,10.49,10.49,0,0,0-2.27.83c-3.25,1.36-6.35,3.11-9.91,3.61-1.08.15-2.23.05-3.2.74a36.17,36.17,0,0,1-5.9,3.54,11,11,0,0,0-5,4.09c-1.45,2.29-4.37,2.77-6.5,4.25-5.14,3.58-10.15,7.36-15.47,10.69a6,6,0,0,0-1.51,1.88c-1.36,1.9-2,4.25-3.27,6.11A73.16,73.16,0,0,0,80,68.54,26.45,26.45,0,0,0,77.75,77c-.46,4.17-.91,8.4-2.94,12.27a12.81,12.81,0,0,0-1.7,4.51c-.25,2.32-.61,4.62-.88,6.93A10.65,10.65,0,0,1,70.14,106a26.4,26.4,0,0,0-2.53,4.48,24,24,0,0,1-2.15,3.67,8.6,8.6,0,0,0-1.8,3.76,5,5,0,0,1-3,3.94,10.89,10.89,0,0,0-3.37,2.54A19.05,19.05,0,0,1,52.41,128a50.64,50.64,0,0,0-5.55,3.17c-3.75,2.56-7.49,5.14-11.08,7.92-3.35,2.6-6.75,5.29-8.9,9C24.62,152.09,21.43,155.79,22.3,160.9Zm-.66,71.93c1.25-2.32,2.46-4.65,3.49-7.07.37-.89,1.16-.6,1.83-.67,4.43-.43,8.89-.33,13.31-.9,11.34-1.48,22.67-2.94,34.38-6.19a9.81,9.81,0,0,0-2.22,4.8,61.65,61.65,0,0,1-2.2,6.91c-.44,1.35-1.19,1.64-2.51,1.52a95.91,95.91,0,0,0-18.17,0c-2.71.27-5.37.88-8.08,1.16-6.23.63-12.48,1.12-18.71,1.77C21.4,234.31,21.22,233.61,21.64,232.83Zm4.44,96a1.36,1.36,0,0,1-1.6.44c-1.54-.4-3.19-.52-4.91-1.92l9-6.92C28.79,322.58,27.2,327.49,26.08,328.88ZM35,307c-4.79,4.22-9.62,8.39-14.43,12.59-1.68,1.47-3.37,2.93-5,4.44-1,1-1.61.49-2-.6a23,23,0,0,1-.58-2.35c-.92-4.2,0-5.86,4.06-7.42,2.65-1,5.3-2,7.86-3.24,3.65-1.79,6.81-4.32,10.21-6.49.42-.26.74-.71,1.48-.46C37,305,36,306.07,35,307Zm3.88-10.45c-2.79,1.45-5.47,3.07-8.58,3.84A50.76,50.76,0,0,0,16,306.87a11.3,11.3,0,0,1-1.59.89,1.17,1.17,0,0,1-1.74-.64c-.61-1.34-.27-6.55.82-7.3a12.28,12.28,0,0,1,3.83-1.68,52.31,52.31,0,0,0,8.55-3.44c1.21-.58,2.69-.51,4-1a75.6,75.6,0,0,0,10.89-5.22,5.37,5.37,0,0,1,2.61-1c-.87,2.53-1.92,4.61-2.51,6.86A3.61,3.61,0,0,1,38.88,296.54Zm10.17-19.87a3.71,3.71,0,0,1-2.45,2c-6.36,2.26-12.66,4.66-19,6.89-3.12,1.09-6.32,1.95-9.51,2.8-1.32.34-1.84-.26-1.63-1.68a16.36,16.36,0,0,1,1.44-4.61,4.78,4.78,0,0,1,3.59-2.76,118.64,118.64,0,0,0,22.78-7.77c3-1.38,6.11-2.58,9.2-4.13C52,270.51,50.47,273.57,49.05,276.67Zm8.28-17.08a2.22,2.22,0,0,1-1.8,1.42c-1.42.2-2.65,1.05-4,1.39-6,1.53-11.34,4.78-17.57,5.53a58.76,58.76,0,0,0-8.84,2.25,11.28,11.28,0,0,1-4,.45c-.25-1.71.38-3.43-.18-5.13-.32-1,.59-1,1.31-1.19,4.74-1.08,9.38-2.5,14-3.89a85.62,85.62,0,0,0,19.34-8,7.91,7.91,0,0,1,4.87-1.52A34.16,34.16,0,0,1,57.33,259.59Zm7.53-16.78c-.61,1.31-1.85,1.55-3,1.81-3.25.76-6.48,1.6-9.72,2.35-3.66.84-7.12,2.2-10.67,3.32a122.6,122.6,0,0,1-20.26,4.82c-1.09.15-1.79,0-1.67-1.36a9.8,9.8,0,0,0-.2-1.5c-.14-1.93-.38-4.07.41-5.71.88-1.85,3.31-1.11,5-1.22,10.17-.7,20-3,29.87-5.46,4.31-1.07,8.54-2.46,12.81-3.71l.47.46C66.88,238.67,65.83,240.72,64.86,242.81Zm13.35-29.67a2,2,0,0,1-2.57.83c-3.35-1.16-6.81-.58-10.23-.54-8.92.08-17.73,1.73-26.65,2-2.2.07-4.42.18-6.77.35-.15-1.82.73-3.18,1.52-4.53.91-1.58,2.12-3,2.67-4.76.35-1.13,1.23-1.15,2.21-1.1,3.75.23,7.49.44,11.26.38a112.77,112.77,0,0,1,12.18.51c5.8.54,11.54-.18,17.31-.41l3-.09A22.51,22.51,0,0,1,78.21,213.14Zm-7.52-10.81c-1.32-.25-2.6,0-3.9-.11-5-.54-10.07-1.09-15.13-1.4-3.62-.22-7.25-.72-10.9-.31-.5.06-1,0-1.52,0-1.5.05-2.21-.47-2.05-2.14.2-2-.38-4-.72-6.3,3.4,1,6.74.15,10.06,1.05,2.22.59,4.65.52,7,1,7.67,1.54,15.49,1.59,23.23,2.37,1.81.19,3.59.3,5.4.32,1,0,2-.21,3.07.68a36.75,36.75,0,0,0-1.91,6C79.05,203.12,74.83,203.1,70.69,202.33Zm21.55-20.11a14.07,14.07,0,0,0-1.16,2.13c-.4.69.06,1.84-.81,2.16a5.32,5.32,0,0,1-3.58-.12c-2.49-.85-5-1.55-7.48-2.55-5.1-2.08-10.54-2.88-15.83-4.18a225.32,225.32,0,0,0-26.77-5.39c-1.34-.17-1.72-.7-1.59-1.94s.14-2.64.26-4c.17-1.93.28-2.2,2.25-1.63,4.67,1.37,9.5,1.94,14.21,3.14,6,1.54,12.17,2.78,18.28,4.06,4.36.92,8.72,1.84,13.12,2.48,3.6.53,7.15,1.49,10.93,1.32A7.35,7.35,0,0,1,92.24,182.22ZM41.75,333.65A21.32,21.32,0,0,1,36.57,332c-1-.35-1.11-.94-.56-1.88a53.12,53.12,0,0,0,5.53-13.73,21.39,21.39,0,0,1,1.86-3.66c.59,6.75,1.26,12.83.83,19C44.07,334,44.05,333.88,41.75,333.65Zm18.64.85a62.2,62.2,0,0,1-7.84-.19c-1.49-.16-2.08-.51-1.88-2.24.52-4.33-.19-8.68-.41-13-.17-3.33-.09-6.66-.26-10-.16-3-.56-6-.42-9.09a10.14,10.14,0,0,1,.39-2.9c1.09-3.23,2.1-6.49,3.28-10.2,2.17,7.06,2.46,13.85,3.62,20.51.78,4.47,2.37,8.77,2.9,13.3A87.38,87.38,0,0,0,62,332.26C62.49,334.12,62.17,334.46,60.39,334.5Zm17.22-5.94a61.18,61.18,0,0,1-8.68,3.67c-2.06.69-2.48.45-2.55-1.77-.06-1.82-.21-3.64-.21-5.44a39.49,39.49,0,0,0-1.3-8.69,98.06,98.06,0,0,1-1.8-11.68,68.32,68.32,0,0,0-4.26-17.31c-.9-2.36-2.41-4.77-2.08-7.2s1.92-4.62,3.1-7.24c1.61,3.91,3,7.37,4.45,10.8,2,4.55,4.13,9,5.93,13.63s3.31,9.12,4.71,13.76A45.87,45.87,0,0,1,77,320.87a11.81,11.81,0,0,0,1.65,4.52C79.74,327.39,79.69,327.49,77.61,328.56Zm19.14-25.38c-1.85,2.73-3.21,5.8-4.8,8.71-.53,1-1.12,1.88-2,3.38-1.2-3.67-3-6.46-4.19-9.47-2-5-4.48-9.75-6.69-14.64-3.8-8.41-8.5-16.34-12.94-24.41-.54-1-.9-2-1.42-3a2.37,2.37,0,0,1,0-2.31,70.29,70.29,0,0,0,3-8.58c.54-1.62,1.34-3.15,2.14-5A220.11,220.11,0,0,1,81.2,269.9a36.57,36.57,0,0,0,3.23,5.85,30.27,30.27,0,0,1,2.84,5c2.34,5.54,6.13,10.2,9.29,15.24C98.1,298.46,98.53,300.57,96.75,303.18ZM105,284.65c-3.29-5.62-6.52-10.87-9.88-16a28.17,28.17,0,0,0-7.46-8.32,5.29,5.29,0,0,1-1.58-1.79,55.29,55.29,0,0,0-12.62-15.07,2.78,2.78,0,0,1-.84-3.8c.53-1.2,1.1-2.39,1.78-3.87a15,15,0,0,1,3.72,3.86c5.88,7.53,12.63,14.26,19,21.31,4,4.41,7.85,8.93,11.44,13.69A20.9,20.9,0,0,0,111.2,277,49.29,49.29,0,0,0,105,284.65Zm16.67-17.3a18.32,18.32,0,0,1-2.83,2.46c-3.33-3.32-6.15-6.88-9.12-10.3-5-5.73-10.22-11.25-15.06-17.1a136.67,136.67,0,0,0-11.27-12.29c-1.32-1.25-2.71-2.42-4.12-3.57-.59-.48-1.08-.79-.66-1.7,1.31-2.82,2.53-5.68,3.87-8.71a59.56,59.56,0,0,1,7.64,8.11A131.85,131.85,0,0,0,102.53,238c.87.81,1.46,1.92,2.29,2.8,1.73,1.83,3.13,3.92,5.12,5.56,2.43,2,3.93,4.87,5.94,7.28,1.89,2.25,3.76,4.51,5.64,6.76.2.23.42.45.6.69a8.29,8.29,0,0,1,1.89,3.44C124.29,266.08,122.46,266.36,121.7,267.35Zm13.54-11.89c-3.15,4.39-3.6,4.51-6.81.39-5.79-7.46-12.11-14.48-18.52-21.39a143.51,143.51,0,0,0-15.32-14.77,67.81,67.81,0,0,1-6.49-6c-.85-.88-2.78-.57-2.68-2,.07-1.11,1.08-2.13,1.6-3.23,1-2,1.85-4,2.81-6.15A11,11,0,0,1,94,207.07a12.58,12.58,0,0,0,2.36,3.47c4.18,3.72,7.51,8.3,11.69,12,7.51,6.62,13.73,14.41,20.36,21.82,2.35,2.62,4.22,5.69,6.71,8.22C136.12,253.54,136.05,254.33,135.24,255.46Zm-52-153.65c.4-1.13,1.2-1.17,2.17-1.11a47,47,0,0,1,7.44,1.52c3.46.75,6.84,1.9,10.3,2.62,4.45.91,8.95,1.53,13.42,2.31,3.37.59,6.74,1.18,10.09,1.86,1.68.34,1.84.75,1.17,2.27-1,2.23-2.58,4.14-3.46,6.43-.38,1-1,1.26-2.17.76-6.14-2.75-12.74-4-19.22-5.53-4.91-1.19-9.85-2.25-14.73-3.54-2.33-.62-4.56-1.66-7-2.59C82,105,82.69,103.41,83.27,101.81Zm14.84,84.12A15.07,15.07,0,0,1,99.46,184a182.29,182.29,0,0,0,16.81,10.94c9.3,5.35,18.51,10.86,27.35,17a3.91,3.91,0,0,1,2.07,3.7c-.18,3.22-.4,6.45-.63,10.24-2.75-1.87-4.25-4.07-6.14-5.87-2.81-2.67-6.09-4.69-9.13-7-.43-.33-.85-.45-1.21-1a11.51,11.51,0,0,0-3.73-3.51,81,81,0,0,1-7.23-5.55c-3.33-2.65-6.74-5.2-10.25-7.6-2.93-2-5.75-4.14-8.58-6.28C96.69,187.4,97.22,187.68,98.11,185.93Zm3.86-7.07c.69-1.23,1.19-2.57,1.9-4.12,2.9,1.81,5.82,3.52,8.62,5.4,5.65,3.77,11.38,7.42,17,11.3,2.47,1.72,5.4,2.77,8.12,4.14,2.44,1.24,4.86,2.5,7.29,3.74a2.27,2.27,0,0,1,1.49,2.48,41.65,41.65,0,0,1-.9,7,5.59,5.59,0,0,1-2.85-1.62c-5.56-4.45-11.88-7.76-17.83-11.64-1.52-1-3.24-1.74-4.67-2.85-5.47-4.26-11.58-7.51-17.38-11.25C101.48,180.65,101.27,180.09,102,178.86Zm59.58,2.44c-.65.47-1,1.32-2,1.56A156.82,156.82,0,0,0,150.42,169c-2.68-3.56-5-7.45-7.94-10.75s-5.93-6.65-8.72-10.12c-2.41-3-4.82-6-7.16-9-1.83-2.39-1.78-2.42,0-5.29a4.41,4.41,0,0,1,1.91,2.18c4,6.88,9.32,12.73,13.9,19.15,3.94,5.52,8.12,10.87,11.94,16.49a14.81,14.81,0,0,0,4.35,4.61,21.36,21.36,0,0,1,3,2.61C162.63,179.7,162.64,180.51,161.55,181.3Zm-26.4-23.86c2.59,3,4.84,6.26,7.25,9.39,1.67,2.15,3.14,4.44,5.43,6.1a11.18,11.18,0,0,1,2.51,3.4c1.53,2.48,3,5,4.45,7.53,1.7,2.86,1.71,2.85-.72,5.7a38.32,38.32,0,0,1-6.08-8.18,142.13,142.13,0,0,0-8.82-12.74c-4.71-6.47-9.49-12.9-14.27-19.33-.85-1.14-1.8-2.2-2.76-3.26-1.14-1.25-1.35-2.42.25-3.63C126.26,147.75,130.85,152.47,135.15,157.44Zm-19.34,4a62,62,0,0,0,5.18,4.67c6.31,5.07,12.66,10.1,18.84,15.34,3.78,3.2,7,7,10.92,10.08.32.25.69.44.71.92a12.26,12.26,0,0,1-2.38,3.42c-.57.23-1-.1-1.35-.44-4.91-4.69-10.58-8.46-15.74-12.86-6.77-5.77-13.56-11.52-20.43-17.17-1.33-1.09-1.34-1.91-.55-3.28C113.05,158.67,112.47,158.13,115.81,161.48ZM137.28,95c-.25.31-.47.66-.74,1-2.23,2.49-4.34,5.06-5.36,8.32-.31,1-.77,1.17-1.81.78-11.86-4.46-24.31-6.89-36.47-10.36a24.58,24.58,0,0,0-4.24-.39c-2.73-.26-3.1-.65-2.46-3.18a20.1,20.1,0,0,0,.65-3.58c.12-1.49.55-2.4,2.31-1.68a34.94,34.94,0,0,0,9.32.62c3.58,0,7,1.19,10.46,1.84,5.26,1,10.49,2.14,15.73,3.24,1.09.23,2.15.6,3.24.77,2.78.45,5.52,1.42,8.4.69a1.25,1.25,0,0,1,1.39.37C138.15,94,137.68,94.51,137.28,95ZM77,114.74c.61-1.39,1.38-1.82,2.83-1.34,6.54,2.16,13.34,3.27,20,4.95,4.5,1.14,9.08,2,13.6,3.06,2.07.49,4.1,1.13,6.15,1.69.9.25,1.49.67,1.13,1.73-1.1,3.24-2.19,6.49-4.41,9.23a234.88,234.88,0,0,0-42.16-13.78C75.17,118.29,76.19,116.56,77,114.74ZM144.1,237.05c-3.88-2.28-7.18-5.3-10.8-7.87-7.46-5.29-14.15-11.51-21.16-17.35C105.92,206.64,100,201,93.26,196.64c0-.31-.06-.53,0-.67,1.65-3.13,1.74-3.24,4.61-1.07,3.71,2.81,7.76,5.15,11.28,8.23a33.57,33.57,0,0,0,4.47,3.15,25,25,0,0,1,4.79,3.71c2.41,2.51,5.45,4.16,8.36,6a29,29,0,0,1,6.87,5.51,16.72,16.72,0,0,0,5.25,4.08,16.09,16.09,0,0,1,3.47,2.44c1.55,1.42,3,2.7,1.85,5.15C143.71,234.29,144.92,235.68,144.1,237.05Zm21.31-59.88c-.84-.35-1.32-1.25-1.93-2-5.09-6.56-9.58-13.57-14.46-20.29-4.46-6.15-8.84-12.33-12.84-18.8-1.37-2.21-2.89-4.39-4.45-6.5-1.22-1.66-1.54-3.24.1-4.92a1.83,1.83,0,0,1,1.65,1c5.3,6.89,11.32,13.19,16.45,20.22,3.84,5.23,7.09,10.86,10.59,16.31A111.91,111.91,0,0,0,169,174.23Zm12.11-10c-4,3.65-2.84,3.5-6.25-.33-2.57-2.88-4.17-6.46-6.55-9.5-3.5-4.47-6.7-9.17-10-13.77-1.18-1.65-2.47-3.24-3.5-5-2-3.43-5.15-5.95-7.52-9.11-1.76-2.35-3.66-4.62-5.27-7.07-1-1.47-1.74-3-4-3.08a33.57,33.57,0,0,1,3.22-6.09,130.48,130.48,0,0,1,10.6,12.54c2.62,3.35,5,6.88,7.58,10.26,2.94,3.85,5.38,8.09,8,12.21a23.08,23.08,0,0,0,3.49,4.56c2.75,2.6,4.43,6,6.71,9,1.23,1.61,2.78,3,3.64,4.9C177.62,166.8,177.63,167.05,177.52,167.15Zm3-3.69a4.47,4.47,0,0,1-2-2.11c-4.22-6.55-8.72-12.92-12.52-19.76a119,119,0,0,0-7.62-11.35c-4.79-6.66-9.69-13.24-14.56-19.85a15.23,15.23,0,0,0-1.6-1.81c-1.76-1.78-1.77-1.77-.66-4.12a33.76,33.76,0,0,1,3.12-5c1.15,1.86,2.32,3.5,3.23,5.28a105.27,105.27,0,0,0,5.81,9.61,33.33,33.33,0,0,0,4.79,6.28,1.75,1.75,0,0,1,.4.46c2.74,5.1,6.85,9.25,9.75,14.28,1.75,3,3.89,5.89,5.83,8.84,2.32,3.55,4.83,7,7.16,10.53C183.72,157.82,183.39,160,180.56,163.46Zm4.91-141.55c.1-.14.35-.18.74-.37.16.45.3.73.37,1,2.07,9,6.78,16.84,11.19,24.77,1.86,3.33,4.71,6.05,7,9.14a33.87,33.87,0,0,1,4,8.08c.75,1.9,1.88,3.74,2.3,6.39a28,28,0,0,1-4.73-4.82,73.92,73.92,0,0,0-7.54-8.37c-2.08-2-3.51-4.46-5.33-6.64-4.37-5.21-8.61-10.53-12.94-15.76-.61-.74-1.25-1.35-.78-2.39A68.26,68.26,0,0,1,185.47,21.91ZM175.32,42.79c.84-1.49,1.06-3.28,2.52-5.07a163.07,163.07,0,0,0,9.48,13.76,73.37,73.37,0,0,0,8.59,10.62c1.9,1.81,3.38,4.05,5.1,6,3.25,3.77,7.07,7,10.69,10.32a7.73,7.73,0,0,1,2.62,5.8c.05,3.24-.35,6.48-.56,9.73a4.26,4.26,0,0,1-1.39,2.58c-1-1.36-1.9-2.6-2.71-3.93A159.7,159.7,0,0,0,193.25,70a109,109,0,0,1-7.52-10c-2.67-3.81-5.49-7.52-8.27-11.27-.3-.4-.69-.74-1-1.12-.72-.81-2.33-.91-2.32-2.17A6.55,6.55,0,0,1,175.32,42.79Zm-6.87,12.3c.88-1.34,1.64-2.75,2.65-4.46,4.5,6.43,8.5,12.76,13.16,18.56,3.28,4.09,6.88,8,10.2,12q5.44,6.72,10.74,13.54c1.3,1.68,2.39,3.53,3.71,5.2.72.92.58,1.46-.1,2.33-1.5,1.9-3.46,3.36-4.63,5.51-7.27-9.67-14.57-19-21.93-28.32-4.35-5.49-8.61-11-12.9-16.59-.12-.16-.2-.35-.33-.51C166,58.83,166,58.84,168.45,55.09ZM161.88,67.6c.44-.8.87-1.6,1.28-2.37,1-.23,1.27.53,1.68,1.06,5,6.3,9.88,12.63,14.85,18.91a176,176,0,0,0,17.74,19.59,46.21,46.21,0,0,1,3.81,4.72,1.44,1.44,0,0,1-.05,2.13c-1.49,1.79-2.9,3.65-4.36,5.5a7.36,7.36,0,0,1-1.92-2.45,54.46,54.46,0,0,0-8.11-11.31,73.57,73.57,0,0,1-4.66-6c-3.79-5.26-8.45-9.8-12.52-14.83-2.56-3.15-4.91-6.44-7.33-9.69C160.42,70.34,160.35,70.39,161.88,67.6ZM157.54,76c1-.22,1.33.65,1.76,1.28a121.08,121.08,0,0,0,10.25,12.36c2.76,3.1,4.88,6.73,7.71,9.8,1.92,2.08,3.59,4.37,5.6,6.39,1.19,1.18,1.78,3,2.91,4.21,2.94,3.24,5,7,7.33,10.7.25.42.68.76.34,1.34-1.37,2.3-2.12,5-4,7.12-3.15-4.25-6.52-8-9.47-12.11a22.46,22.46,0,0,1-3.69-7.26c-.86-3.2-2.65-5.87-4.34-8.61-3.51-5.67-7.57-11-10.65-17-1.19-2.3-3-4.29-3.77-6.85C157.4,77,157.08,76.52,157.54,76Zm-3.83,10.49c1.81,1.79,4.19,3.13,4,6.33-.1,1.3,1.23,2.29,2,3.3a23.13,23.13,0,0,1,2.46,4.12c2.35,4.66,4.06,9.68,7.09,14,2.22,3.14,4.85,6,6.53,9.5,1.26,2.64,2.8,5.13,4.13,7.73a40.61,40.61,0,0,0,4.59,6.41,4.79,4.79,0,0,1,1.24,3.86c-.29,2.32-.32,4.66-.47,7a2.82,2.82,0,0,1-1.13,2.24c-1.42-2.84-2.82-5.62-4.22-8.4a177.26,177.26,0,0,0-10.47-17.8c-3.8-5.75-7.19-11.72-10.58-17.72a77.05,77.05,0,0,0-9.53-13.68,1.66,1.66,0,0,1-.27-2.35c.87-1.36,1.63-2.8,2.45-4.2C152.12,85.81,152.82,85.63,153.71,86.51Zm-10.44-47c4.54-1.38,8.87-3.3,13.24-5.12,2.52-1,5.17-1.79,7.66-2.91a62.71,62.71,0,0,0,10.59-6c.49.55.39.89.23,1.11-2.31,3.1-2.92,7.1-5.33,10.15a3.58,3.58,0,0,0-.63,1.37c-.95,4.27-4,7.45-5.94,11.18a1.4,1.4,0,0,1-1.72.75Q149.69,48.29,138,46.7c-2.61-.35-5.26-.41-7.89-.59a13.16,13.16,0,0,1-2.89-.41A107.75,107.75,0,0,1,143.27,39.52ZM108.79,55a14,14,0,0,0,2.82-1.8c1.8-1.9,3.9-2.14,6.37-1.91,6.15.6,12.34.88,18.49,1.48,5.64.55,11.26,1.37,16.89,2,1.31.15,2.64,0,3.95.11,1.9.1,2.39.95,1.31,2.47a41.21,41.21,0,0,0-4.2,7.72c-1,2.4-1.71,2.64-4.21,2.44-6.59-.55-13-2.27-19.46-3.35-4.6-.77-9.19-1.56-13.79-2.32l-14.38-2.33A46.16,46.16,0,0,1,108.79,55ZM94.42,66.39a2,2,0,0,1,2.38-.88c1.53.24,3,.11,3.82-1.78.45,2.33.45,2.3,2.11,2.58,5.28.91,10.54,2,15.84,2.75a59.68,59.68,0,0,1,8.08,1.32,1.57,1.57,0,0,0,1.91-.54c1-1.43,2.16-1.16,3.34-.37,2.33,1.54,5,1.12,7.56,1.38,3.15.32,6.29.87,9.49.5.8-.09,1.34.37.75,1.33a40.25,40.25,0,0,0-3.38,7.44c-1,2.75-2.83,4-6,4A82.06,82.06,0,0,1,118,80.3a114.44,114.44,0,0,0-18.88-4.18c-3-.37-5.93-1.88-9.34-2.5C91,70.7,93.09,68.78,94.42,66.39ZM65.31,130.82a30.84,30.84,0,0,0,3.8-3.48,2.62,2.62,0,0,1,3.13-1.09c2.16.54,4.34,1.07,6.45,1.79,4,1.37,8.17,2.26,12.17,3.64,5.35,1.85,10.83,3.25,16.23,4.95,2.2.68,4.64.69,6.55,2.36-.86,2.83-2.83,5.11-3.87,7.84-.44,1.15-1.27.59-2,.3-6.42-2.49-12.83-5.06-19.44-7-8.54-2.47-17-5.24-26.3-6C62.91,132.54,64.26,131.81,65.31,130.82Zm-20.56,15c2.78-2,5.49-4.15,8.46-5.93a6.25,6.25,0,0,1,4.65-.85c4.84,1,9.82,1.34,14.43,3.41,2.4,1.09,5.09,1.35,7.65,1.85,5,1,9.72,2.87,14.7,3.85,3.68.73,7.32,1.58,11,2.43,1.87.43,2.32.77,1.38,2.64-1.44,2.88-2.68,5.85-4.07,8.91-1.48-1.48-3.27-1.68-4.86-2.28-5.79-2.17-11.65-4-17.9-4.55a52.64,52.64,0,0,1-9.5-1.92,194.06,194.06,0,0,0-21.32-4.74,47.56,47.56,0,0,0-6.36-.3A3.49,3.49,0,0,1,44.75,145.77Zm-7.11,10.3c.49-1,1.18-1.71,2.33-1.22,5.42,1,10.61,2.51,15.92,3.54,7.43,1.44,14.79,3.23,22.19,4.82a13.45,13.45,0,0,1,3.76,1.15,39.28,39.28,0,0,0,13.5,4.3,6.86,6.86,0,0,1,1.49.34c1.08.42,1.54.92.89,2.26-1.59,3.32-1.49,3.31-5.26,2.68a28.57,28.57,0,0,1-4.36-1.25c-5-1.65-10.28-2.22-15.4-3.41-5.8-1.34-11.4-3.47-17.28-4.52-6.06-1.09-11.9-3.28-18.12-3.56-1.27,0-1.59-.7-1.13-1.8S37.1,157.15,37.64,156.07Z"/></g></g></svg>