<svg xmlns="http://www.w3.org/2000/svg" viewBox="0 0 379.06 146.27"><defs><style>.cls-1{fill:#502677;}</style></defs><title>ponto-do-acai-default</title><g id="Layer_2" data-name="Layer 2"><g id="Layer_1-2" data-name="Layer 1"><path class="cls-1" d="M154.54,39.74c-.46-.51-.88-1.05-1.29-1.6-.17-.24-.36-.47-.53-.71s-.28-.47-.42-.7A23.18,23.18,0,0,1,150.44,33c-.1-.26-.19-.51-.28-.77s-.19-.49-.27-.74q-.3-1-.51-2a21.1,21.1,0,0,0-24.81,4.23l-.45.5c-.25.28-.51.55-.75.84a21.21,21.21,0,0,0-2.6,4.12c-.16.32-.32.62-.46.95s-.23.62-.35.93a21.3,21.3,0,0,0-1.14,4.61c0,.27-.07.55-.1.83s0,.58,0,.88,0,.69,0,1a21.1,21.1,0,0,0,1.45,7.64c.07.18.13.37.2.56.16.36.34.71.51,1.06a21.15,21.15,0,0,0,34.74,5,22.67,22.67,0,0,1-1-23Z"/><path class="cls-1" d="M278.2,4.69a2,2,0,0,0-2-1.42,2.46,2.46,0,0,0-.53.06c-15,3.35-30.53,6.85-46.2,10.48a21.92,21.92,0,0,1,1,4.14l6.43-1.48c13.1-3,26.65-6.14,40-9.29A1.77,1.77,0,0,0,278,6.32,2.07,2.07,0,0,0,278.2,4.69Z"/><path class="cls-1" d="M1.6,82.94c-.46.25-1.93,1.18-1.53,2.56a2,2,0,0,0,2.39,1.42c11.71-5.2,23.49-10,35.32-14.52a22.73,22.73,0,0,1-2-4.65A290.64,290.64,0,0,0,1.6,82.94Z"/><path class="cls-1" d="M103.61,65.61A22.75,22.75,0,0,1,86,57.28c-.2-.23-.36-.48-.54-.72L85,55.93a22.89,22.89,0,0,1-2.27-4c-.11-.24-.2-.49-.3-.75s-.19-.49-.28-.74l-3.81,1.18c.12.24.24.47.35.72s.19.5.29.75a21.5,21.5,0,0,1,1.21,4.4c0,.24.09.49.12.74s.1.57.12.86c.07.74.11,1.48.11,2.24A22.84,22.84,0,0,1,67.08,82.11a21.18,21.18,0,0,0,38.34-16.59C104.82,65.57,104.22,65.61,103.61,65.61Z"/><path class="cls-1" d="M78.92,61.32c0-.59,0-1.16-.08-1.74l-.09-.86c0-.25-.08-.5-.12-.75a21.21,21.21,0,0,0-1.2-4.42c-.1-.25-.2-.5-.31-.75s-.23-.48-.34-.71-.31-.67-.5-1c-.06-.12-.14-.24-.21-.36-.2-.34-.4-.68-.62-1a21.21,21.21,0,0,0-39,11.6,21.7,21.7,0,0,0,.44,4.3c0,.26.14.52.2.78s.13.52.2.77a21,21,0,0,0,2,4.65c.12.22.26.45.4.66l-.3.12c.15.24.28.49.44.73l.31-.12a21.11,21.11,0,0,0,24.59,8.11c.32-.12.64-.23,1-.36l.55-.23A21.23,21.23,0,0,0,78.92,61.32Z"/><path class="cls-1" d="M117,48.51c0-.19,0-.38,0-.57s0-.59,0-.89,0-.54,0-.8a22.41,22.41,0,0,1,.93-4.58c.1-.31.23-.62.34-.93s.21-.61.34-.91a23.11,23.11,0,0,1,3.91-6.3A21.2,21.2,0,0,0,82.39,42.8a21.49,21.49,0,0,0,.61,5h-.08c.1.39.19.79.32,1.18,0,.13.1.26.14.39s.15.41.23.62.17.5.27.75.23.48.34.73a21.92,21.92,0,0,0,2.36,4c.17.21.31.43.48.63l.15.2c.15.17.31.33.45.5A21.59,21.59,0,0,0,104,64.12c.37,0,.73,0,1.08-.05l.51,0c.38,0,.75-.06,1.12-.11a21.7,21.7,0,0,0,12.44-6c-.08-.16-.16-.31-.23-.47A22.61,22.61,0,0,1,117,48.51Z"/><path class="cls-1" d="M151.21,30.27c0,.14.07.28.11.42s.08.29.13.44.18.49.27.74.18.51.28.77a21.09,21.09,0,0,0,1.92,3.68c.15.23.31.45.47.68s.35.48.54.71.3.4.46.59c.18-.28.35-.57.54-.84s.53-.71.79-1.06c.09-.11.17-.23.26-.35l.26-.31c.1-.12.22-.23.32-.35l.51-.55a22.61,22.61,0,0,1,24.76-5.71c.42.16.83.32,1.24.51s.78.36,1.15.56a23.31,23.31,0,0,1,2.41,1.45c-.3-.6-.59-1.2-.85-1.83-.1-.25-.19-.51-.28-.76l-.28-.75a23.23,23.23,0,0,1-.91-4c0-.27-.09-.53-.11-.81s0-.53,0-.8c0-.48-.08-1-.08-1.46a22.62,22.62,0,0,1,2.55-10.43,21.19,21.19,0,0,0-37.18,13.93,20.55,20.55,0,0,0,.36,3.79C150.91,29.1,151.06,29.69,151.21,30.27Z"/><path class="cls-1" d="M190.29,36.08l-.44-.48a21.3,21.3,0,0,0-7.11-4.81c-.45-.18-.91-.34-1.37-.5s-1-.31-1.55-.44a21,21,0,0,0-19.25,4.77c-.4.36-.79.72-1.15,1.1l-.41.45c-.2.22-.41.43-.6.65a3,3,0,0,1-.22.28l-.27.36a22.2,22.2,0,0,0-1.41,2.07c-.06.11-.13.2-.19.31-.22.38-.42.76-.62,1.16a21,21,0,0,0,.91,20.46c.13.22.26.46.41.68s.35.48.53.73a21.19,21.19,0,0,0,17.14,8.76A20.9,20.9,0,0,0,182.92,70,21.18,21.18,0,0,0,191,36.83C190.75,36.57,190.52,36.33,190.29,36.08Z"/><path class="cls-1" d="M229.1,19.9c0-.27,0-.54,0-.81s-.06-.53-.09-.8l-.08,0a20.51,20.51,0,0,0-1-4.14l.13,0c-.08-.26-.18-.51-.27-.76s-.18-.51-.28-.75l-.17,0a21.17,21.17,0,0,0-37.74-2.06c-.16.27-.32.55-.47.84s-.24.48-.36.73a21.18,21.18,0,0,0-2,9c0,.36,0,.71.06,1.07s0,.54,0,.81l.09.81a21.54,21.54,0,0,0,.92,4c.09.26.18.5.28.75s.17.52.27.77a22,22,0,0,0,2.49,4.32l.43.57c.22.28.45.55.68.81a21.19,21.19,0,0,0,37.18-13.93c0-.44,0-.87-.07-1.31Z"/><path class="cls-1" d="M209.09,50.9H229.7q6.74,0,10.08,3.2t3.35,9.11q0,6.08-3.65,9.5t-11.15,3.41h-6.79V91H209.09ZM221.54,68h3c2.39,0,4.07-.41,5-1.25a4,4,0,0,0,1.45-3.19,4.51,4.51,0,0,0-1.26-3.2q-1.26-1.3-4.74-1.31h-3.53Z"/><path class="cls-1" d="M246.06,76.56a14.53,14.53,0,0,1,4.49-11q4.48-4.3,12.12-4.31,8.73,0,13.19,5.07a14.65,14.65,0,0,1,3.58,10,14.57,14.57,0,0,1-4.44,11q-4.46,4.29-12.3,4.29-7,0-11.33-3.56A14.29,14.29,0,0,1,246.06,76.56Zm11.16,0q0,3.88,1.58,5.74a5.16,5.16,0,0,0,7.91,0q1.55-1.83,1.54-5.89,0-3.77-1.56-5.62A4.85,4.85,0,0,0,262.84,69a5.06,5.06,0,0,0-4,1.88Q257.22,72.71,257.22,76.54Z"/><path class="cls-1" d="M284.8,62h10.37v4.73a15.54,15.54,0,0,1,4.71-4.14,12.37,12.37,0,0,1,5.8-1.25A9.53,9.53,0,0,1,312.92,64q2.61,2.76,2.61,8.5V91H304.34V75a5.83,5.83,0,0,0-1-3.87A3.63,3.63,0,0,0,300.48,70a4,4,0,0,0-3.28,1.53q-1.26,1.55-1.26,5.5V91H284.8Z"/><path class="cls-1" d="M335.61,50.9V62h6.13V70.1h-6.13V80.4a5.48,5.48,0,0,0,.36,2.46,2.06,2.06,0,0,0,1.92.93,12.33,12.33,0,0,0,3.44-.71l.83,7.68a35.85,35.85,0,0,1-7.72.91,13.4,13.4,0,0,1-6.13-1.07,6.51,6.51,0,0,1-2.91-3.24,18.93,18.93,0,0,1-.95-7V70.1h-4.1V62h4.1V56.61Z"/><path class="cls-1" d="M345.69,76.56a14.56,14.56,0,0,1,4.48-11c3-2.87,7-4.31,12.12-4.31q8.73,0,13.19,5.07a14.65,14.65,0,0,1,3.58,10,14.57,14.57,0,0,1-4.44,11c-3,2.86-7.06,4.29-12.3,4.29q-7,0-11.33-3.56A14.28,14.28,0,0,1,345.69,76.56Zm11.15,0q0,3.88,1.58,5.74a5.16,5.16,0,0,0,7.91,0q1.55-1.83,1.55-5.89,0-3.77-1.57-5.62A4.85,4.85,0,0,0,362.46,69a5.06,5.06,0,0,0-4,1.88C357.38,72.08,356.84,74,356.84,76.54Z"/><path class="cls-1" d="M225.49,94.06v20.85h-5.42v-2.23A7.34,7.34,0,0,1,218,114.6a6,6,0,0,1-2.79.65,5.38,5.38,0,0,1-4.72-2.35,9.77,9.77,0,0,1-1.62-5.7,8.26,8.26,0,0,1,1.8-5.74,5.88,5.88,0,0,1,4.57-2,6.4,6.4,0,0,1,2.45.45,5.59,5.59,0,0,1,2,1.36V94.06Zm-5.8,13.25a4,4,0,0,0-.75-2.65,2.42,2.42,0,0,0-1.91-.87,2.11,2.11,0,0,0-1.69.84,4.45,4.45,0,0,0-.69,2.81,4.25,4.25,0,0,0,.71,2.71,2.18,2.18,0,0,0,1.74.86,2.33,2.33,0,0,0,1.85-.86A4.39,4.39,0,0,0,219.69,107.31Z"/><path class="cls-1" d="M228.31,107.4a7.56,7.56,0,0,1,2.33-5.69,8.7,8.7,0,0,1,6.3-2.24c3,0,5.31.87,6.85,2.63a8.2,8.2,0,0,1-.44,10.92,8.8,8.8,0,0,1-6.39,2.23,9,9,0,0,1-5.89-1.85A7.43,7.43,0,0,1,228.31,107.4Zm5.8,0a4.52,4.52,0,0,0,.82,3,2.68,2.68,0,0,0,4.11,0,4.77,4.77,0,0,0,.8-3.06,4.49,4.49,0,0,0-.81-2.93,2.54,2.54,0,0,0-2-1,2.63,2.63,0,0,0-2.1,1A4.56,4.56,0,0,0,234.11,107.38Z"/><path class="cls-1" d="M269.78,127.83H255.71l-2,6.63H241.1l15.07-40.12h13.52l15.08,40.12h-13Zm-2.58-8.67-4.42-14.42-4.38,14.42Z"/><path class="cls-1" d="M309.63,123.07l10.59,1.21a14.68,14.68,0,0,1-2.87,5.73,13.32,13.32,0,0,1-5.1,3.76,20.12,20.12,0,0,1-7.89,1.34,29.3,29.3,0,0,1-7.71-.86,13.37,13.37,0,0,1-5.29-2.79,13.86,13.86,0,0,1-3.47-4.52,15.77,15.77,0,0,1-1.26-6.89,16.21,16.21,0,0,1,1.53-7.46,13.66,13.66,0,0,1,3.06-3.93,14.45,14.45,0,0,1,4-2.58,22.19,22.19,0,0,1,8.34-1.34q7.11,0,10.85,2.54a13.41,13.41,0,0,1,5.24,7.45l-10.48,1.39a4.88,4.88,0,0,0-1.79-2.8,5.82,5.82,0,0,0-3.49-.95,5.62,5.62,0,0,0-4.47,2c-1.14,1.32-1.71,3.31-1.71,6a7.83,7.83,0,0,0,1.69,5.44,5.62,5.62,0,0,0,4.33,1.85,6,6,0,0,0,3.68-1.12A6.7,6.7,0,0,0,309.63,123.07ZM297.1,139l.83-3.23a20.2,20.2,0,0,1,4.81-.63q4.68,0,6.46,1.59a4.87,4.87,0,0,1,1.78,3.75,5.45,5.45,0,0,1-.81,2.7,5.6,5.6,0,0,1-2.89,2.25,15,15,0,0,1-5.53.84,44.27,44.27,0,0,1-7.33-.71V142.2a32.48,32.48,0,0,0,6.05.55,5.67,5.67,0,0,0,3.19-.63,2,2,0,0,0,.83-1.64,1.75,1.75,0,0,0-.68-1.37,3.26,3.26,0,0,0-2.14-.58A26.9,26.9,0,0,0,297.1,139Z"/><path class="cls-1" d="M335.49,114.81l-10.64-1.12a12,12,0,0,1,1.73-4.39,9.56,9.56,0,0,1,3.27-2.78,13.92,13.92,0,0,1,4.22-1.32,35.06,35.06,0,0,1,5.8-.46,46.4,46.4,0,0,1,8,.56,10.36,10.36,0,0,1,5.07,2.34,8.18,8.18,0,0,1,2.24,3.49,12.51,12.51,0,0,1,.82,4.31v12.83a15.1,15.1,0,0,0,.26,3.22,14.18,14.18,0,0,0,1.14,3H347a10.58,10.58,0,0,1-.82-1.72,14.05,14.05,0,0,1-.38-1.84,14.49,14.49,0,0,1-4.35,3,18.17,18.17,0,0,1-6.87,1.2c-3.46,0-6.1-.8-7.89-2.4a7.66,7.66,0,0,1-2.7-5.94,7.76,7.76,0,0,1,1.95-5.45q1.93-2.13,7.17-3.17,6.26-1.26,8.12-1.77a37.2,37.2,0,0,0,3.94-1.32,3.92,3.92,0,0,0-.85-2.88,4.28,4.28,0,0,0-3-.82,7.64,7.64,0,0,0-4.1.88A4.79,4.79,0,0,0,335.49,114.81Zm9.66,5.86c-1.53.54-3.13,1-4.79,1.45q-3.39.9-4.29,1.78a2.86,2.86,0,0,0,0,4.2,3.91,3.91,0,0,0,2.7.83,7,7,0,0,0,3.46-.9,5.5,5.5,0,0,0,2.27-2.21,7.31,7.31,0,0,0,.67-3.38Z"/><path class="cls-1" d="M363.13,105.4h11.13v29.06H363.13Zm5.25-11.74H378l-8.84,8.18h-5.34Z"/></g></g></svg>