<svg xmlns="http://www.w3.org/2000/svg" viewBox="0 0 283.47 119.44"><defs><style>.cls-1{fill:#fff;}</style></defs><title>portus-h-negativo</title><g id="Layer_2" data-name="Layer 2"><g id="Layer_1-2" data-name="Layer 1"><path class="cls-1" d="M53.21,107.48a.32.32,0,0,1,.31-.33h4.1a6.06,6.06,0,1,1,0,12.12h-4.1a.33.33,0,0,1-.31-.33Zm4.2,9.68a4,4,0,0,0,0-7.91h-2v7.91Z"/><path class="cls-1" d="M70.65,107.48a.34.34,0,0,1,.34-.33H78a.32.32,0,0,1,.32.33v1.42a.33.33,0,0,1-.32.33H72.91v2.84h4.27a.34.34,0,0,1,.33.33v1.43a.32.32,0,0,1-.33.33H72.91v3H78a.33.33,0,0,1,.32.33v1.42a.33.33,0,0,1-.32.33H71a.34.34,0,0,1-.34-.33Z"/><path class="cls-1" d="M85.51,107.48a.33.33,0,0,1,.33-.33h1.6a.33.33,0,0,1,.32.33v9.71h4.42a.33.33,0,0,1,.33.33v1.42a.33.33,0,0,1-.33.33H85.84a.33.33,0,0,1-.33-.33Z"/><path class="cls-1" d="M98.93,107.48a.33.33,0,0,1,.33-.33h1.61a.34.34,0,0,1,.33.33v11.46a.35.35,0,0,1-.33.33H99.26a.34.34,0,0,1-.33-.33Z"/><path class="cls-1" d="M114.4,107a5.82,5.82,0,0,1,4.18,1.61.33.33,0,0,1,0,.48l-1.06,1.09a.28.28,0,0,1-.44,0,4.07,4.07,0,0,0-2.66-1,4,4,0,0,0,0,8,4.1,4.1,0,0,0,2.64-1,.32.32,0,0,1,.44,0l1.08,1.11a.33.33,0,0,1,0,.46,5.92,5.92,0,0,1-4.2,1.68,6.23,6.23,0,1,1,0-12.46Z"/><path class="cls-1" d="M122.4,118.82l5.39-11.65a.3.3,0,0,1,.29-.19h.18a.29.29,0,0,1,.29.19l5.33,11.65a.31.31,0,0,1-.29.45h-1.51a.49.49,0,0,1-.5-.35l-.85-1.87h-5.17l-.85,1.87a.53.53,0,0,1-.5.35H122.7A.31.31,0,0,1,122.4,118.82Zm7.49-3.69-1.74-3.81h-.05l-1.7,3.81Z"/><path class="cls-1" d="M139.56,109.23h-2.65a.33.33,0,0,1-.33-.33v-1.42a.33.33,0,0,1,.33-.33h7.57a.33.33,0,0,1,.33.33v1.42a.33.33,0,0,1-.33.33h-2.65v9.71a.34.34,0,0,1-.33.33h-1.61a.35.35,0,0,1-.33-.33Z"/><path class="cls-1" d="M150.9,107.48a.33.33,0,0,1,.33-.33H172a.33.33,0,0,1,.33.33v1.42a.33.33,0,0,1-.33.33H153.15v2.84h18a.34.34,0,0,1,.33.33v1.43a.32.32,0,0,1-.33.33h-18v3H172a.33.33,0,0,1,.33.33v1.42a.33.33,0,0,1-.33.33H151.23a.33.33,0,0,1-.33-.33Z"/><path class="cls-1" d="M178.34,117.57l.62-1.07a.41.41,0,0,1,.59-.12,5.84,5.84,0,0,0,2.62,1.07,1.45,1.45,0,0,0,1.58-1.33c0-.88-.75-1.49-2.2-2.08-1.63-.66-3.26-1.7-3.26-3.74,0-1.54,1.14-3.32,3.9-3.32a6.11,6.11,0,0,1,3.46,1.16.43.43,0,0,1,.1.57l-.65,1c-.14.21-.41.35-.61.21a5.83,5.83,0,0,0-2.41-1,1.38,1.38,0,0,0-1.52,1.21c0,.82.64,1.37,2,1.94,1.68.68,3.62,1.68,3.62,3.92,0,1.78-1.54,3.42-4,3.42a5.56,5.56,0,0,1-3.81-1.35C178.27,117.94,178.19,117.85,178.34,117.57Z"/><path class="cls-1" d="M192,117.57l.62-1.07a.4.4,0,0,1,.59-.12,5.73,5.73,0,0,0,2.62,1.07,1.45,1.45,0,0,0,1.57-1.33c0-.88-.74-1.49-2.2-2.08-1.63-.66-3.25-1.7-3.25-3.74,0-1.54,1.14-3.32,3.9-3.32a6.11,6.11,0,0,1,3.46,1.16.44.44,0,0,1,.1.57l-.66,1c-.14.21-.39.35-.6.21a5.9,5.9,0,0,0-2.41-1,1.37,1.37,0,0,0-1.52,1.21c0,.82.64,1.37,2,1.94,1.68.68,3.62,1.68,3.62,3.92,0,1.78-1.54,3.42-4,3.42a5.58,5.58,0,0,1-3.81-1.35C192,117.94,191.86,117.85,192,117.57Z"/><path class="cls-1" d="M206.41,107.48a.32.32,0,0,1,.32-.33h7.05a.33.33,0,0,1,.33.33v1.42a.33.33,0,0,1-.33.33h-5.13v2.84h4.28a.34.34,0,0,1,.33.33v1.43a.32.32,0,0,1-.33.33h-4.28v3h5.13a.33.33,0,0,1,.33.33v1.42a.33.33,0,0,1-.33.33h-7.05a.33.33,0,0,1-.32-.33Z"/><path class="cls-1" d="M220.88,107.29a.32.32,0,0,1,.33-.31h.43l7.21,7.65h0v-7.15a.33.33,0,0,1,.33-.33h1.6a.34.34,0,0,1,.32.33v11.65a.33.33,0,0,1-.32.31h-.43l-7.23-7.94h0v7.44a.33.33,0,0,1-.33.33h-1.58a.34.34,0,0,1-.33-.33Z"/><path class="cls-1" d="M0,.07C25.6-1,37.7,12.34,37.7,32.12,37.7,49,29,61.25,10.42,63.77V90.43H0ZM26.89,32.12c0-13.4-6.95-20.23-16.47-21.07V53.18C19.94,52.34,26.89,45.5,26.89,32.12Z"/><path class="cls-1" d="M164.21,11.05h-14V1.19h38.43v9.86h-14V90.43H164.21Z"/><path class="cls-1" d="M195.14,1.19h10.42V64.33c0,12.38,3.86,16.86,10.58,16.86s10.59-4.48,10.59-16.86V1.19h10.43V65.61c0,18-7.85,25.89-21,25.89s-21-7.84-21-25.89Z"/><path class="cls-1" d="M249.29,77c3.64,2.13,7.56,4.2,12.32,4.2,5.89,0,11-3.19,11-10.53,0-4.93-2.3-10.14-9.3-19l-7.23-9.13c-7.22-9.13-9.86-16.3-9.86-23,0-11.2,7.45-19.44,19.83-19.44a29.16,29.16,0,0,1,14.8,4.09L276.4,13A17.77,17.77,0,0,0,267.16,10c-6.11,0-10.09,3.7-10.09,10,0,3.47,1.23,7.12,6.22,13.67l10.48,13.79c5.43,7.16,9.7,13.22,9.7,22.4,0,13.39-9.14,21.63-21.86,21.63a31.17,31.17,0,0,1-17.14-5.16Z"/><path class="cls-1" d="M151.73,81.66c-5.62,3.34-9.54.28-10.53-1.61L130.43,56.43C138.72,51,142.75,42,142.75,31c0-19.1-12.1-32-37.71-30.92V50.21c-3-.6-14.4-2.93-21.13-5.16l-.64-.2c-7.77-2.68-24.78-11-29.39-16.14,2.34-13.65,7.55-18.22,12.25-18.22,5.85,0,12.53,7.13,13.39,30.17,1.61.66,3.07,1.23,4.3,1.65l.64.21c1.74.58,3.81,1.16,6,1.72C90,8.57,76.61.18,66.13.18,55.48.18,42.56,8.81,42.56,45.84S55.48,91.5,66.13,91.5c9.41,0,21.2-6.78,23.79-34,7.07,1.76,13.1,2.74,15.12,3V90.43h10.43V61.52a43.53,43.53,0,0,0,5.93-1.17l9.15,20.81c1.62,3.58,9.14,15.88,23.92,7.46Zm-85.6-.47c-6.28,0-13.51-8.18-13.51-35.35,0-2,.05-3.78.12-5.55C55,44.54,67.25,50.37,79.32,54.41,78,74.71,71.67,81.19,66.13,81.19Zm49.34-30.25V11.05c9.52.84,16.47,7.22,16.47,19.94S125,50.09,115.47,50.94Z"/></g></g></svg>