<svg xmlns="http://www.w3.org/2000/svg" viewBox="0 0 200.97 198.43"><defs><style>.cls-1{fill:#224c2f;}</style></defs><title>soft-open-fevereiro</title><g id="Camada_2" data-name="Camada 2"><g id="Camada_1-2" data-name="Camada 1"><path class="cls-1" d="M81.45,100c.82-2.64,3-3.45,5.2-4.85-.17,1.62-.31,3-.47,4.41a37.54,37.54,0,0,0-.08,8.8c.44,3.55,3.16,4.71,6.1,2.66a8.82,8.82,0,0,0,2.66-3,24.47,24.47,0,0,0,3-14.07c0-.55-.4-1.33.13-1.59,1.84-.9,3-2.51,4.53-4,.16,1.58.2,3,.47,4.36.58,2.91,2.95,3.87,5.48,2.36a13.15,13.15,0,0,0,3.4-3,46.32,46.32,0,0,0,6-9.87c.4-.86.64-1.65-.38-2.16-1.2-.6-1.23.56-1.56,1.18-1.63,3.13-3.31,6.2-6.15,8.44-1.19,1-1.75.77-2.11-.69a7.58,7.58,0,0,1-.15-1.51c-.06-2.4.69-4.7.94-7,.3-2.91,1.61-4.77,4.54-5.4a2.75,2.75,0,0,0,2.07-2.25c.22-.87,0-1.35-1-1l-3.27,1a2.82,2.82,0,0,1,0-.67c.62-1.64,1.23-3.29,1.89-4.92.22-.55.43-1-.12-1.5-1.44-1.36-3.34-1.13-4.15.62a29.7,29.7,0,0,0-2.08,5.2c-.53,2.19-1.64,3.45-3.87,3.75-.58.08-1.12.35-1.16,1a2.35,2.35,0,0,0,.67,2c.61.55,1.42,0,2.14.3a50.49,50.49,0,0,1-2.06,6,9.7,9.7,0,0,1-3.42,4.1c-.44.32-1.39.73-1.5.6-1.27-1.53-2.43-3.16-3.62-4.76C94.59,79.83,95.6,75.15,98,71c.59-1,.37-1.51-.47-2.06-1.69-1.12-3.2-.78-4.2,1.14-2,3.85-3,8-4.13,12.2-.16.59-.07,1.4-.63,1.71-1.36.76-1.15,1.79-.7,2.91a2.64,2.64,0,0,1,0,1.5,7.92,7.92,0,0,1-3.33,4.74l-.4.12v-.39a20.44,20.44,0,0,0,.07-5.58c-.54-3.76-3.83-6.16-6.68-4.59-2.34,1.29-4.66,2.75-6.14,5.16A21.27,21.27,0,0,0,68.3,96c-.36,2.66-2,4.58-3.52,6.9-.58-2.55-1.12-4.78-1.58-7A16.39,16.39,0,0,1,62.85,91c.23-2.41-1-3.71-3.57-3.63a1.77,1.77,0,0,0-1.86,1.4A90.33,90.33,0,0,1,53.63,99c-.32.79-.87,1.58.39,2.07s1.31-.47,1.63-1.17L58,94.8a42.19,42.19,0,0,1,1.46,9.43c0,1.08-.1,2.22-1.36,2.67s-2.06-.28-2.85-1a17.36,17.36,0,0,1-3-4.11c-.62-1.09-1-.63-1.36.09-.77,1.44,0,2.62.69,3.79,1.83,2.92,4.07,5.2,7.87,5,2.74-.19,4.41-2.12,6-4,1.1-1.32,2-2.79,3-4.25,2.48,5.23,6.75,4.24,9.76,1.75A9.25,9.25,0,0,0,81.45,100Zm9.27,2.17a66.23,66.23,0,0,1,1.1-8.89c.1-.45-.2-1.46.62-1.22s2,.12,2.09,1.34c.3,4.08.19,8.12-1.39,12a3.82,3.82,0,0,1-.87,1.24c-.71.71-1.1.57-1.34-.25A15.88,15.88,0,0,1,90.72,102.13ZM77.93,85.67c1.35-.43,2.4.2,2.93,1.77a10.62,10.62,0,0,1,0,5.34c-.15.81-.58.67-1.08.4a7,7,0,0,1-3.44-3.81A2.82,2.82,0,0,1,77.93,85.67Zm-1.5,15.12c-1.43.71-2.44.26-2.75-1.33a14.56,14.56,0,0,1,.93-8.35,9.7,9.7,0,0,0,4.63,5.45c.34.17.31.42.17.69A7.09,7.09,0,0,1,76.43,100.79Zm33.21,8.77c-2.08-.67-3.43.6-4.68,2-1.43,1.56-2.21,3.54-3.29,5.33l-.19.45c-.09.19-.21.35-.43.2,0,0,0-.26,0-.4l.12-.4a12.34,12.34,0,0,1,.89-3.08c.58-1.65.25-2.18-1.47-2.48-1.46-.26-2.2.42-2.67,1.72a83.69,83.69,0,0,0-2.82,10,6.23,6.23,0,0,1-3.63,4.37c.47-4,.34-5.81-.57-7.85-1.19-2.7-4-3.94-6.23-2.51-2.65,1.68-5.3,3.44-6.74,6.47-2,4.07-3.31,8.24-2,12.77,1.09,3.88,4.47,5.12,8,3.16a11.57,11.57,0,0,0,5.33-5.95c.82-2.14,2.54-2.69,4.45-3.68-.18,1.26-.31,2.26-.47,3.26a41,41,0,0,0-.57,7.26c0,2.36,1.34,3.87,3.45,4.14,1.23.16,1.87-.06,1.67-1.64a41.83,41.83,0,0,1,.55-11.06c2.59,2.94,4.73,3.06,7.53.59a19.15,19.15,0,0,0,4.82-7.12c1.54-3.63,2.55-7.4,1.86-11.4C112.24,111.86,111.58,110.19,109.64,109.56Zm-22.81,21.7c-.78,1.5-1.58,3-3.25,3.72a1.52,1.52,0,0,1-2.34-1.08c-.87-2.87-.31-5.62.7-8.81a10,10,0,0,0,4.38,5.38C86.61,130.64,87.14,130.67,86.83,131.26Zm1.44-4.38c-.13.6-.41.73-1,.45a7.1,7.1,0,0,1-3.82-4.7,2.81,2.81,0,0,1,2-2.93c1.25-.3,2.3.39,2.79,1.83A11.26,11.26,0,0,1,88.27,126.88Zm19.43-10.56a29.42,29.42,0,0,1-4.46,12,6.2,6.2,0,0,1-1,1.17c-.64.59-1.38,1.09-2.28.58s-.74-1.34-.54-2.11a41.74,41.74,0,0,1,6.19-13.89c.31-.44.67-1,1.3-1,.42,0,.61.45.78,1.11A13.41,13.41,0,0,1,107.7,116.32Zm41.71-3.1c-.7-.2-.54-1.17-.59-1.82a14.34,14.34,0,0,1,.09-2.36,32.21,32.21,0,0,1,1.7-7.77,2,2,0,0,0,0-1.94,3.83,3.83,0,0,0-5.78-.45,16.08,16.08,0,0,0-1.76,2.5,80.28,80.28,0,0,0-4.72,9.41c-.29.67-.38,1.51-1.37,2a44.92,44.92,0,0,1,2.17-8.69c.64-1.6.05-2.29-1.28-2.84a1.9,1.9,0,0,0-2.83,1.21c-1.18,2.79-1.63,5.77-2.45,8.64a18.59,18.59,0,0,1-8.13,11.07c-2.36,1.46-4.1.5-4.41-2.21-.08-.73.1-1.1.84-1.11,3.89,0,8.06-5.16,8.49-8.81.25-2.1-.23-3.87-2.09-5a5,5,0,0,0-5.46.13c-5.13,3.17-8.63,12.88-6.67,18.54a5.11,5.11,0,0,0,5.73,3.72c3.57-.27,5.95-2.5,8.13-5,1-1.12,1.8-2.4,2.76-3.7.48,1.42.76,2.78,1.92,3.67,1.51,1.15,2.74.77,3.22-.94a80.46,80.46,0,0,1,7.81-17.84c.09-.16.11-.46.39-.33s.06.35,0,.53a36.49,36.49,0,0,0-1.5,10.54c.1,2,.3,4,2.49,4.77s3.47-1,4.61-2.39c2.59-3.22,4.05-7.05,5.62-10.82a1.2,1.2,0,0,0-.78-1.75c-.91-.37-1,.44-1.26,1a50.58,50.58,0,0,1-3.49,6.79C150.45,112.52,150.1,113.42,149.41,113.22Zm-25.86-5.76c.28-.39.62-.94,1.22-.75s.56.8.53,1.3a12.59,12.59,0,0,1-3.16,7.87,2.57,2.57,0,0,1-2,1A19.88,19.88,0,0,1,123.55,107.46ZM102.63,29.54a71.94,71.94,0,1,0,71.93,71.94A72,72,0,0,0,102.63,29.54Zm0,141.87a69.94,69.94,0,1,1,69.93-69.93A70,70,0,0,1,102.63,171.41ZM42.1,167.73l-4.22-4.13.69-1.75L37,160.27l-6.64,14.61.49.49,14.55-6.87L43.8,167Zm-8,3.84,2.77-5.8,3,2.95Zm-2.63-18.29-2.31,1.6-.75-1.09c-2.43-3.51-5.57-3.68-8.42-1.71s-3.81,5-1.38,8.47l2.07,3,12.12-8.35ZM21.3,160.35l-.66-.94c-1.43-2.09-1.38-3.83.78-5.32s3.81-.92,5.25,1.16l.65.95Zm4.75-15.43-1.85.19-2.7-5.25,1.2-1.45-1-2L10.76,148.18l.32.61,16-1.93Zm-10.61,1.32,4.45-4.63,1.93,3.75Zm4.85-13.7-2.66.92-.43-1.25c-.09-.24-.16-.46-.26-.68L19.08,129l-1-2.75-2.5,3.15c-1.58-1.65-3.74-1.93-6.07-1.12-3.27,1.13-5,3.76-3.6,7.79l1.2,3.46,13.9-4.82ZM8.56,136.63l-.38-1.08c-.82-2.4-.3-4.07,2.17-4.92s3.92.13,4.74,2.52l.38,1.08Zm-4.05-13.4.64,3.09L3,126.77l-1.78-8.54,2.15-.45L4,120.94l12.27-2.55.48,2.28ZM15.42,113,.8,114.69l-.27-2.32,14.61-1.72Zm-.69-7.55-2.81,0,0-1.32c0-.26,0-.5,0-.74l2.81-1.69-.05-2.92L11.26,101c-1-2.06-2.95-3-5.42-3-3.46.06-5.91,2-5.84,6.29L.06,108l14.71-.26Zm-12.41.23,0-1.14c0-2.53,1-4,3.59-4s3.68,1.34,3.72,3.87l0,1.15ZM15.79,87.44c.91-5-1.29-7.93-5.89-8.77s-7.67,1.09-8.59,6.14L.68,88.26l14.48,2.63ZM13.53,87l-.21,1.15-10-1.81.21-1.15c.57-3.15,2.09-4.83,5.9-4.14S14.1,83.88,13.53,87Zm4.3-9.27-14-4.59,2.51-7.65,2.11.69L6.7,71.64l1.89.62,1.68-5.09,2.11.69L10.71,73l5.73,1.88,1.79-5.42,2.12.69Zm3.26-15.31-1.8-1,3.16-6,1.8.95Zm4.32-8-1.7-1.12,3.76-5.67,1.69,1.13ZM30.5,47l-1.57-1.29,4.3-5.26,1.57,1.29Zm5.81-6.93-1.44-1.44,4.81-4.8,1.44,1.44Zm6.49-6.33-1.29-1.57,5.26-4.31,1.29,1.58Zm7.09-5.66-1.13-1.69,5.66-3.76,1.13,1.69Zm7.59-4.91-.95-1.8,6-3.18,1,1.8ZM65.55,19l-.77-1.89,6.3-2.55.76,1.88ZM74,15.75l-.57-1.95,6.52-1.91.57,1.95Zm121,90.52h0l-.61,6.77-.53-.05-1.5-.13.6-6.77,2,.18ZM192,115.08l2,.38-1.28,6.68-2-.38ZM190.16,124l2,.57-1.93,6.52-2-.58Zm-2.68,8.66,1.88.77-2.58,6.29-1.88-.77ZM183.94,141l1.8,1-3.19,6-1.8-1Zm-4.35,7.94,1.69,1.14-3.79,5.64-1.69-1.13Zm-5.14,7.46,1.57,1.29-4.33,5.24-1.56-1.3Zm-3,18.46c.18,2.19-.3,3.51-1.57,4.63a3.75,3.75,0,0,1-5.65-.38c-1.43-1.62-1.65-4.09-1.79-7.23l-.14-2.79L158,172.89l-1.46-1.65,7-6.19.72.19.27,5.54c.18,3.63.3,5.66,1.33,6.83a1.89,1.89,0,0,0,2.79.25,3.39,3.39,0,0,0,1-3Zm-21.24.28c-3.52,2.29-2.64,6.33-.57,9.51,2.65,4.08,6.12,5.16,9,3.3,3.7-2.4,2.79-6.43.72-9.6C156.68,174.22,153.25,173.11,150.22,175.09Zm7.25,10.85c-1.67,1.09-3.88.35-5.84-2.66-2.38-3.66-1.29-5.56-.11-6.33,1.67-1.08,3.84-.33,5.79,2.69C159.7,183.3,158.64,185.17,157.47,185.94Zm-10.85,1.81,2,.18-.79,5.75-2.23,1.11-6.54-13.18,2.1-1,5.11,10.31Zm-11.27,1.79a3.69,3.69,0,0,0-1,.54c.12-.86.29-1.89.5-3.19l.69-4.11-2.41.89-.7,4.05c-.54,3.27-.65,5.85,0,7.63,1,2.66,3.2,3.73,6,2.68a4.6,4.6,0,0,0,2.75-6.05C140.31,189.54,138,188.55,135.35,189.54Zm2.32,6.27a2.09,2.09,0,0,1-2.85-1.28,2.17,2.17,0,0,1,4.07-1.53A2,2,0,0,1,137.67,195.81ZM123,189.55l.38,2-6.67,1.28-.38-2Zm-8.9,1.58.18,2-6.77.6-.18-2Zm-15.83.61,6.8.08,0,2-6.8-.08Zm-9-.89,6.76.75-.23,2L89,192.87Zm-8.87-1.79L87,190.48l-.43,2-6.64-1.42Zm-8.63-2.65,6.47,2.07-.63,1.94-6.46-2.08ZM59,180.66l6.07,3.05-.91,1.82-6.07-3.05Zm-7.7-4.76,5.73,3.65L56,181.26l-5.73-3.64ZM119.81,15.13l-2.32-.5L120.61,0l8,1.71-.48,2.22-5.68-1.22-.42,2,5,1.08L126.6,8l-5-1.08Zm7.8,1.83L132.5,2.83l7.73,2.67-.74,2.14L134,5.74l-.66,1.92,5.16,1.78-.74,2.14L132.6,9.8l-2,5.8,5.49,1.9-.74,2.14Zm15,6.46-.8-.4,1.84-16.25,2.3,1.16L144.6,18.6l8-7.31,2.2,1.11Zm6.79,3.3,8.5-12.3,6.73,4.65-1.29,1.86-4.77-3.3-1.15,1.67,4.48,3.1-1.28,1.86-4.49-3.1-3.49,5.05,4.78,3.3-1.29,1.86Zm10.88,8.1,1.93-2.11,1,.9c.19.18.37.34.56.49l-.7,3.25,2.19,2,.7-4c2.22.71,4.28-.08,6-1.93,2.38-2.6,2.64-5.79-.56-8.71l-2.75-2.51-10.08,11Zm8.5-9.34.86.79c1.9,1.73,2.24,3.48.45,5.44s-3.56,1.78-5.47.05l-.86-.79Zm-1.11,16.44,11.49-9.58,5.24,6.28-1.74,1.46-3.72-4.47-1.55,1.3,3.49,4.19-1.74,1.45-3.49-4.19-4.72,3.93,3.72,4.46-1.74,1.45Zm7,8.88,12.23-8.63,1.37,1.94L176,52.74ZM179,57.46l2.51-1.37.64,1.18c.13.23.24.45.38.65l-1.74,2.84,1.42,2.61,2-3.58c1.85,1.4,4.06,1.33,6.27.13,3.09-1.68,4.38-4.6,2.32-8.41L191,48.24l-13.15,7.13Zm11.09-6,.55,1c1.23,2.27,1,4-1.36,5.29s-3.94.52-5.17-1.74l-.56-1Zm10.51,17a7.59,7.59,0,0,0-9.8-4.89,7.75,7.75,0,0,0-5,9.87,7.6,7.6,0,0,0,9.8,4.89A7.74,7.74,0,0,0,200.55,68.44ZM194.8,76a4.92,4.92,0,0,1-6.72-3.34,5.2,5.2,0,0,1,3.45-6.71c3-1,5.72.16,6.76,3.27A5.26,5.26,0,0,1,194.8,76Zm-2,18.82L192,88l2-.23.76,6.75ZM195,97l.07,6.79-2,0-.07-6.8ZM82.68,13.34l-.38-2L89,10.08l.37,2Zm8.92-1.57-.17-2,6.77-.58.17,2Zm15.85-.56-6.8-.1,0-2,6.8.1Z"/></g></g></svg>