<svg xmlns="http://www.w3.org/2000/svg" viewBox="0 0 587.64 308.88"><defs><style>.cls-1{fill:#12100b;}.cls-2{fill:#f9b233;}.cls-3{fill:#eb5f0a;}.cls-4{fill:#1d1d1b;}</style></defs><title>speck-default</title><g id="Layer_2" data-name="Layer 2"><g id="Layer_1-2" data-name="Layer 1"><path class="cls-1" d="M173.91,23.36c3.6,1.2,6.53,4,8.82,8.46a44.94,44.94,0,0,1,4.5,13.86,37.93,37.93,0,0,1,0,12.78c-.72,3.73-2.41,5.46-5,5.22a130.26,130.26,0,0,0-21.25.36,200.1,200.1,0,0,0-28.8,4.68,208.12,208.12,0,0,0-31,9.9A112.65,112.65,0,0,0,73.81,94.29q-6.12,4.68-7.2,7.2t1.8,4.32a156.57,156.57,0,0,0,15.84,8.28q9.36,4.32,18.73,9.72a143.09,143.09,0,0,1,17.28,11.7,42.87,42.87,0,0,1,11.88,14.22q2.16,4.34,2.34,13t-3.42,14.4q-2.16,3.6-10.08,9.36a225.7,225.7,0,0,1-19.09,12.24q-11.16,6.48-24.3,12.78a229.72,229.72,0,0,1-25.92,10.63,137.66,137.66,0,0,1-23.77,5.94q-11,1.62-17.82-.9-2.52-1.08-4.32-4.86a59.1,59.1,0,0,1-3.24-8.65,55.47,55.47,0,0,1-2-9.9A80.69,80.69,0,0,1,0,195.46a9.86,9.86,0,0,1,2.34-5.94,28.37,28.37,0,0,1,6.12-5.76,69,69,0,0,1,8.28-5,71.3,71.3,0,0,1,8.46-3.78q3.24-1.08,3.6.18a6,6,0,0,1-.36,3.42,33,33,0,0,1-1.8,4.32q-1.08,2.16-.72,2.52.72,1.44,7.75.54a169.31,169.31,0,0,0,16.92-3.24q9.9-2.34,21.24-5.94T93.25,169a124.78,124.78,0,0,0,16.93-8.28c4.55-2.76,7.2-5.34,7.92-7.74q.72-2.16-1.44-5a32.9,32.9,0,0,0-6.12-5.95c-2.65-2-5.71-4.14-9.19-6.3s-7-4.32-10.62-6.48q-13-7.2-30.24-15.12A12.65,12.65,0,0,1,55.63,110a40.74,40.74,0,0,1-4.14-6.66,34,34,0,0,1-2.7-7.2,10.48,10.48,0,0,1-.18-5.76q1.8-7.56,9.9-16A133.48,133.48,0,0,1,78.13,57.74a240.25,240.25,0,0,1,25.39-15.48A213.5,213.5,0,0,1,130.7,30a144.33,144.33,0,0,1,24.84-6.84Q167.06,21.2,173.91,23.36Z"/><path class="cls-1" d="M212.07,86.73a10.82,10.82,0,0,1,6.3.54,25.93,25.93,0,0,1,7,3.6,12.45,12.45,0,0,1,4.5,5.58q1.26,3.24-1.62,6.48-5,6.12-11.88,14t-13.32,16q-6.48,8.1-11.88,15.66a71.73,71.73,0,0,0-7.57,12.61v.36q7.57-10.08,19.27-23.41t23.4-25.56A277.1,277.1,0,0,1,248.07,92q10.08-8.46,14.77-8.46a15.36,15.36,0,0,1,6.84,1.8,35.52,35.52,0,0,1,6.66,4.32,21.5,21.5,0,0,1,4.86,5.58,11.21,11.21,0,0,1,1.8,5.58q0,4.32-4.86,14.76A216.76,216.76,0,0,1,265,139.11q-8.29,13.15-18.91,27.73a338.48,338.48,0,0,1-22,27.18,175.71,175.71,0,0,1-22.68,21.42q-11.34,8.84-20.71,10.63a10,10,0,0,1-6.12-.54,33.8,33.8,0,0,1-6.48-3.42,57.79,57.79,0,0,1-6.3-4.87q-3.06-2.7-5.22-4.86-9.36,14.06-16.74,26.47t-12.42,21.78q-5,9.36-7.56,15.12c-1.68,3.84-2.17,6-1.44,6.48q.36.36,2.88-.72a42.28,42.28,0,0,1,5-1.8,6.84,6.84,0,0,1,3.6-.36q1.08.36-1.08,3.6-2.88,4-6.66,8.47a88,88,0,0,1-7.93,8.28,84.7,84.7,0,0,1-7.92,6.48c-2.52,1.8-4.73,2.7-6.66,2.7a17.93,17.93,0,0,1-7-1.62,27.94,27.94,0,0,1-6.66-4,27.48,27.48,0,0,1-5-5.4,10,10,0,0,1-2.16-5.58q-.36-5.06,4.68-16.57t13.32-26.64q8.3-15.12,19.26-32.76t22.69-35.29q11.7-17.64,23.4-34.39T184,117q10.08-13,17.47-21.06T212.07,86.73ZM246.63,108q-1.08-1.08-5.76,2.52a109.82,109.82,0,0,0-11.16,10.26q-6.48,6.68-14.4,15.48t-15.66,17.83q-7.76,9-14.59,17.46T173.9,186.1q-3.24,4.68-6.3,9.18t-5.94,9.18q5.76,1.46,14.4-5a141,141,0,0,0,18.19-16.74q9.52-10.26,19.26-22.86t17.28-23.77q7.56-11.15,12.06-19.08T246.63,108Z"/><path class="cls-1" d="M326.56,87.45c3.61-1.2,8-1.26,13.15-.18a59.88,59.88,0,0,1,14.58,5,43.85,43.85,0,0,1,11.52,8.1q4.68,4.68,4.32,9-.36,5.4-6.12,16.2a156.24,156.24,0,0,1-14.58,22.15,174.59,174.59,0,0,1-18.91,20.7q-10.08,9.36-19.08,11.52-5.76,1.44-12.06-2A80.38,80.38,0,0,1,288,170.62Q279,187.9,276.88,200t7.2,12.78a21.81,21.81,0,0,0,7.74-2,97.69,97.69,0,0,0,11-5.4q6.12-3.42,13.14-8.1t14.23-9.72q4.66-3.6,5.94-2.52t-2.34,5.4A131.56,131.56,0,0,1,321,203.56a147.67,147.67,0,0,1-14.22,11.34,96.37,96.37,0,0,1-14,8.29,34.67,34.67,0,0,1-11.52,3.6,29.93,29.93,0,0,1-8.64-.72,46.08,46.08,0,0,1-10.44-3.42,42,42,0,0,1-9-5.58,14.25,14.25,0,0,1-5-7.21,49.16,49.16,0,0,1,0-22.14,119.34,119.34,0,0,1,8.1-24.48,155.41,155.41,0,0,1,14.05-24.67,199.55,199.55,0,0,1,18-22.5,155.83,155.83,0,0,1,19.44-17.82A71.8,71.8,0,0,1,326.56,87.45ZM292,164.5q4.32-.36,11.7-5.58a139,139,0,0,0,15.66-13.15,206.42,206.42,0,0,0,16.21-17.46,138.43,138.43,0,0,0,13-18.18c1.44-2.64,2-4.2,1.8-4.68s-1.93.24-5,2.16a165.78,165.78,0,0,0-13.69,11q-7.56,6.66-14.94,14.58t-13.86,16A141.58,141.58,0,0,0,292,164.5Z"/><path class="cls-1" d="M419.1,87.81q5.4-2.16,13-.54a53.29,53.29,0,0,1,14.22,5.22,56.13,56.13,0,0,1,11.52,8.1q4.86,4.5,4.86,8.82c0,3.36.43,3.91-1.61,9.31s-5.26,10.7-8.5,16.34-3.7,6.76-6.5,10.5c-3.83,5.12-4.17,5.5-7.67,7.33a18,18,0,0,1-9.36,1.26A38.57,38.57,0,0,1,419.3,152a20.27,20.27,0,0,1-6.66-3.78q-2.34-2.16-.18-4.32a49.55,49.55,0,0,1,6.47-7.35c3.83-3.84,6.06-5.69,9.79-9.65a93.8,93.8,0,0,0,7.33-8.67c3.12-4,2.85-4.13,5-7.73q2.16-4,1.8-4.86t-5.4,2.34a112.71,112.71,0,0,0-18.19,15.66,251.8,251.8,0,0,0-18.36,21.42,262.82,262.82,0,0,0-16,23.41,156.09,156.09,0,0,0-11.16,21.6q-4,9.72-3.6,16t6.48,6.66q4,.38,10.08-2.52a127.85,127.85,0,0,0,12.6-6.84q6.48-4,12.78-8.46t10.63-7.38q5.74-4,6.66-2.52t-2.7,5.4q-6.14,6.48-13.15,12.78a141.26,141.26,0,0,1-14,11.16,103.43,103.43,0,0,1-13.68,8.11,41.48,41.48,0,0,1-11.34,4,29.93,29.93,0,0,1-8.64-.72,46.25,46.25,0,0,1-10.44-3.42,42,42,0,0,1-9-5.59,14.19,14.19,0,0,1-5-7.2q-2.52-9.72,0-22A105.29,105.29,0,0,1,350,162.7a177.55,177.55,0,0,1,14.76-24.85,215.71,215.71,0,0,1,18-22.32,157.32,157.32,0,0,1,18.9-17.46Q411.17,90.69,419.1,87.81Z"/><path class="cls-1" d="M551.59,84.57q2.88-1.08,7.56.72A41.45,41.45,0,0,1,568,90a25.21,25.21,0,0,1,6.3,5.94q2.18,3.06,0,5.22a107.8,107.8,0,0,1-7.74,7.74q-6.3,5.94-13.86,12.6t-14.58,12.78q-7,6.13-9.54,7.56a15.19,15.19,0,0,1-8.46,2.88,20.91,20.91,0,0,0-8.82,2.17,36.44,36.44,0,0,1,10.62,4.5,15.57,15.57,0,0,1,6.66,8.46c.23,1.44-.78,4.26-3.06,8.46s-4.86,8.64-7.74,13.32-5.47,8.88-7.74,12.6-3.19,5.94-2.7,6.66q.35.36,3.06-.72c1.8-.72,3.53-1.31,5.22-1.8a6.94,6.94,0,0,1,3.6-.36c.72.24.23,1.44-1.44,3.6a97.12,97.12,0,0,1-7,8.46,104.49,104.49,0,0,1-8.29,8.11,55.46,55.46,0,0,1-8.1,5.94,14,14,0,0,1-6.84,2.34,15.33,15.33,0,0,1-6.84-1.8,30.49,30.49,0,0,1-6.48-4.32,22.58,22.58,0,0,1-4.68-5.59,11.15,11.15,0,0,1-1.8-5.58q0-3.24,5-11.7T483.54,180q5.76-9,10.08-16.38t2.88-9.18q-.72-.72-5.76,3.42a141.71,141.71,0,0,0-11.34,10.62q-6.3,6.48-12.78,14.22a75.26,75.26,0,0,0-9.72,14.22l-2.16,3.6Q449,212,445.56,218.69c-2.29,4.44-4.5,6.9-6.66,7.38q-2.17.36-5.23-1.44a24.84,24.84,0,0,1-5.58-4.5,33.39,33.39,0,0,1-4.32-5.77,8.1,8.1,0,0,1-1.44-5.22q1.44-8.64,10.08-24.66T453.84,149q12.77-19.46,28.26-40.51t30.61-40.15q15.12-19.08,28.08-34.56t20.88-23.4c1.44-1.45,3.9-1.86,7.38-1.26a29.94,29.94,0,0,1,9.91,3.6,23.11,23.11,0,0,1,7.38,6.48c1.8,2.52,1.73,4.86-.18,7Q573.55,41.36,559,58.46T530,93q-14.4,17.46-27.73,34.38t-23.4,31.69q8.28-6.12,18.54-14.23a135.21,135.21,0,0,0,16.75-15.3q4.67-5,10.26-12.42t10.8-14.4q5.22-7,9.72-12.24T551.59,84.57Z"/><g id="sJH6Cz.tif"><path class="cls-2" d="M230.34,36c-.76-.35-.57-1-.62-1.46-.43-4.33-.83-8.67-1.23-13-.32-3.41-.58-6.82-1-10.24-.09-.85.13-1.06,1-1.12,10-.57,19.06-3.68,28.26-6.43,7.39-2.21,14.85-4.14,23-3.46a61.36,61.36,0,0,1,14.83,3.23c6.08,2.08,12.07,4.45,18.2,6.37,8.91,2.8,17.57,2.26,26-.16,6.91-2,13.45-4.72,20.22-7,9.41-3.15,19-2.65,28.93.07s19.71,6.05,29.88,7.52c7.64,1.11,15.1,1.06,22.12-1.51a66,66,0,0,0,7.52-3.64,48.35,48.35,0,0,1,26.12-5c1.4.1,1.9.51,2,1.86.65,7.54,1.41,15.07,2.15,22.61.1,1,.16,1.59-1.35,1.47-12.23-1-23.43,1.38-33.36,7C436,37.22,428.05,37.46,419.67,36c-6.66-1.16-13.1-3.3-19.6-5.2-7.54-2.21-15.13-4.16-22.93-4.48S362.21,27.62,355.26,30c-5.83,2-11.46,4.43-17.49,6a36.51,36.51,0,0,1-23.21-1.21c-7.17-2.75-14.31-5.65-21.82-7.32a61.68,61.68,0,0,0-30.75.8c-7.52,2.13-14.79,4.85-22.53,6.43a63,63,0,0,1-8.27,1.13Z"/><path class="cls-3" d="M234.4,70.31c-1.49-.4-1.37-1.17-1.43-1.76-.56-5.7-1.08-11.39-1.62-17.08-.14-1.41-.27-2.82-.43-4.23-.07-.67,0-1.13.91-1.17,9.73-.41,18.55-3.4,27.48-6.09,6.33-1.9,12.7-3.66,19.59-3.88,6-.19,11.86,1.14,17.69,2.85s11.56,4.08,17.34,6.12a44.94,44.94,0,0,0,26.57,1.08c7-1.76,13.49-4.43,20.1-6.88,11-4.08,22.23-3.23,33.83.22,9.7,2.89,19.38,5.92,29.42,7.08,9.58,1.11,18.3-.33,26.16-4.85,8.11-4.67,17.32-6.3,27.28-5.58,1,.08,1.71.24,1.82,1.47.62,7.2,1.33,14.41,2,21.62.05.57.41,1.3-.91,1.09-7.08-1.17-13.32.67-19.35,3.21-5.22,2.2-10.17,4.87-15.66,6.61-7.59,2.41-15.48,1.87-23.46.07-7.82-1.76-15.45-4.36-23.19-6.44A64.25,64.25,0,0,0,367.46,63c-6.92,1.53-13.38,4.07-20,6.18-7.38,2.34-14.86,1.65-22.52-.71C317.83,66.25,311,63.34,304,61.16c-8.25-2.54-16.6-4.25-25.07-3.94a36.25,36.25,0,0,0-15.49,4c-4.5,2.31-8.71,5-13.43,7-4.52,1.89-9.22,3.13-14.51,2.29C234.94,70.44,234.41,70.31,234.4,70.31Z"/></g><path class="cls-4" d="M164.05,268.81v18h-2.51V248.52h2.51v18H176v-18h2.57V286.8H176v-18Z"/><path class="cls-4" d="M197.52,278.33l-1.92,8.47h-2.29l8.36-38.33h3.67l8.53,38.33h-2.52l-1.91-8.47Zm.38-2.19h11.16l-5.64-24.77Z"/><path class="cls-4" d="M231,277.56c0,4.1,1.53,7.27,5.74,7.27s5.74-3.17,5.74-7.27v-29h2.35v28.93c0,5.47-2.29,9.68-8.14,9.68s-8.21-4.21-8.21-9.68V248.52H231Z"/><path class="cls-4" d="M276.26,257.76v.82h-2.4v-1c0-4.05-1.54-7.11-5.69-7.11s-5.69,3-5.69,7.06c0,9.29,13.84,9.46,13.84,20,0,5.52-2.41,9.57-8.26,9.57s-8.26-4.05-8.26-9.57v-2h2.41v2.14c0,4.1,1.58,7,5.79,7s5.8-2.95,5.8-7c0-9.19-13.84-9.36-13.84-20,0-5.74,2.52-9.46,8.15-9.52C273.91,248.19,276.26,252.24,276.26,257.76Z"/><path class="cls-4" d="M318.75,248.52c5.74,0,7.82,2.85,7.82,8.15v2.19c0,4.15-1.15,6.72-5,7.54,4.15.83,5.74,3.89,5.74,8.21v3.33c0,5.53-2.51,8.86-8.37,8.86h-8.2V248.52Zm-1.26,16.9c4.49,0,6.56-1.2,6.56-6.07v-2.46c0-4-1.25-6.07-5.36-6.07h-5.46v14.6Zm1.42,19.09c4.21,0,5.86-2.36,5.86-6.62v-3.45c0-5-2.25-6.72-6.79-6.72h-4.75v16.79Z"/><path class="cls-4" d="M344.72,277.56c0,4.1,1.53,7.27,5.75,7.27s5.74-3.17,5.74-7.27v-29h2.35v28.93c0,5.47-2.3,9.68-8.15,9.68s-8.2-4.21-8.2-9.68V248.52h2.51Z"/><path class="cls-4" d="M381.8,248.52c5.85,0,8.2,3.23,8.2,8.64v3.34c0,4.48-1.75,7.05-5.52,7.93,3.94.87,5.52,3.66,5.52,7.82v6a8.55,8.55,0,0,0,.93,4.59h-2.62a8.92,8.92,0,0,1-.82-4.59v-6c0-5.08-2.79-6.5-7.17-6.5h-4V286.8h-2.52V248.52Zm-1.42,18.87c4.48,0,7.11-1.26,7.11-6.4v-3.61c0-4.1-1.59-6.56-5.75-6.56h-5.41v16.57Z"/><path class="cls-4" d="M422.21,257.87v2.85H419.8v-3c0-4.1-1.58-7.22-5.79-7.22s-5.8,3.12-5.8,7.22v19.91c0,4.1,1.59,7.16,5.8,7.16s5.79-3.06,5.79-7.16v-8.26h-5.08v-2.3h7.49v10.39c0,5.53-2.41,9.68-8.26,9.68s-8.26-4.15-8.26-9.68V257.87c0-5.52,2.41-9.68,8.26-9.68S422.21,252.35,422.21,257.87Z"/><path class="cls-4" d="M450.32,266.24v2.3H439.87v16h12.58v2.29h-15.1V248.52h15.1v2.3H439.87v15.42Z"/><path class="cls-4" d="M475.47,248.52c5.85,0,8.2,3.23,8.2,8.64v3.34c0,4.48-1.75,7.05-5.52,7.93,3.94.87,5.52,3.66,5.52,7.82v6a8.55,8.55,0,0,0,.93,4.59H482a8.92,8.92,0,0,1-.82-4.59v-6c0-5.08-2.79-6.5-7.17-6.5h-4V286.8h-2.52V248.52Zm-1.42,18.87c4.48,0,7.11-1.26,7.11-6.4v-3.61c0-4.1-1.59-6.56-5.75-6.56H470v16.57Z"/></g></g></svg>