<svg xmlns="http://www.w3.org/2000/svg" viewBox="0 0 821.62 400.81"><defs><style>.cls-1{fill:#231f20;}</style></defs><title>tablero-default</title><g id="Layer_2" data-name="Layer 2"><g id="Layer_1-2" data-name="Layer 1"><g id="A7Z3eS.tif"><path class="cls-1" d="M804.34,241.48C793,251.94,779,258,762.74,258.1c-16,.1-32.08,0-48.12.17a64,64,0,0,0-13.41,1.25c-16.57,3.73-25.21,14.6-25.3,31.52-.12,23.56-.35,79.39,0,103,.08,5.86-1.76,6.83-7.14,6.82-134.34-.15-526.88-.16-661.22,0-5.6,0-7.54-1.06-7.53-7.22C.21,286.05.2,114,0,6.46,0,1.07,1.49,0,6.61,0,141.2.18,534,.19,668.58,0c6.16,0,7.34,1.9,7.29,7.56-.24,23.05,0,78.39.07,101.45.11,21.53,10.23,32.46,32,33.25,18.52.67,37.09.19,55.63.41,24.17.29,41.34,12,52.17,33.15C826.68,197.31,822.09,223.88,804.34,241.48Zm-16.39-19a48.2,48.2,0,0,0,3.91-5.46c12.07-21.4-2.84-48-27.82-48.83-18.52-.63-37.07-.07-55.61-.25-29.49-.29-60-22.32-58-59.34.79-14.49-.18-61.34.14-75.86.12-5.39-1-7.24-6.9-7.23-117.76.18-493.73.16-611.48,0-5,0-6.69.86-6.68,6.37.2,90.69.21,245.94,0,336.64,0,6,1.89,6.82,7.2,6.82,117.5-.14,493.22-.15,610.73.09,6.3,0,7.22-2.12,7.12-7.57-.27-15.78,0-63.84,0-79.63,0-10,2.07-19.4,7.59-27.84,12.3-18.79,30.34-27,52.18-27.53,16.77-.39,33.57-.07,50.36-.1C770.45,232.71,779.54,230.64,788,222.45Z"/><path class="cls-1" d="M773,213.54a19.5,19.5,0,1,1,.11-27.61A19.48,19.48,0,0,1,773,213.54Z"/></g><path class="cls-1" d="M86.41,271.59V252.33h6.73v-72H84.69V197h-15v-34.7h72.52V197h-15V180.36h-8.46v72h6.58v19.26Z"/><path class="cls-1" d="M139.11,271.59V252.33h5.1l18.16-70.56h-8.06V162.34h52v19.43h-7.6l17.54,70.56h5.09v19.26H183.52V252.33h7.83l-2-11.2H168.4l-2.35,11.2h7.68v19.26Zm32.35-44.87h15.27l-7.21-38.38Z"/><path class="cls-1" d="M227.3,271.59V252.33H234V181.77H227.3V162.34H266q15.66,0,23.07,6.11t7.4,19v2.9q0,10.81-4.86,16.45t-15.35,7.12q11.67,1.41,16.88,7t5.21,16.68v4.94q0,15.5-6.93,22.28t-22.83,6.77Zm30.93-66.41h4.39q6.25,0,8.57-2t2.31-7.29V190c0-3.45-.82-5.91-2.47-7.4s-4.34-2.23-8.1-2.23h-4.7Zm0,48.63h4.86c4,0,6.8-.94,8.49-2.82s2.55-5,2.55-9.39v-8.54q0-5.48-2.78-8t-8.89-2.54h-4.23Z"/><path class="cls-1" d="M307.8,271.59V252.33h6.74V181.77H307.8V162.34H347v19.43h-6.74V253h18.1V234.08h20v37.51Z"/><path class="cls-1" d="M385.41,271.59V252.33h6.74V181.77h-6.74V162.34h71.66v32.74H437V181H417.83V204.4h16.92v21.14H417.83V253H437V236h20.05v35.63Z"/><path class="cls-1" d="M466.7,271.59V252.33h6.74V181.77H466.7V162.34h39.94q18.57,0,26.12,5.68t7.56,19.23v6.89q0,9.95-4.74,15t-15,5.87q10.81,1.72,15.27,5.87t4.47,12.22v19.27h6.42v19.26H515.49v-37q0-6.42-3.13-8.81t-11.83-2.39h-1.41v29h5.64v19.26Zm32.42-66.1h6.43c3.65,0,6.22-.62,7.71-1.88s2.23-3.39,2.23-6.42v-8.06q0-4.62-2.54-6.39T502.65,181h-3.53Z"/><path class="cls-1" d="M615.5,193v48.17q0,16.05-8.14,24.39t-23.77,8.34q-15.65,0-23.78-8.34t-8.14-24.39V193q0-16.05,8.14-24.35t23.78-8.3q15.63,0,23.77,8.3T615.5,193ZM590,190.77q0-4.77-1.56-7.05a5.45,5.45,0,0,0-4.82-2.27,5.29,5.29,0,0,0-4.75,2.23q-1.49,2.23-1.48,7.09V243.4q0,4.86,1.48,7a5.31,5.31,0,0,0,4.75,2.19,5.44,5.44,0,0,0,4.86-2.23q1.51-2.24,1.52-7Z"/><path class="cls-1" d="M161.43,310.78l1.75-2.07a11.87,11.87,0,0,0,8.56,3.54c3.36,0,5.57-1.79,5.57-4.25v-.08c0-2.31-1.25-3.63-6.49-4.74-5.75-1.25-8.39-3.11-8.39-7.21v-.07c0-3.93,3.46-6.82,8.21-6.82a13.07,13.07,0,0,1,8.78,3.07l-1.64,2.18a11,11,0,0,0-7.21-2.71c-3.25,0-5.32,1.78-5.32,4v.07c0,2.36,1.28,3.68,6.78,4.85s8.14,3.25,8.14,7.07v.07c0,4.28-3.57,7.07-8.53,7.07A14.6,14.6,0,0,1,161.43,310.78Z"/><path class="cls-1" d="M202.68,292h-8.39v-2.6h19.63V292h-8.39v22.38h-2.85Z"/><path class="cls-1" d="M229.89,289.44H248V292H232.72v8.53h13.63v2.57H232.72v8.74h15.41v2.57H229.89Z"/><path class="cls-1" d="M273.75,289.26h2.64l11.38,25.16h-3l-2.93-6.6h-13.6l-3,6.6h-2.89Zm6.95,16L275,292.54l-5.71,12.71Z"/><path class="cls-1" d="M303.39,289.44h2.82v14.92l14.34-14.92h3.65l-10.71,10.92,11.17,14.06h-3.53l-9.6-12.1-5.32,5.39v6.71h-2.82Z"/><path class="cls-1" d="M361.15,289.44H364v11.1h14.42v-11.1h2.82v25h-2.82V303.18H364v11.24h-2.82Z"/><path class="cls-1" d="M397.86,302v-.07a12.74,12.74,0,1,1,25.48-.07v.07a12.74,12.74,0,1,1-25.48.07Zm22.56,0v-.07c0-5.67-4.15-10.31-9.85-10.31s-9.78,4.57-9.78,10.24v.07c0,5.68,4.13,10.32,9.85,10.32S420.42,307.68,420.42,302Z"/><path class="cls-1" d="M439.6,304V289.44h2.82v14.35c0,5.39,2.89,8.42,7.64,8.42s7.53-2.79,7.53-8.25V289.44h2.82v14.31c0,7.28-4.18,11.06-10.42,11.06S439.6,311,439.6,304Z"/><path class="cls-1" d="M476.13,310.78l1.75-2.07a11.89,11.89,0,0,0,8.57,3.54c3.35,0,5.56-1.79,5.56-4.25v-.08c0-2.31-1.25-3.63-6.49-4.74-5.75-1.25-8.39-3.11-8.39-7.21v-.07c0-3.93,3.46-6.82,8.21-6.82a13.05,13.05,0,0,1,8.78,3.07l-1.64,2.18a11,11,0,0,0-7.21-2.71c-3.25,0-5.32,1.78-5.32,4v.07c0,2.36,1.29,3.68,6.78,4.85s8.14,3.25,8.14,7.07v.07c0,4.28-3.57,7.07-8.53,7.07A14.62,14.62,0,0,1,476.13,310.78Z"/><path class="cls-1" d="M511.31,289.44h18.06V292H514.13v8.53h13.63v2.57H514.13v8.74h15.41v2.57H511.31Z"/><rect class="cls-1" x="91.55" y="298.49" width="52.02" height="2.14"/><rect class="cls-1" x="550.51" y="298.49" width="52.02" height="2.14"/><path class="cls-1" d="M585.33,80.4c-2.75-10.55-9.74-16-20.53-16.53-9.5-.47-19-1.33-28.52-1.06-52.13,1.48-104.26,3.26-156.4,4.92-2.65.08-5.46-.31-6.68,3-2.7-3.71-6.7-3-10.43-3-57.86.18-115.72,0-173.56.82C164,68.88,140,76.83,114.08,83.79,148,107.8,182.81,124.3,222,129.86c45.64,6.48,91.71,8.14,137.71,10.38,2.53.13,6.55,1.37,7.25-1.47,2.34-9.53,10.13-26.27,11.36-29.39,3.15-7.93,9.43-7.8,16.16-6.49,6.35,1.23,12.67,2.58,19,4,36,7.89,71.87,8,107.31-2.47,11-3.25,20.15-7,31,2.24,8.29,7,19.14,3,27.44-3.41C586.72,97.42,587.61,89.13,585.33,80.4Z"/></g></g></svg>