<svg xmlns="http://www.w3.org/2000/svg" viewBox="0 0 1039.38 251.32"><defs><style>.cls-1{fill:#f4876a;}</style></defs><title>Te Vejo No 3</title><g id="Camada_2" data-name="Camada 2"><g id="Camada_12" data-name="Camada 12"><path class="cls-1" d="M535.13,155a222.23,222.23,0,0,0,36.39-29.16,18.69,18.69,0,0,0,3.45-5.73c10.36-22.7,25.26-41.58,46.7-54.82a38.94,38.94,0,0,1,17.23-6.09c4.32-.38,7.77-3.57,12.12-4.53,18.89-4.15,33.11,5.94,35.39,25.24,1.85,15.66-3.46,29.57-10.08,43.2-.64,1.33-1.36,2.63-2.23,4.3,3.92.43,7-1,10-2.4A62.28,62.28,0,0,0,702,112.15c3.45-3.4,5.86-3.48,8.88-.51,3.33,3.25,3.46,7,.32,10.14-9.86,9.87-20.52,18.6-34,23.22-3.26,1.13-6.68,2.31-10.1,2-4.85-.41-7.81,1.51-10.95,5.13-12,13.84-25.94,25.08-44.22,29.74A43.41,43.41,0,0,1,594.09,183c-15.44-2.58-24-11.93-25.59-27.61-.25-2.38-.5-4.75-.81-7.73-7,5.47-13.6,10.85-20.76,15.46-4.41,2.86-8.65,6.1-13.36,8.37-6.3,3.05-10,7.83-13.08,14-9.49,18.67-20,36.75-35.53,51.28-7.61,7.11-16.18,12.39-26.67,14.14-14.22,2.39-27.46-5.95-29-18.45-1.49-11.83,4.3-20.18,13.11-27,9.45-7.33,20.24-12.33,30.89-17.56,7.67-3.77,15.42-7.39,23.09-11.15,1.4-.69,2.9-1.15,3.65-3,6.49-16.1,12.52-32.36,17.69-49.18-3,3.34-5.88,6.73-8.92,10C492.92,151.7,475.6,167,454,176.6c-12.43,5.52-25.35,8.4-39.08,5.94C395,179,386,163.89,387.07,145.48c.13-2.08.43-4.16.69-6.64-5,1.24-9.41,2.94-14.2,3.29-6.86.5-13.28-.65-18.76-4.81-2.53-1.92-3.59-1.13-5.33.78-12.4,13.67-25.93,26.08-41.7,35.82-8.09,5-16.62,9.2-26.4,9.42-11.91.27-19.79-7.34-20.56-19.22-.75-11.55,2.35-22.33,6.27-32.94A243.88,243.88,0,0,1,302.19,67a65.11,65.11,0,0,1,6-6.72c4.53-4.49,7.1-4.81,12.85-1.83a26.43,26.43,0,0,1,6.56,4.75c6,6,6.14,8.46,1.31,15.44-13.29,19.21-24.64,39.42-31.26,62a44.68,44.68,0,0,0-1.32,5.69c-.9,5.8,1.78,7.86,7.36,5.67,6.14-2.4,11.1-6.6,15.91-10.93A208.6,208.6,0,0,0,341,118.35a6.57,6.57,0,0,0,1.52-4.45c.6-23.78,11.64-41.8,30.87-55.15a21,21,0,0,1,10-3.87c7.16-.67,11.23,4.28,10.16,12.32s-4.43,15.23-8.17,22.27a181.37,181.37,0,0,1-17.19,26.43c-2.29,2.94-1.22,4,1.49,5,8.82,3.4,16.8.83,24.47-3.52,1.5-.85,1.8-2.72,2.54-4.18,10-19.81,23.43-36.8,42-49.31,11.42-7.7,23.79-12.58,37.8-9.29,17.8,4.17,26.64,20.41,20.06,37.47-7.89,20.44-24,32.15-44.21,38.68a41.75,41.75,0,0,1-25.76.42c-1.38-.43-2.35-.8-2.92,1.29-1.45,5.31-2.26,10.66-1.38,16.07.93,5.7,5,8.94,11,9.52,11.9,1.15,22.57-2.71,32.7-8.3,19.41-10.72,35.15-25.65,48.87-42.9,10.5-13.2,20.53-26.68,28.89-41.4,6.71-11.81,21.61-11,28.24,1.1.8,1.46,1.52,2.84.37,4.6-10,15.17-15.49,32.41-22.6,48.9C544.86,131.33,540.26,142.66,535.13,155Zm88.55-59.09A130.44,130.44,0,0,0,611,116.43c-4.76,9.76-8.74,19.73-8.13,30.89.41,7.49,3.81,10.63,11.32,9.93,11.78-1.1,19.65-8.83,27.29-16.78,1.34-1.39,0-2.14-.87-2.88a42.24,42.24,0,0,1-7.53-8.92C626.94,119,623.89,108.41,623.68,95.87Zm43-6.73c-.05-1.18-.07-2.84-.22-4.48a14.34,14.34,0,0,0-14.29-13.5c-5.05-.16-15.14,8-15.46,13.15-1,15,4.72,27.24,15.76,37.19,1.15,1,2,1.56,3-.29C661,111.29,665.75,101.14,666.72,89.14ZM431.28,120.2a24.27,24.27,0,0,0,12.78-4.15c13.14-8.22,22.26-20,29-33.71A32.47,32.47,0,0,0,476.11,73c.62-4-1.24-5.62-5.23-4.64-3.75.92-6.78,3.17-9.62,5.63-13.83,12-24,26.76-32.08,43.09C427.87,119.71,427.85,121.13,431.28,120.2Zm59.62,73.66c-11.59,6.11-22.69,10.75-32.16,18.28a18.83,18.83,0,0,0-6.23,7.55c-2.46,6.09,1,11.06,7.49,10.76,5.35-.26,9.16-3.46,12.58-7.13C480.33,215,485.48,205,490.9,193.86Z"/><path class="cls-1" d="M860.5,82.07c-13.35,11.14-25.23,23.77-37,36.47C809,134.1,795,150.11,782.5,167.32a98.68,98.68,0,0,0-6.34,9.84c-3.92,7.05-10.67,8.4-16.7,3-6.64-6-8-14-7.3-22.3,1-12,6-22.86,11-33.61,9.4-20.2,20.44-39.45,34-57.15a53.36,53.36,0,0,1,8-8.55,6.86,6.86,0,0,1,3.5-1.88c6.33-.83,17.59,8.62,17.77,15,0,1.68-1,2.74-2,3.93C811.59,92,801.14,110.07,792,128.9c-.48,1-1.45,1.93-.45,3.85,4.22-5,8.22-9.72,12.3-14.42,16.33-18.79,33.06-37.22,52.51-52.89,5.3-4.28,10.56-9.1,18.22-8.82,9.12.35,19,7.5,22.13,16.08a9.13,9.13,0,0,1-1.49,9.55c-13.68,17.89-24.9,37.14-31,59a31.12,31.12,0,0,0-1.25,7.08c-.18,4.2,2,5.44,5.66,3.45a50.28,50.28,0,0,0,10.71-8.26c6-5.73,11.79-11.66,17.66-17.52a21.28,21.28,0,0,0,4-6.4c10.49-22.42,25.22-41.29,46.58-54.39a39.3,39.3,0,0,1,17.23-6.08c4.31-.38,7.77-3.57,12.11-4.52,18.71-4.12,32.94,5.83,35.33,24.81,2,15.82-3.35,29.87-10,43.65-.64,1.33-1.36,2.62-2.29,4.41,5.42.06,9.62-2.11,13.73-4.37a67.22,67.22,0,0,0,14.61-11.3c3.15-3.09,5.61-3.07,8.55-.19,3.2,3.15,3.46,6.91.6,9.81-9.91,10-20.67,18.86-34.25,23.55-3.27,1.13-6.69,2.31-10.11,2-4.84-.41-7.81,1.51-10.95,5.13-12,13.84-25.93,25.08-44.21,29.74A43.41,43.41,0,0,1,920,183c-15.44-2.57-23.94-11.89-25.6-27.6-.16-1.48-.44-2.95-.76-5.11-7.3,7.44-14.27,14.49-22.19,20.47-6.74,5.08-13.67,9.79-22.08,11.77-12.53,3-22.07-4.28-22.76-17.24s3.92-24.75,8.88-36.39c6.9-16.21,16.11-31.14,25.75-45.83.78-.62,2.06-1.51,1.35-2.3S861.07,81.38,860.5,82.07Zm89,14.06a112.86,112.86,0,0,0-12.87,20.76c-4.5,9.2-8.17,18.66-8,29.14.16,8.8,3.7,12.21,12.35,11.12,11.31-1.43,19-9,26.38-16.73,1.33-1.41-.15-2.14-1-2.87a44.12,44.12,0,0,1-7.75-9.32C952.71,118.67,949.79,108.19,949.52,96.13Zm30.73,27.06C987,110.93,993.38,99,992.37,84.79a14.29,14.29,0,0,0-14.61-13.64c-5.5,0-15.1,8.81-15.26,14.38C962.07,100.85,968.35,113.08,980.25,123.19ZM790.32,133.45c.75.21.89-.23.94-.65,0-.11-.45-.43-.57-.38a4.5,4.5,0,0,0-.91.68Z"/><path class="cls-1" d="M84.39,146C72.62,156.63,61,166.39,47.79,174c-8.62,5-17.51,9.37-27.83,9.38C8.23,183.38.83,176.23.1,164.56c-.8-12.69,3.42-24.26,7.62-35.85,1-2.67,2.1-5.29,3.31-7.87,1-2.17,1.54-3.91-.56-6s-1.83-4.58.3-7.15A337.18,337.18,0,0,0,33.44,76.94c-2.74-.92-5.43-.13-8-.88-3.91-1.15-6.39-3.5-7-7.42a14.9,14.9,0,0,1,3.43-11.78c.93-1.14,2.53-.74,3.87-.75,5.88,0,11.77-.15,17.65.06,2.75.1,4.35-.88,5.88-3.09A337.09,337.09,0,0,1,76.6,18.24c1.42-1.56,2.82-3.15,4.35-4.6,3-2.85,5.81-6.5,10.81-4.67,6.24,2.28,11.61,5.69,14.3,12.16,1,2.37-.45,3.9-2,5.49-8.68,9-16,19.08-23.87,30,8,0,15.31.28,22.57-.08,6.29-.31,6.92,2.61,4.31,7.49-3.44,6.42-8.91,9.47-16.08,9.88-6.92.39-13.83,1-20.74,1.41a4.53,4.53,0,0,0-4,2.28c-11.12,17.67-21.91,35.51-29.48,55.08-2,5-3.67,10.18-3.31,15.74.31,4.8,2,6.36,6.88,6.08,3.85-.21,7.26-1.83,10.6-3.53,14.35-7.33,26.69-17.38,38.31-28.41,1.57-1.5,2.3-3.47,3.19-5.36,10.09-21.54,24.12-39.87,44-53.32,9.63-6.53,20.08-10.73,32.06-10.06,20.58,1.16,33.06,19.3,25.53,38.49-8.51,21.73-25.84,33.68-47.76,39.45a38.07,38.07,0,0,1-22.26-.57c-1.6-.55-2.28-.29-2.79,1.55a37.52,37.52,0,0,0-1.39,15.63c.86,5.88,5,9.2,11.25,9.78,11.74,1.09,22.24-2.75,32.28-8.18,17.33-9.39,31.64-22.45,44.43-37.24,2.58-3,4.89-5,8.59-1.77s4.14,7,1.23,10.59c-16.73,20.65-35.44,39.06-59.07,51.8-10.68,5.75-22,9.54-34.27,10.06C104.83,184.19,84.82,175.9,84.39,146ZM129,120.18a21.23,21.23,0,0,0,9.54-2.47c10.2-4.91,17.63-12.93,24.16-21.86,4.89-6.68,9.08-13.79,10.92-22,1.09-4.9-1.25-7-6-5.32A27,27,0,0,0,158.9,74c-13.81,12-24,26.77-32.06,43.1C125.5,119.77,125.58,121.12,129,120.18Z"/><path class="cls-1" d="M603.36,13.13c-.22,10.9-10.67,22.29-22.47,24.5-1,.19-2.08.36-3.12.53-9.17,1.46-14.56-3.53-13.74-12.73C565.17,12.56,576.21,1.27,588.82.06A13,13,0,0,1,603.36,13.13Z"/></g></g></svg>