<svg xmlns="http://www.w3.org/2000/svg" viewBox="0 0 456.57 110.447">
  <defs>
    <style>
      .cls-1 {
        fill: #fb6d4d;
      }
    </style>
  </defs>
  <g id="Group_41" data-name="Group 41" transform="translate(0)">
    <path id="XMLID_11_" class="cls-1" d="M238.162,69.543A99.455,99.455,0,0,0,254.191,56.76a7.277,7.277,0,0,0,1.475-2.557c4.524-9.932,11.112-18.291,20.553-24.093a17.055,17.055,0,0,1,7.572-2.655c1.868-.2,3.442-1.573,5.31-1.967,8.26-1.868,14.554,2.655,15.537,11.112.787,6.884-1.475,12.981-4.425,18.979-.3.59-.59,1.18-.983,1.868a8.219,8.219,0,0,0,4.425-1.082,29.454,29.454,0,0,0,7.867-5.605c1.475-1.475,2.557-1.573,3.934-.2,1.475,1.475,1.475,3.048.1,4.425-4.327,4.327-9.047,8.162-14.947,10.227a11.838,11.838,0,0,1-4.425.885c-2.163-.2-3.442.688-4.819,2.262-5.31,6.1-11.407,11.014-19.471,13.079a17.716,17.716,0,0,1-7.867.492q-10.178-1.77-11.211-12.1c-.1-1.082-.2-2.065-.393-3.442-3.048,2.36-6,4.72-9.145,6.785a52.968,52.968,0,0,1-5.9,3.639,12.277,12.277,0,0,0-5.7,6.1c-4.13,8.162-8.752,16.127-15.636,22.52a22.277,22.277,0,0,1-11.7,6.2c-6.294,1.082-12.1-2.655-12.784-8.064-.688-5.212,1.868-8.85,5.8-11.9,4.13-3.245,8.85-5.409,13.571-7.769,3.344-1.672,6.785-3.245,10.129-4.917.59-.3,1.278-.492,1.573-1.278,2.852-7.08,5.507-14.259,7.769-21.634-1.278,1.475-2.557,2.95-3.934,4.425-6.982,7.572-14.554,14.259-24.093,18.488-5.507,2.458-11.112,3.737-17.209,2.655-8.555-1.573-12.587-8.162-12.1-16.324q.147-1.328.3-2.95a37.616,37.616,0,0,1-6.2,1.475,12.166,12.166,0,0,1-8.26-2.065c-1.082-.885-1.573-.492-2.36.3A84.656,84.656,0,0,1,138.25,77.8c-3.54,2.163-7.277,4.032-11.6,4.13-5.212.1-8.654-3.245-9.047-8.457-.295-5.114,1.082-9.834,2.754-14.456A108.074,108.074,0,0,1,135.792,30.8a18.957,18.957,0,0,1,2.655-2.95c1.967-1.967,3.147-2.163,5.605-.787a12.488,12.488,0,0,1,2.852,2.065c2.655,2.655,2.655,3.737.59,6.785-5.8,8.457-10.817,17.308-13.767,27.24a22.3,22.3,0,0,0-.59,2.458c-.393,2.557.787,3.442,3.245,2.458a24.6,24.6,0,0,0,6.982-4.819,81.812,81.812,0,0,0,9.342-10.031,2.835,2.835,0,0,0,.688-1.967c.3-10.424,5.114-18.389,13.571-24.29a8.688,8.688,0,0,1,4.425-1.672c3.147-.3,4.917,1.868,4.425,5.409a29.71,29.71,0,0,1-3.638,9.834,75.872,75.872,0,0,1-7.572,11.6c-.983,1.278-.492,1.77.688,2.262,3.835,1.475,7.375.393,10.719-1.573.688-.393.787-1.18,1.082-1.868,4.425-8.752,10.326-16.127,18.488-21.634,5.015-3.344,10.424-5.507,16.619-4.13,7.867,1.868,11.7,8.949,8.85,16.521-3.442,8.949-10.522,14.161-19.471,17.013a18.513,18.513,0,0,1-11.309.2c-.59-.2-1.082-.393-1.278.59a17.352,17.352,0,0,0-.59,7.08c.393,2.458,2.163,3.934,4.819,4.229,5.212.492,9.932-1.18,14.357-3.639,8.555-4.72,15.439-11.309,21.438-18.881A136.821,136.821,0,0,0,241.7,30.11c2.95-5.212,9.539-4.819,12.391.492.393.688.688,1.278.2,2.065-4.425,6.687-6.785,14.259-9.932,21.536C242.391,59.12,240.424,64.135,238.162,69.543ZM277.1,43.484a61.241,61.241,0,0,0-5.605,9.047c-2.065,4.327-3.835,8.654-3.54,13.571.2,3.245,1.672,4.622,5.015,4.327,5.212-.492,8.654-3.835,12-7.375.59-.59,0-.983-.393-1.278a21.44,21.44,0,0,1-3.343-3.934A25.665,25.665,0,0,1,277.1,43.484Zm18.881-2.95a14.547,14.547,0,0,0-.1-1.967,6.264,6.264,0,0,0-6.294-5.9c-2.262-.1-6.687,3.54-6.785,5.8a19.481,19.481,0,0,0,6.884,16.324c.492.492.885.688,1.377-.1C293.428,50.269,295.592,45.844,295.985,40.534ZM192.533,54.2a10.329,10.329,0,0,0,5.605-1.868,34.7,34.7,0,0,0,12.784-14.849,14.589,14.589,0,0,0,1.377-4.13c.3-1.77-.59-2.458-2.262-2.065a10.208,10.208,0,0,0-4.229,2.458,59.327,59.327,0,0,0-14.062,18.979C190.96,54.006,190.96,54.6,192.533,54.2Zm26.158,32.452c-5.114,2.655-9.932,4.72-14.161,8.064a8.286,8.286,0,0,0-2.753,3.344c-1.082,2.655.393,4.819,3.245,4.72,2.36-.1,4.032-1.475,5.507-3.147C214.069,95.9,216.331,91.473,218.691,86.654Z" transform="translate(-2.884 -1.373)"/>
    <path id="XMLID_6_" class="cls-1" d="M384.793,37.5a179.421,179.421,0,0,0-16.324,16.029,233.257,233.257,0,0,0-18,21.438,40.121,40.121,0,0,0-2.754,4.327c-1.77,3.048-4.72,3.737-7.375,1.278-2.95-2.655-3.54-6.2-3.245-9.834.393-5.31,2.655-10.031,4.819-14.751a132,132,0,0,1,14.947-25.076,21.257,21.257,0,0,1,3.54-3.737,2.428,2.428,0,0,1,1.573-.787c2.754-.393,7.769,3.835,7.769,6.589,0,.787-.492,1.18-.885,1.77a126.937,126.937,0,0,0-14.259,23.5,1.587,1.587,0,0,0-.2,1.672c1.868-2.163,3.639-4.229,5.409-6.294,7.179-8.26,14.554-16.324,23.11-23.208,2.36-1.868,4.622-4.032,7.965-3.835a11.569,11.569,0,0,1,9.736,7.08,4.01,4.01,0,0,1-.688,4.229c-6,7.867-10.916,16.324-13.669,25.961a16.208,16.208,0,0,0-.59,3.147c-.1,1.868.885,2.36,2.458,1.475a24.175,24.175,0,0,0,4.72-3.639c2.655-2.557,5.212-5.114,7.769-7.67a9.319,9.319,0,0,0,1.77-2.852c4.622-9.834,11.112-18.193,20.454-23.9a17.489,17.489,0,0,1,7.572-2.655c1.868-.2,3.442-1.573,5.31-1.967,8.26-1.77,14.456,2.557,15.537,10.916.885,6.982-1.475,13.079-4.425,19.176l-.983,1.967a11.183,11.183,0,0,0,6-1.967,30.774,30.774,0,0,0,6.392-4.917c1.377-1.377,2.458-1.377,3.737-.1a2.938,2.938,0,0,1,.3,4.327c-4.327,4.425-9.047,8.26-15.046,10.326a11.838,11.838,0,0,1-4.425.885c-2.164-.2-3.442.688-4.819,2.262-5.31,6.1-11.407,11.014-19.471,13.079a17.716,17.716,0,0,1-7.867.492q-10.178-1.77-11.21-12.1c-.1-.688-.2-1.278-.3-2.262a91.173,91.173,0,0,1-9.735,8.949c-2.95,2.262-6,4.327-9.736,5.212-5.507,1.278-9.735-1.868-10.031-7.572s1.77-10.916,3.933-16.029a135.4,135.4,0,0,1,11.309-20.159c.3-.3.885-.688.59-.983C385.383,36.611,385.088,37.2,384.793,37.5Zm39.139,6.2a53.923,53.923,0,0,0-5.7,9.145c-1.967,4.032-3.638,8.162-3.54,12.784.1,3.835,1.672,5.409,5.409,4.917,5.015-.59,8.359-3.934,11.6-7.375.59-.59-.1-.983-.393-1.278a17.5,17.5,0,0,1-3.442-4.13A27.219,27.219,0,0,1,423.932,43.691ZM437.4,55.59c2.95-5.409,5.8-10.621,5.31-16.914a6.3,6.3,0,0,0-6.392-6c-2.458,0-6.589,3.835-6.687,6.294C429.439,45.756,432.192,51.066,437.4,55.59Zm-83.489,4.425c.295.1.393-.1.393-.3,0-.1-.2-.2-.3-.2a1.357,1.357,0,0,0-.393.3C353.816,60.015,353.915,60.015,353.915,60.015Z" transform="translate(-6.531 -1.383)"/>
    <path id="XMLID_3_" class="cls-1" d="M38.073,65.278C32.861,69.9,27.747,74.227,21.945,77.57c-3.737,2.163-7.67,4.13-12.194,4.13C4.638,81.7,1.294,78.554,1,73.44.606,67.835,2.474,62.819,4.343,57.706a21.334,21.334,0,0,1,1.475-3.442c.492-.983.688-1.672-.2-2.655-.983-.983-.787-1.967.1-3.147A135.951,135.951,0,0,0,15.652,34.99c-1.18-.393-2.36-.1-3.54-.393a3.743,3.743,0,0,1-3.048-3.245,6.8,6.8,0,0,1,1.475-5.212c.393-.492,1.082-.3,1.672-.3,2.557,0,5.212-.1,7.769,0a2.764,2.764,0,0,0,2.557-1.377,164.83,164.83,0,0,1,12-15.341c.59-.688,1.278-1.377,1.868-2.065C37.876,5.783,39.154,4.21,41.318,5c2.753.983,5.114,2.458,6.294,5.31.393,1.082-.2,1.672-.885,2.458A110.38,110.38,0,0,0,36.2,25.943c3.54,0,6.687.1,9.932,0,2.753-.1,3.048,1.18,1.868,3.245a7.9,7.9,0,0,1-7.08,4.327l-9.145.59a2.2,2.2,0,0,0-1.77.983c-4.917,7.769-9.637,15.636-12.981,24.191a17,17,0,0,0-1.475,6.884c.1,2.065.885,2.753,3.048,2.655a11.247,11.247,0,0,0,4.622-1.573A74.73,74.73,0,0,0,40.039,54.756a7.1,7.1,0,0,0,1.377-2.36c4.425-9.44,10.621-17.5,19.373-23.4,4.229-2.852,8.85-4.72,14.062-4.425,9.047.492,14.554,8.457,11.211,16.914-3.737,9.539-11.309,14.849-20.946,17.308a16.017,16.017,0,0,1-9.834-.3c-.688-.2-.983-.1-1.18.688a16.286,16.286,0,0,0-.59,6.884c.393,2.557,2.163,4.032,4.917,4.327,5.114.492,9.735-1.18,14.161-3.639,7.572-4.13,13.866-9.834,19.569-16.324,1.18-1.278,2.163-2.163,3.737-.787a3.056,3.056,0,0,1,.492,4.622C89.012,63.311,80.85,71.473,70.426,77.078A32.142,32.142,0,0,1,55.577,81.7C47.12,82,38.269,78.357,38.073,65.278ZM57.74,53.871a10.766,10.766,0,0,0,4.229-1.082c4.524-2.163,7.769-5.7,10.621-9.637a26.16,26.16,0,0,0,4.819-9.637c.492-2.163-.59-3.048-2.655-2.36a11.9,11.9,0,0,0-3.835,2.36A59.327,59.327,0,0,0,56.855,52.494C56.167,53.674,56.167,54.264,57.74,53.871Z" transform="translate(-0.946 -1.04)"/>
    <path id="XMLID_2_" class="cls-1" d="M270.409,6.8c-.1,4.819-4.72,9.834-9.834,10.719a6.64,6.64,0,0,1-1.377.2c-4.032.688-6.392-1.573-6-5.605A12.447,12.447,0,0,1,264.115,1,5.76,5.76,0,0,1,270.409,6.8Z" transform="translate(-5.137 -0.977)"/>
  </g>
</svg>
