<svg xmlns="http://www.w3.org/2000/svg" viewBox="0 0 640.73 405.71"><defs><style>.cls-1{fill:#f5cb45;}.cls-2{fill:#1b3218;}.cls-3{fill:#8c1f1c;}.cls-4,.cls-6,.cls-7,.cls-8{fill:none;}.cls-4,.cls-8{stroke:#f5cb45;}.cls-4{stroke-width:2.43px;}.cls-5{fill:#fff;}.cls-6{stroke:#1b3218;stroke-width:1.31px;}.cls-7{stroke:#8c1f1c;stroke-width:1.35px;}.cls-8{stroke-width:2.09px;}</style></defs><title>tomassa-default</title><g id="Layer_2" data-name="Layer 2"><g id="Layer_1-2" data-name="Layer 1"><path class="cls-1" d="M402.43,37.23a190.19,190.19,0,0,0-95-25.32c-105.58,0-191.18,85.59-191.18,191.18s85.6,191.18,191.18,191.18,191.18-85.6,191.18-191.18A190.45,190.45,0,0,0,483,127.38l-20.13,5.82a170.51,170.51,0,1,1-70.18-77.67Z"/><path class="cls-1" d="M384.76,70.64A153.24,153.24,0,1,0,446,137.39L331.46,170.46Z"/><path class="cls-1" d="M441.27,0l-8.68,16.25a131.3,131.3,0,0,1,71.65,88.32l17.68-5.1A149.76,149.76,0,0,0,441.27,0"/><path class="cls-1" d="M366.36,142.54,490,106.84A113.82,113.82,0,0,0,426.93,29.1Z"/><path class="cls-2" d="M396.11,273.72a17.41,17.41,0,1,0-17.4-17.41,17.4,17.4,0,0,0,17.4,17.41"/><path class="cls-2" d="M274.53,324.6a17.41,17.41,0,1,0-17.41-17.41,17.41,17.41,0,0,0,17.41,17.41"/><path class="cls-3" d="M198.17,190.16a17.41,17.41,0,1,0-17.41-17.41,17.4,17.4,0,0,0,17.41,17.41"/><path class="cls-2" d="M358.54,324.6a17.41,17.41,0,1,0-17.4-17.41,17.41,17.41,0,0,0,17.4,17.41"/><path class="cls-3" d="M411.09,208.44a25.23,25.23,0,1,0-25.23-25.23,25.23,25.23,0,0,0,25.23,25.23"/><path class="cls-2" d="M216.6,281.54a25.23,25.23,0,1,0-25.23-25.23,25.22,25.22,0,0,0,25.23,25.23"/><path class="cls-3" d="M320.36,105.13A17.41,17.41,0,1,0,303,87.73a17.4,17.4,0,0,0,17.4,17.4"/><path class="cls-3" d="M253,213.25a17.41,17.41,0,1,0-17.41-17.41A17.41,17.41,0,0,0,253,213.25"/><path class="cls-3" d="M298.7,176.37A17.41,17.41,0,1,0,281.3,159a17.4,17.4,0,0,0,17.4,17.4"/><path class="cls-3" d="M240.46,141a25.23,25.23,0,1,0-25.23-25.23A25.23,25.23,0,0,0,240.46,141"/><path class="cls-2" d="M318.75,281.54a25.23,25.23,0,1,0-25.23-25.23,25.22,25.22,0,0,0,25.23,25.23"/><path class="cls-3" d="M449.41,107a22.17,22.17,0,1,0-22.17-22.17A22.17,22.17,0,0,0,449.41,107"/><path class="cls-3" d="M411.56,103.52a15.14,15.14,0,0,0-15.13-15.15c-.42,0-.81.09-1.22.13l-11.94,22.37a15.09,15.09,0,0,0,28.29-7.35"/><path class="cls-3" d="M346.05,218a17.41,17.41,0,1,0-17.41-17.4A17.4,17.4,0,0,0,346.05,218"/><path class="cls-3" d="M23.48,330.66A23.48,23.48,0,1,0,0,307.18a23.47,23.47,0,0,0,23.48,23.48"/><path class="cls-3" d="M617.25,330.66a23.48,23.48,0,1,0-23.48-23.48,23.48,23.48,0,0,0,23.48,23.48"/><path class="cls-3" d="M30.08,195.84s-28.68,0-25.72,28.53L20.18,377.18s3,28.53,31.64,28.53H589.87s28.68,0,31.64-28.53l15.83-152.81s2.95-28.53-25.73-28.53Z"/><path class="cls-4" d="M32.76,204.65s-22.53,0-20.07,22.4L28.89,374.5s2.46,22.4,25,22.4H587.81s22.54,0,25-22.4L629,227.05s2.47-22.4-20.07-22.4Z"/><path class="cls-3" d="M23.48,320.75A13.57,13.57,0,1,0,9.91,307.18a13.58,13.58,0,0,0,13.57,13.57"/><circle class="cls-4" cx="23.48" cy="307.18" r="13.57"/><path class="cls-3" d="M617.25,320.75a13.57,13.57,0,1,0-13.57-13.57,13.57,13.57,0,0,0,13.57,13.57"/><circle class="cls-4" cx="617.25" cy="307.18" r="13.57" transform="translate(-36.42 526.43) rotate(-45)"/><path class="cls-5" d="M23.48,312.75a5.57,5.57,0,1,0-5.57-5.57,5.56,5.56,0,0,0,5.57,5.57"/><path class="cls-5" d="M617.25,312.75a5.57,5.57,0,1,0-5.57-5.57,5.57,5.57,0,0,0,5.57,5.57"/><path class="cls-5" d="M549,274.79,557.85,294H540.41Zm.07-14.87L530.58,300h37.19Zm27.52,52.95h-3l-4.79-10.31H529.49l-4.89,10.31h-3l26.6-57.56h1.54Zm8.66,3.81-32.64-70.55h-7.09L513,316.68v1.82h17l4.27-9.16H564l4.27,9.16h17Zm-89.34-19.21c0,10.68-11,16.27-21.85,16.27-9,0-16.45-3.76-19.5-9.81l-.52-1.05h2.82l.21.35c3,4.85,9.63,7.87,17.24,7.87,9.45,0,19-4.68,19-13.63,0-11.45-8.51-12-18.37-12.74l-1.16-.08c-10.53-.82-20-2.66-20.34-15.9a14,14,0,0,1,4.07-10.36c3.74-3.84,9.87-6.13,16.4-6.13,8.35,0,15.21,3.54,18.37,9.47l.56,1.06h-3l-.21-.35c-2.87-4.79-8.78-7.64-15.8-7.64-5.64,0-10.94,1.94-14.18,5.2a11.86,11.86,0,0,0-3.55,8.73c0,11.14,8.14,12.63,18,13.34,10.23.8,21.81,1.7,21.81,15.4m7.2.1c0-17.92-14.23-19.45-28-20.94-5.06-.56-12.71-1.41-12.2-8.16.35-4.88,6-7.44,11.31-7.44,4.9,0,9.85,2.17,10.3,7h16.29a20,20,0,0,0-5.81-14.2c-5-5-12.75-7.94-21.35-7.94s-16.35,2.89-21.29,7.94a19.92,19.92,0,0,0-5.7,14.91c.18,13.71,8.13,20.4,25.77,21.67,7.37.42,14,1.28,14,7.08,0,4.9-6.21,7.13-12,7.13s-11.67-2.17-12.23-6.93h-16.6a19.85,19.85,0,0,0,5.78,14.11C456.6,317,464.89,320,474.15,320c19,0,29-11.31,29-22.47m-79.87-.1c0,10.68-11,16.27-21.85,16.27-9,0-16.45-3.76-19.49-9.81l-.53-1.05h2.82l.22.35c3,4.85,9.62,7.87,17.24,7.87,9.44,0,19-4.68,19-13.63,0-11.45-8.51-12-18.37-12.74l-1.16-.08c-10.53-.82-20-2.66-20.34-15.9a14,14,0,0,1,4.07-10.36c3.74-3.84,9.88-6.13,16.4-6.13,8.35,0,15.22,3.54,18.37,9.47l.56,1.06h-3l-.21-.35c-2.88-4.79-8.78-7.64-15.81-7.64-5.64,0-10.94,1.94-14.18,5.2a11.9,11.9,0,0,0-3.55,8.73c0,11.14,8.14,12.63,18,13.34,10.22.8,21.8,1.7,21.8,15.4m7.2.1c0-17.92-14.23-19.45-28-20.94-5.06-.56-12.71-1.41-12.2-8.16.36-4.88,6-7.44,11.31-7.44,4.91,0,9.85,2.17,10.3,7h16.29a20,20,0,0,0-5.8-14.2c-5-5-12.76-7.94-21.36-7.94s-16.35,2.89-21.29,7.94a19.92,19.92,0,0,0-5.7,14.91c.18,13.71,8.13,20.4,25.77,21.67,7.37.42,14,1.28,14,7.08,0,4.9-6.21,7.13-12,7.13s-11.68-2.17-12.24-6.93H373a19.85,19.85,0,0,0,5.78,14.11c5.18,5.25,13.47,8.26,22.73,8.26,19,0,29-11.31,29-22.47M327.68,274.79,336.52,294H319.08Zm.06-14.87L309.25,300h37.19Zm27.53,52.95h-2.95l-4.79-10.31H308.16l-4.9,10.31h-2.94l26.59-57.56h1.55Zm8.65,3.81-32.63-70.55H324.2l-32.54,70.55v1.82h17l4.26-9.16h29.66l4.27,9.16h17ZM217.44,263l24.68,26.32,25-26.32h2.49v49.75H267.1V266.89l-25,26.11-24.57-26.09v45.85h-2.49V263Zm24.67,15.85-28.85-32h-5.82V318.5H225V284.93l16.45,17.33H243l16.54-17.32V318.5H277.1V246.86h-5.62Zm-105.66,4c0-14,9.84-20.4,19-20.4s19,6.38,19,20.4-9.85,20.56-19,20.56-19-6.44-19-20.56m-7.51,0c0,18.95,13.64,27.58,26.31,27.58,12.85,0,26.69-8.63,26.69-27.58s-13.84-27.5-26.7-27.5c-12.66,0-26.3,8.6-26.3,27.5m55.49,0c0,20.67-15,30.08-29,30.08s-29-9.41-29-30.08,15-30,29-30,29,9.4,29,30m7.61,0c0-25.47-19-37.07-36.65-37.07s-36.65,11.6-36.65,37.07,19,37.15,36.65,37.15S192,308.41,192,282.89m-129-29.46h41.53v2.39H85c.1,18.44.21,37.49.21,56.43V313H82.73V255.82H63.05Zm-5.53,8.85H75.43V318.5h17V262.28h17.8V247.07H57.52Z"/><polygon class="cls-2" points="488.62 351.45 480.98 343.81 159.75 343.81 152.11 351.45 152.11 373.45 159.75 381.1 480.98 381.1 488.62 373.45 488.62 351.45"/><polygon class="cls-6" points="488.62 351.45 480.98 343.81 159.75 343.81 152.11 351.45 152.11 373.45 159.75 381.1 480.98 381.1 488.62 373.45 488.62 351.45"/><polygon class="cls-7" points="484.39 353.13 478.66 347.39 162.07 347.39 156.33 353.13 156.33 371.78 162.07 377.51 478.66 377.51 484.39 371.78 484.39 353.13"/><line class="cls-8" x1="141.5" y1="362.45" x2="82.27" y2="362.45"/><line class="cls-8" x1="141.5" y1="369.88" x2="98.2" y2="369.88"/><line class="cls-8" x1="141.5" y1="355.03" x2="98.2" y2="355.03"/><line class="cls-8" x1="499.23" y1="362.45" x2="558.46" y2="362.45"/><line class="cls-8" x1="499.23" y1="369.88" x2="542.52" y2="369.88"/><line class="cls-8" x1="499.23" y1="355.03" x2="542.52" y2="355.03"/><path class="cls-5" d="M469.81,366.56a2,2,0,0,0,2-2v0a2,2,0,0,0-4,0v0a2,2,0,0,0,2,2m-21.65,3h9.93v-2.27h-7.44V355.43h-2.49ZM433.46,364l2.43-5.66,2.44,5.66Zm-4.92,5.63h2.55l1.46-3.42h6.69l1.44,3.42h2.63l-6.23-14.26h-2.31Zm-17.19,0h2.45V359.51l7.81,10.08h2.08V355.43h-2.45v9.79l-7.58-9.79h-2.31ZM396.65,364l2.43-5.66,2.45,5.66Zm-4.91,5.63h2.54l1.46-3.42h6.7l1.43,3.42h2.63l-6.23-14.26H398Zm-8.9.2c3,0,5.06-1.58,5.06-4.23v0c0-2.35-1.56-3.42-4.55-4.15-2.71-.64-3.36-1.13-3.36-2.22v0c0-.93.85-1.68,2.3-1.68a6.46,6.46,0,0,1,3.85,1.46l1.33-1.88a7.79,7.79,0,0,0-5.14-1.78c-2.81,0-4.83,1.67-4.83,4.1v0c0,2.61,1.7,3.5,4.71,4.23,2.63.61,3.2,1.15,3.2,2.16v0c0,1.08-1,1.78-2.51,1.78a6.5,6.5,0,0,1-4.47-1.84l-1.5,1.78a8.73,8.73,0,0,0,5.91,2.27m-20.93-.2h10.6v-2.23H364.4v-3.8h7.09v-2.23H364.4v-3.68h8v-2.22H361.91Zm-12.06,0h2.51V357.73h4.49v-2.3H345.36v2.3h4.49Zm-18-7.14v-4.76h3.62c1.84,0,2.93.83,2.93,2.35v0c0,1.44-1.13,2.37-2.91,2.37Zm-2.49,7.14h2.49v-4.94H335l3.48,4.94h2.93l-3.82-5.36a4.26,4.26,0,0,0,3.38-4.29v0a4.32,4.32,0,0,0-1.17-3.06,5.71,5.71,0,0,0-4.09-1.41h-6.31ZM314.69,364l2.42-5.66,2.45,5.66Zm-4.92,5.63h2.55l1.46-3.42h6.69l1.44,3.42h2.63l-6.23-14.26H316Zm-22-5.63,2.43-5.66,2.44,5.66Zm-4.92,5.63h2.55l1.46-3.42h6.69l1.44,3.42h2.63l-6.23-14.26H289.1Zm-7.48,0h2.49V355.43h-2.49Zm-14.7-7.14v-4.76h3.62c1.84,0,2.93.83,2.93,2.35v0c0,1.44-1.13,2.37-2.91,2.37Zm-2.49,7.14h2.49v-4.94h3.11l3.48,4.94h2.93l-3.82-5.36a4.26,4.26,0,0,0,3.38-4.29v0a4.32,4.32,0,0,0-1.17-3.06,5.71,5.71,0,0,0-4.09-1.41H258.2ZM243.5,364l2.42-5.66,2.45,5.66Zm-4.92,5.63h2.55l1.46-3.42h6.69l1.44,3.42h2.63l-6.23-14.26h-2.31Zm-15.91,0h11.59v-2.21H225.9l8.36-10.11v-1.84H222.93v2.2H231l-8.35,10.11Zm-16.43,0h11.59v-2.21h-8.35l8.35-10.11v-1.84H206.51v2.2h8.09l-8.36,10.11Zm-8.19,0h2.49V355.43h-2.49Zm-13.59-6.8v-5.1h2.9c1.86,0,3,.87,3,2.53v0c0,1.48-1.17,2.53-3,2.53Zm-2.48,6.8h2.48V365h2.81c3.12,0,5.67-1.65,5.67-4.83v0c0-2.85-2.09-4.73-5.38-4.73H182Zm-11.08-3a2,2,0,0,0,2-2v0a2,2,0,0,0-4.06,0v0a2,2,0,0,0,2,2"/></g></g></svg>