<svg xmlns="http://www.w3.org/2000/svg" viewBox="0 0 213.33 97.71"><defs><style>.cls-1{fill:#fff;}</style></defs><title>universo-da-carne-negativo</title><g id="Layer_2" data-name="Layer 2"><g id="Camada_1" data-name="Camada 1"><path class="cls-1" d="M39.22,10a.44.44,0,0,1,.31-.51l.85-.24a.42.42,0,0,1,.53.27l2.42,8.55A4.2,4.2,0,1,0,51.47,16c-.84-3.47-1.27-5.21-2.11-8.68a.42.42,0,0,1,.33-.49l.85-.21a.44.44,0,0,1,.52.29c.83,3.51,1.25,5.27,2.07,8.78a5.9,5.9,0,0,1-11.4,3C40.73,15.19,40.22,13.46,39.22,10ZM58.78,5a.42.42,0,0,1,.36-.46l.56-.11c4.13,3.21,8.17,6.54,12.06,10h0Q70.94,8.8,70.09,3.18a.41.41,0,0,1,.37-.46l.79-.12a.44.44,0,0,1,.5.34l2.07,14.19a.41.41,0,0,1-.35.44l-.39.05c-3.9-3.58-8-7-12.1-10.3h0Q62.07,13,63.17,18.7a.41.41,0,0,1-.32.48l-.75.14a.41.41,0,0,1-.48-.31Q60.21,12,58.78,5Zm21-3.05a.42.42,0,0,1,.39-.45l.91-.1a.43.43,0,0,1,.48.35q.73,7,1.46,14a.42.42,0,0,1-.36.45l-.86.09a.41.41,0,0,1-.45-.35Q80.58,8.9,79.81,1.9Zm7.71-.59a.37.37,0,0,1,.34-.58l.92-.07a.41.41,0,0,1,.4.2q3.27,5.72,6.29,11.57h.09Q98,6.31,100.69.3a.43.43,0,0,1,.38-.24L102,0a.38.38,0,0,1,.4.54c-2.23,4.79-4.31,9.65-6.29,14.55a.42.42,0,0,1-.36.26h-.21a.47.47,0,0,1-.38-.22C92.74,10.49,90.17,5.87,87.52,1.31ZM108.32.4a.42.42,0,0,1,.44-.4c3.62,0,5.43.08,9,.25a.42.42,0,0,1,.42.42l0,.62a.42.42,0,0,1-.45.38c-3.07-.14-4.6-.18-7.67-.23,0,2.08,0,3.12-.07,5.2,2.56,0,3.85.07,6.41.18a.43.43,0,0,1,.4.42l0,.62a.41.41,0,0,1-.44.38c-2.55-.1-3.82-.14-6.37-.17,0,2.17,0,3.26-.08,5.43,2.92,0,4.38.09,7.29.22a.41.41,0,0,1,.39.42l0,.62a.41.41,0,0,1-.43.39c-3.39-.16-5.09-.21-8.48-.23a.42.42,0,0,1-.41-.41Zm17,.71a.41.41,0,0,1,.46-.37c2.37.19,3.56.3,5.93.54a4.72,4.72,0,0,1,4.42,5.08,4.87,4.87,0,0,1-3.8,3.93c1,2.28,1.44,3.43,2.35,5.72a.4.4,0,0,1-.44.57l-1.09-.13a.36.36,0,0,1-.32-.23c-.88-2.38-1.34-3.56-2.28-5.93-1.68-.17-2.52-.25-4.2-.39-.19,2.16-.28,3.25-.46,5.41a.43.43,0,0,1-.44.37l-.84-.07a.4.4,0,0,1-.38-.43Q124.77,8.15,125.32,1.11Zm5.49,7.79a3.2,3.2,0,0,0,3.54-2.74,3.19,3.19,0,0,0-2.92-3.34c-1.76-.18-2.64-.27-4.41-.41-.2,2.43-.31,3.65-.51,6.09ZM141,15.24l.39-.35c.25-.24.52-.38.78-.08A6.21,6.21,0,0,0,145.5,17c1.73.3,3.06-.56,3.29-1.79.27-1.45-.9-2.55-3.22-4s-3.58-2.58-3.22-5c.22-1.44,1.8-3.59,5.42-3a7.71,7.71,0,0,1,3.68,1.77.46.46,0,0,1,0,.73c-.11.11-.23.24-.35.35a.53.53,0,0,1-.82,0,6.61,6.61,0,0,0-2.78-1.49c-2.39-.41-3.34.92-3.48,1.8-.23,1.41.78,2.41,2.51,3.46,2.79,1.67,4.47,3.11,4,5.54-.42,2.18-2.83,3.36-5.32,2.93A7.35,7.35,0,0,1,141,16,.46.46,0,0,1,141,15.24Zm25.37-8c3.9,1.16,7.13,5.4,5.9,9.58-1.16,4-5.79,6.11-9.67,5.29a8.1,8.1,0,0,1-6-9.26A8,8,0,0,1,166.32,7.22Zm-3.41,13.42a6.49,6.49,0,0,0,7.8-4.28c1-3.37-1.41-6.84-4.76-7.7a6.38,6.38,0,0,0-7.82,4.51A6.47,6.47,0,0,0,162.91,20.64Zm-62.67,5.05a.09.09,0,0,1,.1-.09H103c1.9,0,2.84.9,2.84,2.67v4.28c0,1.06-.88,2.21-2.8,2.21h-2.71s-.1,0-.1-.06Zm5.4,2.58c0-1.67-.88-2.46-2.63-2.46h-2.56v8.76h2.6c1.25,0,2.59-.69,2.59-2Zm-2.59,6.81h-2.71a.43.43,0,0,1-.43-.38v-9a.42.42,0,0,1,.43-.41H103c2.07,0,3.16,1,3.16,3v4.28C106.17,33.77,105.2,35.08,103.05,35.08Zm-2.28-.84h2.28c1.13,0,2.26-.58,2.26-1.69V28.27c0-1.47-.71-2.13-2.3-2.13h-2.24Zm9.58-8.49a.2.2,0,0,1,.21-.15.22.22,0,0,1,.21.15l2.67,8.88c0,.13-.12.13-.19.07l-1.14-3.82-3.76,2.44L108,34.7c-.09.08-.23,0-.19-.07Zm.23.06h0l-2.1,7.24L112,30.69Zm-2.73,9.26a.55.55,0,0,1-.24-.07.41.41,0,0,1-.14-.49L110,25.67a.5.5,0,0,1,.52-.39.53.53,0,0,1,.51.35l2.7,9a.43.43,0,0,1-.26.4.45.45,0,0,1-.49-.1l-.08-.14-1-3.4-3.29,2.14-.44,1.39A.46.46,0,0,1,107.85,35.07Zm.24-.37v0Zm2.49-7.77L109,32.29l2.62-1.74ZM109.34,85.8l-1.4-3L105.75,84v7.36l.88.87a1.49,1.49,0,0,1-1.14,2.54H95.68l2,2a.66.66,0,0,0,.44.17h10.51c.62,0,.53-.7.44-1l-1-1.14V86.5ZM63.21,70.9l-.87-3.24L61.2,72.22ZM82.14,94.73l-11.39-42,.79-1.23a.64.64,0,0,0-.09-.7l-2.19-2.19a.46.46,0,0,1-.18.35l-.35.79,11,41.53,1,.87a1.52,1.52,0,0,1-1.06,2.54h-9.9l2.11,2a.42.42,0,0,0,.35.17H82.75a.68.68,0,0,0,.53-1Zm-1.93-1.92L79,91.67l-11.3-42,.79-1.14a.62.62,0,0,0-.53-1H57c-.7,0-.87.52-.61,1l.7,1.14-11.3,42-1.06,1.14a.63.63,0,0,0,.44,1H55.59a.62.62,0,0,0,.53-1l-1.06-1.06,1.41-5.25,10.07-6.75,3.24,12-1,1.06c-.44.35,0,1,.35,1h10.6A.68.68,0,0,0,80.21,92.81ZM53.33,80.21c2.26-7.51,4.61-15.14,6.89-22.52l1.34-4.36.62.19-1.35,4.36c-2.27,7.38-4.61,15-6.88,22.52-.05.17.11.5.24.8s.17.36.24.54l-.62.21a4.5,4.5,0,0,0-.2-.48A1.83,1.83,0,0,1,53.33,80.21Zm9-15.88,1.92,6.92-4.47,3.07Zm1.77,12.1c-.92.6-1.85,1.23-2.75,1.84a57.66,57.66,0,0,1-6.1,3.8c-2.43,1.24-2.89,3.31-3.38,5.51-.16.7-.32,1.42-.55,2.12l-.62-.21a20.05,20.05,0,0,0,.53-2.06c.51-2.24,1-4.56,3.73-5.94a59.44,59.44,0,0,0,6-3.75c.9-.62,1.83-1.25,2.76-1.85C66.57,74.08,68,73.17,68.41,72s-.09-2.75-1.1-5.91l0-.17c-1.14-3.56-2.21-7.2-3.25-10.73q-.71-2.38-1.42-4.77l.62-.19c.48,1.59.95,3.19,1.42,4.78,1,3.52,2.11,7.16,3.25,10.71l.05.17C70,72.47,70,72.67,64.11,76.43ZM74.48,89.7l-5.68-16,.61-.22,5.68,16ZM32.07,79.93V69c0-.52-.7-.79-1-.43l-9.37,6.13a.62.62,0,0,0,0,1l1.14.79v1.23c0,4.47-2.1,7.45-6.4,7.45H15.6c-2.81,0-6.22-1.32-6.22-7.45V63.8c0-4.55,1.83-7.44,6.22-7.44h.87c3.07,0,5.43,1.49,6.13,4.29v3.77L22.08,66c-.35.79.61.88.88.71l8.84-5.35a.52.52,0,0,0,.27-.52v-2.9c0-8.49-9.29-11-15.95-11C5.69,47,0,51.28,0,61.44V79.93C0,90.7,6.4,94.56,16.12,94.56,26.55,94.56,32.07,90.18,32.07,79.93ZM4.29,79.54V62.71c0-2,0-4.82,1.49-7.18,1.67-2.72,5.26-4.12,10.34-4.12,3.94,0,7,1,9,3A8.9,8.9,0,0,1,27.42,61v.18c0,.61-1,.52-1,0V61a7.5,7.5,0,0,0-2-6c-1.66-1.67-4.55-2.63-8.32-2.63-4.91,0-8.06,1.14-9.72,3.77-1.32,2.1-1.32,4.64-1.32,6.65V79.54c0,3.5.79,5.78,2.28,7.36,1.66,1.66,4.47,2.62,8.76,2.62,8.06,0,11-3,11-11.56V74.63a.4.4,0,1,1,.79,0V78c0,4.56-.7,7.45-2.45,9.37s-4.82,3-9.29,3-7.53-.87-9.46-2.8C5,85.76,4.29,83.22,4.29,79.54Zm9.47-18.1a5.82,5.82,0,0,1,4.9-2h.88a8.51,8.51,0,0,1,1.66.18,3,3,0,0,0-.7-1.14l-.44-.26a6,6,0,0,0-3.59-1H15.6A5.05,5.05,0,0,0,11.3,59c-.79,1-1.14,2.62-1.14,4.81V77.65A7.51,7.51,0,0,0,11.83,83a8.76,8.76,0,0,1,.87.62,14.29,14.29,0,0,1-.26-2.81V66.87A9,9,0,0,1,13.76,61.44Zm144.35,3.24-6-13.84-1.32-1.32,7.36,16.91Zm-125.25,5V80c0,4.91-1,8.41-3.33,11q-4.08,4.45-13.41,4.46a23,23,0,0,1-9.55-1.66c2.63,2.63,6.75,3.94,12.62,3.94,6,0,10.25-1.4,12.88-4.2,2.1-2.37,3.06-5.7,3.06-10.43v-11a.66.66,0,0,0-.17-.44Zm-.62-15.6a9.31,9.31,0,0,1,.62,3.85v2.9a1.24,1.24,0,0,1-.71,1.22l-8.76,5.43c-.17,0-.26.09-.35.09l2.28,2.19a.64.64,0,0,0,.44.09.51.51,0,0,0,.35-.09l8.76-5.34a.53.53,0,0,0,.26-.53v-2.8a9.11,9.11,0,0,0-2.71-6.84ZM57.17,87,56,91.4l.7.79a1.5,1.5,0,0,1-1.14,2.54H45.78l2,2a.66.66,0,0,0,.44.17H58.74c.62,0,.7-.78.44-1l-1-1.05,1.4-5.17L67,84.57l-1-3.51ZM124,92.81l-1.14-1.14-7-15.16c5.17-4.38,6.66-9.73,6.66-16a12.64,12.64,0,0,0-12.62-13H95.06a.56.56,0,0,0-.44,1l1.06,1.23V91.67l-1.06,1.14a.63.63,0,0,0,.44,1h10.43a.67.67,0,0,0,.52-1l-1.13-1.14V83.43l3.5-1.93,4.73,10.25-1,1.06c-.44.35,0,1,.35,1h11A.61.61,0,0,0,124,92.81Zm-7.08-3.06-7.34-13.7c-1.19.78-2.42,1.5-3.65,2.21l-1,.61c-3.3,1.93-5.08,3.78-4.46,7.54a14.07,14.07,0,0,1,.08,2.9c0,.42,0,.86,0,1.28h-.65c0-.43,0-.88,0-1.31a13.36,13.36,0,0,0-.07-2.76c-.68-4.11,1.32-6.19,4.77-8.21l1-.61c1.23-.71,2.47-1.44,3.66-2.23l-.1-.19.57-.31.07.14c2.93-2,5.46-4.5,6.62-8.36,1.3-4.34,2.25-8.88-1.55-12.57-2.62-2.54-5.75-2.29-9.06-2a26.19,26.19,0,0,1-4.15.11,2.65,2.65,0,0,0-1.12,1.65c0,7.15.2,14.43.34,21.46,0,1.8.07,3.6.11,5.4h-.65c0-1.8-.07-3.59-.11-5.39-.14-7-.29-14.32-.34-21.48a3.27,3.27,0,0,1,1-1.92,1.07,1.07,0,0,1,.78-.37,26.22,26.22,0,0,0,4-.12c3.31-.26,6.73-.53,9.56,2.21,4.06,3.95,3.08,8.7,1.72,13.23-1.22,4.08-3.88,6.66-6.93,8.75l7.37,13.75ZM105,71.69V56.36h2.54a5.38,5.38,0,0,1,5.26,5.52C112.76,66.26,108.21,69.76,105,71.69Zm64.37,21.12-1.05-1.14V49.79l1.05-1.23a.56.56,0,0,0-.44-1H158.38a.57.57,0,0,0-.44,1L159,49.79V70.55L149.18,48a.58.58,0,0,0-.62-.35h-9.37a.55.55,0,0,0-.44,1l1.05,1.23V91.67l-1.05,1.14a.62.62,0,0,0,.44,1h10.42a.68.68,0,0,0,.53-1L149,91.67V70.46L158.64,92l-.7.79a.63.63,0,0,0,.44,1h10.51A.61.61,0,0,0,169.33,92.81Zm-5.35-3c0,.44-.61.52-.87.08L144.88,53.78V89.7a.44.44,0,1,1-.87,0V51.94c0-.44.61-.44.79-.18L163.11,88v-36a.44.44,0,0,1,.87,0Zm39.27-14.24-.61-.62L195.28,80v4.21h2.28V82.64L205.8,77l1,1a.66.66,0,0,0,1.05-.44V67.31a.56.56,0,0,0-.18-.44l-2-2v9.63A1.5,1.5,0,0,1,203.25,75.55Zm-32,19.27V52.94l1.13-1.23a.64.64,0,0,0,0-.87l-2.1-2.11a2.42,2.42,0,0,1-.44.62l-.79.7V91.4l.79.79a1.47,1.47,0,0,1-1,2.54H159l2,2c.18.17.27.26.44.26H172a.6.6,0,0,0,.43-1.05Zm39.88-9.72v8.14a1.47,1.47,0,0,1-1.49,1.49H185.21l2,2a.66.66,0,0,0,.44.17h25.06a.58.58,0,0,0,.61-.52V87.55a.56.56,0,0,0-.18-.44ZM111.27,59.51a4.21,4.21,0,0,0-3.77-2.28h-1.66V70.11A11,11,0,0,0,108,68.36V59.42h2.54C110.75,59.42,111,59.51,111.27,59.51ZM125.9,94.73l-7-15A17.53,17.53,0,0,0,124.06,73a24.46,24.46,0,0,0,1.49-9.37,12.82,12.82,0,0,0-3.41-9,14.65,14.65,0,0,1,1.22,6,25.51,25.51,0,0,1-1.57,9.64,19.26,19.26,0,0,1-4.91,6.57l6.75,14.46,1,1a1.5,1.5,0,0,1-1,2.54H113.11l2.1,2a.66.66,0,0,0,.36.17h11a.65.65,0,0,0,.53-1Zm26.26.09V79.58l-2.28-4.91V91.4l.87.79a1.47,1.47,0,0,1-1.14,2.54H139.8l2,2c.17.17.26.26.43.26h10.52c.61,0,.7-.79.44-1.05Zm58.1-1.58V84.57c0-.61-.61-1-1-.53l-1.05,1.06H194.49V79.58l8.24-5.7,1.05,1c.44.27,1.05.09,1.05-.35V64.33c0-.79-.61-.79-1-.61l-9.38,6.48V56.36h13.67l1.05,1c.53.52,1,0,1-.53V48.12a.58.58,0,0,0-.61-.52H184.59a.56.56,0,0,0-.44,1l1.06,1.23V91.67l-1.06,1.14a.63.63,0,0,0,.44,1h25.06A.66.66,0,0,0,210.26,93.24ZM205.88,90h-16c-.18,0-.44-.09-.44-.35V51.94c0-.27.26-.35.44-.35h16a.44.44,0,0,1,0,.87H190.29V76.91l11.47-7.63c.62-.43,1,.62.53.62l-12,8.06V89.17h15.59A.4.4,0,1,1,205.88,90Zm7.27-39.12-2-2.11v8.15c0,1.49-1.66,1.76-2.63,1.23l-.79-.88H195.28V68.54l2.28-1.49V59.42h13.67l1.05,1.14a.62.62,0,0,0,1.05-.52V51.36C213.33,51.1,213.33,51,213.15,50.84Z"/></g></g></svg>