<svg xmlns="http://www.w3.org/2000/svg" viewBox="0 0 537.15 803.53"><defs><style>.cls-1{fill:#a64c13;}.cls-2{fill:#080607;opacity:0.2;}.cls-3,.cls-4{fill:#010103;}.cls-4{stroke:#010103;stroke-miterlimit:10;}.cls-5{fill:#224c2f;}.cls-6{fill:#ffb819;}.cls-7{fill:#ece5cb;stroke:#ece5cb;stroke-linejoin:round;}.cls-8{fill:#e8b493;}.cls-9{fill:#5f0c0e;}</style></defs><title>Woman Left 1</title><g id="Camada_2" data-name="Camada 2"><g id="Camada_1-2" data-name="Camada 1"><path class="cls-1" d="M194.69,117.07l91.44-66.36,51-1.45c8.12.25,15.31,18.48,17.69,25,3.71,10.11.79,19.85-.61,30s.34,16.5,6.4,24.68c5.42,7.32,18.12,13.52,18.65,22.4.79,3.55-4.62,5.72-10,7.17a6.89,6.89,0,0,0-4.85,8.26c5.08,21.18,9.58,43.16-7.28,58.61-8,7.33-20.11,7.78-30.43,10.08-13.5,3-17.56,13.78-21.05,43.45l-81.2-8.48Z"/><path class="cls-2" d="M295,123.35s10.8-14.28,25.08-14.63,10.45,12.2,10.45,12.2l-9.75,5.61Z"/><path class="cls-3" d="M330.49,120.92s13.59,7.66,0,10.1S304,132.41,295,123.35C295,123.35,326.31,126.84,330.49,120.92Z"/><path class="cls-4" d="M277.84,69.39l77.8-17.23S333.34.6,256.31.5s-96.9,70.84-102.63,84.67-6,18.47-20.85,26.8-28.19,12.52-33.62,33.39,5.24,30.65-1.36,41.74S71.22,213.3,67.31,225C60.55,245.31,69.75,258,69.75,258L224.9,268.87s19.78-62,15.58-82.81c0,0-13.56-4.53-20.44-17.65s-8.27-23.16,1.47-30.19S240.16,143,240.16,143,273.05,129.05,277.84,69.39Z"/><path class="cls-5" d="M297.91,269c30.26,5.48,110.93,9.34,149,117.6s76.24,268.62,83.23,327.77l7,59.15L0,803.53s44.8-416.8,124.16-491.15C194.33,246.65,297.91,269,297.91,269Z"/><path class="cls-6" d="M239.33,531.13s47.49-145.38,81.55-185.65,41.58-39.84,60.37-37S357.53,527.37,327,562.63Z"/><path class="cls-7" d="M307.89,395.8s52.32,11,73.15-19.17C381,376.63,340,359.4,307.89,395.8Z"/><path class="cls-7" d="M283,455.83s61.56,12.92,86.06-22.55C369,433.28,320.71,413,283,455.83Z"/><path class="cls-8" d="M254.65,527.7s61.55,12.91,86.06-22.56C340.71,505.14,292.39,484.87,254.65,527.7Z"/><path class="cls-9" d="M308.76,460.4c-10.43-95-71.9-111.42-101.45-111.95h-2c-29.55.53-91,16.94-101.45,112H33.15V783.75H379.43V460.4Zm-181,1.06s12.88-85.22,77.55-85.22,76.85,85.22,76.85,85.22Z"/><path class="cls-5" d="M127.73,461.46c-3.7,19.21-11,57.16,4.5,127.58,12.63,57.34,23.3,93.83,23.3,93.83l142.15-7.79S259,498,259,458.13Z"/><path class="cls-6" d="M355.12,323.91a7.87,7.87,0,0,0-.19-1.08,6.17,6.17,0,0,0-1.55-2.57,7.4,7.4,0,0,0-1.21-1,7.26,7.26,0,0,0-1.42-.64,6.1,6.1,0,0,0-4.54.46,4.58,4.58,0,0,0-.76.47,7.89,7.89,0,0,0-1.17,1.06,10,10,0,0,0-.92,1.31,9.5,9.5,0,0,0-.64,1.51,5.73,5.73,0,0,0-.29,1.6,2.94,2.94,0,0,0,0,.42,6.62,6.62,0,0,0,.2,1.08,4.57,4.57,0,0,0,.68,1.36,6.33,6.33,0,0,0,1,1.15,7,7,0,0,0,1.21.8c.25.11.51.22.78.32a5,5,0,0,0,.85.3,7,7,0,0,0,1.13.14,6.08,6.08,0,0,0,1.53-.16,4,4,0,0,0,.85-.27,7.12,7.12,0,0,0,1.4-.72,8.5,8.5,0,0,0,1.22-1,8.36,8.36,0,0,0,1-1.25,7.35,7.35,0,0,0,.64-1.43,5.37,5.37,0,0,0,.22-1.49A2.6,2.6,0,0,0,355.12,323.91Z"/><path class="cls-6" d="M403.13,341.69a6.83,6.83,0,0,0-.2-1.08,6.23,6.23,0,0,0-1.55-2.57,7.45,7.45,0,0,0-1.21-1,6.64,6.64,0,0,0-1.41-.64,5.42,5.42,0,0,0-1.5-.25,5.79,5.79,0,0,0-1.55.15,6.25,6.25,0,0,0-1.49.56,3.32,3.32,0,0,0-.76.47,6.92,6.92,0,0,0-1.17,1.06,8.63,8.63,0,0,0-.93,1.31,10,10,0,0,0-.63,1.51,5.73,5.73,0,0,0-.29,1.6,2.81,2.81,0,0,0,0,.41,5.81,5.81,0,0,0,.2,1.09,4.45,4.45,0,0,0,.68,1.36,6.27,6.27,0,0,0,1,1.14,6,6,0,0,0,1.2.8c.25.12.52.23.78.33a6.61,6.61,0,0,0,.85.3,8.72,8.72,0,0,0,1.13.14,5.69,5.69,0,0,0,1.54-.17,4.09,4.09,0,0,0,.84-.26,7.84,7.84,0,0,0,1.41-.73,8.39,8.39,0,0,0,1.22-1,7.28,7.28,0,0,0,1-1.25,6.25,6.25,0,0,0,.64-1.42,4.76,4.76,0,0,0,.22-1.49A1.88,1.88,0,0,0,403.13,341.69Z"/><path class="cls-6" d="M325.31,300.62a7.9,7.9,0,0,0-.2-1.08,6.17,6.17,0,0,0-1.55-2.57,6.14,6.14,0,0,0-2.63-1.59,5.42,5.42,0,0,0-1.49-.26,5.8,5.8,0,0,0-1.55.16,5.68,5.68,0,0,0-1.49.55,4.28,4.28,0,0,0-.77.47,8.42,8.42,0,0,0-1.17,1.06,10,10,0,0,0-.92,1.31,11.79,11.79,0,0,0-.64,1.51,6.11,6.11,0,0,0-.29,1.6,2,2,0,0,0,0,.42,5,5,0,0,0,.2,1.08,4.24,4.24,0,0,0,.68,1.36,6,6,0,0,0,1,1.15,7,7,0,0,0,1.2.8c.25.11.51.22.78.32a5.37,5.37,0,0,0,.85.3,7.27,7.27,0,0,0,1.13.14,6.11,6.11,0,0,0,1.54-.16,4.12,4.12,0,0,0,.84-.27,7.49,7.49,0,0,0,1.41-.72,8.39,8.39,0,0,0,1.22-1,8.3,8.3,0,0,0,1-1.25,6.79,6.79,0,0,0,.64-1.43,4.72,4.72,0,0,0,.22-1.49C325.33,300.89,325.32,300.75,325.31,300.62Z"/><path class="cls-6" d="M283.71,357.4a7.9,7.9,0,0,0-.2-1.08,6.23,6.23,0,0,0-1.55-2.57,6.41,6.41,0,0,0-2.63-1.59,5.42,5.42,0,0,0-1.49-.26,6.23,6.23,0,0,0-1.55.16,6.06,6.06,0,0,0-1.49.55,3.49,3.49,0,0,0-.76.48,6.91,6.91,0,0,0-1.17,1.05,9.15,9.15,0,0,0-.93,1.31,11.79,11.79,0,0,0-.64,1.51,6.19,6.19,0,0,0-.29,1.6,2,2,0,0,0,0,.42,4.9,4.9,0,0,0,.2,1.08,4.24,4.24,0,0,0,.68,1.36,6,6,0,0,0,1,1.15,6.43,6.43,0,0,0,1.2.8c.25.11.51.23.78.32a5.37,5.37,0,0,0,.85.3,7.27,7.27,0,0,0,1.13.14,6.11,6.11,0,0,0,1.54-.16,4.12,4.12,0,0,0,.84-.27,7.49,7.49,0,0,0,1.41-.72,8.39,8.39,0,0,0,1.22-1,8.3,8.3,0,0,0,1-1.25,6.79,6.79,0,0,0,.64-1.43,4.72,4.72,0,0,0,.22-1.49C283.73,357.67,283.72,357.53,283.71,357.4Z"/><path class="cls-6" d="M182.94,427a6.83,6.83,0,0,0-.2-1.08,6.23,6.23,0,0,0-1.55-2.57,7.45,7.45,0,0,0-1.21-.95,6.64,6.64,0,0,0-1.41-.64,5.42,5.42,0,0,0-1.5-.25,5.79,5.79,0,0,0-1.55.15,6.25,6.25,0,0,0-1.49.56,3.32,3.32,0,0,0-.76.47,6.92,6.92,0,0,0-1.17,1.06,8.63,8.63,0,0,0-.93,1.31,10,10,0,0,0-.63,1.51,5.73,5.73,0,0,0-.29,1.6,2.81,2.81,0,0,0,0,.41,5.81,5.81,0,0,0,.2,1.09,4.45,4.45,0,0,0,.68,1.36,6.27,6.27,0,0,0,1,1.14,6,6,0,0,0,1.2.8c.25.12.52.23.78.33a6.61,6.61,0,0,0,.85.3,8.72,8.72,0,0,0,1.13.14,5.69,5.69,0,0,0,1.54-.17,3.55,3.55,0,0,0,.84-.26,8.5,8.5,0,0,0,1.41-.72,9.16,9.16,0,0,0,1.22-1,7.62,7.62,0,0,0,1-1.24,6.32,6.32,0,0,0,.64-1.43,4.72,4.72,0,0,0,.22-1.49A1.88,1.88,0,0,0,182.94,427Z"/><path class="cls-6" d="M289.31,317.78a8.15,8.15,0,0,0-.19-1.08,6.23,6.23,0,0,0-1.55-2.57,7.91,7.91,0,0,0-1.21-.95,6.72,6.72,0,0,0-1.42-.64,5.42,5.42,0,0,0-1.5-.25,5.79,5.79,0,0,0-1.55.15,6.25,6.25,0,0,0-1.49.56,3.55,3.55,0,0,0-.76.47,6.92,6.92,0,0,0-1.17,1.06,9.32,9.32,0,0,0-.92,1.31,9.12,9.12,0,0,0-.64,1.51,5.73,5.73,0,0,0-.29,1.6,2.81,2.81,0,0,0,0,.41,6.74,6.74,0,0,0,.2,1.09,4.69,4.69,0,0,0,.68,1.36,6.27,6.27,0,0,0,1,1.14,6,6,0,0,0,1.21.8q.38.18.78.33a5.69,5.69,0,0,0,.85.3,8.31,8.31,0,0,0,1.13.14,5.66,5.66,0,0,0,1.53-.17,4,4,0,0,0,.85-.26,7.75,7.75,0,0,0,1.4-.73,7.23,7.23,0,0,0,2.19-2.26,6.68,6.68,0,0,0,.63-1.42,4.76,4.76,0,0,0,.22-1.49A1.88,1.88,0,0,0,289.31,317.78Z"/><path class="cls-6" d="M215.74,305a7.9,7.9,0,0,0-.2-1.08,6.23,6.23,0,0,0-1.55-2.57,6.5,6.5,0,0,0-1.21-.95,6.64,6.64,0,0,0-1.41-.64,5.82,5.82,0,0,0-1.5-.26,6.29,6.29,0,0,0-3,.71,3.75,3.75,0,0,0-.76.48,7.31,7.31,0,0,0-1.17,1.05A9.15,9.15,0,0,0,204,303a10.47,10.47,0,0,0-.63,1.51,5.79,5.79,0,0,0-.29,1.6,2,2,0,0,0,0,.42,5.56,5.56,0,0,0,.2,1.08,4.24,4.24,0,0,0,.68,1.36,6.33,6.33,0,0,0,1,1.15,6.43,6.43,0,0,0,1.2.8c.25.11.52.23.78.32a5.37,5.37,0,0,0,.85.3,7.27,7.27,0,0,0,1.13.14,6.11,6.11,0,0,0,1.54-.16,4.12,4.12,0,0,0,.84-.27,7.49,7.49,0,0,0,1.41-.72,8.39,8.39,0,0,0,1.22-1,7.69,7.69,0,0,0,1-1.25,6.32,6.32,0,0,0,.64-1.43,4.72,4.72,0,0,0,.22-1.49A1.79,1.79,0,0,0,215.74,305Z"/><path class="cls-6" d="M259.63,280.61a6.62,6.62,0,0,0-.2-1.08,6.17,6.17,0,0,0-1.55-2.57,7.33,7.33,0,0,0-1.2-1,8.23,8.23,0,0,0-1.42-.64,6.1,6.1,0,0,0-4.54.46,4.58,4.58,0,0,0-.76.47,7.89,7.89,0,0,0-1.17,1.06,8.36,8.36,0,0,0-.92,1.31,9.5,9.5,0,0,0-.64,1.51,5.73,5.73,0,0,0-.29,1.6,2.94,2.94,0,0,0,0,.42,5.71,5.71,0,0,0,.2,1.08,4.34,4.34,0,0,0,.68,1.36,6.33,6.33,0,0,0,1,1.15,7,7,0,0,0,1.2.8l.79.32a4.94,4.94,0,0,0,.84.3,7.27,7.27,0,0,0,1.13.14,6.11,6.11,0,0,0,1.54-.16,4.41,4.41,0,0,0,.85-.27,7.41,7.41,0,0,0,1.4-.72,9.09,9.09,0,0,0,1.22-1,8.36,8.36,0,0,0,1-1.25,6.76,6.76,0,0,0,.63-1.43,4.72,4.72,0,0,0,.22-1.49A1.79,1.79,0,0,0,259.63,280.61Z"/><path class="cls-6" d="M161.57,317.78a8.15,8.15,0,0,0-.19-1.08,6.23,6.23,0,0,0-1.55-2.57,7.91,7.91,0,0,0-1.21-.95,6.72,6.72,0,0,0-1.42-.64,5.42,5.42,0,0,0-1.5-.25,5.79,5.79,0,0,0-1.55.15,6.25,6.25,0,0,0-1.49.56,3.55,3.55,0,0,0-.76.47,6.92,6.92,0,0,0-1.17,1.06,9.32,9.32,0,0,0-.92,1.31,9.12,9.12,0,0,0-.64,1.51,5.73,5.73,0,0,0-.29,1.6,1.88,1.88,0,0,0,0,.41,5.79,5.79,0,0,0,.19,1.09,4.69,4.69,0,0,0,.68,1.36,6.27,6.27,0,0,0,1,1.14,6,6,0,0,0,1.21.8q.38.18.78.33a6.61,6.61,0,0,0,.85.3,8.31,8.31,0,0,0,1.13.14,5.66,5.66,0,0,0,1.53-.17,4,4,0,0,0,.85-.26,7.75,7.75,0,0,0,1.4-.73,7.89,7.89,0,0,0,1.22-1,7.34,7.34,0,0,0,1-1.25,7.26,7.26,0,0,0,.64-1.42,5.43,5.43,0,0,0,.22-1.49A2.83,2.83,0,0,0,161.57,317.78Z"/><path class="cls-6" d="M126.11,359.86a8,8,0,0,0-.19-1.07,6.27,6.27,0,0,0-1.55-2.58,7.91,7.91,0,0,0-1.21-.95,6.72,6.72,0,0,0-1.42-.64,6.1,6.1,0,0,0-4.54.46,4.58,4.58,0,0,0-.76.47,7.37,7.37,0,0,0-1.17,1.06,10,10,0,0,0-.92,1.31,9.5,9.5,0,0,0-.64,1.51,5.73,5.73,0,0,0-.29,1.6,2.94,2.94,0,0,0,0,.42,6.62,6.62,0,0,0,.2,1.08,4.69,4.69,0,0,0,.68,1.36,6,6,0,0,0,1,1.14,6,6,0,0,0,1.21.8q.38.18.78.33a6,6,0,0,0,.84.3,7.25,7.25,0,0,0,1.14.14,6.08,6.08,0,0,0,1.53-.16,4.2,4.2,0,0,0,.85-.27,8,8,0,0,0,1.4-.72,8.5,8.5,0,0,0,1.22-1,8.36,8.36,0,0,0,1-1.25,6.76,6.76,0,0,0,.63-1.43,4.72,4.72,0,0,0,.22-1.49A1.88,1.88,0,0,0,126.11,359.86Z"/><path class="cls-6" d="M231.1,345.15a7.87,7.87,0,0,0-.19-1.08,6.23,6.23,0,0,0-1.55-2.57,6.84,6.84,0,0,0-1.21-.95,6.72,6.72,0,0,0-1.42-.64,5.82,5.82,0,0,0-1.5-.26,6.23,6.23,0,0,0-1.55.16,6.67,6.67,0,0,0-1.49.55,4,4,0,0,0-.76.48,7.31,7.31,0,0,0-1.17,1.05,9.42,9.42,0,0,0-.92,1.32,8.78,8.78,0,0,0-.64,1.51,5.66,5.66,0,0,0-.29,1.59,2.94,2.94,0,0,0,0,.42,6.74,6.74,0,0,0,.2,1.09,4.69,4.69,0,0,0,.68,1.36,6.61,6.61,0,0,0,1,1.14,6.5,6.5,0,0,0,1.21.8c.25.11.51.23.78.32a4.53,4.53,0,0,0,.85.3,7,7,0,0,0,1.13.14,5.65,5.65,0,0,0,1.53-.16,3.51,3.51,0,0,0,.85-.27,7.12,7.12,0,0,0,1.4-.72,7.89,7.89,0,0,0,1.22-1,8.36,8.36,0,0,0,1-1.25,7.35,7.35,0,0,0,.64-1.43,5.37,5.37,0,0,0,.22-1.49A2.69,2.69,0,0,0,231.1,345.15Z"/><path class="cls-6" d="M241.82,435.18a8.15,8.15,0,0,0-.19-1.08,6.23,6.23,0,0,0-1.55-2.57,7.91,7.91,0,0,0-1.21-.95,6.72,6.72,0,0,0-1.42-.64,5.42,5.42,0,0,0-1.5-.25,5.79,5.79,0,0,0-1.55.15,6.25,6.25,0,0,0-1.49.56,4,4,0,0,0-.76.47,7.37,7.37,0,0,0-1.17,1.06,9.32,9.32,0,0,0-.92,1.31,9.5,9.5,0,0,0-.64,1.51,5.73,5.73,0,0,0-.29,1.6,2.8,2.8,0,0,0,0,.41,6.55,6.55,0,0,0,.2,1.09,4.69,4.69,0,0,0,.68,1.36,6,6,0,0,0,1,1.14,6,6,0,0,0,1.21.8q.38.18.78.33a5.69,5.69,0,0,0,.85.3,8.31,8.31,0,0,0,1.13.14,5.66,5.66,0,0,0,1.53-.17,3.49,3.49,0,0,0,.85-.26,7.71,7.71,0,0,0,1.4-.72,8.57,8.57,0,0,0,1.22-1,8.28,8.28,0,0,0,1-1.24,6.76,6.76,0,0,0,.63-1.43,5,5,0,0,0,.23-1.49A2.83,2.83,0,0,0,241.82,435.18Z"/><path class="cls-6" d="M241.76,482.24a7.87,7.87,0,0,0-.19-1.08,6.23,6.23,0,0,0-1.55-2.57,6.94,6.94,0,0,0-1.21-.95,6.72,6.72,0,0,0-1.42-.64,5.82,5.82,0,0,0-1.49-.26,6.19,6.19,0,0,0-1.55.16,6.75,6.75,0,0,0-1.5.55,4,4,0,0,0-.76.48,6.92,6.92,0,0,0-1.17,1.06,8.78,8.78,0,0,0-.92,1.31,10.06,10.06,0,0,0-.64,1.51,6,6,0,0,0-.29,1.6,1.89,1.89,0,0,0,0,.41,5.79,5.79,0,0,0,.19,1.09,4.72,4.72,0,0,0,.69,1.36,6.18,6.18,0,0,0,1,1.14,6.34,6.34,0,0,0,1.21.8c.25.11.51.23.78.33a5.33,5.33,0,0,0,.85.29A7.27,7.27,0,0,0,235,489a5.72,5.72,0,0,0,1.54-.16,4.09,4.09,0,0,0,.84-.26,8.18,8.18,0,0,0,1.41-.73,9,9,0,0,0,1.22-1,7.83,7.83,0,0,0,1-1.25,7.35,7.35,0,0,0,.64-1.43,5.3,5.3,0,0,0,.22-1.48A2.73,2.73,0,0,0,241.76,482.24Z"/><path class="cls-6" d="M201.86,533.8a7.9,7.9,0,0,0-.2-1.08,6.23,6.23,0,0,0-1.55-2.57,6.94,6.94,0,0,0-1.21-.95,6.5,6.5,0,0,0-1.42-.64,5.75,5.75,0,0,0-1.49-.26,6.23,6.23,0,0,0-1.55.16A6.5,6.5,0,0,0,193,529a3.49,3.49,0,0,0-.76.48,6.56,6.56,0,0,0-1.17,1.06,8.15,8.15,0,0,0-.93,1.31,11.21,11.21,0,0,0-.64,1.51,6,6,0,0,0-.29,1.6,1.89,1.89,0,0,0,0,.41,5.1,5.1,0,0,0,.2,1.09,4.45,4.45,0,0,0,.68,1.36,6.23,6.23,0,0,0,1,1.14,6,6,0,0,0,1.2.8c.25.11.51.23.78.33a5.33,5.33,0,0,0,.85.29,7.27,7.27,0,0,0,1.13.14,5.68,5.68,0,0,0,1.54-.16,4.09,4.09,0,0,0,.84-.26,8.18,8.18,0,0,0,1.41-.73,8.39,8.39,0,0,0,1.22-1,7.83,7.83,0,0,0,1-1.25,6.79,6.79,0,0,0,.64-1.43,4.66,4.66,0,0,0,.22-1.48A2.75,2.75,0,0,0,201.86,533.8Z"/><path class="cls-6" d="M254.49,547.74a8.19,8.19,0,0,0-.2-1.08,6.3,6.3,0,0,0-1.55-2.57,7.45,7.45,0,0,0-1.21-1,6.64,6.64,0,0,0-1.41-.64,5.76,5.76,0,0,0-3.05-.09,5.82,5.82,0,0,0-1.49.55,4.2,4.2,0,0,0-.76.47,7.37,7.37,0,0,0-1.17,1.06,8.63,8.63,0,0,0-.93,1.31,10.47,10.47,0,0,0-.63,1.51,5.73,5.73,0,0,0-.29,1.6,2.94,2.94,0,0,0,0,.42,5.71,5.71,0,0,0,.2,1.08,4.45,4.45,0,0,0,.68,1.36,6.15,6.15,0,0,0,2.24,1.94c.25.12.52.23.78.33a6.61,6.61,0,0,0,.85.3,7.27,7.27,0,0,0,1.13.14,6.11,6.11,0,0,0,1.54-.16,4.12,4.12,0,0,0,.84-.27,8.14,8.14,0,0,0,1.41-.72,9.09,9.09,0,0,0,1.22-1,8.15,8.15,0,0,0,1-1.25,6.32,6.32,0,0,0,.64-1.43,4.72,4.72,0,0,0,.22-1.49A1.88,1.88,0,0,0,254.49,547.74Z"/><path class="cls-6" d="M155.51,485.55a7.9,7.9,0,0,0-.2-1.08,6.17,6.17,0,0,0-1.55-2.57,7,7,0,0,0-1.21-1,7.81,7.81,0,0,0-1.41-.64,6.1,6.1,0,0,0-4.54.46,4.2,4.2,0,0,0-.76.47,7.89,7.89,0,0,0-1.17,1.06,9.15,9.15,0,0,0-.93,1.31,10.47,10.47,0,0,0-.63,1.51,5.73,5.73,0,0,0-.29,1.6,1.48,1.48,0,0,0,0,.42,5.71,5.71,0,0,0,.2,1.08,4.24,4.24,0,0,0,.68,1.36,6.33,6.33,0,0,0,1,1.15,7,7,0,0,0,1.2.8l.78.32a5.37,5.37,0,0,0,.85.3,7.27,7.27,0,0,0,1.13.14,6.11,6.11,0,0,0,1.54-.16,4.12,4.12,0,0,0,.84-.27,7.49,7.49,0,0,0,1.41-.72,9.09,9.09,0,0,0,1.22-1,8.3,8.3,0,0,0,1-1.25,6.32,6.32,0,0,0,.64-1.43,4.72,4.72,0,0,0,.22-1.49A2.68,2.68,0,0,0,155.51,485.55Z"/><path class="cls-6" d="M427.94,406.52a7.9,7.9,0,0,0-.2-1.08,6.23,6.23,0,0,0-1.55-2.57,6.94,6.94,0,0,0-1.21-.95,6.64,6.64,0,0,0-1.41-.64,5.42,5.42,0,0,0-1.5-.25,5.79,5.79,0,0,0-1.55.15,6.25,6.25,0,0,0-1.49.56,3.32,3.32,0,0,0-.76.47,6.92,6.92,0,0,0-1.17,1.06,8.63,8.63,0,0,0-.93,1.31,10,10,0,0,0-.63,1.51,5.66,5.66,0,0,0-.29,1.6,1.41,1.41,0,0,0,0,.41,5.81,5.81,0,0,0,.2,1.09,4.45,4.45,0,0,0,.68,1.36,6.61,6.61,0,0,0,1,1.14,6,6,0,0,0,1.2.8c.25.11.52.23.78.33a6.61,6.61,0,0,0,.85.3,7.25,7.25,0,0,0,1.13.13,5.31,5.31,0,0,0,1.54-.16,4.09,4.09,0,0,0,.84-.26,8.18,8.18,0,0,0,1.41-.73,8.39,8.39,0,0,0,1.22-1,7.28,7.28,0,0,0,1-1.25,6.32,6.32,0,0,0,.64-1.43,4.66,4.66,0,0,0,.22-1.48A1.85,1.85,0,0,0,427.94,406.52Z"/><path class="cls-6" d="M480.49,588.42a7.9,7.9,0,0,0-.2-1.08,6.23,6.23,0,0,0-1.55-2.57,6.41,6.41,0,0,0-2.63-1.59,5.82,5.82,0,0,0-1.49-.26,6.23,6.23,0,0,0-1.55.16,6.06,6.06,0,0,0-1.49.55,3.82,3.82,0,0,0-.77.48,7.31,7.31,0,0,0-1.17,1,10,10,0,0,0-.92,1.31,11.79,11.79,0,0,0-.64,1.51,6.19,6.19,0,0,0-.29,1.6,2,2,0,0,0,0,.42,5.1,5.1,0,0,0,.2,1.09,4.29,4.29,0,0,0,.68,1.35,5.67,5.67,0,0,0,1,1.15,6.43,6.43,0,0,0,1.2.8c.25.11.51.23.78.32a5.37,5.37,0,0,0,.85.3,7.27,7.27,0,0,0,1.13.14,6.11,6.11,0,0,0,1.54-.16,3.58,3.58,0,0,0,.84-.27,7.49,7.49,0,0,0,1.41-.72,8.39,8.39,0,0,0,1.22-1,8.3,8.3,0,0,0,1-1.25,7.35,7.35,0,0,0,.64-1.43,4.72,4.72,0,0,0,.22-1.49C480.51,588.69,480.5,588.55,480.49,588.42Z"/><path class="cls-6" d="M411.1,455.73a7.87,7.87,0,0,0-.19-1.08,6.3,6.3,0,0,0-1.56-2.57,6.93,6.93,0,0,0-1.2-1,7.22,7.22,0,0,0-1.42-.63,5.43,5.43,0,0,0-1.5-.26,6.29,6.29,0,0,0-3,.71,4.58,4.58,0,0,0-.76.47,7.89,7.89,0,0,0-1.17,1.06,8.36,8.36,0,0,0-.92,1.31,9.5,9.5,0,0,0-.64,1.51,5.73,5.73,0,0,0-.29,1.6,2.94,2.94,0,0,0,0,.42,5.71,5.71,0,0,0,.2,1.08,4.24,4.24,0,0,0,.68,1.36,6.33,6.33,0,0,0,1,1.15,6.68,6.68,0,0,0,1.21.8c.24.11.51.22.78.32a4.94,4.94,0,0,0,.84.3,7.25,7.25,0,0,0,1.14.14,6.08,6.08,0,0,0,1.53-.16,4.41,4.41,0,0,0,.85-.27,7.41,7.41,0,0,0,1.4-.72,7.23,7.23,0,0,0,2.19-2.26,6.76,6.76,0,0,0,.63-1.43,4.72,4.72,0,0,0,.22-1.49A1.79,1.79,0,0,0,411.1,455.73Z"/><path class="cls-6" d="M402.41,527.68a7.87,7.87,0,0,0-.19-1.08,6.17,6.17,0,0,0-1.55-2.57,7.4,7.4,0,0,0-1.21-1,7.22,7.22,0,0,0-1.42-.63,5.43,5.43,0,0,0-1.5-.26,5.68,5.68,0,0,0-1.54.16,5.89,5.89,0,0,0-1.5.55,4.58,4.58,0,0,0-.76.47,7.89,7.89,0,0,0-1.17,1.06,10,10,0,0,0-.92,1.31,9.5,9.5,0,0,0-.64,1.51,6.11,6.11,0,0,0-.29,1.6,2,2,0,0,0,0,.42,5.68,5.68,0,0,0,.19,1.08,4.69,4.69,0,0,0,.68,1.36,6.33,6.33,0,0,0,1,1.15,7,7,0,0,0,1.21.8c.25.11.51.22.78.32a5.37,5.37,0,0,0,.85.3,7.27,7.27,0,0,0,1.13.14,6.2,6.2,0,0,0,1.54-.16A4.12,4.12,0,0,0,398,534a7.49,7.49,0,0,0,1.41-.72,9,9,0,0,0,1.22-1,8.3,8.3,0,0,0,1-1.25,7.35,7.35,0,0,0,.64-1.43,5.37,5.37,0,0,0,.22-1.49A2.69,2.69,0,0,0,402.41,527.68Z"/><path class="cls-6" d="M411.38,588.42a7.87,7.87,0,0,0-.19-1.08,6.23,6.23,0,0,0-1.55-2.57,6.84,6.84,0,0,0-1.21-.95,6.72,6.72,0,0,0-1.42-.64,5.82,5.82,0,0,0-1.5-.26,6.29,6.29,0,0,0-3,.71,4,4,0,0,0-.76.48,7.31,7.31,0,0,0-1.17,1,10,10,0,0,0-.92,1.31A9.5,9.5,0,0,0,399,588a6.19,6.19,0,0,0-.29,1.6,2,2,0,0,0,0,.42,5.79,5.79,0,0,0,.19,1.09,4.76,4.76,0,0,0,.68,1.35,6.33,6.33,0,0,0,1,1.15,6.5,6.5,0,0,0,1.21.8c.25.11.51.23.78.32a5.37,5.37,0,0,0,.85.3,7.12,7.12,0,0,0,1.13.14,6.2,6.2,0,0,0,1.54-.16,3.58,3.58,0,0,0,.84-.27,7.49,7.49,0,0,0,1.41-.72,9,9,0,0,0,1.22-1,8.3,8.3,0,0,0,1-1.25,7.35,7.35,0,0,0,.64-1.43,5.37,5.37,0,0,0,.22-1.49A2.69,2.69,0,0,0,411.38,588.42Z"/><path class="cls-6" d="M464,533.8a7.87,7.87,0,0,0-.19-1.08,6.23,6.23,0,0,0-1.55-2.57,7.34,7.34,0,0,0-1.21-.95,6.72,6.72,0,0,0-1.42-.64,5.82,5.82,0,0,0-1.5-.26,6.23,6.23,0,0,0-1.55.16,6.67,6.67,0,0,0-1.49.55,4,4,0,0,0-.76.48,6.92,6.92,0,0,0-1.17,1.06,8.78,8.78,0,0,0-.92,1.31,9.12,9.12,0,0,0-.64,1.51,6,6,0,0,0-.29,1.6,1.89,1.89,0,0,0,0,.41,5.79,5.79,0,0,0,.19,1.09,5,5,0,0,0,.68,1.36,6.61,6.61,0,0,0,1,1.14,6,6,0,0,0,1.21.8c.25.11.51.23.78.33a5.33,5.33,0,0,0,.85.29,7.12,7.12,0,0,0,1.13.14,5.76,5.76,0,0,0,1.54-.16,4.09,4.09,0,0,0,.84-.26,8.18,8.18,0,0,0,1.41-.73,9,9,0,0,0,1.22-1,7.83,7.83,0,0,0,1-1.25,7.35,7.35,0,0,0,.64-1.43,5.3,5.3,0,0,0,.22-1.48A2.73,2.73,0,0,0,464,533.8Z"/><path class="cls-6" d="M457.61,463.11a7.87,7.87,0,0,0-.19-1.08,6.23,6.23,0,0,0-1.55-2.57,7.34,7.34,0,0,0-1.21-.95,6.72,6.72,0,0,0-1.42-.64,5.82,5.82,0,0,0-1.5-.26,6.23,6.23,0,0,0-1.55.16,6.67,6.67,0,0,0-1.49.55,4,4,0,0,0-.76.48,6.92,6.92,0,0,0-1.17,1.06,8.1,8.1,0,0,0-.92,1.31,9.12,9.12,0,0,0-.64,1.51,5.66,5.66,0,0,0-.29,1.6,2.8,2.8,0,0,0,0,.41,6.74,6.74,0,0,0,.2,1.09,4.69,4.69,0,0,0,.68,1.36,6.61,6.61,0,0,0,1,1.14,6.5,6.5,0,0,0,1.21.8c.25.11.51.23.78.32a4.21,4.21,0,0,0,.84.3,7.25,7.25,0,0,0,1.14.14,5.65,5.65,0,0,0,1.53-.16,3.66,3.66,0,0,0,.85-.27,7.41,7.41,0,0,0,1.4-.72,7.23,7.23,0,0,0,2.19-2.26,6.76,6.76,0,0,0,.63-1.43,4.72,4.72,0,0,0,.22-1.49A1.79,1.79,0,0,0,457.61,463.11Z"/><path class="cls-6" d="M106.09,417.18a4.24,4.24,0,0,0,.68,1.36,5.67,5.67,0,0,0,1,1.15,6.43,6.43,0,0,0,1.2.8c.25.11.51.23.78.32a5.37,5.37,0,0,0,.85.3,7.27,7.27,0,0,0,1.13.14,3,3,0,0,0,.42,0c1.29-3.78,2.68-7.36,4.17-10.78-.24-.19-.49-.37-.74-.53a6.5,6.5,0,0,0-1.42-.64,5.82,5.82,0,0,0-1.49-.26,6.36,6.36,0,0,0-3,.71,4,4,0,0,0-.76.48,7.31,7.31,0,0,0-1.17,1.05,10,10,0,0,0-.92,1.31,11.79,11.79,0,0,0-.64,1.51,6.19,6.19,0,0,0-.29,1.6,2,2,0,0,0,0,.42A4.9,4.9,0,0,0,106.09,417.18Z"/><path class="cls-2" d="M235.43,266.18s-79.26,105-70.73,198.55,35,215.72,35,215.72H15.09l17.28-98.69.78-121.36,27.35-2.27s26.32-109.9,63.66-145.75A165.13,165.13,0,0,1,235.43,266.18Z"/><path class="cls-2" d="M329.68,234.8s-26.06,1.68-42.68-11.31l19.71,46.9s-.29-5.85,5-21.68C316.29,235.15,329.68,234.8,329.68,234.8Z"/></g></g></svg>