<svg xmlns="http://www.w3.org/2000/svg" viewBox="0 0 575.6 552.7"><defs><style>.cls-1,.cls-7{fill:#010103;}.cls-1{stroke:#010103;stroke-miterlimit:10;}.cls-2{fill:#fb6d4d;}.cls-3{fill:#a64c13;}.cls-4{fill:#5f0c0e;}.cls-5{fill:#080607;opacity:0.2;}.cls-6{fill:#ece5cb;}.cls-8{fill:#224c2f;}</style></defs><title>Woman Right 1</title><g id="Camada_2" data-name="Camada 2"><g id="Camada_2-2" data-name="Camada 2"><path class="cls-1" d="M270.92,308.44s38.71-5.95,48.27-5.95c2.22,0,34.06,1.78,34.06,1.78,32.19,4.05,98.7,31.2,129.56,74.91,6.76-10.87,33.85-62.4,34.69-82.64,1.13-27.11-17.16-75.78-46.53-83.43S438.22,188,439.35,161.23s-10.17-55.67-47.44-60.76S352.38,72.8,349,62.64s-12.42-61-81.9-62.12-114.47,48.85-114.47,94V312.28c6-2,31.16,1.73,37.45.63C190.07,312.91,253.37,310.07,270.92,308.44Z"/><path class="cls-2" d="M532.15,405.84c-11.61-27.53-43.31-65.11-46.06-67.85-36-35.89-97.38-70.87-129.56-74.91L260.9,385.66,176.31,267.48a130.15,130.15,0,0,0-18.19,4.45v0C138.28,278.42,117.72,291,80.19,319,9,372.1,0,552.7,0,552.7H575.6S569,493.21,532.15,405.84Z"/><path class="cls-3" d="M220.73,222.61l-1.8,40.17c-17.54,1.63-30.76,2.63-42.62,4.7L260.9,385.66l95.63-122.58a61.18,61.18,0,0,0-7.54-.53c-9.55,0-19.3-.48-29.8-1V79.6L278,77,267.09,38.38,253.42,77H178.88s-5.27,53.49,0,95.21c4.06,32.24,27,41.58,37.18,44.16,2.85.73,4.52,1,4.52,1Z"/><path class="cls-4" d="M243.33,163.3c-7.23-.28-10.12,3-10.12,3s-2.9-3.24-10.13-3-18.57,9-18.57,9,7.24,15.57,28.7,15.57S261.9,172.3,261.9,172.3,250.57,163.58,243.33,163.3Z"/><polygon class="cls-5" points="259.51 217.11 220.22 234.01 220.58 217.34 259.51 217.11"/><path class="cls-3" d="M317.69,108.49s7.09-9.67,15.47-3.23,4.51,37.39-15.47,47.06S317.69,108.49,317.69,108.49Z"/><path class="cls-6" d="M57.18,368.67c5.24-1.63,6.8-6.37,10.1-10.13a5.33,5.33,0,0,1,6.1-1.56,23.65,23.65,0,0,1,9.74,6.37c4.94,5.27,8.12,12,13.44,17a13.7,13.7,0,0,0,7.66,3.91c3.68.4,7.43-1.37,10.4-3.38a10.53,10.53,0,0,0,4.92-7.06c.5-3.1,0-6.28.08-9.4.14-3.88.87-8.69,3.61-11.68,2-2.14,4.78-2.44,7.5-1.82,6.36,1.45,11.9,5.94,17.18,9.53a58.29,58.29,0,0,0,18.83,8.6c7.27,1.77,16.25,1.46,19.76-6.37,2.91-6.47-1.81-12.47-5.71-17.28-2.48-3.05-8.69-9.41-4.8-13.5,2.54-2.67,6.73-4,10.08-5.31,8.44-3.22,17.51-5.53,25.6-9.68l-20.88-29.16c-6,.69-12,2.31-18,2.79-4.42.35-9.07.09-13.12-1.89-3.87-1.9-6.59-5.23-8.85-8.81-.86-1.38-1.69-2.76-2.52-4.16-17.15,7.3-36.67,20-68.07,43.37-15,11.16-27.17,28-37.13,47.51C47.38,369,52.34,370.18,57.18,368.67Z"/><path class="cls-6" d="M563.57,548.92c-3.49-6.18-11.12-5.95-17.3-5.66-3.93.18-12.73,1.4-13.71-4.15-.65-3.63.74-7.81,1.7-11.27,2.77-10,7-19.87,7.91-30.24.3-3.49.25-7.67-2.17-10.48-2.69-3.14-7.24-3.12-11-2.45-7.65,1.36-14.73,4.82-19.62,11-5.17,6.49-7.7,14.54-12,21.53-2.35,3.76-5.31,7.36-9.31,9.43-3.83,2-8.12,2.21-12.35,1.9-7.44-.55-14.84-1.76-22.29-2.24-5.75-.37-13.23-.56-17.68,3.79-4,3.92-3.7,9.86-.33,14,2.71,3.31,6.26,5.78,9.4,8.67H564.93A11.91,11.91,0,0,0,563.57,548.92Z"/><path class="cls-6" d="M96.9,547.35c.06-2.41.53-5,2.33-6.74,2.22-2.16,6.13-2.84,9.1-2.52,3.34.37,6.31,2.64,8.73,4.81a85.25,85.25,0,0,1,8.27,8.93l.72.87h36.44c-.32-1.6-.7-3.13-1.06-4.5-1.73-6.51-4.91-13.07-4.41-20a9.38,9.38,0,0,1,5.2-8.21c4-1.92,7.9-1.42,11.6.84s6.84,5.39,10.14,8.2c3,2.51,6.68,5.89,10.61,6.67A5.58,5.58,0,0,0,201,531c.55-4.28-4.37-7.19-6.3-10.52-5.87-10.11,12-14.93,17.68-19a1.26,1.26,0,0,0,.2-.2,25.53,25.53,0,0,0,5.68-5c6.12-7.24,8.75-18.5,1.82-26.15-4.46-4.92-11.29-7-17.67-7.87-8.72-1.24-17.75,1.8-26.31-.62-9-2.55-14.67-10.1-21.92-15.42-6.2-4.56-15.28-7.56-22.55-3.54-4.8,2.65-5.37,7.61-7.85,12a5.31,5.31,0,0,1-5.65,2.75,23.64,23.64,0,0,1-10.83-4.27C101.43,449,97,443,90.74,439.22a13.69,13.69,0,0,0-8.29-2.29c-3.68.35-7,2.84-9.5,5.41a10.57,10.57,0,0,0-3.4,7.91c.14,3.13,1.31,6.14,1.82,9.22.65,3.83.9,8.69-1.18,12.16-1.5,2.5-4.19,3.36-7,3.3-6.52-.14-12.85-3.41-18.75-5.87a58.31,58.31,0,0,0-20.18-4.62c-4.58-.17-9.62.57-13.28,3.09-1,5.38-2,10.66-2.86,15.78a36.53,36.53,0,0,0,7.15,7.12c3.05,2.49,10.4,7.47,7.42,12.25-1.95,3.14-5.77,5.32-8.8,7.25-3.41,2.17-7,4.19-10.52,6.27-2,16.61-2.92,28.95-3.24,34a28.16,28.16,0,0,0,10.72.32c8.19-1.38,15.45-5.67,23.35-8,4.26-1.24,8.87-1.92,13.23-.8,4.18,1.08,7.52,3.79,10.45,6.85q1.93,2,3.79,4.1H97.23A35.51,35.51,0,0,1,96.9,547.35Z"/><path class="cls-6" d="M322.37,306.87a30.35,30.35,0,0,0,18.71,2.76c8.15-1.54,15.32-6,23.18-8.43,4.24-1.32,8.83-2.1,13.21-1.07,4.2,1,7.59,3.64,10.59,6.64,5.27,5.27,10.09,11,15.42,16.25,4.11,4,9.64,9.07,15.85,8.68,5.6-.35,9.25-5.05,9.4-10.37.14-5.59-1.75-11-1.71-16.61,0-2.42.43-5,2.2-6.78a8.61,8.61,0,0,1,3-1.89c-27.94-17.59-56.83-30.6-75.7-33Z"/><path class="cls-6" d="M512,417.42c1.85-1.05,4.2-1,6.25-.78a53.91,53.91,0,0,1,7.53,1.49c2.51.63,5,1.32,7.53,1.82a21.78,21.78,0,0,0,4.9.55q-2.86-7.2-6-14.66c-7.23-17.13-22.22-38.14-33.19-52.24-4.23.5-8.6,2.42-10.47,6.42-1.47,3.14.07,5.88.42,9a3.35,3.35,0,0,1-1.87,3.51,15,15,0,0,1-7.11,1.83c-4.56.06-9.07-1.34-13.64-.95a8.61,8.61,0,0,0-5.08,1.9c-1.75,1.54-2.52,4.05-2.85,6.29a6.63,6.63,0,0,0,1.2,5.3c1.23,1.55,2.94,2.66,4.35,4,1.75,1.71,3.68,4.11,3.9,6.65a4.7,4.7,0,0,1-2.34,4.27c-3.38,2.35-7.83,3-11.76,4a36.8,36.8,0,0,0-12,5.12c-3.92,2.64-7.6,7-5.44,11.92,1.78,4.12,6.58,4.47,10.48,4.7,2.49.14,8.09-.05,8.35,3.51.16,2.32-1,4.85-1.82,7-2.39,6.07-5.69,12-6.95,18.47-.42,2.17-.66,4.8.67,6.72,1.49,2.15,4.35,2.44,6.74,2.27a19.93,19.93,0,0,0,13-5.6c3.67-3.73,5.79-8.62,9-12.73a15.91,15.91,0,0,1,6.47-5.31,14.32,14.32,0,0,1,7.87-.38c4.64.84,9.21,2.08,13.86,2.87,3.58.61,8.27,1.23,11.35-1.21a6.48,6.48,0,0,0,1.13-8.77c-1.94-2.95-4.88-5.08-6.87-8a6,6,0,0,1-1.31-4.31A7.51,7.51,0,0,1,512,417.42Z"/><path class="cls-6" d="M469,322.52l-2.83-2.31A25.94,25.94,0,0,0,469,322.52Z"/><path class="cls-6" d="M292.08,534.27c-1.94-4.3-5.58-8.66-10.84-7.36-4.35,1.07-5.51,5.74-6.39,9.55-.55,2.42-1.31,8-4.85,7.64-2.32-.23-4.63-1.79-6.56-3-5.59-3.37-10.9-7.63-17.05-9.95-2.07-.78-4.62-1.45-6.74-.46-2.36,1.1-3.13,3.87-3.36,6.26a20,20,0,0,0,3.33,13.8,23.63,23.63,0,0,0,1.56,1.91h54.3c-.19-1.93-.24-3.87-.36-5.72A36.91,36.91,0,0,0,292.08,534.27Z"/><path class="cls-6" d="M212.24,370.26c-2.86,3-2.4,7.51-1.38,11.18,2.09,7.47,6.22,14.19,12.8,18.47,7,4.51,15.21,6.26,22.59,9.91,4,2,7.83,4.58,10.29,8.36,2.35,3.62,3,7.87,3.07,12.11.17,7.46-.32,14.93-.08,22.4.19,5.76.71,13.22,5.47,17.23,4.29,3.62,10.18,2.74,14-1,4-3.94,6.35-9.18,10.24-13.19,1.68-1.73,3.76-3.31,6.27-3.39,3.09-.09,6.44,2,8.41,4.29,2.21,2.53,2.87,6.21,3.18,9.44a85.36,85.36,0,0,1,.06,12.18c-.18,4.08-.46,8.16-.44,12.25a28.94,28.94,0,0,0,1.22,9.58c2.05,5.79,6.52,15.3,14.17,14.11,6.72-1,11.27-8.79,14.11-14.22,3.13-6,5.22-12.95,10.24-17.69a9.38,9.38,0,0,1,9.38-2.53c4.24,1.28,6.79,4.29,8,8.46s1.39,8.6,1.93,12.89c.49,3.85.94,8.86,3.31,12.09a5.57,5.57,0,0,0,8,.84c3.3-2.78,1.65-8.25,2.47-12,2.51-11.42,18.93-2.91,25.86-2.06a.94.94,0,0,0,.29,0,25.37,25.37,0,0,0,7.54.17c9.4-1.2,19-7.72,19-18,0-6.64-3.61-12.77-7.7-17.75-5.6-6.8-14.3-10.66-19-18.24-4.91-8-4-17.35-5.73-26.17-1.49-7.55-6.15-15.9-14.23-17.85-5.33-1.29-9.1,2-13.86,3.5a5.29,5.29,0,0,1-6-1.79,23.5,23.5,0,0,1-5.09-10.46c-1.55-7.06-.8-14.5-2.83-21.46a13.7,13.7,0,0,0-4.56-7.3c-2.95-2.23-7.08-2.63-10.66-2.43a10.52,10.52,0,0,0-7.85,3.53c-2,2.4-3.19,5.41-4.89,8-2.12,3.26-5.22,7-9.1,8.16-2.79.83-5.36-.36-7.37-2.28-4.71-4.51-7.16-11.21-9.85-17A58.43,58.43,0,0,0,292,345.81L260.9,385.66l-10.08-14.08c-9.35-1.84-18.8-4.57-28.36-4.49C219,367.12,214.81,367.58,212.24,370.26Z"/><path class="cls-5" d="M218.93,262.78s-93.28,40.05-98.5,132-6.62,157.94-6.62,157.94H0s8.14-163,69.34-224.15S184.38,264.88,218.93,262.78Z"/><path class="cls-3" d="M415.8,468.47c-5.36-.76-41.37-13.38-55.16-27.17S320,422.89,308,430c-6.84,4.06-7.88,7-7.88,7s-3.83,10.73,3.83,13,21.75-3.07,37.31,7.66,13.56,26.28,0,25.78-31.22-13.7-49.05-7.39c-11.11,3.92-14.11,6-10,14.55,3.3,6.83,15.93,4.6,28.42,16.86s23.21,20.69,51.55,21.45,44.44,0,44.44,0l-.77-22.22Z"/><path class="cls-7" d="M228.54,440.12c-42.94,4.11-68.52-21-68.52-21s33.8-19.64,59.84-19.65c51.63,0,66.83,17.36,66.83,17.36S271.49,436,228.54,440.12Z"/><path class="cls-8" d="M165,485.35c6.85,30.61,26.5,48.88,59.85,52.54s45.68-26.5,45.68-26.5,12.34-.92,28.1-12.79,17.59-27.41,13.93-45.69-27.86-19.19-27.86-19.19l1.95-16.9s-15.2,19.19-58.15,23.3-68.52-21-68.52-21S158.19,454.74,165,485.35Zm110.56,0,5.94-32.44c9,1.32,18.24,7,15.86,17.24C295.1,480.08,283.68,482.26,275.6,485.35Z"/><path class="cls-3" d="M341.25,483.53c-13.55-.5-31.22-13.7-49.05-7.39-11.11,3.92-14.11,6-10,14.55,3.3,6.83,15.93,4.6,28.42,16.86"/></g></g></svg>