<svg xmlns="http://www.w3.org/2000/svg" viewBox="0 0 723.3 1024.61"><defs><style>.cls-1{fill:#010103;stroke:#010103;stroke-miterlimit:10;}.cls-2{fill:#62be8f;}.cls-3{fill:#a64c13;}.cls-4{fill:#080607;opacity:0.2;}.cls-5{fill:#e8b493;}.cls-6{fill:#5f0c0e;}.cls-7{fill:#ece5cb;}.cls-8{fill:#ffb819;}.cls-9{fill:#fb6d4d;}</style></defs><title>Women Left 2</title><g id="Camada_2" data-name="Camada 2"><g id="Camada_7" data-name="Camada 7"><path class="cls-1" d="M589.59,13c31.75,7.4,66.13,34.46,73.58,74.51a546.45,546.45,0,0,1,8,63.46,7.78,7.78,0,0,1-7.76,8.26h-4a3.77,3.77,0,0,0-3.79,3.66c-.36,12.75-5.47,55.22-56.59,69.79a18.15,18.15,0,0,0-13.08,17.5v46.21h-97.8l-9.6-270S536.22.58,589.59,13Z"/><path class="cls-2" d="M488.07,296.41h77.62c66.89,0,129.93,44.47,124.41,123.07s0,234.84,0,234.84H385.39V296.41H488.07"/><path class="cls-3" d="M143.27,317.9c32-27.19,69.51-35.1,99.78-34.93s37-8.81,41.48-46.93,16.94-70.71,72.46-83c88.91-19.7,43-88.52,121.48-132.67,78.13-43.95,145.94-7.3,145.59,21.8-.35,28.58-61.5,39.19-64.87,67.21S576,157.26,534.53,177s-38.12,46.68-28,69.1,16.64,50.12-1.87,63c-12.3,8.55-19.85,23.34-11.49,48.53,11,33.15,34.1,29.72,38.08,55.86,4.24,27.8-16.51,34.94-1.1,58.28S588,482.35,588,482.35l-11.42,238L0,732.15S16.59,425.54,143.27,317.9Z"/><path class="cls-4" d="M271.31,504.5c-24.38-30.77-16.55-74.8,19.77-94.12s17.6-48.19,61.94-70.61S365.44,298.1,380,248s67.23-19.54,75.77-64.4,51.34-32.05,41.55-66.23,7.65-32,43.73-58.68c29.65-21.89,35.24-36,25.38-57.64-24.76-3.27-55.48,1.05-88,19.34C400,64.5,445.9,133.32,357,153c-55.52,12.31-68,44.91-72.46,83S273.32,283.13,243.05,283s-67.78,7.74-99.78,34.93C16.59,425.54,0,732.15,0,732.15l290.37-5.94.71-127.27S295.7,535.27,271.31,504.5Z"/><path class="cls-5" d="M347.33,688.85c80.74,0,128.25-56.77,150-92.17-50.82-21.57-92.23-29.6-92.23-29.6v-49.7c27.88-12.29,45.13-44.79,45.13-79.83V375.14c-41.27-6.09-47.78-44.58-47.78-44.58,0,27.64-26.28,30.95-40.52,41.85-9.95,7.62-7.76,14-13.85,23.52-6.55,10.27-19.2,13.28-23.23,26.21-3.45,11.09,0,19.38-9.41,28.61-8.08,7.91-15,7.59-16.59,21.76-2.84,25.23,9.92,24.44,21.5,41.22,10.6,15.35,6.58,33.38,6.58,51,0,0-67.66,8.55-118.27,25C222.86,624,261.06,688.85,347.33,688.85Z"/><path d="M208.11,591c7.22,17.23,20.32,41.66,42.18,61.92,26.46,24.53,59.11,37,97,37,81.11,0,128.91-57.23,150.42-91.91,34.75,14.81,65.37,32.32,91,52,33,25.39,57.59,54.39,73,86.19C676.27,766,688.46,799.73,698,836.4a750.47,750.47,0,0,1,17.82,93c6.49,50.33,6.5,87.76,6.44,94.2H9.26c.1-9.59,1.52-86.3,20.68-172.5,12-53.83,28.41-100.77,48.86-139.52,25.54-48.36,57.43-84,94.81-106,8.55-5,20.15-9.95,34.5-14.67m.57-1.23c-13.65,4.44-26.07,9.45-35.58,15C8.51,701.42,8.25,1024.61,8.25,1024.61h715s3.05-157.81-60.6-288.87c-34.24-70.49-106.16-114-165.33-139.06-21.77,35.4-69.28,92.17-150,92.17-86.27,0-124.47-64.81-138.65-99.11Z"/><path class="cls-6" d="M375.26,468c7.23-.28,10.13,3,10.13,3s2.89-3.24,10.12-3,18.57,9,18.57,9-7.24,15.57-28.69,15.57S356.69,477,356.69,477,368,468.25,375.26,468Z"/><path class="cls-4" d="M405.12,517.38S397.33,522,374,521l31.14,15.8Z"/><path class="cls-7" d="M662.68,735.74c-16.3-33.56-41.15-61-69.09-83.22-30.75-24.48-65.24-42.68-96.24-55.84-21.77,35.4-69.28,92.17-150,92.17-81.94,0-120.51-58.47-136.33-93.73-.83-1.86-1.61-3.66-2.32-5.38-13.65,4.44-26.07,9.45-35.58,15C98.05,648.84,57.17,740,34.9,826.17,8.34,929,8.25,1024.61,8.25,1024.61h715S726.33,866.8,662.68,735.74Z"/><path class="cls-8" d="M347.33,688.85c-81.94,0-120.51-58.47-136.33-93.73,3.21,9.87,3.43,22.07,4.32,34.14,2.11,28.63-5.13,47.9-12.06,71.44-5,17.13,13.31,25.78,25.78,37.52,38.27-23.5,74.86-53.87,116.18-45.11,11.76,2.49,24,7.6,35.55,14.42,21.28-2.83,43.62-2.28,59-3.24,15.17-.95,167.71-8.17,152.76-51.71l1.06-.06c-30.75-24.48-65.24-42.68-96.24-55.84C475.58,632.08,428.07,688.85,347.33,688.85Z"/><path class="cls-9" d="M237.53,749.16c8.41,17.8,1.33,33.23-9.06,48.45-13.67,20-32.28,31.17-52.92,43-4.48,2.57-8.89,5.27-13.27,8,20.18,13.22,23.86,28.12,26,59,0,.3,0,.59.07.89.42-.5.85-1,1.28-1.49,20.29-23.39,63.74-88.76,98.31-90.94,27.09-1.71,22.9,31,26.38,54.56,7.78-13.37,20.43-25.62,35.92-36.77,18.68-13.43,40.7-26.75,19.18-47.81-18.33-17.94-60-10.64-46.9-44.84,8.41-22,32.58-30.32,58.29-33.74-11.58-6.82-23.79-11.93-35.55-14.42-41.32-8.76-77.91,21.61-116.18,45.11A37.26,37.26,0,0,1,237.53,749.16Z"/><path class="cls-6" d="M140.28,837.27a147.32,147.32,0,0,1,22,11.39c4.38-2.77,8.79-5.47,13.27-8,20.64-11.84,39.25-23,52.92-43,10.39-15.22,17.47-30.65,9.06-48.45A37.26,37.26,0,0,0,229,738.22c-12.47-11.74-30.82-20.39-25.78-37.52,6.93-23.54,14.17-42.81,12.06-71.44-.89-12.07-1.11-24.27-4.32-34.14-.83-1.86-1.61-3.66-2.32-5.38-13.65,4.44-26.07,9.45-35.58,15C98.05,648.84,57.17,740,34.9,826.17,71.3,819.94,110.71,824.43,140.28,837.27Z"/><path class="cls-8" d="M507.44,1017.06q-.31-5.23-.95-10.45c-.14-1.16-.29-2.32-.46-3.47q-.5-3.48-1.11-6.94-.93-5.19-2.1-10.36t-2.54-10.28c-.9-3.42-1.87-6.82-2.88-10.2q-1-3.37-2.07-6.73c-.7-2.24-1.42-4.46-2.15-6.68-2.55-7.76-5.22-15.39-7.81-22.85-9.29-26.78-12.37-41.55-41.23-49.92-21.94-6.38-35-2.46-56.27,5.64-26,9.9-55.42,29.85-70-.94-.2-.42-.39-.85-.57-1.28l-.15-.37c-.14-.35-.27-.71-.4-1.08a2.83,2.83,0,0,1-.11-.31c-.16-.46-.32-.93-.46-1.4,0-.09-.05-.18-.08-.27-.12-.4-.24-.82-.35-1.23,0-.13-.06-.26-.1-.38-.12-.49-.24-1-.35-1.47l0-.05c-.12-.53-.23-1.07-.34-1.62l-.06-.32c-.09-.47-.17-.94-.26-1.41,0-.09,0-.18,0-.27-.1-.57-.19-1.15-.28-1.73h0c-3.48-23.54.71-56.27-26.38-54.56-34.57,2.18-78,67.55-98.31,90.94-.43.5-.86,1-1.28,1.49,2.14,29.08,13.42,78.34,34.93,82.92,21.73,4.63,41.58,9,63.39,28.29a60.39,60.39,0,0,1,4.88,4.84H507.67c0-.2,0-.39,0-.58C507.65,1021.71,507.57,1019.38,507.44,1017.06Z"/><path class="cls-7" d="M286.63,1019.77c-21.81-19.27-41.66-23.66-63.39-28.29-21.51-4.58-32.79-53.84-34.93-82.92,0-.3-.05-.59-.07-.89-2.1-30.89-5.78-45.79-26-59a147.32,147.32,0,0,0-22-11.39c-29.57-12.84-69-17.33-105.38-11.1C8.34,929,8.25,1024.61,8.25,1024.61H291.51A60.39,60.39,0,0,0,286.63,1019.77Z"/><path class="cls-7" d="M439.77,704.29c-15.38,1-37.72.41-59,3.24-25.71,3.42-49.88,11.78-58.29,33.74-13.11,34.2,28.57,26.9,46.9,44.84,21.52,21.06-.5,34.38-19.18,47.81-15.49,11.15-28.14,23.4-35.92,36.77h0c.09.58.18,1.16.28,1.73,0,.09,0,.18,0,.27.09.47.17.94.26,1.41l.06.32c.11.55.22,1.09.34,1.62l0,.05c.11.5.23,1,.35,1.47,0,.12.07.25.1.38.11.41.23.83.35,1.23,0,.09.05.18.08.27.14.47.3.94.46,1.4a2.83,2.83,0,0,0,.11.31c.13.37.26.73.4,1.08l.15.37c.18.43.37.86.57,1.28,14.6,30.79,44.06,10.84,70,.94,21.25-8.1,34.33-12,56.27-5.64,28.86,8.37,31.94,23.14,41.23,49.92,2.59,7.46,5.26,15.09,7.81,22.85.73,2.22,1.45,4.44,2.15,6.68s1.4,4.48,2.07,6.73c1,3.38,2,6.78,2.88,10.2s1.76,6.84,2.54,10.28,1.48,6.9,2.1,10.36q.61,3.46,1.11,6.94c.17,1.15.32,2.31.46,3.47q.63,5.22.95,10.45c.13,2.32.21,4.65.23,7,0,.19,0,.38,0,.58H723.28s3.05-157.81-60.6-288.87c-16.3-33.56-41.15-61-69.09-83.22l-1.06.06C607.48,696.12,454.94,703.34,439.77,704.29Z"/></g></g></svg>